<?xml version="1.0" encoding="UTF-8" standalone="no"?>
<!DOCTYPE svg PUBLIC "-//W3C//DTD SVG 1.1//EN"
 "http://www.w3.org/Graphics/SVG/1.1/DTD/svg11.dtd">
<!-- Generated by graphviz version 2.40.1 (20161225.0304)
 -->
<!-- Title: public.dataset_fields Pages: 1 -->
<svg width="1497pt" height="1349pt"
 viewBox="0.00 0.00 1496.50 1349.00" xmlns="http://www.w3.org/2000/svg" xmlns:xlink="http://www.w3.org/1999/xlink">
<g id="graph0" class="graph" transform="scale(1 1) rotate(0) translate(4 1345)">
<title>public.dataset_fields</title>
<polygon fill="#ffffff" stroke="transparent" points="-4,4 -4,-1345 1492.5,-1345 1492.5,4 -4,4"/>
<!-- public.dataset_fields -->
<g id="node1" class="node">
<title>public.dataset_fields</title>
<polygon fill="#efefef" stroke="transparent" points="892.5,-862.5 892.5,-897.5 1196.5,-897.5 1196.5,-862.5 892.5,-862.5"/>
<polygon fill="none" stroke="#000000" points="892.5,-862.5 892.5,-897.5 1196.5,-897.5 1196.5,-862.5 892.5,-862.5"/>
<text text-anchor="start" x="899.1922" y="-875.3" font-family="Arial Bold" font-size="18.00" fill="#000000">public.dataset_fields</text>
<text text-anchor="start" x="1062.2398" y="-875.3" font-family="Arial" font-size="14.00" fill="#000000">    </text>
<text text-anchor="start" x="1096.4446" y="-875.3" font-family="Arial" font-size="14.00" fill="#666666">[BASE TABLE]</text>
<polygon fill="none" stroke="#000000" points="892.5,-832.5 892.5,-862.5 1196.5,-862.5 1196.5,-832.5 892.5,-832.5"/>
<text text-anchor="start" x="899.5" y="-843.9" font-family="Arial" font-size="14.00" fill="#000000">uuid </text>
<text text-anchor="start" x="929.845" y="-843.9" font-family="Arial" font-size="14.00" fill="#666666">[uuid]</text>
<polygon fill="none" stroke="#000000" points="892.5,-802.5 892.5,-832.5 1196.5,-832.5 1196.5,-802.5 892.5,-802.5"/>
<text text-anchor="start" x="899.5" y="-813.9" font-family="Arial" font-size="14.00" fill="#000000">type </text>
<text text-anchor="start" x="929.8464" y="-813.9" font-family="Arial" font-size="14.00" fill="#666666">[text]</text>
<polygon fill="none" stroke="#000000" points="892.5,-772.5 892.5,-802.5 1196.5,-802.5 1196.5,-772.5 892.5,-772.5"/>
<text text-anchor="start" x="899.5" y="-783.9" font-family="Arial" font-size="14.00" fill="#000000">created_at </text>
<text text-anchor="start" x="969.528" y="-783.9" font-family="Arial" font-size="14.00" fill="#666666">[timestamp without time zone]</text>
<polygon fill="none" stroke="#000000" points="892.5,-742.5 892.5,-772.5 1196.5,-772.5 1196.5,-742.5 892.5,-742.5"/>
<text text-anchor="start" x="899.5" y="-753.9" font-family="Arial" font-size="14.00" fill="#000000">updated_at </text>
<text text-anchor="start" x="973.4326" y="-753.9" font-family="Arial" font-size="14.00" fill="#666666">[timestamp without time zone]</text>
<polygon fill="none" stroke="#000000" points="892.5,-712.5 892.5,-742.5 1196.5,-742.5 1196.5,-712.5 892.5,-712.5"/>
<text text-anchor="start" x="899.5" y="-723.9" font-family="Arial" font-size="14.00" fill="#000000">dataset_uuid </text>
<text text-anchor="start" x="983.5392" y="-723.9" font-family="Arial" font-size="14.00" fill="#666666">[uuid]</text>
<polygon fill="none" stroke="#000000" points="892.5,-682.5 892.5,-712.5 1196.5,-712.5 1196.5,-682.5 892.5,-682.5"/>
<text text-anchor="start" x="899.5" y="-693.9" font-family="Arial" font-size="14.00" fill="#000000">name </text>
<text text-anchor="start" x="938.399" y="-693.9" font-family="Arial" font-size="14.00" fill="#666666">[varchar(255)]</text>
<polygon fill="none" stroke="#000000" points="892.5,-652.5 892.5,-682.5 1196.5,-682.5 1196.5,-652.5 892.5,-652.5"/>
<text text-anchor="start" x="899.5" y="-663.9" font-family="Arial" font-size="14.00" fill="#000000">description </text>
<text text-anchor="start" x="971.068" y="-663.9" font-family="Arial" font-size="14.00" fill="#666666">[text]</text>
<polygon fill="none" stroke="#000000" stroke-width="3" points="891,-651.5 891,-899.5 1198,-899.5 1198,-651.5 891,-651.5"/>
</g>
<!-- public.datasets -->
<g id="node5" class="node">
<title>public.datasets</title>
<polygon fill="#efefef" stroke="transparent" points="876.5,-492.5 876.5,-527.5 1211.5,-527.5 1211.5,-492.5 876.5,-492.5"/>
<polygon fill="none" stroke="#000000" points="876.5,-492.5 876.5,-527.5 1211.5,-527.5 1211.5,-492.5 876.5,-492.5"/>
<text text-anchor="start" x="920.1968" y="-505.3" font-family="Arial Bold" font-size="18.00" fill="#000000">public.datasets</text>
<text text-anchor="start" x="1040.2352" y="-505.3" font-family="Arial" font-size="14.00" fill="#000000">    </text>
<text text-anchor="start" x="1074.44" y="-505.3" font-family="Arial" font-size="14.00" fill="#666666">[BASE TABLE]</text>
<polygon fill="none" stroke="#000000" points="876.5,-462.5 876.5,-492.5 1211.5,-492.5 1211.5,-462.5 876.5,-462.5"/>
<text text-anchor="start" x="883.5" y="-473.9" font-family="Arial" font-size="14.00" fill="#000000">uuid    </text>
<text text-anchor="start" x="944.1592" y="-473.9" font-family="Arial" font-size="14.00" fill="#666666">[uuid]</text>
<polygon fill="none" stroke="#000000" points="876.5,-432.5 876.5,-462.5 1211.5,-462.5 1211.5,-432.5 876.5,-432.5"/>
<text text-anchor="start" x="883.5" y="-443.9" font-family="Arial" font-size="14.00" fill="#000000">type    </text>
<text text-anchor="start" x="944.1606" y="-443.9" font-family="Arial" font-size="14.00" fill="#666666">[varchar(64)]</text>
<polygon fill="none" stroke="#000000" points="876.5,-402.5 876.5,-432.5 1211.5,-432.5 1211.5,-402.5 876.5,-402.5"/>
<text text-anchor="start" x="883.5" y="-413.9" font-family="Arial" font-size="14.00" fill="#000000">created_at    </text>
<text text-anchor="start" x="983.8422" y="-413.9" font-family="Arial" font-size="14.00" fill="#666666">[timestamp without time zone]</text>
<polygon fill="none" stroke="#000000" points="876.5,-372.5 876.5,-402.5 1211.5,-402.5 1211.5,-372.5 876.5,-372.5"/>
<text text-anchor="start" x="883.5" y="-383.9" font-family="Arial" font-size="14.00" fill="#000000">updated_at    </text>
<text text-anchor="start" x="987.7468" y="-383.9" font-family="Arial" font-size="14.00" fill="#666666">[timestamp without time zone]</text>
<polygon fill="none" stroke="#000000" points="876.5,-342.5 876.5,-372.5 1211.5,-372.5 1211.5,-342.5 876.5,-342.5"/>
<text text-anchor="start" x="883.5" y="-353.9" font-family="Arial" font-size="14.00" fill="#000000">namespace_uuid    </text>
<text text-anchor="start" x="1024.298" y="-353.9" font-family="Arial" font-size="14.00" fill="#666666">[uuid]</text>
<polygon fill="none" stroke="#000000" points="876.5,-312.5 876.5,-342.5 1211.5,-342.5 1211.5,-312.5 876.5,-312.5"/>
<text text-anchor="start" x="883.5" y="-323.9" font-family="Arial" font-size="14.00" fill="#000000">source_uuid    </text>
<text text-anchor="start" x="993.9502" y="-323.9" font-family="Arial" font-size="14.00" fill="#666666">[uuid]</text>
<polygon fill="none" stroke="#000000" points="876.5,-282.5 876.5,-312.5 1211.5,-312.5 1211.5,-282.5 876.5,-282.5"/>
<text text-anchor="start" x="883.5" y="-293.9" font-family="Arial" font-size="14.00" fill="#000000">name    </text>
<text text-anchor="start" x="952.7132" y="-293.9" font-family="Arial" font-size="14.00" fill="#666666">[varchar]</text>
<polygon fill="none" stroke="#000000" points="876.5,-252.5 876.5,-282.5 1211.5,-282.5 1211.5,-252.5 876.5,-252.5"/>
<text text-anchor="start" x="883.5" y="-263.9" font-family="Arial" font-size="14.00" fill="#000000">physical_name    </text>
<text text-anchor="start" x="1011.0568" y="-263.9" font-family="Arial" font-size="14.00" fill="#666666">[varchar]</text>
<polygon fill="none" stroke="#000000" points="876.5,-222.5 876.5,-252.5 1211.5,-252.5 1211.5,-222.5 876.5,-222.5"/>
<text text-anchor="start" x="883.5" y="-233.9" font-family="Arial" font-size="14.00" fill="#000000">description    </text>
<text text-anchor="start" x="985.3822" y="-233.9" font-family="Arial" font-size="14.00" fill="#666666">[text]</text>
<polygon fill="none" stroke="#000000" points="876.5,-192.5 876.5,-222.5 1211.5,-222.5 1211.5,-192.5 876.5,-192.5"/>
<text text-anchor="start" x="883.5" y="-203.9" font-family="Arial" font-size="14.00" fill="#000000">current_version_uuid    </text>
<text text-anchor="start" x="1048.399" y="-203.9" font-family="Arial" font-size="14.00" fill="#666666">[uuid]</text>
<polygon fill="none" stroke="#000000" points="876.5,-162.5 876.5,-192.5 1211.5,-192.5 1211.5,-162.5 876.5,-162.5"/>
<text text-anchor="start" x="883.371" y="-173.9" font-family="Arial" font-size="14.00" fill="#000000">last_modified_at    </text>
<text text-anchor="start" x="1019.4888" y="-173.9" font-family="Arial" font-size="14.00" fill="#666666">[timestamp without time zone]</text>
<polygon fill="none" stroke="#000000" points="876.5,-132.5 876.5,-162.5 1211.5,-162.5 1211.5,-132.5 876.5,-132.5"/>
<text text-anchor="start" x="883.5" y="-143.9" font-family="Arial" font-size="14.00" fill="#000000">namespace_name    </text>
<text text-anchor="start" x="1032.852" y="-143.9" font-family="Arial" font-size="14.00" fill="#666666">[varchar]</text>
<polygon fill="none" stroke="#000000" points="876.5,-102.5 876.5,-132.5 1211.5,-132.5 1211.5,-102.5 876.5,-102.5"/>
<text text-anchor="start" x="883.5" y="-113.9" font-family="Arial" font-size="14.00" fill="#000000">source_name    </text>
<text text-anchor="start" x="1002.5042" y="-113.9" font-family="Arial" font-size="14.00" fill="#666666">[varchar]</text>
<polygon fill="none" stroke="#000000" points="876.5,-72.5 876.5,-102.5 1211.5,-102.5 1211.5,-72.5 876.5,-72.5"/>
<text text-anchor="start" x="883.5" y="-83.9" font-family="Arial" font-size="14.00" fill="#000000">is_deleted    </text>
<text text-anchor="start" x="981.5042" y="-83.9" font-family="Arial" font-size="14.00" fill="#666666">[boolean]</text>
<polygon fill="none" stroke="#000000" points="876.5,-42.5 876.5,-72.5 1211.5,-72.5 1211.5,-42.5 876.5,-42.5"/>
<text text-anchor="start" x="883.5" y="-53.9" font-family="Arial" font-size="14.00" fill="#000000">is_hidden    </text>
<text text-anchor="start" x="977.6136" y="-53.9" font-family="Arial" font-size="14.00" fill="#666666">[boolean]</text>
</g>
<!-- public.dataset_fields&#45;&gt;public.datasets -->
<g id="edge5" class="edge">
<title>public.dataset_fields:dataset_uuid&#45;&gt;public.datasets:uuid</title>
<path fill="none" stroke="#000000" d="M882.5012,-726.4093C841.4712,-716.6753 859.2563,-644.2064 892.5,-607 987.5634,-500.605 1116.4366,-677.395 1211.5,-571 1239.1877,-540.012 1253.0556,-477.5 1211.5,-477.5"/>
<polygon fill="#000000" stroke="#000000" points="882.559,-726.4155 892.012,-731.9735 887.5295,-726.9578 892.5,-727.5 892.5,-727.5 892.5,-727.5 887.5295,-726.9578 892.988,-723.0265 882.559,-726.4155 882.559,-726.4155"/>
<text text-anchor="start" x="613.3695" y="-737.5" font-family="Arial" font-size="10.00" fill="#000000">FOREIGN KEY (dataset_uuid) REFERENCES datasets(uuid)</text>
</g>
<!-- public.dataset_versions_field_mapping -->
<g id="node2" class="node">
<title>public.dataset_versions_field_mapping</title>
<polygon fill="#efefef" stroke="transparent" points="43.5,-1172.5 43.5,-1207.5 494.5,-1207.5 494.5,-1172.5 43.5,-1172.5"/>
<polygon fill="none" stroke="#000000" points="43.5,-1172.5 43.5,-1207.5 494.5,-1207.5 494.5,-1172.5 43.5,-1172.5"/>
<text text-anchor="start" x="50.1748" y="-1185.3" font-family="Arial Bold" font-size="18.00" fill="#000000">public.dataset_versions_field_mapping</text>
<text text-anchor="start" x="360.2572" y="-1185.3" font-family="Arial" font-size="14.00" fill="#000000">    </text>
<text text-anchor="start" x="394.462" y="-1185.3" font-family="Arial" font-size="14.00" fill="#666666">[BASE TABLE]</text>
<polygon fill="none" stroke="#000000" points="43.5,-1142.5 43.5,-1172.5 494.5,-1172.5 494.5,-1142.5 43.5,-1142.5"/>
<text text-anchor="start" x="50.5" y="-1153.9" font-family="Arial" font-size="14.00" fill="#000000">dataset_version_uuid    </text>
<text text-anchor="start" x="217.751" y="-1153.9" font-family="Arial" font-size="14.00" fill="#666666">[uuid]</text>
<polygon fill="none" stroke="#000000" points="43.5,-1112.5 43.5,-1142.5 494.5,-1142.5 494.5,-1112.5 43.5,-1112.5"/>
<text text-anchor="start" x="50.5" y="-1123.9" font-family="Arial" font-size="14.00" fill="#000000">dataset_field_uuid    </text>
<text text-anchor="start" x="198.305" y="-1123.9" font-family="Arial" font-size="14.00" fill="#666666">[uuid]</text>
</g>
<!-- public.dataset_versions_field_mapping&#45;&gt;public.dataset_fields -->
<g id="edge1" class="edge">
<title>public.dataset_versions_field_mapping:dataset_field_uuid&#45;&gt;public.dataset_fields:uuid</title>
<path fill="none" stroke="#000000" d="M504.7291,-1126.6473C557.1339,-1116.9578 500.6632,-1027.0811 546.5,-980 661.3681,-862.0135 727.8321,-847.5 892.5,-847.5"/>
<polygon fill="#000000" stroke="#000000" points="504.4654,-1126.6692 494.1261,-1123.0156 499.4827,-1127.0846 494.5,-1127.5 494.5,-1127.5 494.5,-1127.5 499.4827,-1127.0846 494.8739,-1131.9844 504.4654,-1126.6692 504.4654,-1126.6692"/>
<text text-anchor="start" x="334.4755" y="-1111.5" font-family="Arial" font-size="10.00" fill="#000000">FOREIGN KEY (dataset_field_uuid) REFERENCES dataset_fields(uuid)</text>
</g>
<!-- public.dataset_fields_tag_mapping -->
<g id="node3" class="node">
<title>public.dataset_fields_tag_mapping</title>
<polygon fill="#efefef" stroke="transparent" points="598.5,-1187.5 598.5,-1222.5 1016.5,-1222.5 1016.5,-1187.5 598.5,-1187.5"/>
<polygon fill="none" stroke="#000000" points="598.5,-1187.5 598.5,-1222.5 1016.5,-1222.5 1016.5,-1187.5 598.5,-1187.5"/>
<text text-anchor="start" x="605.17" y="-1200.3" font-family="Arial Bold" font-size="18.00" fill="#000000">public.dataset_fields_tag_mapping</text>
<text text-anchor="start" x="882.262" y="-1200.3" font-family="Arial" font-size="14.00" fill="#000000">    </text>
<text text-anchor="start" x="916.4668" y="-1200.3" font-family="Arial" font-size="14.00" fill="#666666">[BASE TABLE]</text>
<polygon fill="none" stroke="#000000" points="598.5,-1157.5 598.5,-1187.5 1016.5,-1187.5 1016.5,-1157.5 598.5,-1157.5"/>
<text text-anchor="start" x="605.5" y="-1168.9" font-family="Arial" font-size="14.00" fill="#000000">dataset_field_uuid    </text>
<text text-anchor="start" x="753.305" y="-1168.9" font-family="Arial" font-size="14.00" fill="#666666">[uuid]</text>
<polygon fill="none" stroke="#000000" points="598.5,-1127.5 598.5,-1157.5 1016.5,-1157.5 1016.5,-1127.5 598.5,-1127.5"/>
<text text-anchor="start" x="605.5" y="-1138.9" font-family="Arial" font-size="14.00" fill="#000000">tag_uuid    </text>
<text text-anchor="start" x="693.3976" y="-1138.9" font-family="Arial" font-size="14.00" fill="#666666">[uuid]</text>
<polygon fill="none" stroke="#000000" points="598.5,-1097.5 598.5,-1127.5 1016.5,-1127.5 1016.5,-1097.5 598.5,-1097.5"/>
<text text-anchor="start" x="605.5" y="-1108.9" font-family="Arial" font-size="14.00" fill="#000000">tagged_at    </text>
<text text-anchor="start" x="701.9642" y="-1108.9" font-family="Arial" font-size="14.00" fill="#666666">[timestamp without time zone]</text>
</g>
<!-- public.dataset_fields_tag_mapping&#45;&gt;public.dataset_fields -->
<g id="edge2" class="edge">
<title>public.dataset_fields_tag_mapping:dataset_field_uuid&#45;&gt;public.dataset_fields:uuid</title>
<path fill="none" stroke="#000000" d="M1026.7917,-1171.3837C1064.1866,-1162.2576 1036.2283,-1099.138 1016.5,-1055 986.3172,-987.4722 922.6828,-1011.5278 892.5,-944 874.9987,-904.8444 849.6111,-847.5 892.5,-847.5"/>
<polygon fill="#000000" stroke="#000000" points="1026.4417,-1171.4216 1016.0147,-1168.0262 1021.4708,-1171.9608 1016.5,-1172.5 1016.5,-1172.5 1016.5,-1172.5 1021.4708,-1171.9608 1016.9853,-1176.9738 1026.4417,-1171.4216 1026.4417,-1171.4216"/>
<text text-anchor="start" x="1023.4755" y="-1182.5" font-family="Arial" font-size="10.00" fill="#000000">FOREIGN KEY (dataset_field_uuid) REFERENCES dataset_fields(uuid)</text>
</g>
<!-- public.column_lineage -->
<g id="node4" class="node">
<title>public.column_lineage</title>
<polygon fill="#efefef" stroke="transparent" points="1121.5,-1262.5 1121.5,-1297.5 1440.5,-1297.5 1440.5,-1262.5 1121.5,-1262.5"/>
<polygon fill="none" stroke="#000000" points="1121.5,-1262.5 1121.5,-1297.5 1440.5,-1297.5 1440.5,-1262.5 1121.5,-1262.5"/>
<text text-anchor="start" x="1128.1961" y="-1275.3" font-family="Arial Bold" font-size="18.00" fill="#000000">public.column_lineage</text>
<text text-anchor="start" x="1306.2359" y="-1275.3" font-family="Arial" font-size="14.00" fill="#000000">    </text>
<text text-anchor="start" x="1340.4407" y="-1275.3" font-family="Arial" font-size="14.00" fill="#666666">[BASE TABLE]</text>
<polygon fill="none" stroke="#000000" points="1121.5,-1232.5 1121.5,-1262.5 1440.5,-1262.5 1440.5,-1232.5 1121.5,-1232.5"/>
<text text-anchor="start" x="1128.5" y="-1243.9" font-family="Arial" font-size="14.00" fill="#000000">output_dataset_version_uuid    </text>
<text text-anchor="start" x="1342.4452" y="-1243.9" font-family="Arial" font-size="14.00" fill="#666666">[uuid]</text>
<polygon fill="none" stroke="#000000" points="1121.5,-1202.5 1121.5,-1232.5 1440.5,-1232.5 1440.5,-1202.5 1121.5,-1202.5"/>
<text text-anchor="start" x="1128.5" y="-1213.9" font-family="Arial" font-size="14.00" fill="#000000">output_dataset_field_uuid    </text>
<text text-anchor="start" x="1322.9992" y="-1213.9" font-family="Arial" font-size="14.00" fill="#666666">[uuid]</text>
<polygon fill="none" stroke="#000000" points="1121.5,-1172.5 1121.5,-1202.5 1440.5,-1202.5 1440.5,-1172.5 1121.5,-1172.5"/>
<text text-anchor="start" x="1128.5" y="-1183.9" font-family="Arial" font-size="14.00" fill="#000000">input_dataset_version_uuid    </text>
<text text-anchor="start" x="1333.8786" y="-1183.9" font-family="Arial" font-size="14.00" fill="#666666">[uuid]</text>
<polygon fill="none" stroke="#000000" points="1121.5,-1142.5 1121.5,-1172.5 1440.5,-1172.5 1440.5,-1142.5 1121.5,-1142.5"/>
<text text-anchor="start" x="1128.5" y="-1153.9" font-family="Arial" font-size="14.00" fill="#000000">input_dataset_field_uuid    </text>
<text text-anchor="start" x="1314.4326" y="-1153.9" font-family="Arial" font-size="14.00" fill="#666666">[uuid]</text>
<polygon fill="none" stroke="#000000" points="1121.5,-1112.5 1121.5,-1142.5 1440.5,-1142.5 1440.5,-1112.5 1121.5,-1112.5"/>
<text text-anchor="start" x="1128.5" y="-1123.9" font-family="Arial" font-size="14.00" fill="#000000">transformation_description    </text>
<text text-anchor="start" x="1327.6206" y="-1123.9" font-family="Arial" font-size="14.00" fill="#666666">[text]</text>
<polygon fill="none" stroke="#000000" points="1121.5,-1082.5 1121.5,-1112.5 1440.5,-1112.5 1440.5,-1082.5 1121.5,-1082.5"/>
<text text-anchor="start" x="1128.5" y="-1093.9" font-family="Arial" font-size="14.00" fill="#000000">transformation_type    </text>
<text text-anchor="start" x="1286.399" y="-1093.9" font-family="Arial" font-size="14.00" fill="#666666">[varchar(255)]</text>
<polygon fill="none" stroke="#000000" points="1121.5,-1052.5 1121.5,-1082.5 1440.5,-1082.5 1440.5,-1052.5 1121.5,-1052.5"/>
<text text-anchor="start" x="1128.5" y="-1063.9" font-family="Arial" font-size="14.00" fill="#000000">created_at    </text>
<text text-anchor="start" x="1228.8422" y="-1063.9" font-family="Arial" font-size="14.00" fill="#666666">[timestamp without time zone]</text>
<polygon fill="none" stroke="#000000" points="1121.5,-1022.5 1121.5,-1052.5 1440.5,-1052.5 1440.5,-1022.5 1121.5,-1022.5"/>
<text text-anchor="start" x="1128.5" y="-1033.9" font-family="Arial" font-size="14.00" fill="#000000">updated_at    </text>
<text text-anchor="start" x="1232.7468" y="-1033.9" font-family="Arial" font-size="14.00" fill="#666666">[timestamp without time zone]</text>
</g>
<!-- public.column_lineage&#45;&gt;public.dataset_fields -->
<g id="edge3" class="edge">
<title>public.column_lineage:input_dataset_field_uuid&#45;&gt;public.dataset_fields:uuid</title>
<path fill="none" stroke="#000000" d="M1111.1579,-1156.786C1046.0794,-1147.2157 1081.4553,-1043.6404 1121.5,-980 1141.1916,-948.7054 1176.8084,-975.2946 1196.5,-944 1219.3415,-907.6995 1239.3889,-847.5 1196.5,-847.5"/>
<polygon fill="#000000" stroke="#000000" points="1111.5237,-1156.8112 1121.19,-1161.9893 1116.5119,-1157.1556 1121.5,-1157.5 1121.5,-1157.5 1121.5,-1157.5 1116.5119,-1157.1556 1121.81,-1153.0107 1111.5237,-1156.8112 1111.5237,-1156.8112"/>
<text text-anchor="start" x="1128.8585" y="-1141.5" font-family="Arial" font-size="10.00" fill="#000000">FOREIGN KEY (input_dataset_field_uuid) REFERENCES dataset_fields(uuid)</text>
</g>
<!-- public.column_lineage&#45;&gt;public.dataset_fields -->
<g id="edge4" class="edge">
<title>public.column_lineage:output_dataset_field_uuid&#45;&gt;public.dataset_fields:uuid</title>
<path fill="none" stroke="#000000" d="M1111.4901,-1214.7586C1072.2084,-1191.1158 1095.3683,-1021.5294 1121.5,-980 1141.1916,-948.7054 1176.8084,-975.2946 1196.5,-944 1219.3415,-907.6995 1239.3889,-847.5 1196.5,-847.5"/>
<polygon fill="#000000" stroke="#000000" points="1111.8552,-1214.8585 1120.3113,-1221.8402 1116.6776,-1216.1792 1121.5,-1217.5 1121.5,-1217.5 1121.5,-1217.5 1116.6776,-1216.1792 1122.6887,-1213.1598 1111.8552,-1214.8585 1111.8552,-1214.8585"/>
<text text-anchor="start" x="1128.799" y="-1227.5" font-family="Arial" font-size="10.00" fill="#000000">FOREIGN KEY (output_dataset_field_uuid) REFERENCES dataset_fields(uuid)</text>
</g>
</g>
</svg>
