<?xml version="1.0" encoding="UTF-8" standalone="no"?>
<!DOCTYPE svg PUBLIC "-//W3C//DTD SVG 1.1//EN"
 "http://www.w3.org/Graphics/SVG/1.1/DTD/svg11.dtd">
<!-- Generated by graphviz version 2.40.1 (20161225.0304)
 -->
<!-- Title: public.dataset_versions Pages: 1 -->
<svg width="2297pt" height="1439pt"
 viewBox="0.00 0.00 2297.00 1439.00" xmlns="http://www.w3.org/2000/svg" xmlns:xlink="http://www.w3.org/1999/xlink">
<g id="graph0" class="graph" transform="scale(1 1) rotate(0) translate(4 1435)">
<title>public.dataset_versions</title>
<polygon fill="#ffffff" stroke="transparent" points="-4,4 -4,-1435 2293,-1435 2293,4 -4,4"/>
<!-- public.dataset_versions -->
<g id="node1" class="node">
<title>public.dataset_versions</title>
<polygon fill="#efefef" stroke="transparent" points="1238.5,-922.5 1238.5,-957.5 1567.5,-957.5 1567.5,-922.5 1238.5,-922.5"/>
<polygon fill="none" stroke="#000000" points="1238.5,-922.5 1238.5,-957.5 1567.5,-957.5 1567.5,-922.5 1238.5,-922.5"/>
<text text-anchor="start" x="1245.1912" y="-935.3" font-family="Arial Bold" font-size="18.00" fill="#000000">public.dataset_versions</text>
<text text-anchor="start" x="1433.2408" y="-935.3" font-family="Arial" font-size="14.00" fill="#000000">    </text>
<text text-anchor="start" x="1467.4456" y="-935.3" font-family="Arial" font-size="14.00" fill="#666666">[BASE TABLE]</text>
<polygon fill="none" stroke="#000000" points="1238.5,-892.5 1238.5,-922.5 1567.5,-922.5 1567.5,-892.5 1238.5,-892.5"/>
<text text-anchor="start" x="1245.5" y="-903.9" font-family="Arial" font-size="14.00" fill="#000000">uuid </text>
<text text-anchor="start" x="1275.845" y="-903.9" font-family="Arial" font-size="14.00" fill="#666666">[uuid]</text>
<polygon fill="none" stroke="#000000" points="1238.5,-862.5 1238.5,-892.5 1567.5,-892.5 1567.5,-862.5 1238.5,-862.5"/>
<text text-anchor="start" x="1245.5" y="-873.9" font-family="Arial" font-size="14.00" fill="#000000">created_at </text>
<text text-anchor="start" x="1315.528" y="-873.9" font-family="Arial" font-size="14.00" fill="#666666">[timestamp without time zone]</text>
<polygon fill="none" stroke="#000000" points="1238.5,-832.5 1238.5,-862.5 1567.5,-862.5 1567.5,-832.5 1238.5,-832.5"/>
<text text-anchor="start" x="1245.5" y="-843.9" font-family="Arial" font-size="14.00" fill="#000000">dataset_uuid </text>
<text text-anchor="start" x="1329.5392" y="-843.9" font-family="Arial" font-size="14.00" fill="#666666">[uuid]</text>
<polygon fill="none" stroke="#000000" points="1238.5,-802.5 1238.5,-832.5 1567.5,-832.5 1567.5,-802.5 1238.5,-802.5"/>
<text text-anchor="start" x="1245.5" y="-813.9" font-family="Arial" font-size="14.00" fill="#000000">version </text>
<text text-anchor="start" x="1294.5056" y="-813.9" font-family="Arial" font-size="14.00" fill="#666666">[uuid]</text>
<polygon fill="none" stroke="#000000" points="1238.5,-772.5 1238.5,-802.5 1567.5,-802.5 1567.5,-772.5 1238.5,-772.5"/>
<text text-anchor="start" x="1245.5" y="-783.9" font-family="Arial" font-size="14.00" fill="#000000">run_uuid </text>
<text text-anchor="start" x="1303.8534" y="-783.9" font-family="Arial" font-size="14.00" fill="#666666">[uuid]</text>
<polygon fill="none" stroke="#000000" points="1238.5,-742.5 1238.5,-772.5 1567.5,-772.5 1567.5,-742.5 1238.5,-742.5"/>
<text text-anchor="start" x="1245.5" y="-753.9" font-family="Arial" font-size="14.00" fill="#000000">fields </text>
<text text-anchor="start" x="1282.0596" y="-753.9" font-family="Arial" font-size="14.00" fill="#666666">[jsonb]</text>
<polygon fill="none" stroke="#000000" points="1238.5,-712.5 1238.5,-742.5 1567.5,-742.5 1567.5,-712.5 1238.5,-712.5"/>
<text text-anchor="start" x="1245.5" y="-723.9" font-family="Arial" font-size="14.00" fill="#000000">namespace_name </text>
<text text-anchor="start" x="1364.5378" y="-723.9" font-family="Arial" font-size="14.00" fill="#666666">[varchar]</text>
<polygon fill="none" stroke="#000000" points="1238.5,-682.5 1238.5,-712.5 1567.5,-712.5 1567.5,-682.5 1238.5,-682.5"/>
<text text-anchor="start" x="1245.5" y="-693.9" font-family="Arial" font-size="14.00" fill="#000000">dataset_name </text>
<text text-anchor="start" x="1338.0932" y="-693.9" font-family="Arial" font-size="14.00" fill="#666666">[varchar]</text>
<polygon fill="none" stroke="#000000" points="1238.5,-652.5 1238.5,-682.5 1567.5,-682.5 1567.5,-652.5 1238.5,-652.5"/>
<text text-anchor="start" x="1245.5" y="-663.9" font-family="Arial" font-size="14.00" fill="#000000">lifecycle_state </text>
<text text-anchor="start" x="1337.2952" y="-663.9" font-family="Arial" font-size="14.00" fill="#666666">[varchar(63)]</text>
<polygon fill="none" stroke="#000000" stroke-width="3" points="1236.5,-651.5 1236.5,-959.5 1568.5,-959.5 1568.5,-651.5 1236.5,-651.5"/>
</g>
<!-- public.datasets -->
<g id="node7" class="node">
<title>public.datasets</title>
<polygon fill="#efefef" stroke="transparent" points="1235.5,-492.5 1235.5,-527.5 1570.5,-527.5 1570.5,-492.5 1235.5,-492.5"/>
<polygon fill="none" stroke="#000000" points="1235.5,-492.5 1235.5,-527.5 1570.5,-527.5 1570.5,-492.5 1235.5,-492.5"/>
<text text-anchor="start" x="1279.1968" y="-505.3" font-family="Arial Bold" font-size="18.00" fill="#000000">public.datasets</text>
<text text-anchor="start" x="1399.2352" y="-505.3" font-family="Arial" font-size="14.00" fill="#000000">    </text>
<text text-anchor="start" x="1433.44" y="-505.3" font-family="Arial" font-size="14.00" fill="#666666">[BASE TABLE]</text>
<polygon fill="none" stroke="#000000" points="1235.5,-462.5 1235.5,-492.5 1570.5,-492.5 1570.5,-462.5 1235.5,-462.5"/>
<text text-anchor="start" x="1242.5" y="-473.9" font-family="Arial" font-size="14.00" fill="#000000">uuid    </text>
<text text-anchor="start" x="1303.1592" y="-473.9" font-family="Arial" font-size="14.00" fill="#666666">[uuid]</text>
<polygon fill="none" stroke="#000000" points="1235.5,-432.5 1235.5,-462.5 1570.5,-462.5 1570.5,-432.5 1235.5,-432.5"/>
<text text-anchor="start" x="1242.5" y="-443.9" font-family="Arial" font-size="14.00" fill="#000000">type    </text>
<text text-anchor="start" x="1303.1606" y="-443.9" font-family="Arial" font-size="14.00" fill="#666666">[varchar(64)]</text>
<polygon fill="none" stroke="#000000" points="1235.5,-402.5 1235.5,-432.5 1570.5,-432.5 1570.5,-402.5 1235.5,-402.5"/>
<text text-anchor="start" x="1242.5" y="-413.9" font-family="Arial" font-size="14.00" fill="#000000">created_at    </text>
<text text-anchor="start" x="1342.8422" y="-413.9" font-family="Arial" font-size="14.00" fill="#666666">[timestamp without time zone]</text>
<polygon fill="none" stroke="#000000" points="1235.5,-372.5 1235.5,-402.5 1570.5,-402.5 1570.5,-372.5 1235.5,-372.5"/>
<text text-anchor="start" x="1242.5" y="-383.9" font-family="Arial" font-size="14.00" fill="#000000">updated_at    </text>
<text text-anchor="start" x="1346.7468" y="-383.9" font-family="Arial" font-size="14.00" fill="#666666">[timestamp without time zone]</text>
<polygon fill="none" stroke="#000000" points="1235.5,-342.5 1235.5,-372.5 1570.5,-372.5 1570.5,-342.5 1235.5,-342.5"/>
<text text-anchor="start" x="1242.5" y="-353.9" font-family="Arial" font-size="14.00" fill="#000000">namespace_uuid    </text>
<text text-anchor="start" x="1383.298" y="-353.9" font-family="Arial" font-size="14.00" fill="#666666">[uuid]</text>
<polygon fill="none" stroke="#000000" points="1235.5,-312.5 1235.5,-342.5 1570.5,-342.5 1570.5,-312.5 1235.5,-312.5"/>
<text text-anchor="start" x="1242.5" y="-323.9" font-family="Arial" font-size="14.00" fill="#000000">source_uuid    </text>
<text text-anchor="start" x="1352.9502" y="-323.9" font-family="Arial" font-size="14.00" fill="#666666">[uuid]</text>
<polygon fill="none" stroke="#000000" points="1235.5,-282.5 1235.5,-312.5 1570.5,-312.5 1570.5,-282.5 1235.5,-282.5"/>
<text text-anchor="start" x="1242.5" y="-293.9" font-family="Arial" font-size="14.00" fill="#000000">name    </text>
<text text-anchor="start" x="1311.7132" y="-293.9" font-family="Arial" font-size="14.00" fill="#666666">[varchar]</text>
<polygon fill="none" stroke="#000000" points="1235.5,-252.5 1235.5,-282.5 1570.5,-282.5 1570.5,-252.5 1235.5,-252.5"/>
<text text-anchor="start" x="1242.5" y="-263.9" font-family="Arial" font-size="14.00" fill="#000000">physical_name    </text>
<text text-anchor="start" x="1370.0568" y="-263.9" font-family="Arial" font-size="14.00" fill="#666666">[varchar]</text>
<polygon fill="none" stroke="#000000" points="1235.5,-222.5 1235.5,-252.5 1570.5,-252.5 1570.5,-222.5 1235.5,-222.5"/>
<text text-anchor="start" x="1242.5" y="-233.9" font-family="Arial" font-size="14.00" fill="#000000">description    </text>
<text text-anchor="start" x="1344.3822" y="-233.9" font-family="Arial" font-size="14.00" fill="#666666">[text]</text>
<polygon fill="none" stroke="#000000" points="1235.5,-192.5 1235.5,-222.5 1570.5,-222.5 1570.5,-192.5 1235.5,-192.5"/>
<text text-anchor="start" x="1242.5" y="-203.9" font-family="Arial" font-size="14.00" fill="#000000">current_version_uuid    </text>
<text text-anchor="start" x="1407.399" y="-203.9" font-family="Arial" font-size="14.00" fill="#666666">[uuid]</text>
<polygon fill="none" stroke="#000000" points="1235.5,-162.5 1235.5,-192.5 1570.5,-192.5 1570.5,-162.5 1235.5,-162.5"/>
<text text-anchor="start" x="1242.371" y="-173.9" font-family="Arial" font-size="14.00" fill="#000000">last_modified_at    </text>
<text text-anchor="start" x="1378.4888" y="-173.9" font-family="Arial" font-size="14.00" fill="#666666">[timestamp without time zone]</text>
<polygon fill="none" stroke="#000000" points="1235.5,-132.5 1235.5,-162.5 1570.5,-162.5 1570.5,-132.5 1235.5,-132.5"/>
<text text-anchor="start" x="1242.5" y="-143.9" font-family="Arial" font-size="14.00" fill="#000000">namespace_name    </text>
<text text-anchor="start" x="1391.852" y="-143.9" font-family="Arial" font-size="14.00" fill="#666666">[varchar]</text>
<polygon fill="none" stroke="#000000" points="1235.5,-102.5 1235.5,-132.5 1570.5,-132.5 1570.5,-102.5 1235.5,-102.5"/>
<text text-anchor="start" x="1242.5" y="-113.9" font-family="Arial" font-size="14.00" fill="#000000">source_name    </text>
<text text-anchor="start" x="1361.5042" y="-113.9" font-family="Arial" font-size="14.00" fill="#666666">[varchar]</text>
<polygon fill="none" stroke="#000000" points="1235.5,-72.5 1235.5,-102.5 1570.5,-102.5 1570.5,-72.5 1235.5,-72.5"/>
<text text-anchor="start" x="1242.5" y="-83.9" font-family="Arial" font-size="14.00" fill="#000000">is_deleted    </text>
<text text-anchor="start" x="1340.5042" y="-83.9" font-family="Arial" font-size="14.00" fill="#666666">[boolean]</text>
<polygon fill="none" stroke="#000000" points="1235.5,-42.5 1235.5,-72.5 1570.5,-72.5 1570.5,-42.5 1235.5,-42.5"/>
<text text-anchor="start" x="1242.5" y="-53.9" font-family="Arial" font-size="14.00" fill="#000000">is_hidden    </text>
<text text-anchor="start" x="1336.6136" y="-53.9" font-family="Arial" font-size="14.00" fill="#666666">[boolean]</text>
</g>
<!-- public.dataset_versions&#45;&gt;public.datasets -->
<g id="edge7" class="edge">
<title>public.dataset_versions:dataset_uuid&#45;&gt;public.datasets:uuid</title>
<path fill="none" stroke="#000000" d="M1228.1243,-846.995C1073.9985,-831.7723 1074.5833,-477.5 1235.5,-477.5"/>
<polygon fill="#000000" stroke="#000000" points="1228.5118,-847.0138 1238.2812,-851.9947 1233.5059,-847.2569 1238.5,-847.5 1238.5,-847.5 1238.5,-847.5 1233.5059,-847.2569 1238.7188,-843.0053 1228.5118,-847.0138 1228.5118,-847.0138"/>
<text text-anchor="start" x="959.3695" y="-857.5" font-family="Arial" font-size="10.00" fill="#000000">FOREIGN KEY (dataset_uuid) REFERENCES datasets(uuid)</text>
</g>
<!-- public.stream_versions -->
<g id="node2" class="node">
<title>public.stream_versions</title>
<polygon fill="#efefef" stroke="transparent" points="43.5,-1247.5 43.5,-1282.5 368.5,-1282.5 368.5,-1247.5 43.5,-1247.5"/>
<polygon fill="none" stroke="#000000" points="43.5,-1247.5 43.5,-1282.5 368.5,-1282.5 368.5,-1247.5 43.5,-1247.5"/>
<text text-anchor="start" x="50.2063" y="-1260.3" font-family="Arial Bold" font-size="18.00" fill="#000000">public.stream_versions</text>
<text text-anchor="start" x="234.2257" y="-1260.3" font-family="Arial" font-size="14.00" fill="#000000">    </text>
<text text-anchor="start" x="268.4305" y="-1260.3" font-family="Arial" font-size="14.00" fill="#666666">[BASE TABLE]</text>
<polygon fill="none" stroke="#000000" points="43.5,-1217.5 43.5,-1247.5 368.5,-1247.5 368.5,-1217.5 43.5,-1217.5"/>
<text text-anchor="start" x="50.5" y="-1228.9" font-family="Arial" font-size="14.00" fill="#000000">dataset_version_uuid    </text>
<text text-anchor="start" x="217.751" y="-1228.9" font-family="Arial" font-size="14.00" fill="#666666">[uuid]</text>
<polygon fill="none" stroke="#000000" points="43.5,-1187.5 43.5,-1217.5 368.5,-1217.5 368.5,-1187.5 43.5,-1187.5"/>
<text text-anchor="start" x="50.5" y="-1198.9" font-family="Arial" font-size="14.00" fill="#000000">schema_location    </text>
<text text-anchor="start" x="189.73" y="-1198.9" font-family="Arial" font-size="14.00" fill="#666666">[varchar(255)]</text>
</g>
<!-- public.stream_versions&#45;&gt;public.dataset_versions -->
<g id="edge1" class="edge">
<title>public.stream_versions:dataset_version_uuid&#45;&gt;public.dataset_versions:uuid</title>
<path fill="none" stroke="#000000" d="M378.8942,-1231.7789C448.6295,-1221.1935 357.5126,-1096.7981 420.5,-1040 557.2572,-916.6808 1054.353,-907.5 1238.5,-907.5"/>
<polygon fill="#000000" stroke="#000000" points="378.476,-1231.8078 368.1885,-1228.0108 373.488,-1232.1539 368.5,-1232.5 368.5,-1232.5 368.5,-1232.5 373.488,-1232.1539 368.8115,-1236.9892 378.476,-1231.8078 378.476,-1231.8078"/>
<text text-anchor="start" x="195.0855" y="-1216.5" font-family="Arial" font-size="10.00" fill="#000000">FOREIGN KEY (dataset_version_uuid) REFERENCES dataset_versions(uuid)</text>
</g>
<!-- public.runs_input_mapping -->
<g id="node3" class="node">
<title>public.runs_input_mapping</title>
<polygon fill="#efefef" stroke="transparent" points="472.5,-1247.5 472.5,-1282.5 828.5,-1282.5 828.5,-1247.5 472.5,-1247.5"/>
<polygon fill="none" stroke="#000000" points="472.5,-1247.5 472.5,-1282.5 828.5,-1282.5 828.5,-1247.5 472.5,-1247.5"/>
<text text-anchor="start" x="479.1867" y="-1260.3" font-family="Arial Bold" font-size="18.00" fill="#000000">public.runs_input_mapping</text>
<text text-anchor="start" x="694.2453" y="-1260.3" font-family="Arial" font-size="14.00" fill="#000000">    </text>
<text text-anchor="start" x="728.4501" y="-1260.3" font-family="Arial" font-size="14.00" fill="#666666">[BASE TABLE]</text>
<polygon fill="none" stroke="#000000" points="472.5,-1217.5 472.5,-1247.5 828.5,-1247.5 828.5,-1217.5 472.5,-1217.5"/>
<text text-anchor="start" x="479.5" y="-1228.9" font-family="Arial" font-size="14.00" fill="#000000">run_uuid    </text>
<text text-anchor="start" x="568.1676" y="-1228.9" font-family="Arial" font-size="14.00" fill="#666666">[uuid]</text>
<polygon fill="none" stroke="#000000" points="472.5,-1187.5 472.5,-1217.5 828.5,-1217.5 828.5,-1187.5 472.5,-1187.5"/>
<text text-anchor="start" x="479.5" y="-1198.9" font-family="Arial" font-size="14.00" fill="#000000">dataset_version_uuid    </text>
<text text-anchor="start" x="646.751" y="-1198.9" font-family="Arial" font-size="14.00" fill="#666666">[uuid]</text>
</g>
<!-- public.runs_input_mapping&#45;&gt;public.dataset_versions -->
<g id="edge2" class="edge">
<title>public.runs_input_mapping:dataset_version_uuid&#45;&gt;public.dataset_versions:uuid</title>
<path fill="none" stroke="#000000" d="M838.5529,-1201.7484C897.1917,-1192.1092 830.6528,-1092.1306 880.5,-1040 997.7516,-917.3773 1068.8408,-907.5 1238.5,-907.5"/>
<polygon fill="#000000" stroke="#000000" points="838.4722,-1201.7544 828.1645,-1198.0125 833.4861,-1202.1272 828.5,-1202.5 828.5,-1202.5 828.5,-1202.5 833.4861,-1202.1272 828.8355,-1206.9875 838.4722,-1201.7544 838.4722,-1201.7544"/>
<text text-anchor="start" x="655.0855" y="-1186.5" font-family="Arial" font-size="10.00" fill="#000000">FOREIGN KEY (dataset_version_uuid) REFERENCES dataset_versions(uuid)</text>
</g>
<!-- public.dataset_versions_field_mapping -->
<g id="node4" class="node">
<title>public.dataset_versions_field_mapping</title>
<polygon fill="#efefef" stroke="transparent" points="933.5,-1247.5 933.5,-1282.5 1384.5,-1282.5 1384.5,-1247.5 933.5,-1247.5"/>
<polygon fill="none" stroke="#000000" points="933.5,-1247.5 933.5,-1282.5 1384.5,-1282.5 1384.5,-1247.5 933.5,-1247.5"/>
<text text-anchor="start" x="940.1748" y="-1260.3" font-family="Arial Bold" font-size="18.00" fill="#000000">public.dataset_versions_field_mapping</text>
<text text-anchor="start" x="1250.2572" y="-1260.3" font-family="Arial" font-size="14.00" fill="#000000">    </text>
<text text-anchor="start" x="1284.462" y="-1260.3" font-family="Arial" font-size="14.00" fill="#666666">[BASE TABLE]</text>
<polygon fill="none" stroke="#000000" points="933.5,-1217.5 933.5,-1247.5 1384.5,-1247.5 1384.5,-1217.5 933.5,-1217.5"/>
<text text-anchor="start" x="940.5" y="-1228.9" font-family="Arial" font-size="14.00" fill="#000000">dataset_version_uuid    </text>
<text text-anchor="start" x="1107.751" y="-1228.9" font-family="Arial" font-size="14.00" fill="#666666">[uuid]</text>
<polygon fill="none" stroke="#000000" points="933.5,-1187.5 933.5,-1217.5 1384.5,-1217.5 1384.5,-1187.5 933.5,-1187.5"/>
<text text-anchor="start" x="940.5" y="-1198.9" font-family="Arial" font-size="14.00" fill="#000000">dataset_field_uuid    </text>
<text text-anchor="start" x="1088.305" y="-1198.9" font-family="Arial" font-size="14.00" fill="#666666">[uuid]</text>
</g>
<!-- public.dataset_versions_field_mapping&#45;&gt;public.dataset_versions -->
<g id="edge3" class="edge">
<title>public.dataset_versions_field_mapping:dataset_version_uuid&#45;&gt;public.dataset_versions:uuid</title>
<path fill="none" stroke="#000000" d="M1394.4868,-1230.9709C1418.6636,-1222.162 1398.1513,-1177.162 1384.5,-1145 1349.2539,-1061.9615 1273.7461,-1087.0385 1238.5,-1004 1221.7426,-964.5203 1195.6111,-907.5 1238.5,-907.5"/>
<polygon fill="#000000" stroke="#000000" points="1394.3848,-1230.9864 1383.8189,-1228.0518 1389.4424,-1231.7432 1384.5,-1232.5 1384.5,-1232.5 1384.5,-1232.5 1389.4424,-1231.7432 1385.1811,-1236.9482 1394.3848,-1230.9864 1394.3848,-1230.9864"/>
<text text-anchor="start" x="1391.5855" y="-1242.5" font-family="Arial" font-size="10.00" fill="#000000">FOREIGN KEY (dataset_version_uuid) REFERENCES dataset_versions(uuid)</text>
</g>
<!-- public.column_lineage -->
<g id="node5" class="node">
<title>public.column_lineage</title>
<polygon fill="#efefef" stroke="transparent" points="1488.5,-1337.5 1488.5,-1372.5 1807.5,-1372.5 1807.5,-1337.5 1488.5,-1337.5"/>
<polygon fill="none" stroke="#000000" points="1488.5,-1337.5 1488.5,-1372.5 1807.5,-1372.5 1807.5,-1337.5 1488.5,-1337.5"/>
<text text-anchor="start" x="1495.1961" y="-1350.3" font-family="Arial Bold" font-size="18.00" fill="#000000">public.column_lineage</text>
<text text-anchor="start" x="1673.2359" y="-1350.3" font-family="Arial" font-size="14.00" fill="#000000">    </text>
<text text-anchor="start" x="1707.4407" y="-1350.3" font-family="Arial" font-size="14.00" fill="#666666">[BASE TABLE]</text>
<polygon fill="none" stroke="#000000" points="1488.5,-1307.5 1488.5,-1337.5 1807.5,-1337.5 1807.5,-1307.5 1488.5,-1307.5"/>
<text text-anchor="start" x="1495.5" y="-1318.9" font-family="Arial" font-size="14.00" fill="#000000">output_dataset_version_uuid    </text>
<text text-anchor="start" x="1709.4452" y="-1318.9" font-family="Arial" font-size="14.00" fill="#666666">[uuid]</text>
<polygon fill="none" stroke="#000000" points="1488.5,-1277.5 1488.5,-1307.5 1807.5,-1307.5 1807.5,-1277.5 1488.5,-1277.5"/>
<text text-anchor="start" x="1495.5" y="-1288.9" font-family="Arial" font-size="14.00" fill="#000000">output_dataset_field_uuid    </text>
<text text-anchor="start" x="1689.9992" y="-1288.9" font-family="Arial" font-size="14.00" fill="#666666">[uuid]</text>
<polygon fill="none" stroke="#000000" points="1488.5,-1247.5 1488.5,-1277.5 1807.5,-1277.5 1807.5,-1247.5 1488.5,-1247.5"/>
<text text-anchor="start" x="1495.5" y="-1258.9" font-family="Arial" font-size="14.00" fill="#000000">input_dataset_version_uuid    </text>
<text text-anchor="start" x="1700.8786" y="-1258.9" font-family="Arial" font-size="14.00" fill="#666666">[uuid]</text>
<polygon fill="none" stroke="#000000" points="1488.5,-1217.5 1488.5,-1247.5 1807.5,-1247.5 1807.5,-1217.5 1488.5,-1217.5"/>
<text text-anchor="start" x="1495.5" y="-1228.9" font-family="Arial" font-size="14.00" fill="#000000">input_dataset_field_uuid    </text>
<text text-anchor="start" x="1681.4326" y="-1228.9" font-family="Arial" font-size="14.00" fill="#666666">[uuid]</text>
<polygon fill="none" stroke="#000000" points="1488.5,-1187.5 1488.5,-1217.5 1807.5,-1217.5 1807.5,-1187.5 1488.5,-1187.5"/>
<text text-anchor="start" x="1495.5" y="-1198.9" font-family="Arial" font-size="14.00" fill="#000000">transformation_description    </text>
<text text-anchor="start" x="1694.6206" y="-1198.9" font-family="Arial" font-size="14.00" fill="#666666">[text]</text>
<polygon fill="none" stroke="#000000" points="1488.5,-1157.5 1488.5,-1187.5 1807.5,-1187.5 1807.5,-1157.5 1488.5,-1157.5"/>
<text text-anchor="start" x="1495.5" y="-1168.9" font-family="Arial" font-size="14.00" fill="#000000">transformation_type    </text>
<text text-anchor="start" x="1653.399" y="-1168.9" font-family="Arial" font-size="14.00" fill="#666666">[varchar(255)]</text>
<polygon fill="none" stroke="#000000" points="1488.5,-1127.5 1488.5,-1157.5 1807.5,-1157.5 1807.5,-1127.5 1488.5,-1127.5"/>
<text text-anchor="start" x="1495.5" y="-1138.9" font-family="Arial" font-size="14.00" fill="#000000">created_at    </text>
<text text-anchor="start" x="1595.8422" y="-1138.9" font-family="Arial" font-size="14.00" fill="#666666">[timestamp without time zone]</text>
<polygon fill="none" stroke="#000000" points="1488.5,-1097.5 1488.5,-1127.5 1807.5,-1127.5 1807.5,-1097.5 1488.5,-1097.5"/>
<text text-anchor="start" x="1495.5" y="-1108.9" font-family="Arial" font-size="14.00" fill="#000000">updated_at    </text>
<text text-anchor="start" x="1599.7468" y="-1108.9" font-family="Arial" font-size="14.00" fill="#666666">[timestamp without time zone]</text>
</g>
<!-- public.column_lineage&#45;&gt;public.dataset_versions -->
<g id="edge4" class="edge">
<title>public.column_lineage:input_dataset_version_uuid&#45;&gt;public.dataset_versions:uuid</title>
<path fill="none" stroke="#000000" d="M1478.529,-1259.2906C1446.3218,-1235.9518 1468.2523,-1092.1717 1488.5,-1055 1508.491,-1018.2995 1547.509,-1040.7005 1567.5,-1004 1588.0158,-966.3362 1610.3889,-907.5 1567.5,-907.5"/>
<polygon fill="#000000" stroke="#000000" points="1478.9809,-1259.436 1487.1212,-1266.7836 1483.7405,-1260.968 1488.5,-1262.5 1488.5,-1262.5 1488.5,-1262.5 1483.7405,-1260.968 1489.8788,-1258.2164 1478.9809,-1259.436 1478.9809,-1259.436"/>
<text text-anchor="start" x="1495.9685" y="-1272.5" font-family="Arial" font-size="10.00" fill="#000000">FOREIGN KEY (input_dataset_version_uuid) REFERENCES dataset_versions(uuid)</text>
</g>
<!-- public.column_lineage&#45;&gt;public.dataset_versions -->
<g id="edge5" class="edge">
<title>public.column_lineage:output_dataset_version_uuid&#45;&gt;public.dataset_versions:uuid</title>
<path fill="none" stroke="#000000" d="M1478.6766,-1320.2162C1432.8012,-1297.0267 1461.7866,-1104.0417 1488.5,-1055 1508.491,-1018.2995 1547.509,-1040.7005 1567.5,-1004 1588.0158,-966.3362 1610.3889,-907.5 1567.5,-907.5"/>
<polygon fill="#000000" stroke="#000000" points="1478.7598,-1320.2354 1487.481,-1326.8831 1483.6299,-1321.3677 1488.5,-1322.5 1488.5,-1322.5 1488.5,-1322.5 1483.6299,-1321.3677 1489.519,-1318.1169 1478.7598,-1320.2354 1478.7598,-1320.2354"/>
<text text-anchor="start" x="1100.909" y="-1332.5" font-family="Arial" font-size="10.00" fill="#000000">FOREIGN KEY (output_dataset_version_uuid) REFERENCES dataset_versions(uuid)</text>
</g>
<!-- public.dataset_facets -->
<g id="node6" class="node">
<title>public.dataset_facets</title>
<polygon fill="#efefef" stroke="transparent" points="1911.5,-1352.5 1911.5,-1387.5 2246.5,-1387.5 2246.5,-1352.5 1911.5,-1352.5"/>
<polygon fill="none" stroke="#000000" points="1911.5,-1352.5 1911.5,-1387.5 2246.5,-1387.5 2246.5,-1352.5 1911.5,-1352.5"/>
<text text-anchor="start" x="1930.6853" y="-1365.3" font-family="Arial Bold" font-size="18.00" fill="#000000">public.dataset_facets</text>
<text text-anchor="start" x="2099.7467" y="-1365.3" font-family="Arial" font-size="14.00" fill="#000000">    </text>
<text text-anchor="start" x="2133.9515" y="-1365.3" font-family="Arial" font-size="14.00" fill="#666666">[BASE TABLE]</text>
<polygon fill="none" stroke="#000000" points="1911.5,-1322.5 1911.5,-1352.5 2246.5,-1352.5 2246.5,-1322.5 1911.5,-1322.5"/>
<text text-anchor="start" x="1918.5" y="-1333.9" font-family="Arial" font-size="14.00" fill="#000000">created_at    </text>
<text text-anchor="start" x="2018.8422" y="-1333.9" font-family="Arial" font-size="14.00" fill="#666666">[timestamp with time zone]</text>
<polygon fill="none" stroke="#000000" points="1911.5,-1292.5 1911.5,-1322.5 2246.5,-1322.5 2246.5,-1292.5 1911.5,-1292.5"/>
<text text-anchor="start" x="1918.5" y="-1303.9" font-family="Arial" font-size="14.00" fill="#000000">dataset_uuid    </text>
<text text-anchor="start" x="2032.8534" y="-1303.9" font-family="Arial" font-size="14.00" fill="#666666">[uuid]</text>
<polygon fill="none" stroke="#000000" points="1911.5,-1262.5 1911.5,-1292.5 2246.5,-1292.5 2246.5,-1262.5 1911.5,-1262.5"/>
<text text-anchor="start" x="1918.5" y="-1273.9" font-family="Arial" font-size="14.00" fill="#000000">dataset_version_uuid    </text>
<text text-anchor="start" x="2085.751" y="-1273.9" font-family="Arial" font-size="14.00" fill="#666666">[uuid]</text>
<polygon fill="none" stroke="#000000" points="1911.5,-1232.5 1911.5,-1262.5 2246.5,-1262.5 2246.5,-1232.5 1911.5,-1232.5"/>
<text text-anchor="start" x="1918.5" y="-1243.9" font-family="Arial" font-size="14.00" fill="#000000">run_uuid    </text>
<text text-anchor="start" x="2007.1676" y="-1243.9" font-family="Arial" font-size="14.00" fill="#666666">[uuid]</text>
<polygon fill="none" stroke="#000000" points="1911.5,-1202.5 1911.5,-1232.5 2246.5,-1232.5 2246.5,-1202.5 1911.5,-1202.5"/>
<text text-anchor="start" x="1918.3703" y="-1213.9" font-family="Arial" font-size="14.00" fill="#000000">lineage_event_time    </text>
<text text-anchor="start" x="2073.9453" y="-1213.9" font-family="Arial" font-size="14.00" fill="#666666">[timestamp with time zone]</text>
<polygon fill="none" stroke="#000000" points="1911.5,-1172.5 1911.5,-1202.5 2246.5,-1202.5 2246.5,-1172.5 1911.5,-1172.5"/>
<text text-anchor="start" x="1918.5" y="-1183.9" font-family="Arial" font-size="14.00" fill="#000000">lineage_event_type    </text>
<text text-anchor="start" x="2074.0904" y="-1183.9" font-family="Arial" font-size="14.00" fill="#666666">[varchar(64)]</text>
<polygon fill="none" stroke="#000000" points="1911.5,-1142.5 1911.5,-1172.5 2246.5,-1172.5 2246.5,-1142.5 1911.5,-1142.5"/>
<text text-anchor="start" x="1918.5" y="-1153.9" font-family="Arial" font-size="14.00" fill="#000000">type    </text>
<text text-anchor="start" x="1979.1606" y="-1153.9" font-family="Arial" font-size="14.00" fill="#666666">[varchar(64)]</text>
<polygon fill="none" stroke="#000000" points="1911.5,-1112.5 1911.5,-1142.5 2246.5,-1142.5 2246.5,-1112.5 1911.5,-1112.5"/>
<text text-anchor="start" x="1918.5" y="-1123.9" font-family="Arial" font-size="14.00" fill="#000000">name    </text>
<text text-anchor="start" x="1987.7132" y="-1123.9" font-family="Arial" font-size="14.00" fill="#666666">[varchar(255)]</text>
<polygon fill="none" stroke="#000000" points="1911.5,-1082.5 1911.5,-1112.5 2246.5,-1112.5 2246.5,-1082.5 1911.5,-1082.5"/>
<text text-anchor="start" x="1918.5" y="-1093.9" font-family="Arial" font-size="14.00" fill="#000000">facet    </text>
<text text-anchor="start" x="1983.0512" y="-1093.9" font-family="Arial" font-size="14.00" fill="#666666">[jsonb]</text>
</g>
<!-- public.dataset_facets&#45;&gt;public.dataset_versions -->
<g id="edge6" class="edge">
<title>public.dataset_facets:dataset_version_uuid&#45;&gt;public.dataset_versions:uuid</title>
<path fill="none" stroke="#000000" d="M1901.4886,-1277.0005C1811.4678,-1267.3838 1925.2035,-1121.2198 1859.5,-1040 1769.8684,-929.2013 1710.0138,-907.5 1567.5,-907.5"/>
<polygon fill="#000000" stroke="#000000" points="1901.5124,-1277.0016 1911.2757,-1281.9944 1906.5062,-1277.2508 1911.5,-1277.5 1911.5,-1277.5 1911.5,-1277.5 1906.5062,-1277.2508 1911.7243,-1273.0056 1901.5124,-1277.0016 1901.5124,-1277.0016"/>
<text text-anchor="start" x="1918.5855" y="-1287.5" font-family="Arial" font-size="10.00" fill="#000000">FOREIGN KEY (dataset_version_uuid) REFERENCES dataset_versions(uuid)</text>
</g>
</g>
</svg>
