<?xml version="1.0" encoding="UTF-8" standalone="no"?>
<!DOCTYPE svg PUBLIC "-//W3C//DTD SVG 1.1//EN"
 "http://www.w3.org/Graphics/SVG/1.1/DTD/svg11.dtd">
<!-- Generated by graphviz version 2.40.1 (20161225.0304)
 -->
<!-- Title: public.job_facets Pages: 1 -->
<svg width="852pt" height="1102pt"
 viewBox="0.00 0.00 852.00 1102.00" xmlns="http://www.w3.org/2000/svg" xmlns:xlink="http://www.w3.org/1999/xlink">
<g id="graph0" class="graph" transform="scale(1 1) rotate(0) translate(4 1098)">
<title>public.job_facets</title>
<polygon fill="#ffffff" stroke="transparent" points="-4,4 -4,-1098 848,-1098 848,4 -4,4"/>
<!-- public.job_facets -->
<g id="node1" class="node">
<title>public.job_facets</title>
<polygon fill="#efefef" stroke="transparent" points="258.5,-1012.5 258.5,-1047.5 562.5,-1047.5 562.5,-1012.5 258.5,-1012.5"/>
<polygon fill="none" stroke="#000000" points="258.5,-1012.5 258.5,-1047.5 562.5,-1047.5 562.5,-1012.5 258.5,-1012.5"/>
<text text-anchor="start" x="279.6966" y="-1025.3" font-family="Arial Bold" font-size="18.00" fill="#000000">public.job_facets</text>
<text text-anchor="start" x="413.7354" y="-1025.3" font-family="Arial" font-size="14.00" fill="#000000">    </text>
<text text-anchor="start" x="447.9402" y="-1025.3" font-family="Arial" font-size="14.00" fill="#666666">[BASE TABLE]</text>
<polygon fill="none" stroke="#000000" points="258.5,-982.5 258.5,-1012.5 562.5,-1012.5 562.5,-982.5 258.5,-982.5"/>
<text text-anchor="start" x="265.5" y="-993.9" font-family="Arial" font-size="14.00" fill="#000000">created_at </text>
<text text-anchor="start" x="335.528" y="-993.9" font-family="Arial" font-size="14.00" fill="#666666">[timestamp with time zone]</text>
<polygon fill="none" stroke="#000000" points="258.5,-952.5 258.5,-982.5 562.5,-982.5 562.5,-952.5 258.5,-952.5"/>
<text text-anchor="start" x="265.5" y="-963.9" font-family="Arial" font-size="14.00" fill="#000000">job_uuid </text>
<text text-anchor="start" x="322.2994" y="-963.9" font-family="Arial" font-size="14.00" fill="#666666">[uuid]</text>
<polygon fill="none" stroke="#000000" points="258.5,-922.5 258.5,-952.5 562.5,-952.5 562.5,-922.5 258.5,-922.5"/>
<text text-anchor="start" x="265.5" y="-933.9" font-family="Arial" font-size="14.00" fill="#000000">run_uuid </text>
<text text-anchor="start" x="323.8534" y="-933.9" font-family="Arial" font-size="14.00" fill="#666666">[uuid]</text>
<polygon fill="none" stroke="#000000" points="258.5,-892.5 258.5,-922.5 562.5,-922.5 562.5,-892.5 258.5,-892.5"/>
<text text-anchor="start" x="265.0274" y="-903.9" font-family="Arial" font-size="14.00" fill="#000000">lineage_event_time </text>
<text text-anchor="start" x="390.2882" y="-903.9" font-family="Arial" font-size="14.00" fill="#666666">[timestamp with time zone]</text>
<polygon fill="none" stroke="#000000" points="258.5,-862.5 258.5,-892.5 562.5,-892.5 562.5,-862.5 258.5,-862.5"/>
<text text-anchor="start" x="265.5" y="-873.9" font-family="Arial" font-size="14.00" fill="#000000">lineage_event_type </text>
<text text-anchor="start" x="390.7762" y="-873.9" font-family="Arial" font-size="14.00" fill="#666666">[varchar(64)]</text>
<polygon fill="none" stroke="#000000" points="258.5,-832.5 258.5,-862.5 562.5,-862.5 562.5,-832.5 258.5,-832.5"/>
<text text-anchor="start" x="265.5" y="-843.9" font-family="Arial" font-size="14.00" fill="#000000">name </text>
<text text-anchor="start" x="304.399" y="-843.9" font-family="Arial" font-size="14.00" fill="#666666">[varchar(255)]</text>
<polygon fill="none" stroke="#000000" points="258.5,-802.5 258.5,-832.5 562.5,-832.5 562.5,-802.5 258.5,-802.5"/>
<text text-anchor="start" x="265.5" y="-813.9" font-family="Arial" font-size="14.00" fill="#000000">facet </text>
<text text-anchor="start" x="299.737" y="-813.9" font-family="Arial" font-size="14.00" fill="#666666">[jsonb]</text>
<polygon fill="none" stroke="#000000" stroke-width="3" points="257,-801.5 257,-1049.5 564,-1049.5 564,-801.5 257,-801.5"/>
</g>
<!-- public.jobs -->
<g id="node2" class="node">
<title>public.jobs</title>
<polygon fill="#efefef" stroke="transparent" points="43.5,-612.5 43.5,-647.5 346.5,-647.5 346.5,-612.5 43.5,-612.5"/>
<polygon fill="none" stroke="#000000" points="43.5,-612.5 43.5,-647.5 346.5,-647.5 346.5,-612.5 43.5,-612.5"/>
<text text-anchor="start" x="88.7081" y="-625.3" font-family="Arial Bold" font-size="18.00" fill="#000000">public.jobs</text>
<text text-anchor="start" x="173.7239" y="-625.3" font-family="Arial" font-size="14.00" fill="#000000">    </text>
<text text-anchor="start" x="207.9287" y="-625.3" font-family="Arial" font-size="14.00" fill="#666666">[BASE TABLE]</text>
<polygon fill="none" stroke="#000000" points="43.5,-582.5 43.5,-612.5 346.5,-612.5 346.5,-582.5 43.5,-582.5"/>
<text text-anchor="start" x="50.5" y="-593.9" font-family="Arial" font-size="14.00" fill="#000000">uuid    </text>
<text text-anchor="start" x="111.1592" y="-593.9" font-family="Arial" font-size="14.00" fill="#666666">[uuid]</text>
<polygon fill="none" stroke="#000000" points="43.5,-552.5 43.5,-582.5 346.5,-582.5 346.5,-552.5 43.5,-552.5"/>
<text text-anchor="start" x="50.5" y="-563.9" font-family="Arial" font-size="14.00" fill="#000000">type    </text>
<text text-anchor="start" x="111.1606" y="-563.9" font-family="Arial" font-size="14.00" fill="#666666">[varchar(64)]</text>
<polygon fill="none" stroke="#000000" points="43.5,-522.5 43.5,-552.5 346.5,-552.5 346.5,-522.5 43.5,-522.5"/>
<text text-anchor="start" x="50.5" y="-533.9" font-family="Arial" font-size="14.00" fill="#000000">created_at    </text>
<text text-anchor="start" x="150.8422" y="-533.9" font-family="Arial" font-size="14.00" fill="#666666">[timestamp without time zone]</text>
<polygon fill="none" stroke="#000000" points="43.5,-492.5 43.5,-522.5 346.5,-522.5 346.5,-492.5 43.5,-492.5"/>
<text text-anchor="start" x="50.3065" y="-503.9" font-family="Arial" font-size="14.00" fill="#000000">updated_at    </text>
<text text-anchor="start" x="154.5533" y="-503.9" font-family="Arial" font-size="14.00" fill="#666666">[timestamp without time zone]</text>
<polygon fill="none" stroke="#000000" points="43.5,-462.5 43.5,-492.5 346.5,-492.5 346.5,-462.5 43.5,-462.5"/>
<text text-anchor="start" x="50.5" y="-473.9" font-family="Arial" font-size="14.00" fill="#000000">namespace_uuid    </text>
<text text-anchor="start" x="191.298" y="-473.9" font-family="Arial" font-size="14.00" fill="#666666">[uuid]</text>
<polygon fill="none" stroke="#000000" points="43.5,-432.5 43.5,-462.5 346.5,-462.5 346.5,-432.5 43.5,-432.5"/>
<text text-anchor="start" x="50.5" y="-443.9" font-family="Arial" font-size="14.00" fill="#000000">simple_name    </text>
<text text-anchor="start" x="167.9348" y="-443.9" font-family="Arial" font-size="14.00" fill="#666666">[varchar]</text>
<polygon fill="none" stroke="#000000" points="43.5,-402.5 43.5,-432.5 346.5,-432.5 346.5,-402.5 43.5,-402.5"/>
<text text-anchor="start" x="50.5" y="-413.9" font-family="Arial" font-size="14.00" fill="#000000">description    </text>
<text text-anchor="start" x="152.3822" y="-413.9" font-family="Arial" font-size="14.00" fill="#666666">[text]</text>
<polygon fill="none" stroke="#000000" points="43.5,-372.5 43.5,-402.5 346.5,-402.5 346.5,-372.5 43.5,-372.5"/>
<text text-anchor="start" x="50.5" y="-383.9" font-family="Arial" font-size="14.00" fill="#000000">current_version_uuid    </text>
<text text-anchor="start" x="215.399" y="-383.9" font-family="Arial" font-size="14.00" fill="#666666">[uuid]</text>
<polygon fill="none" stroke="#000000" points="43.5,-342.5 43.5,-372.5 346.5,-372.5 346.5,-342.5 43.5,-342.5"/>
<text text-anchor="start" x="50.5" y="-353.9" font-family="Arial" font-size="14.00" fill="#000000">namespace_name    </text>
<text text-anchor="start" x="199.852" y="-353.9" font-family="Arial" font-size="14.00" fill="#666666">[varchar]</text>
<polygon fill="none" stroke="#000000" points="43.5,-312.5 43.5,-342.5 346.5,-342.5 346.5,-312.5 43.5,-312.5"/>
<text text-anchor="start" x="50.5" y="-323.9" font-family="Arial" font-size="14.00" fill="#000000">current_job_context_uuid    </text>
<text text-anchor="start" x="241.8674" y="-323.9" font-family="Arial" font-size="14.00" fill="#666666">[uuid]</text>
<polygon fill="none" stroke="#000000" points="43.5,-282.5 43.5,-312.5 346.5,-312.5 346.5,-282.5 43.5,-282.5"/>
<text text-anchor="start" x="50.5" y="-293.9" font-family="Arial" font-size="14.00" fill="#000000">current_location    </text>
<text text-anchor="start" x="184.2812" y="-293.9" font-family="Arial" font-size="14.00" fill="#666666">[varchar]</text>
<polygon fill="none" stroke="#000000" points="43.5,-252.5 43.5,-282.5 346.5,-282.5 346.5,-252.5 43.5,-252.5"/>
<text text-anchor="start" x="50.5" y="-263.9" font-family="Arial" font-size="14.00" fill="#000000">current_inputs    </text>
<text text-anchor="start" x="173.392" y="-263.9" font-family="Arial" font-size="14.00" fill="#666666">[jsonb]</text>
<polygon fill="none" stroke="#000000" points="43.5,-222.5 43.5,-252.5 346.5,-252.5 346.5,-222.5 43.5,-222.5"/>
<text text-anchor="start" x="50.5" y="-233.9" font-family="Arial" font-size="14.00" fill="#000000">symlink_target_uuid    </text>
<text text-anchor="start" x="209.1704" y="-233.9" font-family="Arial" font-size="14.00" fill="#666666">[uuid]</text>
<polygon fill="none" stroke="#000000" points="43.5,-192.5 43.5,-222.5 346.5,-222.5 346.5,-192.5 43.5,-192.5"/>
<text text-anchor="start" x="50.5" y="-203.9" font-family="Arial" font-size="14.00" fill="#000000">parent_job_uuid    </text>
<text text-anchor="start" x="185.0778" y="-203.9" font-family="Arial" font-size="14.00" fill="#666666">[uuid]</text>
<polygon fill="none" stroke="#000000" points="43.5,-162.5 43.5,-192.5 346.5,-192.5 346.5,-162.5 43.5,-162.5"/>
<text text-anchor="start" x="50.5" y="-173.9" font-family="Arial" font-size="14.00" fill="#000000">parent_job_uuid_string    </text>
<text text-anchor="start" x="227.0834" y="-173.9" font-family="Arial" font-size="14.00" fill="#666666">[character(36)]</text>
<polygon fill="none" stroke="#000000" points="43.5,-132.5 43.5,-162.5 346.5,-162.5 346.5,-132.5 43.5,-132.5"/>
<text text-anchor="start" x="50.5" y="-143.9" font-family="Arial" font-size="14.00" fill="#000000">is_hidden    </text>
<text text-anchor="start" x="144.6136" y="-143.9" font-family="Arial" font-size="14.00" fill="#666666">[boolean]</text>
<polygon fill="none" stroke="#000000" points="43.5,-102.5 43.5,-132.5 346.5,-132.5 346.5,-102.5 43.5,-102.5"/>
<text text-anchor="start" x="50.5" y="-113.9" font-family="Arial" font-size="14.00" fill="#000000">name    </text>
<text text-anchor="start" x="119.7132" y="-113.9" font-family="Arial" font-size="14.00" fill="#666666">[varchar]</text>
<polygon fill="none" stroke="#000000" points="43.5,-72.5 43.5,-102.5 346.5,-102.5 346.5,-72.5 43.5,-72.5"/>
<text text-anchor="start" x="50.5" y="-83.9" font-family="Arial" font-size="14.00" fill="#000000">aliases    </text>
<text text-anchor="start" x="128.2658" y="-83.9" font-family="Arial" font-size="14.00" fill="#666666">[varchar[]]</text>
</g>
<!-- public.job_facets&#45;&gt;public.jobs -->
<g id="edge1" class="edge">
<title>public.job_facets:job_uuid&#45;&gt;public.jobs:uuid</title>
<path fill="none" stroke="#000000" d="M248.1922,-966.9296C168.9697,-957.6579 218.295,-837.4099 258.5,-757 280.3638,-713.2724 324.6362,-734.7276 346.5,-691 365.0842,-653.8316 388.0556,-597.5 346.5,-597.5"/>
<polygon fill="#000000" stroke="#000000" points="248.5153,-966.9474 258.2513,-971.9931 253.5076,-967.2237 258.5,-967.5 258.5,-967.5 258.5,-967.5 253.5076,-967.2237 258.7487,-963.0069 248.5153,-966.9474 248.5153,-966.9474"/>
<text text-anchor="start" x="18.8265" y="-977.5" font-family="Arial" font-size="10.00" fill="#000000">FOREIGN KEY (job_uuid) REFERENCES jobs(uuid)</text>
</g>
<!-- public.runs -->
<g id="node3" class="node">
<title>public.runs</title>
<polygon fill="#efefef" stroke="transparent" points="450.5,-642.5 450.5,-677.5 801.5,-677.5 801.5,-642.5 450.5,-642.5"/>
<polygon fill="none" stroke="#000000" points="450.5,-642.5 450.5,-677.5 801.5,-677.5 801.5,-642.5 450.5,-642.5"/>
<text text-anchor="start" x="518.7091" y="-655.3" font-family="Arial Bold" font-size="18.00" fill="#000000">public.runs</text>
<text text-anchor="start" x="605.7229" y="-655.3" font-family="Arial" font-size="14.00" fill="#000000">    </text>
<text text-anchor="start" x="639.9277" y="-655.3" font-family="Arial" font-size="14.00" fill="#666666">[BASE TABLE]</text>
<polygon fill="none" stroke="#000000" points="450.5,-612.5 450.5,-642.5 801.5,-642.5 801.5,-612.5 450.5,-612.5"/>
<text text-anchor="start" x="457.5" y="-623.9" font-family="Arial" font-size="14.00" fill="#000000">uuid    </text>
<text text-anchor="start" x="518.1592" y="-623.9" font-family="Arial" font-size="14.00" fill="#666666">[uuid]</text>
<polygon fill="none" stroke="#000000" points="450.5,-582.5 450.5,-612.5 801.5,-612.5 801.5,-582.5 450.5,-582.5"/>
<text text-anchor="start" x="457.5" y="-593.9" font-family="Arial" font-size="14.00" fill="#000000">created_at    </text>
<text text-anchor="start" x="557.8422" y="-593.9" font-family="Arial" font-size="14.00" fill="#666666">[timestamp without time zone]</text>
<polygon fill="none" stroke="#000000" points="450.5,-552.5 450.5,-582.5 801.5,-582.5 801.5,-552.5 450.5,-552.5"/>
<text text-anchor="start" x="457.5" y="-563.9" font-family="Arial" font-size="14.00" fill="#000000">updated_at    </text>
<text text-anchor="start" x="561.7468" y="-563.9" font-family="Arial" font-size="14.00" fill="#666666">[timestamp without time zone]</text>
<polygon fill="none" stroke="#000000" points="450.5,-522.5 450.5,-552.5 801.5,-552.5 801.5,-522.5 450.5,-522.5"/>
<text text-anchor="start" x="457.5" y="-533.9" font-family="Arial" font-size="14.00" fill="#000000">job_version_uuid    </text>
<text text-anchor="start" x="597.5112" y="-533.9" font-family="Arial" font-size="14.00" fill="#666666">[uuid]</text>
<polygon fill="none" stroke="#000000" points="450.5,-492.5 450.5,-522.5 801.5,-522.5 801.5,-492.5 450.5,-492.5"/>
<text text-anchor="start" x="457.5" y="-503.9" font-family="Arial" font-size="14.00" fill="#000000">run_args_uuid    </text>
<text text-anchor="start" x="581.176" y="-503.9" font-family="Arial" font-size="14.00" fill="#666666">[uuid]</text>
<polygon fill="none" stroke="#000000" points="450.5,-462.5 450.5,-492.5 801.5,-492.5 801.5,-462.5 450.5,-462.5"/>
<text text-anchor="start" x="457.2104" y="-473.9" font-family="Arial" font-size="14.00" fill="#000000">nominal_start_time    </text>
<text text-anchor="start" x="609.6494" y="-473.9" font-family="Arial" font-size="14.00" fill="#666666">[timestamp without time zone]</text>
<polygon fill="none" stroke="#000000" points="450.5,-432.5 450.5,-462.5 801.5,-462.5 801.5,-432.5 450.5,-432.5"/>
<text text-anchor="start" x="457.5" y="-443.9" font-family="Arial" font-size="14.00" fill="#000000">nominal_end_time    </text>
<text text-anchor="start" x="606.0624" y="-443.9" font-family="Arial" font-size="14.00" fill="#666666">[timestamp without time zone]</text>
<polygon fill="none" stroke="#000000" points="450.5,-402.5 450.5,-432.5 801.5,-432.5 801.5,-402.5 450.5,-402.5"/>
<text text-anchor="start" x="457.5" y="-413.9" font-family="Arial" font-size="14.00" fill="#000000">current_run_state    </text>
<text text-anchor="start" x="601.4018" y="-413.9" font-family="Arial" font-size="14.00" fill="#666666">[varchar(64)]</text>
<polygon fill="none" stroke="#000000" points="450.5,-372.5 450.5,-402.5 801.5,-402.5 801.5,-372.5 450.5,-372.5"/>
<text text-anchor="start" x="457.5" y="-383.9" font-family="Arial" font-size="14.00" fill="#000000">start_run_state_uuid    </text>
<text text-anchor="start" x="619.3036" y="-383.9" font-family="Arial" font-size="14.00" fill="#666666">[uuid]</text>
<polygon fill="none" stroke="#000000" points="450.5,-342.5 450.5,-372.5 801.5,-372.5 801.5,-342.5 450.5,-342.5"/>
<text text-anchor="start" x="457.5" y="-353.9" font-family="Arial" font-size="14.00" fill="#000000">end_run_state_uuid    </text>
<text text-anchor="start" x="615.427" y="-353.9" font-family="Arial" font-size="14.00" fill="#666666">[uuid]</text>
<polygon fill="none" stroke="#000000" points="450.5,-312.5 450.5,-342.5 801.5,-342.5 801.5,-312.5 450.5,-312.5"/>
<text text-anchor="start" x="457.5" y="-323.9" font-family="Arial" font-size="14.00" fill="#000000">external_id    </text>
<text text-anchor="start" x="560.1648" y="-323.9" font-family="Arial" font-size="14.00" fill="#666666">[varchar]</text>
<polygon fill="none" stroke="#000000" points="450.5,-282.5 450.5,-312.5 801.5,-312.5 801.5,-282.5 450.5,-282.5"/>
<text text-anchor="start" x="457.5" y="-293.9" font-family="Arial" font-size="14.00" fill="#000000">namespace_name    </text>
<text text-anchor="start" x="606.852" y="-293.9" font-family="Arial" font-size="14.00" fill="#666666">[varchar]</text>
<polygon fill="none" stroke="#000000" points="450.5,-252.5 450.5,-282.5 801.5,-282.5 801.5,-252.5 450.5,-252.5"/>
<text text-anchor="start" x="457.5" y="-263.9" font-family="Arial" font-size="14.00" fill="#000000">job_name    </text>
<text text-anchor="start" x="553.1676" y="-263.9" font-family="Arial" font-size="14.00" fill="#666666">[varchar]</text>
<polygon fill="none" stroke="#000000" points="450.5,-222.5 450.5,-252.5 801.5,-252.5 801.5,-222.5 450.5,-222.5"/>
<text text-anchor="start" x="457.5" y="-233.9" font-family="Arial" font-size="14.00" fill="#000000">location    </text>
<text text-anchor="start" x="539.939" y="-233.9" font-family="Arial" font-size="14.00" fill="#666666">[varchar]</text>
<polygon fill="none" stroke="#000000" points="450.5,-192.5 450.5,-222.5 801.5,-222.5 801.5,-192.5 450.5,-192.5"/>
<text text-anchor="start" x="457.5" y="-203.9" font-family="Arial" font-size="14.00" fill="#000000">transitioned_at    </text>
<text text-anchor="start" x="583.5112" y="-203.9" font-family="Arial" font-size="14.00" fill="#666666">[timestamp without time zone]</text>
<polygon fill="none" stroke="#000000" points="450.5,-162.5 450.5,-192.5 801.5,-192.5 801.5,-162.5 450.5,-162.5"/>
<text text-anchor="start" x="457.5" y="-173.9" font-family="Arial" font-size="14.00" fill="#000000">started_at    </text>
<text text-anchor="start" x="553.9502" y="-173.9" font-family="Arial" font-size="14.00" fill="#666666">[timestamp without time zone]</text>
<polygon fill="none" stroke="#000000" points="450.5,-132.5 450.5,-162.5 801.5,-162.5 801.5,-132.5 450.5,-132.5"/>
<text text-anchor="start" x="457.5" y="-143.9" font-family="Arial" font-size="14.00" fill="#000000">ended_at    </text>
<text text-anchor="start" x="550.0736" y="-143.9" font-family="Arial" font-size="14.00" fill="#666666">[timestamp without time zone]</text>
<polygon fill="none" stroke="#000000" points="450.5,-102.5 450.5,-132.5 801.5,-132.5 801.5,-102.5 450.5,-102.5"/>
<text text-anchor="start" x="457.5" y="-113.9" font-family="Arial" font-size="14.00" fill="#000000">job_context_uuid    </text>
<text text-anchor="start" x="597.5252" y="-113.9" font-family="Arial" font-size="14.00" fill="#666666">[uuid]</text>
<polygon fill="none" stroke="#000000" points="450.5,-72.5 450.5,-102.5 801.5,-102.5 801.5,-72.5 450.5,-72.5"/>
<text text-anchor="start" x="457.5" y="-83.9" font-family="Arial" font-size="14.00" fill="#000000">parent_run_uuid    </text>
<text text-anchor="start" x="593.6318" y="-83.9" font-family="Arial" font-size="14.00" fill="#666666">[uuid]</text>
<polygon fill="none" stroke="#000000" points="450.5,-42.5 450.5,-72.5 801.5,-72.5 801.5,-42.5 450.5,-42.5"/>
<text text-anchor="start" x="457.5" y="-53.9" font-family="Arial" font-size="14.00" fill="#000000">job_uuid    </text>
<text text-anchor="start" x="544.6136" y="-53.9" font-family="Arial" font-size="14.00" fill="#666666">[uuid]</text>
</g>
<!-- public.job_facets&#45;&gt;public.runs -->
<g id="edge2" class="edge">
<title>public.job_facets:run_uuid&#45;&gt;public.runs:uuid</title>
<path fill="none" stroke="#000000" d="M572.6349,-936.8148C639.7316,-927.2101 607.6331,-818.9144 562.5,-757 531.7002,-714.7484 481.2998,-763.2516 450.5,-721 426.0212,-687.4195 408.9444,-627.5 450.5,-627.5"/>
<polygon fill="#000000" stroke="#000000" points="572.4772,-936.8254 562.1964,-933.0102 567.4886,-937.1627 562.5,-937.5 562.5,-937.5 562.5,-937.5 567.4886,-937.1627 562.8036,-941.9898 572.4772,-936.8254 572.4772,-936.8254"/>
<text text-anchor="start" x="569.7165" y="-947.5" font-family="Arial" font-size="10.00" fill="#000000">FOREIGN KEY (run_uuid) REFERENCES runs(uuid)</text>
</g>
</g>
</svg>
