<?xml version="1.0" encoding="UTF-8" standalone="no"?>
<!DOCTYPE svg PUBLIC "-//W3C//DTD SVG 1.1//EN"
 "http://www.w3.org/Graphics/SVG/1.1/DTD/svg11.dtd">
<!-- Generated by graphviz version 2.40.1 (20161225.0304)
 -->
<!-- Title: public.tags Pages: 1 -->
<svg width="992pt" height="532pt"
 viewBox="0.00 0.00 991.50 532.00" xmlns="http://www.w3.org/2000/svg" xmlns:xlink="http://www.w3.org/1999/xlink">
<g id="graph0" class="graph" transform="scale(1 1) rotate(0) translate(4 528)">
<title>public.tags</title>
<polygon fill="#ffffff" stroke="transparent" points="-4,4 -4,-528 987.5,-528 987.5,4 -4,4"/>
<!-- public.tags -->
<g id="node1" class="node">
<title>public.tags</title>
<polygon fill="#efefef" stroke="transparent" points="344.5,-195.5 344.5,-230.5 617.5,-230.5 617.5,-195.5 344.5,-195.5"/>
<polygon fill="none" stroke="#000000" points="344.5,-195.5 344.5,-230.5 617.5,-230.5 617.5,-195.5 344.5,-195.5"/>
<text text-anchor="start" x="374.2041" y="-208.3" font-family="Arial Bold" font-size="18.00" fill="#000000">public.tags</text>
<text text-anchor="start" x="460.2279" y="-208.3" font-family="Arial" font-size="14.00" fill="#000000">    </text>
<text text-anchor="start" x="494.4327" y="-208.3" font-family="Arial" font-size="14.00" fill="#666666">[BASE TABLE]</text>
<polygon fill="none" stroke="#000000" points="344.5,-165.5 344.5,-195.5 617.5,-195.5 617.5,-165.5 344.5,-165.5"/>
<text text-anchor="start" x="351.5" y="-176.9" font-family="Arial" font-size="14.00" fill="#000000">uuid </text>
<text text-anchor="start" x="381.845" y="-176.9" font-family="Arial" font-size="14.00" fill="#666666">[uuid]</text>
<polygon fill="none" stroke="#000000" points="344.5,-135.5 344.5,-165.5 617.5,-165.5 617.5,-135.5 344.5,-135.5"/>
<text text-anchor="start" x="351.5" y="-146.9" font-family="Arial" font-size="14.00" fill="#000000">created_at </text>
<text text-anchor="start" x="421.528" y="-146.9" font-family="Arial" font-size="14.00" fill="#666666">[timestamp without time zone]</text>
<polygon fill="none" stroke="#000000" points="344.5,-105.5 344.5,-135.5 617.5,-135.5 617.5,-105.5 344.5,-105.5"/>
<text text-anchor="start" x="351.4636" y="-116.9" font-family="Arial" font-size="14.00" fill="#000000">updated_at </text>
<text text-anchor="start" x="425.3962" y="-116.9" font-family="Arial" font-size="14.00" fill="#666666">[timestamp without time zone]</text>
<polygon fill="none" stroke="#000000" points="344.5,-75.5 344.5,-105.5 617.5,-105.5 617.5,-75.5 344.5,-75.5"/>
<text text-anchor="start" x="351.5" y="-86.9" font-family="Arial" font-size="14.00" fill="#000000">name </text>
<text text-anchor="start" x="390.399" y="-86.9" font-family="Arial" font-size="14.00" fill="#666666">[varchar]</text>
<polygon fill="none" stroke="#000000" points="344.5,-45.5 344.5,-75.5 617.5,-75.5 617.5,-45.5 344.5,-45.5"/>
<text text-anchor="start" x="351.5" y="-56.9" font-family="Arial" font-size="14.00" fill="#000000">description </text>
<text text-anchor="start" x="423.068" y="-56.9" font-family="Arial" font-size="14.00" fill="#666666">[text]</text>
<polygon fill="none" stroke="#000000" stroke-width="3" points="342.5,-44.5 342.5,-232.5 618.5,-232.5 618.5,-44.5 342.5,-44.5"/>
</g>
<!-- public.datasets_tag_mapping -->
<g id="node2" class="node">
<title>public.datasets_tag_mapping</title>
<polygon fill="#efefef" stroke="transparent" points="43.5,-445.5 43.5,-480.5 418.5,-480.5 418.5,-445.5 43.5,-445.5"/>
<polygon fill="none" stroke="#000000" points="43.5,-445.5 43.5,-480.5 418.5,-480.5 418.5,-445.5 43.5,-445.5"/>
<text text-anchor="start" x="50.1746" y="-458.3" font-family="Arial Bold" font-size="18.00" fill="#000000">public.datasets_tag_mapping</text>
<text text-anchor="start" x="284.2574" y="-458.3" font-family="Arial" font-size="14.00" fill="#000000">    </text>
<text text-anchor="start" x="318.4622" y="-458.3" font-family="Arial" font-size="14.00" fill="#666666">[BASE TABLE]</text>
<polygon fill="none" stroke="#000000" points="43.5,-415.5 43.5,-445.5 418.5,-445.5 418.5,-415.5 43.5,-415.5"/>
<text text-anchor="start" x="50.5" y="-426.9" font-family="Arial" font-size="14.00" fill="#000000">dataset_uuid    </text>
<text text-anchor="start" x="164.8534" y="-426.9" font-family="Arial" font-size="14.00" fill="#666666">[uuid]</text>
<polygon fill="none" stroke="#000000" points="43.5,-385.5 43.5,-415.5 418.5,-415.5 418.5,-385.5 43.5,-385.5"/>
<text text-anchor="start" x="50.5" y="-396.9" font-family="Arial" font-size="14.00" fill="#000000">tag_uuid    </text>
<text text-anchor="start" x="138.3976" y="-396.9" font-family="Arial" font-size="14.00" fill="#666666">[uuid]</text>
<polygon fill="none" stroke="#000000" points="43.5,-355.5 43.5,-385.5 418.5,-385.5 418.5,-355.5 43.5,-355.5"/>
<text text-anchor="start" x="50.5" y="-366.9" font-family="Arial" font-size="14.00" fill="#000000">tagged_at    </text>
<text text-anchor="start" x="146.9642" y="-366.9" font-family="Arial" font-size="14.00" fill="#666666">[timestamp without time zone]</text>
</g>
<!-- public.datasets_tag_mapping&#45;&gt;public.tags -->
<g id="edge1" class="edge">
<title>public.datasets_tag_mapping:tag_uuid&#45;&gt;public.tags:uuid</title>
<path fill="none" stroke="#000000" d="M428.6378,-398.8923C453.6546,-389.6459 437.0299,-342.6208 418.5,-313 399.103,-281.993 363.897,-308.007 344.5,-277 321.754,-240.6396 301.6111,-180.5 344.5,-180.5"/>
<polygon fill="#000000" stroke="#000000" points="428.3766,-398.9336 417.7951,-396.0555 423.4383,-399.7168 418.5,-400.5 418.5,-400.5 418.5,-400.5 423.4383,-399.7168 419.2049,-404.9445 428.3766,-398.9336 428.3766,-398.9336"/>
<text text-anchor="start" x="425.2665" y="-410.5" font-family="Arial" font-size="10.00" fill="#000000">FOREIGN KEY (tag_uuid) REFERENCES tags(uuid)</text>
</g>
<!-- public.dataset_fields_tag_mapping -->
<g id="node3" class="node">
<title>public.dataset_fields_tag_mapping</title>
<polygon fill="#efefef" stroke="transparent" points="522.5,-445.5 522.5,-480.5 940.5,-480.5 940.5,-445.5 522.5,-445.5"/>
<polygon fill="none" stroke="#000000" points="522.5,-445.5 522.5,-480.5 940.5,-480.5 940.5,-445.5 522.5,-445.5"/>
<text text-anchor="start" x="529.17" y="-458.3" font-family="Arial Bold" font-size="18.00" fill="#000000">public.dataset_fields_tag_mapping</text>
<text text-anchor="start" x="806.262" y="-458.3" font-family="Arial" font-size="14.00" fill="#000000">    </text>
<text text-anchor="start" x="840.4668" y="-458.3" font-family="Arial" font-size="14.00" fill="#666666">[BASE TABLE]</text>
<polygon fill="none" stroke="#000000" points="522.5,-415.5 522.5,-445.5 940.5,-445.5 940.5,-415.5 522.5,-415.5"/>
<text text-anchor="start" x="529.5" y="-426.9" font-family="Arial" font-size="14.00" fill="#000000">dataset_field_uuid    </text>
<text text-anchor="start" x="677.305" y="-426.9" font-family="Arial" font-size="14.00" fill="#666666">[uuid]</text>
<polygon fill="none" stroke="#000000" points="522.5,-385.5 522.5,-415.5 940.5,-415.5 940.5,-385.5 522.5,-385.5"/>
<text text-anchor="start" x="529.5" y="-396.9" font-family="Arial" font-size="14.00" fill="#000000">tag_uuid    </text>
<text text-anchor="start" x="617.3976" y="-396.9" font-family="Arial" font-size="14.00" fill="#666666">[uuid]</text>
<polygon fill="none" stroke="#000000" points="522.5,-355.5 522.5,-385.5 940.5,-385.5 940.5,-355.5 522.5,-355.5"/>
<text text-anchor="start" x="529.5" y="-366.9" font-family="Arial" font-size="14.00" fill="#000000">tagged_at    </text>
<text text-anchor="start" x="625.9642" y="-366.9" font-family="Arial" font-size="14.00" fill="#666666">[timestamp without time zone]</text>
</g>
<!-- public.dataset_fields_tag_mapping&#45;&gt;public.tags -->
<g id="edge2" class="edge">
<title>public.dataset_fields_tag_mapping:tag_uuid&#45;&gt;public.tags:uuid</title>
<path fill="none" stroke="#000000" d="M512.3213,-398.8654C487.0769,-389.4693 502.6484,-341.7518 522.5,-313 548.1543,-275.8439 591.8457,-314.1561 617.5,-277 641.8683,-241.7064 660.3889,-180.5 617.5,-180.5"/>
<polygon fill="#000000" stroke="#000000" points="512.6265,-398.9143 521.7864,-404.9431 517.5633,-399.7072 522.5,-400.5 522.5,-400.5 522.5,-400.5 517.5633,-399.7072 523.2136,-396.0569 512.6265,-398.9143 512.6265,-398.9143"/>
<text text-anchor="start" x="529.2665" y="-384.5" font-family="Arial" font-size="10.00" fill="#000000">FOREIGN KEY (tag_uuid) REFERENCES tags(uuid)</text>
</g>
</g>
</svg>
