<?xml version="1.0" encoding="UTF-8" standalone="no"?>
<!DOCTYPE svg PUBLIC "-//W3C//DTD SVG 1.1//EN"
 "http://www.w3.org/Graphics/SVG/1.1/DTD/svg11.dtd">
<!-- Generated by graphviz version 2.40.1 (20161225.0304)
 -->
<!-- Title: public.jobs_fqn Pages: 1 -->
<svg width="361pt" height="315pt"
 viewBox="0.00 0.00 361.00 315.00" xmlns="http://www.w3.org/2000/svg" xmlns:xlink="http://www.w3.org/1999/xlink">
<g id="graph0" class="graph" transform="scale(1 1) rotate(0) translate(4 311)">
<title>public.jobs_fqn</title>
<polygon fill="#ffffff" stroke="transparent" points="-4,4 -4,-311 357,-311 357,4 -4,4"/>
<!-- public.jobs_fqn -->
<g id="node1" class="node">
<title>public.jobs_fqn</title>
<polygon fill="#efefef" stroke="transparent" points="46.5,-225.5 46.5,-260.5 307.5,-260.5 307.5,-225.5 46.5,-225.5"/>
<polygon fill="none" stroke="#000000" points="46.5,-225.5 46.5,-260.5 307.5,-260.5 307.5,-225.5 46.5,-225.5"/>
<text text-anchor="start" x="53.1977" y="-238.3" font-family="Arial Bold" font-size="18.00" fill="#000000">public.jobs_fqn</text>
<text text-anchor="start" x="173.2343" y="-238.3" font-family="Arial" font-size="14.00" fill="#000000">    </text>
<text text-anchor="start" x="207.4391" y="-238.3" font-family="Arial" font-size="14.00" fill="#666666">[BASE TABLE]</text>
<polygon fill="none" stroke="#000000" points="46.5,-195.5 46.5,-225.5 307.5,-225.5 307.5,-195.5 46.5,-195.5"/>
<text text-anchor="start" x="53.5" y="-206.9" font-family="Arial" font-size="14.00" fill="#000000">uuid </text>
<text text-anchor="start" x="83.845" y="-206.9" font-family="Arial" font-size="14.00" fill="#666666">[uuid]</text>
<polygon fill="none" stroke="#000000" points="46.5,-165.5 46.5,-195.5 307.5,-195.5 307.5,-165.5 46.5,-165.5"/>
<text text-anchor="start" x="53.5" y="-176.9" font-family="Arial" font-size="14.00" fill="#000000">namespace_uuid </text>
<text text-anchor="start" x="163.9838" y="-176.9" font-family="Arial" font-size="14.00" fill="#666666">[uuid]</text>
<polygon fill="none" stroke="#000000" points="46.5,-135.5 46.5,-165.5 307.5,-165.5 307.5,-135.5 46.5,-135.5"/>
<text text-anchor="start" x="53.5" y="-146.9" font-family="Arial" font-size="14.00" fill="#000000">namespace_name </text>
<text text-anchor="start" x="172.5378" y="-146.9" font-family="Arial" font-size="14.00" fill="#666666">[varchar]</text>
<polygon fill="none" stroke="#000000" points="46.5,-105.5 46.5,-135.5 307.5,-135.5 307.5,-105.5 46.5,-105.5"/>
<text text-anchor="start" x="53.5" y="-116.9" font-family="Arial" font-size="14.00" fill="#000000">parent_job_name </text>
<text text-anchor="start" x="166.3176" y="-116.9" font-family="Arial" font-size="14.00" fill="#666666">[varchar]</text>
<polygon fill="none" stroke="#000000" points="46.5,-75.5 46.5,-105.5 307.5,-105.5 307.5,-75.5 46.5,-75.5"/>
<text text-anchor="start" x="53.5" y="-86.9" font-family="Arial" font-size="14.00" fill="#000000">aliases </text>
<text text-anchor="start" x="100.9516" y="-86.9" font-family="Arial" font-size="14.00" fill="#666666">[varchar[]]</text>
<polygon fill="none" stroke="#000000" points="46.5,-45.5 46.5,-75.5 307.5,-75.5 307.5,-45.5 46.5,-45.5"/>
<text text-anchor="start" x="53.5" y="-56.9" font-family="Arial" font-size="14.00" fill="#000000">job_fqn </text>
<text text-anchor="start" x="103.3008" y="-56.9" font-family="Arial" font-size="14.00" fill="#666666">[varchar]</text>
<polygon fill="none" stroke="#000000" stroke-width="3" points="44.5,-44.5 44.5,-262.5 308.5,-262.5 308.5,-44.5 44.5,-44.5"/>
</g>
</g>
</svg>
