<?xml version="1.0" encoding="UTF-8" standalone="no"?>
<!DOCTYPE svg PUBLIC "-//W3C//DTD SVG 1.1//EN"
 "http://www.w3.org/Graphics/SVG/1.1/DTD/svg11.dtd">
<!-- Generated by graphviz version 2.40.1 (20161225.0304)
 -->
<!-- Title: public.jobs_view Pages: 1 -->
<svg width="373pt" height="675pt"
 viewBox="0.00 0.00 373.00 675.00" xmlns="http://www.w3.org/2000/svg" xmlns:xlink="http://www.w3.org/1999/xlink">
<g id="graph0" class="graph" transform="scale(1 1) rotate(0) translate(4 671)">
<title>public.jobs_view</title>
<polygon fill="#ffffff" stroke="transparent" points="-4,4 -4,-671 369,-671 369,4 -4,4"/>
<!-- public.jobs_view -->
<g id="node1" class="node">
<title>public.jobs_view</title>
<polygon fill="#efefef" stroke="transparent" points="46.5,-585.5 46.5,-620.5 319.5,-620.5 319.5,-585.5 46.5,-585.5"/>
<polygon fill="none" stroke="#000000" points="46.5,-585.5 46.5,-620.5 319.5,-620.5 319.5,-585.5 46.5,-585.5"/>
<text text-anchor="start" x="78.6095" y="-598.3" font-family="Arial Bold" font-size="18.00" fill="#000000">public.jobs_view</text>
<text text-anchor="start" x="209.6261" y="-598.3" font-family="Arial" font-size="14.00" fill="#000000">    </text>
<text text-anchor="start" x="243.8309" y="-598.3" font-family="Arial" font-size="14.00" fill="#666666">[VIEW]</text>
<polygon fill="none" stroke="#000000" points="46.5,-555.5 46.5,-585.5 319.5,-585.5 319.5,-555.5 46.5,-555.5"/>
<text text-anchor="start" x="53.5" y="-566.9" font-family="Arial" font-size="14.00" fill="#000000">uuid </text>
<text text-anchor="start" x="83.845" y="-566.9" font-family="Arial" font-size="14.00" fill="#666666">[uuid]</text>
<polygon fill="none" stroke="#000000" points="46.5,-525.5 46.5,-555.5 319.5,-555.5 319.5,-525.5 46.5,-525.5"/>
<text text-anchor="start" x="53.5" y="-536.9" font-family="Arial" font-size="14.00" fill="#000000">name </text>
<text text-anchor="start" x="92.399" y="-536.9" font-family="Arial" font-size="14.00" fill="#666666">[varchar]</text>
<polygon fill="none" stroke="#000000" points="46.5,-495.5 46.5,-525.5 319.5,-525.5 319.5,-495.5 46.5,-495.5"/>
<text text-anchor="start" x="53.5" y="-506.9" font-family="Arial" font-size="14.00" fill="#000000">namespace_name </text>
<text text-anchor="start" x="172.5378" y="-506.9" font-family="Arial" font-size="14.00" fill="#666666">[varchar]</text>
<polygon fill="none" stroke="#000000" points="46.5,-465.5 46.5,-495.5 319.5,-495.5 319.5,-465.5 46.5,-465.5"/>
<text text-anchor="start" x="53.5" y="-476.9" font-family="Arial" font-size="14.00" fill="#000000">simple_name </text>
<text text-anchor="start" x="140.6206" y="-476.9" font-family="Arial" font-size="14.00" fill="#666666">[varchar]</text>
<polygon fill="none" stroke="#000000" points="46.5,-435.5 46.5,-465.5 319.5,-465.5 319.5,-435.5 46.5,-435.5"/>
<text text-anchor="start" x="53.5" y="-446.9" font-family="Arial" font-size="14.00" fill="#000000">parent_job_uuid </text>
<text text-anchor="start" x="157.7636" y="-446.9" font-family="Arial" font-size="14.00" fill="#666666">[uuid]</text>
<polygon fill="none" stroke="#000000" points="46.5,-405.5 46.5,-435.5 319.5,-435.5 319.5,-405.5 46.5,-405.5"/>
<text text-anchor="start" x="53.5" y="-416.9" font-family="Arial" font-size="14.00" fill="#000000">parent_job_name </text>
<text text-anchor="start" x="166.3176" y="-416.9" font-family="Arial" font-size="14.00" fill="#666666">[text]</text>
<polygon fill="none" stroke="#000000" points="46.5,-375.5 46.5,-405.5 319.5,-405.5 319.5,-375.5 46.5,-375.5"/>
<text text-anchor="start" x="53.5" y="-386.9" font-family="Arial" font-size="14.00" fill="#000000">type </text>
<text text-anchor="start" x="83.8464" y="-386.9" font-family="Arial" font-size="14.00" fill="#666666">[varchar(64)]</text>
<polygon fill="none" stroke="#000000" points="46.5,-345.5 46.5,-375.5 319.5,-375.5 319.5,-345.5 46.5,-345.5"/>
<text text-anchor="start" x="53.5" y="-356.9" font-family="Arial" font-size="14.00" fill="#000000">created_at </text>
<text text-anchor="start" x="123.528" y="-356.9" font-family="Arial" font-size="14.00" fill="#666666">[timestamp without time zone]</text>
<polygon fill="none" stroke="#000000" points="46.5,-315.5 46.5,-345.5 319.5,-345.5 319.5,-315.5 46.5,-315.5"/>
<text text-anchor="start" x="53.4636" y="-326.9" font-family="Arial" font-size="14.00" fill="#000000">updated_at </text>
<text text-anchor="start" x="127.3962" y="-326.9" font-family="Arial" font-size="14.00" fill="#666666">[timestamp without time zone]</text>
<polygon fill="none" stroke="#000000" points="46.5,-285.5 46.5,-315.5 319.5,-315.5 319.5,-285.5 46.5,-285.5"/>
<text text-anchor="start" x="53.5" y="-296.9" font-family="Arial" font-size="14.00" fill="#000000">namespace_uuid </text>
<text text-anchor="start" x="163.9838" y="-296.9" font-family="Arial" font-size="14.00" fill="#666666">[uuid]</text>
<polygon fill="none" stroke="#000000" points="46.5,-255.5 46.5,-285.5 319.5,-285.5 319.5,-255.5 46.5,-255.5"/>
<text text-anchor="start" x="53.5" y="-266.9" font-family="Arial" font-size="14.00" fill="#000000">description </text>
<text text-anchor="start" x="125.068" y="-266.9" font-family="Arial" font-size="14.00" fill="#666666">[text]</text>
<polygon fill="none" stroke="#000000" points="46.5,-225.5 46.5,-255.5 319.5,-255.5 319.5,-225.5 46.5,-225.5"/>
<text text-anchor="start" x="53.5" y="-236.9" font-family="Arial" font-size="14.00" fill="#000000">current_version_uuid </text>
<text text-anchor="start" x="188.0848" y="-236.9" font-family="Arial" font-size="14.00" fill="#666666">[uuid]</text>
<polygon fill="none" stroke="#000000" points="46.5,-195.5 46.5,-225.5 319.5,-225.5 319.5,-195.5 46.5,-195.5"/>
<text text-anchor="start" x="53.5" y="-206.9" font-family="Arial" font-size="14.00" fill="#000000">current_job_context_uuid </text>
<text text-anchor="start" x="214.5532" y="-206.9" font-family="Arial" font-size="14.00" fill="#666666">[uuid]</text>
<polygon fill="none" stroke="#000000" points="46.5,-165.5 46.5,-195.5 319.5,-195.5 319.5,-165.5 46.5,-165.5"/>
<text text-anchor="start" x="53.5" y="-176.9" font-family="Arial" font-size="14.00" fill="#000000">current_location </text>
<text text-anchor="start" x="156.967" y="-176.9" font-family="Arial" font-size="14.00" fill="#666666">[varchar]</text>
<polygon fill="none" stroke="#000000" points="46.5,-135.5 46.5,-165.5 319.5,-165.5 319.5,-135.5 46.5,-135.5"/>
<text text-anchor="start" x="53.5" y="-146.9" font-family="Arial" font-size="14.00" fill="#000000">current_inputs </text>
<text text-anchor="start" x="146.0778" y="-146.9" font-family="Arial" font-size="14.00" fill="#666666">[jsonb]</text>
<polygon fill="none" stroke="#000000" points="46.5,-105.5 46.5,-135.5 319.5,-135.5 319.5,-105.5 46.5,-105.5"/>
<text text-anchor="start" x="53.5" y="-116.9" font-family="Arial" font-size="14.00" fill="#000000">symlink_target_uuid </text>
<text text-anchor="start" x="181.8562" y="-116.9" font-family="Arial" font-size="14.00" fill="#666666">[uuid]</text>
<polygon fill="none" stroke="#000000" points="46.5,-75.5 46.5,-105.5 319.5,-105.5 319.5,-75.5 46.5,-75.5"/>
<text text-anchor="start" x="53.5" y="-86.9" font-family="Arial" font-size="14.00" fill="#000000">parent_job_uuid_string </text>
<text text-anchor="start" x="199.7692" y="-86.9" font-family="Arial" font-size="14.00" fill="#666666">[character(36)]</text>
<polygon fill="none" stroke="#000000" points="46.5,-45.5 46.5,-75.5 319.5,-75.5 319.5,-45.5 46.5,-45.5"/>
<text text-anchor="start" x="53.5" y="-56.9" font-family="Arial" font-size="14.00" fill="#000000">aliases </text>
<text text-anchor="start" x="100.9516" y="-56.9" font-family="Arial" font-size="14.00" fill="#666666">[varchar[]]</text>
<polygon fill="none" stroke="#000000" stroke-width="3" points="44.5,-44.5 44.5,-622.5 320.5,-622.5 320.5,-44.5 44.5,-44.5"/>
</g>
</g>
</svg>
