<?xml version="1.0" encoding="UTF-8" standalone="no"?>
<!DOCTYPE svg PUBLIC "-//W3C//DTD SVG 1.1//EN"
 "http://www.w3.org/Graphics/SVG/1.1/DTD/svg11.dtd">
<!-- Generated by graphviz version 2.40.1 (20161225.0304)
 -->
<!-- Title: public.sources Pages: 1 -->
<svg width="666pt" height="952pt"
 viewBox="0.00 0.00 665.50 952.00" xmlns="http://www.w3.org/2000/svg" xmlns:xlink="http://www.w3.org/1999/xlink">
<g id="graph0" class="graph" transform="scale(1 1) rotate(0) translate(4 948)">
<title>public.sources</title>
<polygon fill="#ffffff" stroke="transparent" points="-4,4 -4,-948 661.5,-948 661.5,4 -4,4"/>
<!-- public.sources -->
<g id="node1" class="node">
<title>public.sources</title>
<polygon fill="#efefef" stroke="transparent" points="311,-255.5 311,-290.5 584,-290.5 584,-255.5 311,-255.5"/>
<polygon fill="none" stroke="#000000" points="311,-255.5 311,-290.5 584,-290.5 584,-255.5 311,-255.5"/>
<text text-anchor="start" x="326.206" y="-268.3" font-family="Arial Bold" font-size="18.00" fill="#000000">public.sources</text>
<text text-anchor="start" x="441.226" y="-268.3" font-family="Arial" font-size="14.00" fill="#000000">    </text>
<text text-anchor="start" x="475.4308" y="-268.3" font-family="Arial" font-size="14.00" fill="#666666">[BASE TABLE]</text>
<polygon fill="none" stroke="#000000" points="311,-225.5 311,-255.5 584,-255.5 584,-225.5 311,-225.5"/>
<text text-anchor="start" x="318" y="-236.9" font-family="Arial" font-size="14.00" fill="#000000">uuid </text>
<text text-anchor="start" x="348.345" y="-236.9" font-family="Arial" font-size="14.00" fill="#666666">[uuid]</text>
<polygon fill="none" stroke="#000000" points="311,-195.5 311,-225.5 584,-225.5 584,-195.5 311,-195.5"/>
<text text-anchor="start" x="318" y="-206.9" font-family="Arial" font-size="14.00" fill="#000000">type </text>
<text text-anchor="start" x="348.3464" y="-206.9" font-family="Arial" font-size="14.00" fill="#666666">[varchar(64)]</text>
<polygon fill="none" stroke="#000000" points="311,-165.5 311,-195.5 584,-195.5 584,-165.5 311,-165.5"/>
<text text-anchor="start" x="318" y="-176.9" font-family="Arial" font-size="14.00" fill="#000000">created_at </text>
<text text-anchor="start" x="388.028" y="-176.9" font-family="Arial" font-size="14.00" fill="#666666">[timestamp without time zone]</text>
<polygon fill="none" stroke="#000000" points="311,-135.5 311,-165.5 584,-165.5 584,-135.5 311,-135.5"/>
<text text-anchor="start" x="317.9636" y="-146.9" font-family="Arial" font-size="14.00" fill="#000000">updated_at </text>
<text text-anchor="start" x="391.8962" y="-146.9" font-family="Arial" font-size="14.00" fill="#666666">[timestamp without time zone]</text>
<polygon fill="none" stroke="#000000" points="311,-105.5 311,-135.5 584,-135.5 584,-105.5 311,-105.5"/>
<text text-anchor="start" x="318" y="-116.9" font-family="Arial" font-size="14.00" fill="#000000">name </text>
<text text-anchor="start" x="356.899" y="-116.9" font-family="Arial" font-size="14.00" fill="#666666">[varchar]</text>
<polygon fill="none" stroke="#000000" points="311,-75.5 311,-105.5 584,-105.5 584,-75.5 311,-75.5"/>
<text text-anchor="start" x="318" y="-86.9" font-family="Arial" font-size="14.00" fill="#000000">connection_url </text>
<text text-anchor="start" x="412.9158" y="-86.9" font-family="Arial" font-size="14.00" fill="#666666">[varchar]</text>
<polygon fill="none" stroke="#000000" points="311,-45.5 311,-75.5 584,-75.5 584,-45.5 311,-45.5"/>
<text text-anchor="start" x="318" y="-56.9" font-family="Arial" font-size="14.00" fill="#000000">description </text>
<text text-anchor="start" x="389.568" y="-56.9" font-family="Arial" font-size="14.00" fill="#666666">[text]</text>
<polygon fill="none" stroke="#000000" stroke-width="3" points="309,-44.5 309,-292.5 585,-292.5 585,-44.5 309,-44.5"/>
</g>
<!-- public.datasets -->
<g id="node2" class="node">
<title>public.datasets</title>
<polygon fill="#efefef" stroke="transparent" points="280,-865.5 280,-900.5 615,-900.5 615,-865.5 280,-865.5"/>
<polygon fill="none" stroke="#000000" points="280,-865.5 280,-900.5 615,-900.5 615,-865.5 280,-865.5"/>
<text text-anchor="start" x="323.6968" y="-878.3" font-family="Arial Bold" font-size="18.00" fill="#000000">public.datasets</text>
<text text-anchor="start" x="443.7352" y="-878.3" font-family="Arial" font-size="14.00" fill="#000000">    </text>
<text text-anchor="start" x="477.94" y="-878.3" font-family="Arial" font-size="14.00" fill="#666666">[BASE TABLE]</text>
<polygon fill="none" stroke="#000000" points="280,-835.5 280,-865.5 615,-865.5 615,-835.5 280,-835.5"/>
<text text-anchor="start" x="287" y="-846.9" font-family="Arial" font-size="14.00" fill="#000000">uuid    </text>
<text text-anchor="start" x="347.6592" y="-846.9" font-family="Arial" font-size="14.00" fill="#666666">[uuid]</text>
<polygon fill="none" stroke="#000000" points="280,-805.5 280,-835.5 615,-835.5 615,-805.5 280,-805.5"/>
<text text-anchor="start" x="287" y="-816.9" font-family="Arial" font-size="14.00" fill="#000000">type    </text>
<text text-anchor="start" x="347.6606" y="-816.9" font-family="Arial" font-size="14.00" fill="#666666">[varchar(64)]</text>
<polygon fill="none" stroke="#000000" points="280,-775.5 280,-805.5 615,-805.5 615,-775.5 280,-775.5"/>
<text text-anchor="start" x="287" y="-786.9" font-family="Arial" font-size="14.00" fill="#000000">created_at    </text>
<text text-anchor="start" x="387.3422" y="-786.9" font-family="Arial" font-size="14.00" fill="#666666">[timestamp without time zone]</text>
<polygon fill="none" stroke="#000000" points="280,-745.5 280,-775.5 615,-775.5 615,-745.5 280,-745.5"/>
<text text-anchor="start" x="287" y="-756.9" font-family="Arial" font-size="14.00" fill="#000000">updated_at    </text>
<text text-anchor="start" x="391.2468" y="-756.9" font-family="Arial" font-size="14.00" fill="#666666">[timestamp without time zone]</text>
<polygon fill="none" stroke="#000000" points="280,-715.5 280,-745.5 615,-745.5 615,-715.5 280,-715.5"/>
<text text-anchor="start" x="287" y="-726.9" font-family="Arial" font-size="14.00" fill="#000000">namespace_uuid    </text>
<text text-anchor="start" x="427.798" y="-726.9" font-family="Arial" font-size="14.00" fill="#666666">[uuid]</text>
<polygon fill="none" stroke="#000000" points="280,-685.5 280,-715.5 615,-715.5 615,-685.5 280,-685.5"/>
<text text-anchor="start" x="287" y="-696.9" font-family="Arial" font-size="14.00" fill="#000000">source_uuid    </text>
<text text-anchor="start" x="397.4502" y="-696.9" font-family="Arial" font-size="14.00" fill="#666666">[uuid]</text>
<polygon fill="none" stroke="#000000" points="280,-655.5 280,-685.5 615,-685.5 615,-655.5 280,-655.5"/>
<text text-anchor="start" x="287" y="-666.9" font-family="Arial" font-size="14.00" fill="#000000">name    </text>
<text text-anchor="start" x="356.2132" y="-666.9" font-family="Arial" font-size="14.00" fill="#666666">[varchar]</text>
<polygon fill="none" stroke="#000000" points="280,-625.5 280,-655.5 615,-655.5 615,-625.5 280,-625.5"/>
<text text-anchor="start" x="287" y="-636.9" font-family="Arial" font-size="14.00" fill="#000000">physical_name    </text>
<text text-anchor="start" x="414.5568" y="-636.9" font-family="Arial" font-size="14.00" fill="#666666">[varchar]</text>
<polygon fill="none" stroke="#000000" points="280,-595.5 280,-625.5 615,-625.5 615,-595.5 280,-595.5"/>
<text text-anchor="start" x="287" y="-606.9" font-family="Arial" font-size="14.00" fill="#000000">description    </text>
<text text-anchor="start" x="388.8822" y="-606.9" font-family="Arial" font-size="14.00" fill="#666666">[text]</text>
<polygon fill="none" stroke="#000000" points="280,-565.5 280,-595.5 615,-595.5 615,-565.5 280,-565.5"/>
<text text-anchor="start" x="287" y="-576.9" font-family="Arial" font-size="14.00" fill="#000000">current_version_uuid    </text>
<text text-anchor="start" x="451.899" y="-576.9" font-family="Arial" font-size="14.00" fill="#666666">[uuid]</text>
<polygon fill="none" stroke="#000000" points="280,-535.5 280,-565.5 615,-565.5 615,-535.5 280,-535.5"/>
<text text-anchor="start" x="286.871" y="-546.9" font-family="Arial" font-size="14.00" fill="#000000">last_modified_at    </text>
<text text-anchor="start" x="422.9888" y="-546.9" font-family="Arial" font-size="14.00" fill="#666666">[timestamp without time zone]</text>
<polygon fill="none" stroke="#000000" points="280,-505.5 280,-535.5 615,-535.5 615,-505.5 280,-505.5"/>
<text text-anchor="start" x="287" y="-516.9" font-family="Arial" font-size="14.00" fill="#000000">namespace_name    </text>
<text text-anchor="start" x="436.352" y="-516.9" font-family="Arial" font-size="14.00" fill="#666666">[varchar]</text>
<polygon fill="none" stroke="#000000" points="280,-475.5 280,-505.5 615,-505.5 615,-475.5 280,-475.5"/>
<text text-anchor="start" x="287" y="-486.9" font-family="Arial" font-size="14.00" fill="#000000">source_name    </text>
<text text-anchor="start" x="406.0042" y="-486.9" font-family="Arial" font-size="14.00" fill="#666666">[varchar]</text>
<polygon fill="none" stroke="#000000" points="280,-445.5 280,-475.5 615,-475.5 615,-445.5 280,-445.5"/>
<text text-anchor="start" x="287" y="-456.9" font-family="Arial" font-size="14.00" fill="#000000">is_deleted    </text>
<text text-anchor="start" x="385.0042" y="-456.9" font-family="Arial" font-size="14.00" fill="#666666">[boolean]</text>
<polygon fill="none" stroke="#000000" points="280,-415.5 280,-445.5 615,-445.5 615,-415.5 280,-415.5"/>
<text text-anchor="start" x="287" y="-426.9" font-family="Arial" font-size="14.00" fill="#000000">is_hidden    </text>
<text text-anchor="start" x="381.1136" y="-426.9" font-family="Arial" font-size="14.00" fill="#666666">[boolean]</text>
</g>
<!-- public.datasets&#45;&gt;public.sources -->
<g id="edge1" class="edge">
<title>public.datasets:source_uuid&#45;&gt;public.sources:uuid</title>
<path fill="none" stroke="#000000" d="M269.9597,-698.9245C179.7485,-669.5921 212.0478,-240.5 311,-240.5"/>
<polygon fill="#000000" stroke="#000000" points="270.1209,-698.9498 279.3024,-704.9456 275.0604,-699.7249 280,-700.5 280,-700.5 280,-700.5 275.0604,-699.7249 280.6976,-696.0544 270.1209,-698.9498 270.1209,-698.9498"/>
<text text-anchor="start" x="6.6575" y="-710.5" font-family="Arial" font-size="10.00" fill="#000000">FOREIGN KEY (source_uuid) REFERENCES sources(uuid)</text>
</g>
</g>
</svg>
