<?xml version="1.0" encoding="UTF-8" standalone="no"?>
<!DOCTYPE svg PUBLIC "-//W3C//DTD SVG 1.1//EN"
 "http://www.w3.org/Graphics/SVG/1.1/DTD/svg11.dtd">
<!-- Generated by graphviz version 2.40.1 (20161225.0304)
 -->
<!-- Title: public.namespace_ownerships Pages: 1 -->
<svg width="994pt" height="652pt"
 viewBox="0.00 0.00 994.00 652.00" xmlns="http://www.w3.org/2000/svg" xmlns:xlink="http://www.w3.org/1999/xlink">
<g id="graph0" class="graph" transform="scale(1 1) rotate(0) translate(4 648)">
<title>public.namespace_ownerships</title>
<polygon fill="#ffffff" stroke="transparent" points="-4,4 -4,-648 990,-648 990,4 -4,4"/>
<!-- public.namespace_ownerships -->
<g id="node1" class="node">
<title>public.namespace_ownerships</title>
<polygon fill="#efefef" stroke="transparent" points="324,-562.5 324,-597.5 711,-597.5 711,-562.5 324,-562.5"/>
<polygon fill="none" stroke="#000000" points="324,-562.5 324,-597.5 711,-597.5 711,-562.5 324,-562.5"/>
<text text-anchor="start" x="330.6878" y="-575.3" font-family="Arial Bold" font-size="18.00" fill="#000000">public.namespace_ownerships</text>
<text text-anchor="start" x="576.7442" y="-575.3" font-family="Arial" font-size="14.00" fill="#000000">    </text>
<text text-anchor="start" x="610.949" y="-575.3" font-family="Arial" font-size="14.00" fill="#666666">[BASE TABLE]</text>
<polygon fill="none" stroke="#000000" points="324,-532.5 324,-562.5 711,-562.5 711,-532.5 324,-532.5"/>
<text text-anchor="start" x="331" y="-543.9" font-family="Arial" font-size="14.00" fill="#000000">uuid </text>
<text text-anchor="start" x="361.345" y="-543.9" font-family="Arial" font-size="14.00" fill="#666666">[uuid]</text>
<polygon fill="none" stroke="#000000" points="324,-502.5 324,-532.5 711,-532.5 711,-502.5 324,-502.5"/>
<text text-anchor="start" x="331" y="-513.9" font-family="Arial" font-size="14.00" fill="#000000">started_at </text>
<text text-anchor="start" x="397.136" y="-513.9" font-family="Arial" font-size="14.00" fill="#666666">[timestamp without time zone]</text>
<polygon fill="none" stroke="#000000" points="324,-472.5 324,-502.5 711,-502.5 711,-472.5 324,-472.5"/>
<text text-anchor="start" x="331" y="-483.9" font-family="Arial" font-size="14.00" fill="#000000">ended_at </text>
<text text-anchor="start" x="393.2594" y="-483.9" font-family="Arial" font-size="14.00" fill="#666666">[timestamp without time zone]</text>
<polygon fill="none" stroke="#000000" points="324,-442.5 324,-472.5 711,-472.5 711,-442.5 324,-442.5"/>
<text text-anchor="start" x="331" y="-453.9" font-family="Arial" font-size="14.00" fill="#000000">namespace_uuid </text>
<text text-anchor="start" x="441.4838" y="-453.9" font-family="Arial" font-size="14.00" fill="#666666">[uuid]</text>
<polygon fill="none" stroke="#000000" points="324,-412.5 324,-442.5 711,-442.5 711,-412.5 324,-412.5"/>
<text text-anchor="start" x="331" y="-423.9" font-family="Arial" font-size="14.00" fill="#000000">owner_uuid </text>
<text text-anchor="start" x="407.2426" y="-423.9" font-family="Arial" font-size="14.00" fill="#666666">[uuid]</text>
<polygon fill="none" stroke="#000000" stroke-width="3" points="322,-411.5 322,-599.5 712,-599.5 712,-411.5 322,-411.5"/>
</g>
<!-- public.namespaces -->
<g id="node2" class="node">
<title>public.namespaces</title>
<polygon fill="#efefef" stroke="transparent" points="164,-252.5 164,-287.5 467,-287.5 467,-252.5 164,-252.5"/>
<polygon fill="none" stroke="#000000" points="164,-252.5 164,-287.5 467,-287.5 467,-252.5 164,-252.5"/>
<text text-anchor="start" x="174.6967" y="-265.3" font-family="Arial Bold" font-size="18.00" fill="#000000">public.namespaces</text>
<text text-anchor="start" x="328.7353" y="-265.3" font-family="Arial" font-size="14.00" fill="#000000">    </text>
<text text-anchor="start" x="362.9401" y="-265.3" font-family="Arial" font-size="14.00" fill="#666666">[BASE TABLE]</text>
<polygon fill="none" stroke="#000000" points="164,-222.5 164,-252.5 467,-252.5 467,-222.5 164,-222.5"/>
<text text-anchor="start" x="171" y="-233.9" font-family="Arial" font-size="14.00" fill="#000000">uuid    </text>
<text text-anchor="start" x="231.6592" y="-233.9" font-family="Arial" font-size="14.00" fill="#666666">[uuid]</text>
<polygon fill="none" stroke="#000000" points="164,-192.5 164,-222.5 467,-222.5 467,-192.5 164,-192.5"/>
<text text-anchor="start" x="171" y="-203.9" font-family="Arial" font-size="14.00" fill="#000000">created_at    </text>
<text text-anchor="start" x="271.3422" y="-203.9" font-family="Arial" font-size="14.00" fill="#666666">[timestamp without time zone]</text>
<polygon fill="none" stroke="#000000" points="164,-162.5 164,-192.5 467,-192.5 467,-162.5 164,-162.5"/>
<text text-anchor="start" x="170.8065" y="-173.9" font-family="Arial" font-size="14.00" fill="#000000">updated_at    </text>
<text text-anchor="start" x="275.0533" y="-173.9" font-family="Arial" font-size="14.00" fill="#666666">[timestamp without time zone]</text>
<polygon fill="none" stroke="#000000" points="164,-132.5 164,-162.5 467,-162.5 467,-132.5 164,-132.5"/>
<text text-anchor="start" x="171" y="-143.9" font-family="Arial" font-size="14.00" fill="#000000">name    </text>
<text text-anchor="start" x="240.2132" y="-143.9" font-family="Arial" font-size="14.00" fill="#666666">[varchar]</text>
<polygon fill="none" stroke="#000000" points="164,-102.5 164,-132.5 467,-132.5 467,-102.5 164,-102.5"/>
<text text-anchor="start" x="171" y="-113.9" font-family="Arial" font-size="14.00" fill="#000000">description    </text>
<text text-anchor="start" x="272.8822" y="-113.9" font-family="Arial" font-size="14.00" fill="#666666">[text]</text>
<polygon fill="none" stroke="#000000" points="164,-72.5 164,-102.5 467,-102.5 467,-72.5 164,-72.5"/>
<text text-anchor="start" x="171" y="-83.9" font-family="Arial" font-size="14.00" fill="#000000">current_owner_name    </text>
<text text-anchor="start" x="337.453" y="-83.9" font-family="Arial" font-size="14.00" fill="#666666">[varchar(64)]</text>
<polygon fill="none" stroke="#000000" points="164,-42.5 164,-72.5 467,-72.5 467,-42.5 164,-42.5"/>
<text text-anchor="start" x="171" y="-53.9" font-family="Arial" font-size="14.00" fill="#000000">is_hidden    </text>
<text text-anchor="start" x="265.1136" y="-53.9" font-family="Arial" font-size="14.00" fill="#666666">[boolean]</text>
</g>
<!-- public.namespace_ownerships&#45;&gt;public.namespaces -->
<g id="edge1" class="edge">
<title>public.namespace_ownerships:namespace_uuid&#45;&gt;public.namespaces:uuid</title>
<path fill="none" stroke="#000000" d="M313.7669,-455.8983C286.8922,-446.2783 301.6876,-395.6257 324,-367 364.2908,-315.309 426.7092,-382.691 467,-331 492.5469,-298.2247 508.5556,-237.5 467,-237.5"/>
<polygon fill="#000000" stroke="#000000" points="314.1203,-455.9536 323.3041,-461.9459 319.0601,-456.7268 324,-457.5 324,-457.5 324,-457.5 319.0601,-456.7268 324.6959,-453.0541 314.1203,-455.9536 314.1203,-455.9536"/>
<text text-anchor="start" x="6.9805" y="-467.5" font-family="Arial" font-size="10.00" fill="#000000">FOREIGN KEY (namespace_uuid) REFERENCES namespaces(uuid)</text>
</g>
<!-- public.owners -->
<g id="node3" class="node">
<title>public.owners</title>
<polygon fill="#efefef" stroke="transparent" points="571,-192.5 571,-227.5 870,-227.5 870,-192.5 571,-192.5"/>
<polygon fill="none" stroke="#000000" points="571,-192.5 571,-227.5 870,-227.5 870,-192.5 571,-192.5"/>
<text text-anchor="start" x="601.7089" y="-205.3" font-family="Arial Bold" font-size="18.00" fill="#000000">public.owners</text>
<text text-anchor="start" x="711.7231" y="-205.3" font-family="Arial" font-size="14.00" fill="#000000">    </text>
<text text-anchor="start" x="745.9279" y="-205.3" font-family="Arial" font-size="14.00" fill="#666666">[BASE TABLE]</text>
<polygon fill="none" stroke="#000000" points="571,-162.5 571,-192.5 870,-192.5 870,-162.5 571,-162.5"/>
<text text-anchor="start" x="578" y="-173.9" font-family="Arial" font-size="14.00" fill="#000000">uuid    </text>
<text text-anchor="start" x="638.6592" y="-173.9" font-family="Arial" font-size="14.00" fill="#666666">[uuid]</text>
<polygon fill="none" stroke="#000000" points="571,-132.5 571,-162.5 870,-162.5 870,-132.5 571,-132.5"/>
<text text-anchor="start" x="577.7588" y="-143.9" font-family="Arial" font-size="14.00" fill="#000000">created_at    </text>
<text text-anchor="start" x="678.101" y="-143.9" font-family="Arial" font-size="14.00" fill="#666666">[timestamp without time zone]</text>
<polygon fill="none" stroke="#000000" points="571,-102.5 571,-132.5 870,-132.5 870,-102.5 571,-102.5"/>
<text text-anchor="start" x="578" y="-113.9" font-family="Arial" font-size="14.00" fill="#000000">name    </text>
<text text-anchor="start" x="647.2132" y="-113.9" font-family="Arial" font-size="14.00" fill="#666666">[varchar(64)]</text>
</g>
<!-- public.namespace_ownerships&#45;&gt;public.owners -->
<g id="edge2" class="edge">
<title>public.namespace_ownerships:owner_uuid&#45;&gt;public.owners:uuid</title>
<path fill="none" stroke="#000000" d="M720.7476,-425.0006C733.4471,-416.3435 721.5743,-387.0725 711,-367 675.8359,-300.2502 606.1641,-337.7498 571,-271 551.6316,-234.2342 529.4444,-177.5 571,-177.5"/>
<polygon fill="#000000" stroke="#000000" points="720.6866,-425.0161 709.8823,-423.141 715.8433,-426.2581 711,-427.5 711,-427.5 711,-427.5 715.8433,-426.2581 712.1177,-431.859 720.6866,-425.0161 720.6866,-425.0161"/>
<text text-anchor="start" x="718.4385" y="-437.5" font-family="Arial" font-size="10.00" fill="#000000">FOREIGN KEY (owner_uuid) REFERENCES owners(uuid)</text>
</g>
</g>
</svg>
