<?xml version="1.0" encoding="UTF-8" standalone="no"?>
<!DOCTYPE svg PUBLIC "-//W3C//DTD SVG 1.1//EN"
 "http://www.w3.org/Graphics/SVG/1.1/DTD/svg11.dtd">
<!-- Generated by graphviz version 2.40.1 (20161225.0304)
 -->
<!-- Title: public.run_facets Pages: 1 -->
<svg width="627pt" height="1072pt"
 viewBox="0.00 0.00 626.50 1072.00" xmlns="http://www.w3.org/2000/svg" xmlns:xlink="http://www.w3.org/1999/xlink">
<g id="graph0" class="graph" transform="scale(1 1) rotate(0) translate(4 1068)">
<title>public.run_facets</title>
<polygon fill="#ffffff" stroke="transparent" points="-4,4 -4,-1068 622.5,-1068 622.5,4 -4,4"/>
<!-- public.run_facets -->
<g id="node1" class="node">
<title>public.run_facets</title>
<polygon fill="#efefef" stroke="transparent" points="249,-982.5 249,-1017.5 553,-1017.5 553,-982.5 249,-982.5"/>
<polygon fill="none" stroke="#000000" points="249,-982.5 249,-1017.5 553,-1017.5 553,-982.5 249,-982.5"/>
<text text-anchor="start" x="269.1976" y="-995.3" font-family="Arial Bold" font-size="18.00" fill="#000000">public.run_facets</text>
<text text-anchor="start" x="405.2344" y="-995.3" font-family="Arial" font-size="14.00" fill="#000000">    </text>
<text text-anchor="start" x="439.4392" y="-995.3" font-family="Arial" font-size="14.00" fill="#666666">[BASE TABLE]</text>
<polygon fill="none" stroke="#000000" points="249,-952.5 249,-982.5 553,-982.5 553,-952.5 249,-952.5"/>
<text text-anchor="start" x="256" y="-963.9" font-family="Arial" font-size="14.00" fill="#000000">created_at </text>
<text text-anchor="start" x="326.028" y="-963.9" font-family="Arial" font-size="14.00" fill="#666666">[timestamp with time zone]</text>
<polygon fill="none" stroke="#000000" points="249,-922.5 249,-952.5 553,-952.5 553,-922.5 249,-922.5"/>
<text text-anchor="start" x="256" y="-933.9" font-family="Arial" font-size="14.00" fill="#000000">run_uuid </text>
<text text-anchor="start" x="314.3534" y="-933.9" font-family="Arial" font-size="14.00" fill="#666666">[uuid]</text>
<polygon fill="none" stroke="#000000" points="249,-892.5 249,-922.5 553,-922.5 553,-892.5 249,-892.5"/>
<text text-anchor="start" x="255.5274" y="-903.9" font-family="Arial" font-size="14.00" fill="#000000">lineage_event_time </text>
<text text-anchor="start" x="380.7882" y="-903.9" font-family="Arial" font-size="14.00" fill="#666666">[timestamp with time zone]</text>
<polygon fill="none" stroke="#000000" points="249,-862.5 249,-892.5 553,-892.5 553,-862.5 249,-862.5"/>
<text text-anchor="start" x="256" y="-873.9" font-family="Arial" font-size="14.00" fill="#000000">lineage_event_type </text>
<text text-anchor="start" x="381.2762" y="-873.9" font-family="Arial" font-size="14.00" fill="#666666">[varchar(64)]</text>
<polygon fill="none" stroke="#000000" points="249,-832.5 249,-862.5 553,-862.5 553,-832.5 249,-832.5"/>
<text text-anchor="start" x="256" y="-843.9" font-family="Arial" font-size="14.00" fill="#000000">name </text>
<text text-anchor="start" x="294.899" y="-843.9" font-family="Arial" font-size="14.00" fill="#666666">[varchar(255)]</text>
<polygon fill="none" stroke="#000000" points="249,-802.5 249,-832.5 553,-832.5 553,-802.5 249,-802.5"/>
<text text-anchor="start" x="256" y="-813.9" font-family="Arial" font-size="14.00" fill="#000000">facet </text>
<text text-anchor="start" x="290.237" y="-813.9" font-family="Arial" font-size="14.00" fill="#666666">[jsonb]</text>
<polygon fill="none" stroke="#000000" stroke-width="3" points="247.5,-801.5 247.5,-1019.5 554.5,-1019.5 554.5,-801.5 247.5,-801.5"/>
</g>
<!-- public.runs -->
<g id="node2" class="node">
<title>public.runs</title>
<polygon fill="#efefef" stroke="transparent" points="225,-642.5 225,-677.5 576,-677.5 576,-642.5 225,-642.5"/>
<polygon fill="none" stroke="#000000" points="225,-642.5 225,-677.5 576,-677.5 576,-642.5 225,-642.5"/>
<text text-anchor="start" x="293.2091" y="-655.3" font-family="Arial Bold" font-size="18.00" fill="#000000">public.runs</text>
<text text-anchor="start" x="380.2229" y="-655.3" font-family="Arial" font-size="14.00" fill="#000000">    </text>
<text text-anchor="start" x="414.4277" y="-655.3" font-family="Arial" font-size="14.00" fill="#666666">[BASE TABLE]</text>
<polygon fill="none" stroke="#000000" points="225,-612.5 225,-642.5 576,-642.5 576,-612.5 225,-612.5"/>
<text text-anchor="start" x="232" y="-623.9" font-family="Arial" font-size="14.00" fill="#000000">uuid    </text>
<text text-anchor="start" x="292.6592" y="-623.9" font-family="Arial" font-size="14.00" fill="#666666">[uuid]</text>
<polygon fill="none" stroke="#000000" points="225,-582.5 225,-612.5 576,-612.5 576,-582.5 225,-582.5"/>
<text text-anchor="start" x="232" y="-593.9" font-family="Arial" font-size="14.00" fill="#000000">created_at    </text>
<text text-anchor="start" x="332.3422" y="-593.9" font-family="Arial" font-size="14.00" fill="#666666">[timestamp without time zone]</text>
<polygon fill="none" stroke="#000000" points="225,-552.5 225,-582.5 576,-582.5 576,-552.5 225,-552.5"/>
<text text-anchor="start" x="232" y="-563.9" font-family="Arial" font-size="14.00" fill="#000000">updated_at    </text>
<text text-anchor="start" x="336.2468" y="-563.9" font-family="Arial" font-size="14.00" fill="#666666">[timestamp without time zone]</text>
<polygon fill="none" stroke="#000000" points="225,-522.5 225,-552.5 576,-552.5 576,-522.5 225,-522.5"/>
<text text-anchor="start" x="232" y="-533.9" font-family="Arial" font-size="14.00" fill="#000000">job_version_uuid    </text>
<text text-anchor="start" x="372.0112" y="-533.9" font-family="Arial" font-size="14.00" fill="#666666">[uuid]</text>
<polygon fill="none" stroke="#000000" points="225,-492.5 225,-522.5 576,-522.5 576,-492.5 225,-492.5"/>
<text text-anchor="start" x="232" y="-503.9" font-family="Arial" font-size="14.00" fill="#000000">run_args_uuid    </text>
<text text-anchor="start" x="355.676" y="-503.9" font-family="Arial" font-size="14.00" fill="#666666">[uuid]</text>
<polygon fill="none" stroke="#000000" points="225,-462.5 225,-492.5 576,-492.5 576,-462.5 225,-462.5"/>
<text text-anchor="start" x="231.7104" y="-473.9" font-family="Arial" font-size="14.00" fill="#000000">nominal_start_time    </text>
<text text-anchor="start" x="384.1494" y="-473.9" font-family="Arial" font-size="14.00" fill="#666666">[timestamp without time zone]</text>
<polygon fill="none" stroke="#000000" points="225,-432.5 225,-462.5 576,-462.5 576,-432.5 225,-432.5"/>
<text text-anchor="start" x="232" y="-443.9" font-family="Arial" font-size="14.00" fill="#000000">nominal_end_time    </text>
<text text-anchor="start" x="380.5624" y="-443.9" font-family="Arial" font-size="14.00" fill="#666666">[timestamp without time zone]</text>
<polygon fill="none" stroke="#000000" points="225,-402.5 225,-432.5 576,-432.5 576,-402.5 225,-402.5"/>
<text text-anchor="start" x="232" y="-413.9" font-family="Arial" font-size="14.00" fill="#000000">current_run_state    </text>
<text text-anchor="start" x="375.9018" y="-413.9" font-family="Arial" font-size="14.00" fill="#666666">[varchar(64)]</text>
<polygon fill="none" stroke="#000000" points="225,-372.5 225,-402.5 576,-402.5 576,-372.5 225,-372.5"/>
<text text-anchor="start" x="232" y="-383.9" font-family="Arial" font-size="14.00" fill="#000000">start_run_state_uuid    </text>
<text text-anchor="start" x="393.8036" y="-383.9" font-family="Arial" font-size="14.00" fill="#666666">[uuid]</text>
<polygon fill="none" stroke="#000000" points="225,-342.5 225,-372.5 576,-372.5 576,-342.5 225,-342.5"/>
<text text-anchor="start" x="232" y="-353.9" font-family="Arial" font-size="14.00" fill="#000000">end_run_state_uuid    </text>
<text text-anchor="start" x="389.927" y="-353.9" font-family="Arial" font-size="14.00" fill="#666666">[uuid]</text>
<polygon fill="none" stroke="#000000" points="225,-312.5 225,-342.5 576,-342.5 576,-312.5 225,-312.5"/>
<text text-anchor="start" x="232" y="-323.9" font-family="Arial" font-size="14.00" fill="#000000">external_id    </text>
<text text-anchor="start" x="334.6648" y="-323.9" font-family="Arial" font-size="14.00" fill="#666666">[varchar]</text>
<polygon fill="none" stroke="#000000" points="225,-282.5 225,-312.5 576,-312.5 576,-282.5 225,-282.5"/>
<text text-anchor="start" x="232" y="-293.9" font-family="Arial" font-size="14.00" fill="#000000">namespace_name    </text>
<text text-anchor="start" x="381.352" y="-293.9" font-family="Arial" font-size="14.00" fill="#666666">[varchar]</text>
<polygon fill="none" stroke="#000000" points="225,-252.5 225,-282.5 576,-282.5 576,-252.5 225,-252.5"/>
<text text-anchor="start" x="232" y="-263.9" font-family="Arial" font-size="14.00" fill="#000000">job_name    </text>
<text text-anchor="start" x="327.6676" y="-263.9" font-family="Arial" font-size="14.00" fill="#666666">[varchar]</text>
<polygon fill="none" stroke="#000000" points="225,-222.5 225,-252.5 576,-252.5 576,-222.5 225,-222.5"/>
<text text-anchor="start" x="232" y="-233.9" font-family="Arial" font-size="14.00" fill="#000000">location    </text>
<text text-anchor="start" x="314.439" y="-233.9" font-family="Arial" font-size="14.00" fill="#666666">[varchar]</text>
<polygon fill="none" stroke="#000000" points="225,-192.5 225,-222.5 576,-222.5 576,-192.5 225,-192.5"/>
<text text-anchor="start" x="232" y="-203.9" font-family="Arial" font-size="14.00" fill="#000000">transitioned_at    </text>
<text text-anchor="start" x="358.0112" y="-203.9" font-family="Arial" font-size="14.00" fill="#666666">[timestamp without time zone]</text>
<polygon fill="none" stroke="#000000" points="225,-162.5 225,-192.5 576,-192.5 576,-162.5 225,-162.5"/>
<text text-anchor="start" x="232" y="-173.9" font-family="Arial" font-size="14.00" fill="#000000">started_at    </text>
<text text-anchor="start" x="328.4502" y="-173.9" font-family="Arial" font-size="14.00" fill="#666666">[timestamp without time zone]</text>
<polygon fill="none" stroke="#000000" points="225,-132.5 225,-162.5 576,-162.5 576,-132.5 225,-132.5"/>
<text text-anchor="start" x="232" y="-143.9" font-family="Arial" font-size="14.00" fill="#000000">ended_at    </text>
<text text-anchor="start" x="324.5736" y="-143.9" font-family="Arial" font-size="14.00" fill="#666666">[timestamp without time zone]</text>
<polygon fill="none" stroke="#000000" points="225,-102.5 225,-132.5 576,-132.5 576,-102.5 225,-102.5"/>
<text text-anchor="start" x="232" y="-113.9" font-family="Arial" font-size="14.00" fill="#000000">job_context_uuid    </text>
<text text-anchor="start" x="372.0252" y="-113.9" font-family="Arial" font-size="14.00" fill="#666666">[uuid]</text>
<polygon fill="none" stroke="#000000" points="225,-72.5 225,-102.5 576,-102.5 576,-72.5 225,-72.5"/>
<text text-anchor="start" x="232" y="-83.9" font-family="Arial" font-size="14.00" fill="#000000">parent_run_uuid    </text>
<text text-anchor="start" x="368.1318" y="-83.9" font-family="Arial" font-size="14.00" fill="#666666">[uuid]</text>
<polygon fill="none" stroke="#000000" points="225,-42.5 225,-72.5 576,-72.5 576,-42.5 225,-42.5"/>
<text text-anchor="start" x="232" y="-53.9" font-family="Arial" font-size="14.00" fill="#000000">job_uuid    </text>
<text text-anchor="start" x="319.1136" y="-53.9" font-family="Arial" font-size="14.00" fill="#666666">[uuid]</text>
</g>
<!-- public.run_facets&#45;&gt;public.runs -->
<g id="edge1" class="edge">
<title>public.run_facets:run_uuid&#45;&gt;public.runs:uuid</title>
<path fill="none" stroke="#000000" d="M238.8288,-936.7855C171.2299,-926.7744 197.8727,-814.0648 249,-757 297.7832,-702.5514 527.2168,-775.4486 576,-721 603.7299,-690.0498 617.5556,-627.5 576,-627.5"/>
<polygon fill="#000000" stroke="#000000" points="239.0246,-936.7991 248.6846,-941.9889 244.0123,-937.1496 249,-937.5 249,-937.5 249,-937.5 244.0123,-937.1496 249.3154,-933.0111 239.0246,-936.7991 239.0246,-936.7991"/>
<text text-anchor="start" x="7.2165" y="-947.5" font-family="Arial" font-size="10.00" fill="#000000">FOREIGN KEY (run_uuid) REFERENCES runs(uuid)</text>
</g>
</g>
</svg>
