<?xml version="1.0" encoding="UTF-8" standalone="no"?>
<!DOCTYPE svg PUBLIC "-//W3C//DTD SVG 1.1//EN"
 "http://www.w3.org/Graphics/SVG/1.1/DTD/svg11.dtd">
<!-- Generated by graphviz version 2.40.1 (20161225.0304)
 -->
<!-- Title: public.run_args Pages: 1 -->
<svg width="696pt" height="1012pt"
 viewBox="0.00 0.00 695.50 1012.00" xmlns="http://www.w3.org/2000/svg" xmlns:xlink="http://www.w3.org/1999/xlink">
<g id="graph0" class="graph" transform="scale(1 1) rotate(0) translate(4 1008)">
<title>public.run_args</title>
<polygon fill="#ffffff" stroke="transparent" points="-4,4 -4,-1008 691.5,-1008 691.5,4 -4,4"/>
<!-- public.run_args -->
<g id="node1" class="node">
<title>public.run_args</title>
<polygon fill="#efefef" stroke="transparent" points="335,-165.5 335,-200.5 604,-200.5 604,-165.5 335,-165.5"/>
<polygon fill="none" stroke="#000000" points="335,-165.5 335,-200.5 604,-200.5 604,-165.5 335,-165.5"/>
<text text-anchor="start" x="344.2037" y="-178.3" font-family="Arial Bold" font-size="18.00" fill="#000000">public.run_args</text>
<text text-anchor="start" x="467.2283" y="-178.3" font-family="Arial" font-size="14.00" fill="#000000">    </text>
<text text-anchor="start" x="501.4331" y="-178.3" font-family="Arial" font-size="14.00" fill="#666666">[BASE TABLE]</text>
<polygon fill="none" stroke="#000000" points="335,-135.5 335,-165.5 604,-165.5 604,-135.5 335,-135.5"/>
<text text-anchor="start" x="342" y="-146.9" font-family="Arial" font-size="14.00" fill="#000000">uuid </text>
<text text-anchor="start" x="372.345" y="-146.9" font-family="Arial" font-size="14.00" fill="#666666">[uuid]</text>
<polygon fill="none" stroke="#000000" points="335,-105.5 335,-135.5 604,-135.5 604,-105.5 335,-105.5"/>
<text text-anchor="start" x="341.9159" y="-116.9" font-family="Arial" font-size="14.00" fill="#000000">created_at </text>
<text text-anchor="start" x="411.9439" y="-116.9" font-family="Arial" font-size="14.00" fill="#666666">[timestamp without time zone]</text>
<polygon fill="none" stroke="#000000" points="335,-75.5 335,-105.5 604,-105.5 604,-75.5 335,-75.5"/>
<text text-anchor="start" x="342" y="-86.9" font-family="Arial" font-size="14.00" fill="#000000">args </text>
<text text-anchor="start" x="373.1164" y="-86.9" font-family="Arial" font-size="14.00" fill="#666666">[text]</text>
<polygon fill="none" stroke="#000000" points="335,-45.5 335,-75.5 604,-75.5 604,-45.5 335,-45.5"/>
<text text-anchor="start" x="342" y="-56.9" font-family="Arial" font-size="14.00" fill="#000000">checksum </text>
<text text-anchor="start" x="408.899" y="-56.9" font-family="Arial" font-size="14.00" fill="#666666">[varchar(255)]</text>
<polygon fill="none" stroke="#000000" stroke-width="3" points="333,-44.5 333,-202.5 605,-202.5 605,-44.5 333,-44.5"/>
</g>
<!-- public.runs -->
<g id="node2" class="node">
<title>public.runs</title>
<polygon fill="#efefef" stroke="transparent" points="294,-925.5 294,-960.5 645,-960.5 645,-925.5 294,-925.5"/>
<polygon fill="none" stroke="#000000" points="294,-925.5 294,-960.5 645,-960.5 645,-925.5 294,-925.5"/>
<text text-anchor="start" x="362.2091" y="-938.3" font-family="Arial Bold" font-size="18.00" fill="#000000">public.runs</text>
<text text-anchor="start" x="449.2229" y="-938.3" font-family="Arial" font-size="14.00" fill="#000000">    </text>
<text text-anchor="start" x="483.4277" y="-938.3" font-family="Arial" font-size="14.00" fill="#666666">[BASE TABLE]</text>
<polygon fill="none" stroke="#000000" points="294,-895.5 294,-925.5 645,-925.5 645,-895.5 294,-895.5"/>
<text text-anchor="start" x="301" y="-906.9" font-family="Arial" font-size="14.00" fill="#000000">uuid    </text>
<text text-anchor="start" x="361.6592" y="-906.9" font-family="Arial" font-size="14.00" fill="#666666">[uuid]</text>
<polygon fill="none" stroke="#000000" points="294,-865.5 294,-895.5 645,-895.5 645,-865.5 294,-865.5"/>
<text text-anchor="start" x="301" y="-876.9" font-family="Arial" font-size="14.00" fill="#000000">created_at    </text>
<text text-anchor="start" x="401.3422" y="-876.9" font-family="Arial" font-size="14.00" fill="#666666">[timestamp without time zone]</text>
<polygon fill="none" stroke="#000000" points="294,-835.5 294,-865.5 645,-865.5 645,-835.5 294,-835.5"/>
<text text-anchor="start" x="301" y="-846.9" font-family="Arial" font-size="14.00" fill="#000000">updated_at    </text>
<text text-anchor="start" x="405.2468" y="-846.9" font-family="Arial" font-size="14.00" fill="#666666">[timestamp without time zone]</text>
<polygon fill="none" stroke="#000000" points="294,-805.5 294,-835.5 645,-835.5 645,-805.5 294,-805.5"/>
<text text-anchor="start" x="301" y="-816.9" font-family="Arial" font-size="14.00" fill="#000000">job_version_uuid    </text>
<text text-anchor="start" x="441.0112" y="-816.9" font-family="Arial" font-size="14.00" fill="#666666">[uuid]</text>
<polygon fill="none" stroke="#000000" points="294,-775.5 294,-805.5 645,-805.5 645,-775.5 294,-775.5"/>
<text text-anchor="start" x="301" y="-786.9" font-family="Arial" font-size="14.00" fill="#000000">run_args_uuid    </text>
<text text-anchor="start" x="424.676" y="-786.9" font-family="Arial" font-size="14.00" fill="#666666">[uuid]</text>
<polygon fill="none" stroke="#000000" points="294,-745.5 294,-775.5 645,-775.5 645,-745.5 294,-745.5"/>
<text text-anchor="start" x="300.7104" y="-756.9" font-family="Arial" font-size="14.00" fill="#000000">nominal_start_time    </text>
<text text-anchor="start" x="453.1494" y="-756.9" font-family="Arial" font-size="14.00" fill="#666666">[timestamp without time zone]</text>
<polygon fill="none" stroke="#000000" points="294,-715.5 294,-745.5 645,-745.5 645,-715.5 294,-715.5"/>
<text text-anchor="start" x="301" y="-726.9" font-family="Arial" font-size="14.00" fill="#000000">nominal_end_time    </text>
<text text-anchor="start" x="449.5624" y="-726.9" font-family="Arial" font-size="14.00" fill="#666666">[timestamp without time zone]</text>
<polygon fill="none" stroke="#000000" points="294,-685.5 294,-715.5 645,-715.5 645,-685.5 294,-685.5"/>
<text text-anchor="start" x="301" y="-696.9" font-family="Arial" font-size="14.00" fill="#000000">current_run_state    </text>
<text text-anchor="start" x="444.9018" y="-696.9" font-family="Arial" font-size="14.00" fill="#666666">[varchar(64)]</text>
<polygon fill="none" stroke="#000000" points="294,-655.5 294,-685.5 645,-685.5 645,-655.5 294,-655.5"/>
<text text-anchor="start" x="301" y="-666.9" font-family="Arial" font-size="14.00" fill="#000000">start_run_state_uuid    </text>
<text text-anchor="start" x="462.8036" y="-666.9" font-family="Arial" font-size="14.00" fill="#666666">[uuid]</text>
<polygon fill="none" stroke="#000000" points="294,-625.5 294,-655.5 645,-655.5 645,-625.5 294,-625.5"/>
<text text-anchor="start" x="301" y="-636.9" font-family="Arial" font-size="14.00" fill="#000000">end_run_state_uuid    </text>
<text text-anchor="start" x="458.927" y="-636.9" font-family="Arial" font-size="14.00" fill="#666666">[uuid]</text>
<polygon fill="none" stroke="#000000" points="294,-595.5 294,-625.5 645,-625.5 645,-595.5 294,-595.5"/>
<text text-anchor="start" x="301" y="-606.9" font-family="Arial" font-size="14.00" fill="#000000">external_id    </text>
<text text-anchor="start" x="403.6648" y="-606.9" font-family="Arial" font-size="14.00" fill="#666666">[varchar]</text>
<polygon fill="none" stroke="#000000" points="294,-565.5 294,-595.5 645,-595.5 645,-565.5 294,-565.5"/>
<text text-anchor="start" x="301" y="-576.9" font-family="Arial" font-size="14.00" fill="#000000">namespace_name    </text>
<text text-anchor="start" x="450.352" y="-576.9" font-family="Arial" font-size="14.00" fill="#666666">[varchar]</text>
<polygon fill="none" stroke="#000000" points="294,-535.5 294,-565.5 645,-565.5 645,-535.5 294,-535.5"/>
<text text-anchor="start" x="301" y="-546.9" font-family="Arial" font-size="14.00" fill="#000000">job_name    </text>
<text text-anchor="start" x="396.6676" y="-546.9" font-family="Arial" font-size="14.00" fill="#666666">[varchar]</text>
<polygon fill="none" stroke="#000000" points="294,-505.5 294,-535.5 645,-535.5 645,-505.5 294,-505.5"/>
<text text-anchor="start" x="301" y="-516.9" font-family="Arial" font-size="14.00" fill="#000000">location    </text>
<text text-anchor="start" x="383.439" y="-516.9" font-family="Arial" font-size="14.00" fill="#666666">[varchar]</text>
<polygon fill="none" stroke="#000000" points="294,-475.5 294,-505.5 645,-505.5 645,-475.5 294,-475.5"/>
<text text-anchor="start" x="301" y="-486.9" font-family="Arial" font-size="14.00" fill="#000000">transitioned_at    </text>
<text text-anchor="start" x="427.0112" y="-486.9" font-family="Arial" font-size="14.00" fill="#666666">[timestamp without time zone]</text>
<polygon fill="none" stroke="#000000" points="294,-445.5 294,-475.5 645,-475.5 645,-445.5 294,-445.5"/>
<text text-anchor="start" x="301" y="-456.9" font-family="Arial" font-size="14.00" fill="#000000">started_at    </text>
<text text-anchor="start" x="397.4502" y="-456.9" font-family="Arial" font-size="14.00" fill="#666666">[timestamp without time zone]</text>
<polygon fill="none" stroke="#000000" points="294,-415.5 294,-445.5 645,-445.5 645,-415.5 294,-415.5"/>
<text text-anchor="start" x="301" y="-426.9" font-family="Arial" font-size="14.00" fill="#000000">ended_at    </text>
<text text-anchor="start" x="393.5736" y="-426.9" font-family="Arial" font-size="14.00" fill="#666666">[timestamp without time zone]</text>
<polygon fill="none" stroke="#000000" points="294,-385.5 294,-415.5 645,-415.5 645,-385.5 294,-385.5"/>
<text text-anchor="start" x="301" y="-396.9" font-family="Arial" font-size="14.00" fill="#000000">job_context_uuid    </text>
<text text-anchor="start" x="441.0252" y="-396.9" font-family="Arial" font-size="14.00" fill="#666666">[uuid]</text>
<polygon fill="none" stroke="#000000" points="294,-355.5 294,-385.5 645,-385.5 645,-355.5 294,-355.5"/>
<text text-anchor="start" x="301" y="-366.9" font-family="Arial" font-size="14.00" fill="#000000">parent_run_uuid    </text>
<text text-anchor="start" x="437.1318" y="-366.9" font-family="Arial" font-size="14.00" fill="#666666">[uuid]</text>
<polygon fill="none" stroke="#000000" points="294,-325.5 294,-355.5 645,-355.5 645,-325.5 294,-325.5"/>
<text text-anchor="start" x="301" y="-336.9" font-family="Arial" font-size="14.00" fill="#000000">job_uuid    </text>
<text text-anchor="start" x="388.1136" y="-336.9" font-family="Arial" font-size="14.00" fill="#666666">[uuid]</text>
</g>
<!-- public.runs&#45;&gt;public.run_args -->
<g id="edge1" class="edge">
<title>public.runs:run_args_uuid&#45;&gt;public.run_args:uuid</title>
<path fill="none" stroke="#000000" d="M284.711,-786.4131C226.6534,-731.9063 267.0833,-150.5 335,-150.5"/>
<polygon fill="#000000" stroke="#000000" points="284.8468,-786.4727 292.1877,-794.619 289.4234,-788.4864 294,-790.5 294,-790.5 294,-790.5 289.4234,-788.4864 295.8123,-786.381 284.8468,-786.4727 284.8468,-786.4727"/>
<text text-anchor="start" x="6.7105" y="-800.5" font-family="Arial" font-size="10.00" fill="#000000">FOREIGN KEY (run_args_uuid) REFERENCES run_args(uuid)</text>
</g>
</g>
</svg>
