<?xml version="1.0" encoding="UTF-8" standalone="no"?>
<!DOCTYPE svg PUBLIC "-//W3C//DTD SVG 1.1//EN"
 "http://www.w3.org/Graphics/SVG/1.1/DTD/svg11.dtd">
<!-- Generated by graphviz version 2.40.1 (20161225.0304)
 -->
<!-- Title: public.runs Pages: 1 -->
<svg width="1914pt" height="1649pt"
 viewBox="0.00 0.00 1913.50 1649.00" xmlns="http://www.w3.org/2000/svg" xmlns:xlink="http://www.w3.org/1999/xlink">
<g id="graph0" class="graph" transform="scale(1 1) rotate(0) translate(4 1645)">
<title>public.runs</title>
<polygon fill="#ffffff" stroke="transparent" points="-4,4 -4,-1645 1909.5,-1645 1909.5,4 -4,4"/>
<!-- public.runs -->
<g id="node1" class="node">
<title>public.runs</title>
<polygon fill="#efefef" stroke="transparent" points="730,-1132.5 730,-1167.5 1051,-1167.5 1051,-1132.5 730,-1132.5"/>
<polygon fill="none" stroke="#000000" points="730,-1132.5 730,-1167.5 1051,-1167.5 1051,-1132.5 730,-1132.5"/>
<text text-anchor="start" x="783.2091" y="-1145.3" font-family="Arial Bold" font-size="18.00" fill="#000000">public.runs</text>
<text text-anchor="start" x="870.2229" y="-1145.3" font-family="Arial" font-size="14.00" fill="#000000">    </text>
<text text-anchor="start" x="904.4277" y="-1145.3" font-family="Arial" font-size="14.00" fill="#666666">[BASE TABLE]</text>
<polygon fill="none" stroke="#000000" points="730,-1102.5 730,-1132.5 1051,-1132.5 1051,-1102.5 730,-1102.5"/>
<text text-anchor="start" x="737" y="-1113.9" font-family="Arial" font-size="14.00" fill="#000000">uuid </text>
<text text-anchor="start" x="767.345" y="-1113.9" font-family="Arial" font-size="14.00" fill="#666666">[uuid]</text>
<polygon fill="none" stroke="#000000" points="730,-1072.5 730,-1102.5 1051,-1102.5 1051,-1072.5 730,-1072.5"/>
<text text-anchor="start" x="737" y="-1083.9" font-family="Arial" font-size="14.00" fill="#000000">created_at </text>
<text text-anchor="start" x="807.028" y="-1083.9" font-family="Arial" font-size="14.00" fill="#666666">[timestamp without time zone]</text>
<polygon fill="none" stroke="#000000" points="730,-1042.5 730,-1072.5 1051,-1072.5 1051,-1042.5 730,-1042.5"/>
<text text-anchor="start" x="737" y="-1053.9" font-family="Arial" font-size="14.00" fill="#000000">updated_at </text>
<text text-anchor="start" x="810.9326" y="-1053.9" font-family="Arial" font-size="14.00" fill="#666666">[timestamp without time zone]</text>
<polygon fill="none" stroke="#000000" points="730,-1012.5 730,-1042.5 1051,-1042.5 1051,-1012.5 730,-1012.5"/>
<text text-anchor="start" x="737" y="-1023.9" font-family="Arial" font-size="14.00" fill="#000000">job_version_uuid </text>
<text text-anchor="start" x="846.697" y="-1023.9" font-family="Arial" font-size="14.00" fill="#666666">[uuid]</text>
<polygon fill="none" stroke="#000000" points="730,-982.5 730,-1012.5 1051,-1012.5 1051,-982.5 730,-982.5"/>
<text text-anchor="start" x="737" y="-993.9" font-family="Arial" font-size="14.00" fill="#000000">run_args_uuid </text>
<text text-anchor="start" x="830.3618" y="-993.9" font-family="Arial" font-size="14.00" fill="#666666">[uuid]</text>
<polygon fill="none" stroke="#000000" points="730,-952.5 730,-982.5 1051,-982.5 1051,-952.5 730,-952.5"/>
<text text-anchor="start" x="736.8675" y="-963.9" font-family="Arial" font-size="14.00" fill="#000000">nominal_start_time </text>
<text text-anchor="start" x="858.9923" y="-963.9" font-family="Arial" font-size="14.00" fill="#666666">[timestamp without time zone]</text>
<polygon fill="none" stroke="#000000" points="730,-922.5 730,-952.5 1051,-952.5 1051,-922.5 730,-922.5"/>
<text text-anchor="start" x="737" y="-933.9" font-family="Arial" font-size="14.00" fill="#000000">nominal_end_time </text>
<text text-anchor="start" x="855.2482" y="-933.9" font-family="Arial" font-size="14.00" fill="#666666">[timestamp without time zone]</text>
<polygon fill="none" stroke="#000000" points="730,-892.5 730,-922.5 1051,-922.5 1051,-892.5 730,-892.5"/>
<text text-anchor="start" x="737" y="-903.9" font-family="Arial" font-size="14.00" fill="#000000">current_run_state </text>
<text text-anchor="start" x="850.5876" y="-903.9" font-family="Arial" font-size="14.00" fill="#666666">[varchar(64)]</text>
<polygon fill="none" stroke="#000000" points="730,-862.5 730,-892.5 1051,-892.5 1051,-862.5 730,-862.5"/>
<text text-anchor="start" x="737" y="-873.9" font-family="Arial" font-size="14.00" fill="#000000">start_run_state_uuid </text>
<text text-anchor="start" x="868.4894" y="-873.9" font-family="Arial" font-size="14.00" fill="#666666">[uuid]</text>
<polygon fill="none" stroke="#000000" points="730,-832.5 730,-862.5 1051,-862.5 1051,-832.5 730,-832.5"/>
<text text-anchor="start" x="737" y="-843.9" font-family="Arial" font-size="14.00" fill="#000000">end_run_state_uuid </text>
<text text-anchor="start" x="864.6128" y="-843.9" font-family="Arial" font-size="14.00" fill="#666666">[uuid]</text>
<polygon fill="none" stroke="#000000" points="730,-802.5 730,-832.5 1051,-832.5 1051,-802.5 730,-802.5"/>
<text text-anchor="start" x="737" y="-813.9" font-family="Arial" font-size="14.00" fill="#000000">external_id </text>
<text text-anchor="start" x="809.3506" y="-813.9" font-family="Arial" font-size="14.00" fill="#666666">[varchar]</text>
<polygon fill="none" stroke="#000000" points="730,-772.5 730,-802.5 1051,-802.5 1051,-772.5 730,-772.5"/>
<text text-anchor="start" x="737" y="-783.9" font-family="Arial" font-size="14.00" fill="#000000">namespace_name </text>
<text text-anchor="start" x="856.0378" y="-783.9" font-family="Arial" font-size="14.00" fill="#666666">[varchar]</text>
<polygon fill="none" stroke="#000000" points="730,-742.5 730,-772.5 1051,-772.5 1051,-742.5 730,-742.5"/>
<text text-anchor="start" x="737" y="-753.9" font-family="Arial" font-size="14.00" fill="#000000">job_name </text>
<text text-anchor="start" x="802.3534" y="-753.9" font-family="Arial" font-size="14.00" fill="#666666">[varchar]</text>
<polygon fill="none" stroke="#000000" points="730,-712.5 730,-742.5 1051,-742.5 1051,-712.5 730,-712.5"/>
<text text-anchor="start" x="737" y="-723.9" font-family="Arial" font-size="14.00" fill="#000000">location </text>
<text text-anchor="start" x="789.1248" y="-723.9" font-family="Arial" font-size="14.00" fill="#666666">[varchar]</text>
<polygon fill="none" stroke="#000000" points="730,-682.5 730,-712.5 1051,-712.5 1051,-682.5 730,-682.5"/>
<text text-anchor="start" x="737" y="-693.9" font-family="Arial" font-size="14.00" fill="#000000">transitioned_at </text>
<text text-anchor="start" x="832.697" y="-693.9" font-family="Arial" font-size="14.00" fill="#666666">[timestamp without time zone]</text>
<polygon fill="none" stroke="#000000" points="730,-652.5 730,-682.5 1051,-682.5 1051,-652.5 730,-652.5"/>
<text text-anchor="start" x="737" y="-663.9" font-family="Arial" font-size="14.00" fill="#000000">started_at </text>
<text text-anchor="start" x="803.136" y="-663.9" font-family="Arial" font-size="14.00" fill="#666666">[timestamp without time zone]</text>
<polygon fill="none" stroke="#000000" points="730,-622.5 730,-652.5 1051,-652.5 1051,-622.5 730,-622.5"/>
<text text-anchor="start" x="737" y="-633.9" font-family="Arial" font-size="14.00" fill="#000000">ended_at </text>
<text text-anchor="start" x="799.2594" y="-633.9" font-family="Arial" font-size="14.00" fill="#666666">[timestamp without time zone]</text>
<polygon fill="none" stroke="#000000" points="730,-592.5 730,-622.5 1051,-622.5 1051,-592.5 730,-592.5"/>
<text text-anchor="start" x="737" y="-603.9" font-family="Arial" font-size="14.00" fill="#000000">job_context_uuid </text>
<text text-anchor="start" x="846.711" y="-603.9" font-family="Arial" font-size="14.00" fill="#666666">[uuid]</text>
<polygon fill="none" stroke="#000000" points="730,-562.5 730,-592.5 1051,-592.5 1051,-562.5 730,-562.5"/>
<text text-anchor="start" x="737" y="-573.9" font-family="Arial" font-size="14.00" fill="#000000">parent_run_uuid </text>
<text text-anchor="start" x="842.8176" y="-573.9" font-family="Arial" font-size="14.00" fill="#666666">[uuid]</text>
<polygon fill="none" stroke="#000000" points="730,-532.5 730,-562.5 1051,-562.5 1051,-532.5 730,-532.5"/>
<text text-anchor="start" x="737" y="-543.9" font-family="Arial" font-size="14.00" fill="#000000">job_uuid </text>
<text text-anchor="start" x="793.7994" y="-543.9" font-family="Arial" font-size="14.00" fill="#666666">[uuid]</text>
<polygon fill="none" stroke="#000000" stroke-width="3" points="728,-531.5 728,-1169.5 1052,-1169.5 1052,-531.5 728,-531.5"/>
</g>
<!-- public.runs&#45;&gt;public.runs -->
<g id="edge1" class="edge">
<title>public.runs:parent_run_uuid&#45;&gt;public.runs:uuid</title>
<path fill="none" stroke="#000000" d="M891.9325,-603.0032C899.9885,-847.8569 899.6776,-1511 891,-1511 882.2329,-1511 882.006,-1323.1154 890.3194,-1132.6795"/>
<polygon fill="#000000" stroke="#000000" points="891.9225,-602.7086 896.0776,-592.5604 891.7514,-597.7115 891.5802,-592.7144 891.5802,-592.7144 891.5802,-592.7144 891.7514,-597.7115 887.0829,-592.8685 891.9225,-602.7086 891.9225,-602.7086"/>
<text text-anchor="start" x="898.8452" y="-602.7144" font-family="Arial" font-size="10.00" fill="#000000">FOREIGN KEY (parent_run_uuid) REFERENCES runs(uuid)</text>
</g>
<!-- public.run_states -->
<g id="node2" class="node">
<title>public.run_states</title>
<polygon fill="#efefef" stroke="transparent" points="728,-267.5 728,-302.5 1053,-302.5 1053,-267.5 728,-267.5"/>
<polygon fill="none" stroke="#000000" points="728,-267.5 728,-302.5 1053,-302.5 1053,-267.5 728,-267.5"/>
<text text-anchor="start" x="758.6976" y="-280.3" font-family="Arial Bold" font-size="18.00" fill="#000000">public.run_states</text>
<text text-anchor="start" x="894.7344" y="-280.3" font-family="Arial" font-size="14.00" fill="#000000">    </text>
<text text-anchor="start" x="928.9392" y="-280.3" font-family="Arial" font-size="14.00" fill="#666666">[BASE TABLE]</text>
<polygon fill="none" stroke="#000000" points="728,-237.5 728,-267.5 1053,-267.5 1053,-237.5 728,-237.5"/>
<text text-anchor="start" x="735" y="-248.9" font-family="Arial" font-size="14.00" fill="#000000">uuid    </text>
<text text-anchor="start" x="795.6592" y="-248.9" font-family="Arial" font-size="14.00" fill="#666666">[uuid]</text>
<polygon fill="none" stroke="#000000" points="728,-207.5 728,-237.5 1053,-237.5 1053,-207.5 728,-207.5"/>
<text text-anchor="start" x="734.9243" y="-218.9" font-family="Arial" font-size="14.00" fill="#000000">transitioned_at    </text>
<text text-anchor="start" x="860.9355" y="-218.9" font-family="Arial" font-size="14.00" fill="#666666">[timestamp without time zone]</text>
<polygon fill="none" stroke="#000000" points="728,-177.5 728,-207.5 1053,-207.5 1053,-177.5 728,-177.5"/>
<text text-anchor="start" x="735" y="-188.9" font-family="Arial" font-size="14.00" fill="#000000">run_uuid    </text>
<text text-anchor="start" x="823.6676" y="-188.9" font-family="Arial" font-size="14.00" fill="#666666">[uuid]</text>
<polygon fill="none" stroke="#000000" points="728,-147.5 728,-177.5 1053,-177.5 1053,-147.5 728,-147.5"/>
<text text-anchor="start" x="735" y="-158.9" font-family="Arial" font-size="14.00" fill="#000000">state    </text>
<text text-anchor="start" x="799.5512" y="-158.9" font-family="Arial" font-size="14.00" fill="#666666">[varchar(64)]</text>
</g>
<!-- public.runs&#45;&gt;public.run_states -->
<g id="edge9" class="edge">
<title>public.runs:start_run_state_uuid&#45;&gt;public.run_states:uuid</title>
<path fill="none" stroke="#000000" d="M719.9507,-877.2229C452.2137,-862.3343 453.6117,-252.5 728,-252.5"/>
<polygon fill="#000000" stroke="#000000" points="720.0038,-877.2242 729.8759,-881.9983 725.0019,-877.3621 730,-877.5 730,-877.5 730,-877.5 725.0019,-877.3621 730.1241,-873.0017 720.0038,-877.2242 720.0038,-877.2242"/>
<text text-anchor="start" x="408.479" y="-887.5" font-family="Arial" font-size="10.00" fill="#000000">FOREIGN KEY (start_run_state_uuid) REFERENCES run_states(uuid)</text>
</g>
<!-- public.runs&#45;&gt;public.run_states -->
<g id="edge10" class="edge">
<title>public.runs:end_run_state_uuid&#45;&gt;public.run_states:uuid</title>
<path fill="none" stroke="#000000" d="M719.6778,-847.1925C465.5476,-831.9149 467.0404,-252.5 728,-252.5"/>
<polygon fill="#000000" stroke="#000000" points="720.0044,-847.2021 729.866,-851.998 725.0022,-847.3511 730,-847.5 730,-847.5 730,-847.5 725.0022,-847.3511 730.134,-843.002 720.0044,-847.2021 720.0044,-847.2021"/>
<text text-anchor="start" x="410.8635" y="-857.5" font-family="Arial" font-size="10.00" fill="#000000">FOREIGN KEY (end_run_state_uuid) REFERENCES run_states(uuid)</text>
</g>
<!-- public.job_versions -->
<g id="node7" class="node">
<title>public.job_versions</title>
<polygon fill="#efefef" stroke="transparent" points="1157,-372.5 1157,-407.5 1460,-407.5 1460,-372.5 1157,-372.5"/>
<polygon fill="none" stroke="#000000" points="1157,-372.5 1157,-407.5 1460,-407.5 1460,-372.5 1157,-372.5"/>
<text text-anchor="start" x="1168.2025" y="-385.3" font-family="Arial Bold" font-size="18.00" fill="#000000">public.job_versions</text>
<text text-anchor="start" x="1321.2295" y="-385.3" font-family="Arial" font-size="14.00" fill="#000000">    </text>
<text text-anchor="start" x="1355.4343" y="-385.3" font-family="Arial" font-size="14.00" fill="#666666">[BASE TABLE]</text>
<polygon fill="none" stroke="#000000" points="1157,-342.5 1157,-372.5 1460,-372.5 1460,-342.5 1157,-342.5"/>
<text text-anchor="start" x="1164" y="-353.9" font-family="Arial" font-size="14.00" fill="#000000">uuid    </text>
<text text-anchor="start" x="1224.6592" y="-353.9" font-family="Arial" font-size="14.00" fill="#666666">[uuid]</text>
<polygon fill="none" stroke="#000000" points="1157,-312.5 1157,-342.5 1460,-342.5 1460,-312.5 1157,-312.5"/>
<text text-anchor="start" x="1164" y="-323.9" font-family="Arial" font-size="14.00" fill="#000000">created_at    </text>
<text text-anchor="start" x="1264.3422" y="-323.9" font-family="Arial" font-size="14.00" fill="#666666">[timestamp without time zone]</text>
<polygon fill="none" stroke="#000000" points="1157,-282.5 1157,-312.5 1460,-312.5 1460,-282.5 1157,-282.5"/>
<text text-anchor="start" x="1163.8065" y="-293.9" font-family="Arial" font-size="14.00" fill="#000000">updated_at    </text>
<text text-anchor="start" x="1268.0533" y="-293.9" font-family="Arial" font-size="14.00" fill="#666666">[timestamp without time zone]</text>
<polygon fill="none" stroke="#000000" points="1157,-252.5 1157,-282.5 1460,-282.5 1460,-252.5 1157,-252.5"/>
<text text-anchor="start" x="1164" y="-263.9" font-family="Arial" font-size="14.00" fill="#000000">job_uuid    </text>
<text text-anchor="start" x="1251.1136" y="-263.9" font-family="Arial" font-size="14.00" fill="#666666">[uuid]</text>
<polygon fill="none" stroke="#000000" points="1157,-222.5 1157,-252.5 1460,-252.5 1460,-222.5 1157,-222.5"/>
<text text-anchor="start" x="1164" y="-233.9" font-family="Arial" font-size="14.00" fill="#000000">version    </text>
<text text-anchor="start" x="1243.3198" y="-233.9" font-family="Arial" font-size="14.00" fill="#666666">[uuid]</text>
<polygon fill="none" stroke="#000000" points="1157,-192.5 1157,-222.5 1460,-222.5 1460,-192.5 1157,-192.5"/>
<text text-anchor="start" x="1164" y="-203.9" font-family="Arial" font-size="14.00" fill="#000000">location    </text>
<text text-anchor="start" x="1246.439" y="-203.9" font-family="Arial" font-size="14.00" fill="#666666">[varchar(255)]</text>
<polygon fill="none" stroke="#000000" points="1157,-162.5 1157,-192.5 1460,-192.5 1460,-162.5 1157,-162.5"/>
<text text-anchor="start" x="1164" y="-173.9" font-family="Arial" font-size="14.00" fill="#000000">latest_run_uuid    </text>
<text text-anchor="start" x="1293.9032" y="-173.9" font-family="Arial" font-size="14.00" fill="#666666">[uuid]</text>
<polygon fill="none" stroke="#000000" points="1157,-132.5 1157,-162.5 1460,-162.5 1460,-132.5 1157,-132.5"/>
<text text-anchor="start" x="1164" y="-143.9" font-family="Arial" font-size="14.00" fill="#000000">job_context_uuid    </text>
<text text-anchor="start" x="1304.0252" y="-143.9" font-family="Arial" font-size="14.00" fill="#666666">[uuid]</text>
<polygon fill="none" stroke="#000000" points="1157,-102.5 1157,-132.5 1460,-132.5 1460,-102.5 1157,-102.5"/>
<text text-anchor="start" x="1164" y="-113.9" font-family="Arial" font-size="14.00" fill="#000000">namespace_uuid    </text>
<text text-anchor="start" x="1304.798" y="-113.9" font-family="Arial" font-size="14.00" fill="#666666">[uuid]</text>
<polygon fill="none" stroke="#000000" points="1157,-72.5 1157,-102.5 1460,-102.5 1460,-72.5 1157,-72.5"/>
<text text-anchor="start" x="1164" y="-83.9" font-family="Arial" font-size="14.00" fill="#000000">namespace_name    </text>
<text text-anchor="start" x="1313.352" y="-83.9" font-family="Arial" font-size="14.00" fill="#666666">[varchar]</text>
<polygon fill="none" stroke="#000000" points="1157,-42.5 1157,-72.5 1460,-72.5 1460,-42.5 1157,-42.5"/>
<text text-anchor="start" x="1164" y="-53.9" font-family="Arial" font-size="14.00" fill="#000000">job_name    </text>
<text text-anchor="start" x="1259.6676" y="-53.9" font-family="Arial" font-size="14.00" fill="#666666">[varchar]</text>
</g>
<!-- public.runs&#45;&gt;public.job_versions -->
<g id="edge7" class="edge">
<title>public.runs:job_version_uuid&#45;&gt;public.job_versions:uuid</title>
<path fill="none" stroke="#000000" d="M1060.452,-1023.5653C1122.5931,-968.6567 1085.0154,-357.5 1157,-357.5"/>
<polygon fill="#000000" stroke="#000000" points="1060.232,-1023.6568 1049.2706,-1023.3456 1055.616,-1025.5784 1051,-1027.5 1051,-1027.5 1051,-1027.5 1055.616,-1025.5784 1052.7294,-1031.6544 1060.232,-1023.6568 1060.232,-1023.6568"/>
<text text-anchor="start" x="1057.5425" y="-1037.5" font-family="Arial" font-size="10.00" fill="#000000">FOREIGN KEY (job_version_uuid) REFERENCES job_versions(uuid)</text>
</g>
<!-- public.run_args -->
<g id="node8" class="node">
<title>public.run_args</title>
<polygon fill="#efefef" stroke="transparent" points="1564,-267.5 1564,-302.5 1863,-302.5 1863,-267.5 1564,-267.5"/>
<polygon fill="none" stroke="#000000" points="1564,-267.5 1564,-302.5 1863,-302.5 1863,-267.5 1564,-267.5"/>
<text text-anchor="start" x="1588.2037" y="-280.3" font-family="Arial Bold" font-size="18.00" fill="#000000">public.run_args</text>
<text text-anchor="start" x="1711.2283" y="-280.3" font-family="Arial" font-size="14.00" fill="#000000">    </text>
<text text-anchor="start" x="1745.4331" y="-280.3" font-family="Arial" font-size="14.00" fill="#666666">[BASE TABLE]</text>
<polygon fill="none" stroke="#000000" points="1564,-237.5 1564,-267.5 1863,-267.5 1863,-237.5 1564,-237.5"/>
<text text-anchor="start" x="1571" y="-248.9" font-family="Arial" font-size="14.00" fill="#000000">uuid    </text>
<text text-anchor="start" x="1631.6592" y="-248.9" font-family="Arial" font-size="14.00" fill="#666666">[uuid]</text>
<polygon fill="none" stroke="#000000" points="1564,-207.5 1564,-237.5 1863,-237.5 1863,-207.5 1564,-207.5"/>
<text text-anchor="start" x="1570.7588" y="-218.9" font-family="Arial" font-size="14.00" fill="#000000">created_at    </text>
<text text-anchor="start" x="1671.101" y="-218.9" font-family="Arial" font-size="14.00" fill="#666666">[timestamp without time zone]</text>
<polygon fill="none" stroke="#000000" points="1564,-177.5 1564,-207.5 1863,-207.5 1863,-177.5 1564,-177.5"/>
<text text-anchor="start" x="1571" y="-188.9" font-family="Arial" font-size="14.00" fill="#000000">args    </text>
<text text-anchor="start" x="1632.4306" y="-188.9" font-family="Arial" font-size="14.00" fill="#666666">[text]</text>
<polygon fill="none" stroke="#000000" points="1564,-147.5 1564,-177.5 1863,-177.5 1863,-147.5 1564,-147.5"/>
<text text-anchor="start" x="1571" y="-158.9" font-family="Arial" font-size="14.00" fill="#000000">checksum    </text>
<text text-anchor="start" x="1668.2132" y="-158.9" font-family="Arial" font-size="14.00" fill="#666666">[varchar(255)]</text>
</g>
<!-- public.runs&#45;&gt;public.run_args -->
<g id="edge8" class="edge">
<title>public.runs:run_args_uuid&#45;&gt;public.run_args:uuid</title>
<path fill="none" stroke="#000000" d="M1061.13,-997.4088C1368.7161,-991.8171 1367.2652,-730.0494 1512,-451 1553.9903,-370.0426 1472.8009,-252.5 1564,-252.5"/>
<polygon fill="#000000" stroke="#000000" points="1060.9996,-997.4098 1050.9594,-993.0002 1055.9998,-997.4549 1051,-997.5 1051,-997.5 1051,-997.5 1055.9998,-997.4549 1051.0406,-1001.9998 1060.9996,-997.4098 1060.9996,-997.4098"/>
<text text-anchor="start" x="1057.7105" y="-1007.5" font-family="Arial" font-size="10.00" fill="#000000">FOREIGN KEY (run_args_uuid) REFERENCES run_args(uuid)</text>
</g>
<!-- public.run_states&#45;&gt;public.runs -->
<g id="edge2" class="edge">
<title>public.run_states:run_uuid&#45;&gt;public.runs:uuid</title>
<path fill="none" stroke="#000000" d="M717.8477,-192.6901C316.9493,-207.7927 322.3005,-1117.5 730,-1117.5"/>
<polygon fill="#000000" stroke="#000000" points="718.0018,-192.6874 728.0843,-196.9992 723.0009,-192.5937 728,-192.5 728,-192.5 728,-192.5 723.0009,-192.5937 727.9157,-188.0008 718.0018,-192.6874 718.0018,-192.6874"/>
<text text-anchor="start" x="486.2165" y="-202.5" font-family="Arial" font-size="10.00" fill="#000000">FOREIGN KEY (run_uuid) REFERENCES runs(uuid)</text>
</g>
<!-- public.runs_input_mapping -->
<g id="node3" class="node">
<title>public.runs_input_mapping</title>
<polygon fill="#efefef" stroke="transparent" points="43,-1457.5 43,-1492.5 399,-1492.5 399,-1457.5 43,-1457.5"/>
<polygon fill="none" stroke="#000000" points="43,-1457.5 43,-1492.5 399,-1492.5 399,-1457.5 43,-1457.5"/>
<text text-anchor="start" x="49.6867" y="-1470.3" font-family="Arial Bold" font-size="18.00" fill="#000000">public.runs_input_mapping</text>
<text text-anchor="start" x="264.7453" y="-1470.3" font-family="Arial" font-size="14.00" fill="#000000">    </text>
<text text-anchor="start" x="298.9501" y="-1470.3" font-family="Arial" font-size="14.00" fill="#666666">[BASE TABLE]</text>
<polygon fill="none" stroke="#000000" points="43,-1427.5 43,-1457.5 399,-1457.5 399,-1427.5 43,-1427.5"/>
<text text-anchor="start" x="50" y="-1438.9" font-family="Arial" font-size="14.00" fill="#000000">run_uuid    </text>
<text text-anchor="start" x="138.6676" y="-1438.9" font-family="Arial" font-size="14.00" fill="#666666">[uuid]</text>
<polygon fill="none" stroke="#000000" points="43,-1397.5 43,-1427.5 399,-1427.5 399,-1397.5 43,-1397.5"/>
<text text-anchor="start" x="50" y="-1408.9" font-family="Arial" font-size="14.00" fill="#000000">dataset_version_uuid    </text>
<text text-anchor="start" x="217.251" y="-1408.9" font-family="Arial" font-size="14.00" fill="#666666">[uuid]</text>
</g>
<!-- public.runs_input_mapping&#45;&gt;public.runs -->
<g id="edge3" class="edge">
<title>public.runs_input_mapping:run_uuid&#45;&gt;public.runs:uuid</title>
<path fill="none" stroke="#000000" d="M409.0089,-1441.8843C480.2117,-1432.3846 396.5345,-1315.2406 451,-1250 538.9738,-1144.622 592.7269,-1117.5 730,-1117.5"/>
<polygon fill="#000000" stroke="#000000" points="408.9811,-1441.8859 398.7237,-1438.0085 403.9906,-1442.193 399,-1442.5 399,-1442.5 399,-1442.5 403.9906,-1442.193 399.2763,-1446.9915 408.9811,-1441.8859 408.9811,-1441.8859"/>
<text text-anchor="start" x="281.7165" y="-1426.5" font-family="Arial" font-size="10.00" fill="#000000">FOREIGN KEY (run_uuid) REFERENCES runs(uuid)</text>
</g>
<!-- public.dataset_facets -->
<g id="node4" class="node">
<title>public.dataset_facets</title>
<polygon fill="#efefef" stroke="transparent" points="504,-1562.5 504,-1597.5 839,-1597.5 839,-1562.5 504,-1562.5"/>
<polygon fill="none" stroke="#000000" points="504,-1562.5 504,-1597.5 839,-1597.5 839,-1562.5 504,-1562.5"/>
<text text-anchor="start" x="523.1853" y="-1575.3" font-family="Arial Bold" font-size="18.00" fill="#000000">public.dataset_facets</text>
<text text-anchor="start" x="692.2467" y="-1575.3" font-family="Arial" font-size="14.00" fill="#000000">    </text>
<text text-anchor="start" x="726.4515" y="-1575.3" font-family="Arial" font-size="14.00" fill="#666666">[BASE TABLE]</text>
<polygon fill="none" stroke="#000000" points="504,-1532.5 504,-1562.5 839,-1562.5 839,-1532.5 504,-1532.5"/>
<text text-anchor="start" x="511" y="-1543.9" font-family="Arial" font-size="14.00" fill="#000000">created_at    </text>
<text text-anchor="start" x="611.3422" y="-1543.9" font-family="Arial" font-size="14.00" fill="#666666">[timestamp with time zone]</text>
<polygon fill="none" stroke="#000000" points="504,-1502.5 504,-1532.5 839,-1532.5 839,-1502.5 504,-1502.5"/>
<text text-anchor="start" x="511" y="-1513.9" font-family="Arial" font-size="14.00" fill="#000000">dataset_uuid    </text>
<text text-anchor="start" x="625.3534" y="-1513.9" font-family="Arial" font-size="14.00" fill="#666666">[uuid]</text>
<polygon fill="none" stroke="#000000" points="504,-1472.5 504,-1502.5 839,-1502.5 839,-1472.5 504,-1472.5"/>
<text text-anchor="start" x="511" y="-1483.9" font-family="Arial" font-size="14.00" fill="#000000">dataset_version_uuid    </text>
<text text-anchor="start" x="678.251" y="-1483.9" font-family="Arial" font-size="14.00" fill="#666666">[uuid]</text>
<polygon fill="none" stroke="#000000" points="504,-1442.5 504,-1472.5 839,-1472.5 839,-1442.5 504,-1442.5"/>
<text text-anchor="start" x="511" y="-1453.9" font-family="Arial" font-size="14.00" fill="#000000">run_uuid    </text>
<text text-anchor="start" x="599.6676" y="-1453.9" font-family="Arial" font-size="14.00" fill="#666666">[uuid]</text>
<polygon fill="none" stroke="#000000" points="504,-1412.5 504,-1442.5 839,-1442.5 839,-1412.5 504,-1412.5"/>
<text text-anchor="start" x="510.8703" y="-1423.9" font-family="Arial" font-size="14.00" fill="#000000">lineage_event_time    </text>
<text text-anchor="start" x="666.4453" y="-1423.9" font-family="Arial" font-size="14.00" fill="#666666">[timestamp with time zone]</text>
<polygon fill="none" stroke="#000000" points="504,-1382.5 504,-1412.5 839,-1412.5 839,-1382.5 504,-1382.5"/>
<text text-anchor="start" x="511" y="-1393.9" font-family="Arial" font-size="14.00" fill="#000000">lineage_event_type    </text>
<text text-anchor="start" x="666.5904" y="-1393.9" font-family="Arial" font-size="14.00" fill="#666666">[varchar(64)]</text>
<polygon fill="none" stroke="#000000" points="504,-1352.5 504,-1382.5 839,-1382.5 839,-1352.5 504,-1352.5"/>
<text text-anchor="start" x="511" y="-1363.9" font-family="Arial" font-size="14.00" fill="#000000">type    </text>
<text text-anchor="start" x="571.6606" y="-1363.9" font-family="Arial" font-size="14.00" fill="#666666">[varchar(64)]</text>
<polygon fill="none" stroke="#000000" points="504,-1322.5 504,-1352.5 839,-1352.5 839,-1322.5 504,-1322.5"/>
<text text-anchor="start" x="511" y="-1333.9" font-family="Arial" font-size="14.00" fill="#000000">name    </text>
<text text-anchor="start" x="580.2132" y="-1333.9" font-family="Arial" font-size="14.00" fill="#666666">[varchar(255)]</text>
<polygon fill="none" stroke="#000000" points="504,-1292.5 504,-1322.5 839,-1322.5 839,-1292.5 504,-1292.5"/>
<text text-anchor="start" x="511" y="-1303.9" font-family="Arial" font-size="14.00" fill="#000000">facet    </text>
<text text-anchor="start" x="575.5512" y="-1303.9" font-family="Arial" font-size="14.00" fill="#666666">[jsonb]</text>
</g>
<!-- public.dataset_facets&#45;&gt;public.runs -->
<g id="edge4" class="edge">
<title>public.dataset_facets:run_uuid&#45;&gt;public.runs:uuid</title>
<path fill="none" stroke="#000000" d="M848.6406,-1454.5293C882.0787,-1431.7275 863.9027,-1284.4506 839,-1250 809.1121,-1208.653 759.8879,-1255.347 730,-1214 704.8745,-1179.2413 687.1111,-1117.5 730,-1117.5"/>
<polygon fill="#000000" stroke="#000000" points="848.5566,-1454.5551 837.6748,-1453.1995 843.7783,-1456.0275 839,-1457.5 839,-1457.5 839,-1457.5 843.7783,-1456.0275 840.3252,-1461.8005 848.5566,-1454.5551 848.5566,-1454.5551"/>
<text text-anchor="start" x="846.2165" y="-1467.5" font-family="Arial" font-size="10.00" fill="#000000">FOREIGN KEY (run_uuid) REFERENCES runs(uuid)</text>
</g>
<!-- public.job_facets -->
<g id="node5" class="node">
<title>public.job_facets</title>
<polygon fill="#efefef" stroke="transparent" points="943,-1532.5 943,-1567.5 1278,-1567.5 1278,-1532.5 943,-1532.5"/>
<polygon fill="none" stroke="#000000" points="943,-1532.5 943,-1567.5 1278,-1567.5 1278,-1532.5 943,-1532.5"/>
<text text-anchor="start" x="979.6966" y="-1545.3" font-family="Arial Bold" font-size="18.00" fill="#000000">public.job_facets</text>
<text text-anchor="start" x="1113.7354" y="-1545.3" font-family="Arial" font-size="14.00" fill="#000000">    </text>
<text text-anchor="start" x="1147.9402" y="-1545.3" font-family="Arial" font-size="14.00" fill="#666666">[BASE TABLE]</text>
<polygon fill="none" stroke="#000000" points="943,-1502.5 943,-1532.5 1278,-1532.5 1278,-1502.5 943,-1502.5"/>
<text text-anchor="start" x="950" y="-1513.9" font-family="Arial" font-size="14.00" fill="#000000">created_at    </text>
<text text-anchor="start" x="1050.3422" y="-1513.9" font-family="Arial" font-size="14.00" fill="#666666">[timestamp with time zone]</text>
<polygon fill="none" stroke="#000000" points="943,-1472.5 943,-1502.5 1278,-1502.5 1278,-1472.5 943,-1472.5"/>
<text text-anchor="start" x="950" y="-1483.9" font-family="Arial" font-size="14.00" fill="#000000">job_uuid    </text>
<text text-anchor="start" x="1037.1136" y="-1483.9" font-family="Arial" font-size="14.00" fill="#666666">[uuid]</text>
<polygon fill="none" stroke="#000000" points="943,-1442.5 943,-1472.5 1278,-1472.5 1278,-1442.5 943,-1442.5"/>
<text text-anchor="start" x="950" y="-1453.9" font-family="Arial" font-size="14.00" fill="#000000">run_uuid    </text>
<text text-anchor="start" x="1038.6676" y="-1453.9" font-family="Arial" font-size="14.00" fill="#666666">[uuid]</text>
<polygon fill="none" stroke="#000000" points="943,-1412.5 943,-1442.5 1278,-1442.5 1278,-1412.5 943,-1412.5"/>
<text text-anchor="start" x="949.8703" y="-1423.9" font-family="Arial" font-size="14.00" fill="#000000">lineage_event_time    </text>
<text text-anchor="start" x="1105.4453" y="-1423.9" font-family="Arial" font-size="14.00" fill="#666666">[timestamp with time zone]</text>
<polygon fill="none" stroke="#000000" points="943,-1382.5 943,-1412.5 1278,-1412.5 1278,-1382.5 943,-1382.5"/>
<text text-anchor="start" x="950" y="-1393.9" font-family="Arial" font-size="14.00" fill="#000000">lineage_event_type    </text>
<text text-anchor="start" x="1105.5904" y="-1393.9" font-family="Arial" font-size="14.00" fill="#666666">[varchar(64)]</text>
<polygon fill="none" stroke="#000000" points="943,-1352.5 943,-1382.5 1278,-1382.5 1278,-1352.5 943,-1352.5"/>
<text text-anchor="start" x="950" y="-1363.9" font-family="Arial" font-size="14.00" fill="#000000">name    </text>
<text text-anchor="start" x="1019.2132" y="-1363.9" font-family="Arial" font-size="14.00" fill="#666666">[varchar(255)]</text>
<polygon fill="none" stroke="#000000" points="943,-1322.5 943,-1352.5 1278,-1352.5 1278,-1322.5 943,-1322.5"/>
<text text-anchor="start" x="950" y="-1333.9" font-family="Arial" font-size="14.00" fill="#000000">facet    </text>
<text text-anchor="start" x="1014.5512" y="-1333.9" font-family="Arial" font-size="14.00" fill="#666666">[jsonb]</text>
</g>
<!-- public.job_facets&#45;&gt;public.runs -->
<g id="edge5" class="edge">
<title>public.job_facets:run_uuid&#45;&gt;public.runs:uuid</title>
<path fill="none" stroke="#000000" d="M932.6795,-1456.7988C867.8855,-1447.3976 906.2198,-1345.5812 943,-1280 970.5168,-1230.936 1023.4832,-1263.064 1051,-1214 1071.9794,-1176.5925 1093.8889,-1117.5 1051,-1117.5"/>
<polygon fill="#000000" stroke="#000000" points="933.023,-1456.8221 942.6949,-1461.9897 938.0115,-1457.161 943,-1457.5 943,-1457.5 943,-1457.5 938.0115,-1457.161 943.3051,-1453.0103 933.023,-1456.8221 933.023,-1456.8221"/>
<text text-anchor="start" x="950.2165" y="-1441.5" font-family="Arial" font-size="10.00" fill="#000000">FOREIGN KEY (run_uuid) REFERENCES runs(uuid)</text>
</g>
<!-- public.run_facets -->
<g id="node6" class="node">
<title>public.run_facets</title>
<polygon fill="#efefef" stroke="transparent" points="1382,-1517.5 1382,-1552.5 1717,-1552.5 1717,-1517.5 1382,-1517.5"/>
<polygon fill="none" stroke="#000000" points="1382,-1517.5 1382,-1552.5 1717,-1552.5 1717,-1517.5 1382,-1517.5"/>
<text text-anchor="start" x="1417.6976" y="-1530.3" font-family="Arial Bold" font-size="18.00" fill="#000000">public.run_facets</text>
<text text-anchor="start" x="1553.7344" y="-1530.3" font-family="Arial" font-size="14.00" fill="#000000">    </text>
<text text-anchor="start" x="1587.9392" y="-1530.3" font-family="Arial" font-size="14.00" fill="#666666">[BASE TABLE]</text>
<polygon fill="none" stroke="#000000" points="1382,-1487.5 1382,-1517.5 1717,-1517.5 1717,-1487.5 1382,-1487.5"/>
<text text-anchor="start" x="1389" y="-1498.9" font-family="Arial" font-size="14.00" fill="#000000">created_at    </text>
<text text-anchor="start" x="1489.3422" y="-1498.9" font-family="Arial" font-size="14.00" fill="#666666">[timestamp with time zone]</text>
<polygon fill="none" stroke="#000000" points="1382,-1457.5 1382,-1487.5 1717,-1487.5 1717,-1457.5 1382,-1457.5"/>
<text text-anchor="start" x="1389" y="-1468.9" font-family="Arial" font-size="14.00" fill="#000000">run_uuid    </text>
<text text-anchor="start" x="1477.6676" y="-1468.9" font-family="Arial" font-size="14.00" fill="#666666">[uuid]</text>
<polygon fill="none" stroke="#000000" points="1382,-1427.5 1382,-1457.5 1717,-1457.5 1717,-1427.5 1382,-1427.5"/>
<text text-anchor="start" x="1388.8703" y="-1438.9" font-family="Arial" font-size="14.00" fill="#000000">lineage_event_time    </text>
<text text-anchor="start" x="1544.4453" y="-1438.9" font-family="Arial" font-size="14.00" fill="#666666">[timestamp with time zone]</text>
<polygon fill="none" stroke="#000000" points="1382,-1397.5 1382,-1427.5 1717,-1427.5 1717,-1397.5 1382,-1397.5"/>
<text text-anchor="start" x="1389" y="-1408.9" font-family="Arial" font-size="14.00" fill="#000000">lineage_event_type    </text>
<text text-anchor="start" x="1544.5904" y="-1408.9" font-family="Arial" font-size="14.00" fill="#666666">[varchar(64)]</text>
<polygon fill="none" stroke="#000000" points="1382,-1367.5 1382,-1397.5 1717,-1397.5 1717,-1367.5 1382,-1367.5"/>
<text text-anchor="start" x="1389" y="-1378.9" font-family="Arial" font-size="14.00" fill="#000000">name    </text>
<text text-anchor="start" x="1458.2132" y="-1378.9" font-family="Arial" font-size="14.00" fill="#666666">[varchar(255)]</text>
<polygon fill="none" stroke="#000000" points="1382,-1337.5 1382,-1367.5 1717,-1367.5 1717,-1337.5 1382,-1337.5"/>
<text text-anchor="start" x="1389" y="-1348.9" font-family="Arial" font-size="14.00" fill="#000000">facet    </text>
<text text-anchor="start" x="1453.5512" y="-1348.9" font-family="Arial" font-size="14.00" fill="#666666">[jsonb]</text>
</g>
<!-- public.run_facets&#45;&gt;public.runs -->
<g id="edge6" class="edge">
<title>public.run_facets:run_uuid&#45;&gt;public.runs:uuid</title>
<path fill="none" stroke="#000000" d="M1371.8148,-1471.948C1288.4024,-1462.2183 1391.435,-1326.2041 1330,-1250 1243.8434,-1143.1312 1188.2731,-1117.5 1051,-1117.5"/>
<polygon fill="#000000" stroke="#000000" points="1372.0147,-1471.9587 1381.7564,-1476.9934 1377.0073,-1472.2294 1382,-1472.5 1382,-1472.5 1382,-1472.5 1377.0073,-1472.2294 1382.2436,-1468.0066 1372.0147,-1471.9587 1372.0147,-1471.9587"/>
<text text-anchor="start" x="1140.2165" y="-1482.5" font-family="Arial" font-size="10.00" fill="#000000">FOREIGN KEY (run_uuid) REFERENCES runs(uuid)</text>
</g>
</g>
</svg>
