<?xml version="1.0" encoding="UTF-8" standalone="no"?>
<!DOCTYPE svg PUBLIC "-//W3C//DTD SVG 1.1//EN"
 "http://www.w3.org/Graphics/SVG/1.1/DTD/svg11.dtd">
<!-- Generated by graphviz version 2.40.1 (20161225.0304)
 -->
<!-- Title: public.dataset_versions_field_mapping Pages: 1 -->
<svg width="1154pt" height="622pt"
 viewBox="0.00 0.00 1154.00 622.00" xmlns="http://www.w3.org/2000/svg" xmlns:xlink="http://www.w3.org/1999/xlink">
<g id="graph0" class="graph" transform="scale(1 1) rotate(0) translate(4 618)">
<title>public.dataset_versions_field_mapping</title>
<polygon fill="#ffffff" stroke="transparent" points="-4,4 -4,-618 1150,-618 1150,4 -4,4"/>
<!-- public.dataset_versions_field_mapping -->
<g id="node1" class="node">
<title>public.dataset_versions_field_mapping</title>
<polygon fill="#efefef" stroke="transparent" points="361,-532.5 361,-567.5 812,-567.5 812,-532.5 361,-532.5"/>
<polygon fill="none" stroke="#000000" points="361,-532.5 361,-567.5 812,-567.5 812,-532.5 361,-532.5"/>
<text text-anchor="start" x="367.6748" y="-545.3" font-family="Arial Bold" font-size="18.00" fill="#000000">public.dataset_versions_field_mapping</text>
<text text-anchor="start" x="677.7572" y="-545.3" font-family="Arial" font-size="14.00" fill="#000000">    </text>
<text text-anchor="start" x="711.962" y="-545.3" font-family="Arial" font-size="14.00" fill="#666666">[BASE TABLE]</text>
<polygon fill="none" stroke="#000000" points="361,-502.5 361,-532.5 812,-532.5 812,-502.5 361,-502.5"/>
<text text-anchor="start" x="368" y="-513.9" font-family="Arial" font-size="14.00" fill="#000000">dataset_version_uuid </text>
<text text-anchor="start" x="504.9368" y="-513.9" font-family="Arial" font-size="14.00" fill="#666666">[uuid]</text>
<polygon fill="none" stroke="#000000" points="361,-472.5 361,-502.5 812,-502.5 812,-472.5 361,-472.5"/>
<text text-anchor="start" x="368" y="-483.9" font-family="Arial" font-size="14.00" fill="#000000">dataset_field_uuid </text>
<text text-anchor="start" x="485.4908" y="-483.9" font-family="Arial" font-size="14.00" fill="#666666">[uuid]</text>
<polygon fill="none" stroke="#000000" stroke-width="3" points="359,-471.5 359,-569.5 813,-569.5 813,-471.5 359,-471.5"/>
</g>
<!-- public.dataset_versions -->
<g id="node2" class="node">
<title>public.dataset_versions</title>
<polygon fill="#efefef" stroke="transparent" points="212,-312.5 212,-347.5 541,-347.5 541,-312.5 212,-312.5"/>
<polygon fill="none" stroke="#000000" points="212,-312.5 212,-347.5 541,-347.5 541,-312.5 212,-312.5"/>
<text text-anchor="start" x="218.6912" y="-325.3" font-family="Arial Bold" font-size="18.00" fill="#000000">public.dataset_versions</text>
<text text-anchor="start" x="406.7408" y="-325.3" font-family="Arial" font-size="14.00" fill="#000000">    </text>
<text text-anchor="start" x="440.9456" y="-325.3" font-family="Arial" font-size="14.00" fill="#666666">[BASE TABLE]</text>
<polygon fill="none" stroke="#000000" points="212,-282.5 212,-312.5 541,-312.5 541,-282.5 212,-282.5"/>
<text text-anchor="start" x="219" y="-293.9" font-family="Arial" font-size="14.00" fill="#000000">uuid    </text>
<text text-anchor="start" x="279.6592" y="-293.9" font-family="Arial" font-size="14.00" fill="#666666">[uuid]</text>
<polygon fill="none" stroke="#000000" points="212,-252.5 212,-282.5 541,-282.5 541,-252.5 212,-252.5"/>
<text text-anchor="start" x="219" y="-263.9" font-family="Arial" font-size="14.00" fill="#000000">created_at    </text>
<text text-anchor="start" x="319.3422" y="-263.9" font-family="Arial" font-size="14.00" fill="#666666">[timestamp without time zone]</text>
<polygon fill="none" stroke="#000000" points="212,-222.5 212,-252.5 541,-252.5 541,-222.5 212,-222.5"/>
<text text-anchor="start" x="219" y="-233.9" font-family="Arial" font-size="14.00" fill="#000000">dataset_uuid    </text>
<text text-anchor="start" x="333.3534" y="-233.9" font-family="Arial" font-size="14.00" fill="#666666">[uuid]</text>
<polygon fill="none" stroke="#000000" points="212,-192.5 212,-222.5 541,-222.5 541,-192.5 212,-192.5"/>
<text text-anchor="start" x="219" y="-203.9" font-family="Arial" font-size="14.00" fill="#000000">version    </text>
<text text-anchor="start" x="298.3198" y="-203.9" font-family="Arial" font-size="14.00" fill="#666666">[uuid]</text>
<polygon fill="none" stroke="#000000" points="212,-162.5 212,-192.5 541,-192.5 541,-162.5 212,-162.5"/>
<text text-anchor="start" x="219" y="-173.9" font-family="Arial" font-size="14.00" fill="#000000">run_uuid    </text>
<text text-anchor="start" x="307.6676" y="-173.9" font-family="Arial" font-size="14.00" fill="#666666">[uuid]</text>
<polygon fill="none" stroke="#000000" points="212,-132.5 212,-162.5 541,-162.5 541,-132.5 212,-132.5"/>
<text text-anchor="start" x="219" y="-143.9" font-family="Arial" font-size="14.00" fill="#000000">fields    </text>
<text text-anchor="start" x="285.8738" y="-143.9" font-family="Arial" font-size="14.00" fill="#666666">[jsonb]</text>
<polygon fill="none" stroke="#000000" points="212,-102.5 212,-132.5 541,-132.5 541,-102.5 212,-102.5"/>
<text text-anchor="start" x="219" y="-113.9" font-family="Arial" font-size="14.00" fill="#000000">namespace_name    </text>
<text text-anchor="start" x="368.352" y="-113.9" font-family="Arial" font-size="14.00" fill="#666666">[varchar]</text>
<polygon fill="none" stroke="#000000" points="212,-72.5 212,-102.5 541,-102.5 541,-72.5 212,-72.5"/>
<text text-anchor="start" x="219" y="-83.9" font-family="Arial" font-size="14.00" fill="#000000">dataset_name    </text>
<text text-anchor="start" x="341.9074" y="-83.9" font-family="Arial" font-size="14.00" fill="#666666">[varchar]</text>
<polygon fill="none" stroke="#000000" points="212,-42.5 212,-72.5 541,-72.5 541,-42.5 212,-42.5"/>
<text text-anchor="start" x="219" y="-53.9" font-family="Arial" font-size="14.00" fill="#000000">lifecycle_state    </text>
<text text-anchor="start" x="341.1094" y="-53.9" font-family="Arial" font-size="14.00" fill="#666666">[varchar(63)]</text>
</g>
<!-- public.dataset_versions_field_mapping&#45;&gt;public.dataset_versions -->
<g id="edge1" class="edge">
<title>public.dataset_versions_field_mapping:dataset_version_uuid&#45;&gt;public.dataset_versions:uuid</title>
<path fill="none" stroke="#000000" d="M351.0998,-516.0062C323.6328,-506.6122 337.8902,-455.1894 361,-427 412.7235,-363.9074 489.2765,-454.0926 541,-391 567.3458,-358.8633 582.5556,-297.5 541,-297.5"/>
<polygon fill="#000000" stroke="#000000" points="351.1119,-516.0079 360.3286,-521.9496 356.056,-516.754 361,-517.5 361,-517.5 361,-517.5 356.056,-516.754 361.6714,-513.0504 351.1119,-516.0079 351.1119,-516.0079"/>
<text text-anchor="start" x="7.0855" y="-527.5" font-family="Arial" font-size="10.00" fill="#000000">FOREIGN KEY (dataset_version_uuid) REFERENCES dataset_versions(uuid)</text>
</g>
<!-- public.dataset_fields -->
<g id="node3" class="node">
<title>public.dataset_fields</title>
<polygon fill="#efefef" stroke="transparent" points="645,-282.5 645,-317.5 949,-317.5 949,-282.5 645,-282.5"/>
<polygon fill="none" stroke="#000000" points="645,-282.5 645,-317.5 949,-317.5 949,-282.5 645,-282.5"/>
<text text-anchor="start" x="651.6922" y="-295.3" font-family="Arial Bold" font-size="18.00" fill="#000000">public.dataset_fields</text>
<text text-anchor="start" x="814.7398" y="-295.3" font-family="Arial" font-size="14.00" fill="#000000">    </text>
<text text-anchor="start" x="848.9446" y="-295.3" font-family="Arial" font-size="14.00" fill="#666666">[BASE TABLE]</text>
<polygon fill="none" stroke="#000000" points="645,-252.5 645,-282.5 949,-282.5 949,-252.5 645,-252.5"/>
<text text-anchor="start" x="652" y="-263.9" font-family="Arial" font-size="14.00" fill="#000000">uuid    </text>
<text text-anchor="start" x="712.6592" y="-263.9" font-family="Arial" font-size="14.00" fill="#666666">[uuid]</text>
<polygon fill="none" stroke="#000000" points="645,-222.5 645,-252.5 949,-252.5 949,-222.5 645,-222.5"/>
<text text-anchor="start" x="652" y="-233.9" font-family="Arial" font-size="14.00" fill="#000000">type    </text>
<text text-anchor="start" x="712.6606" y="-233.9" font-family="Arial" font-size="14.00" fill="#666666">[text]</text>
<polygon fill="none" stroke="#000000" points="645,-192.5 645,-222.5 949,-222.5 949,-192.5 645,-192.5"/>
<text text-anchor="start" x="652" y="-203.9" font-family="Arial" font-size="14.00" fill="#000000">created_at    </text>
<text text-anchor="start" x="752.3422" y="-203.9" font-family="Arial" font-size="14.00" fill="#666666">[timestamp without time zone]</text>
<polygon fill="none" stroke="#000000" points="645,-162.5 645,-192.5 949,-192.5 949,-162.5 645,-162.5"/>
<text text-anchor="start" x="652" y="-173.9" font-family="Arial" font-size="14.00" fill="#000000">updated_at    </text>
<text text-anchor="start" x="756.2468" y="-173.9" font-family="Arial" font-size="14.00" fill="#666666">[timestamp without time zone]</text>
<polygon fill="none" stroke="#000000" points="645,-132.5 645,-162.5 949,-162.5 949,-132.5 645,-132.5"/>
<text text-anchor="start" x="652" y="-143.9" font-family="Arial" font-size="14.00" fill="#000000">dataset_uuid    </text>
<text text-anchor="start" x="766.3534" y="-143.9" font-family="Arial" font-size="14.00" fill="#666666">[uuid]</text>
<polygon fill="none" stroke="#000000" points="645,-102.5 645,-132.5 949,-132.5 949,-102.5 645,-102.5"/>
<text text-anchor="start" x="652" y="-113.9" font-family="Arial" font-size="14.00" fill="#000000">name    </text>
<text text-anchor="start" x="721.2132" y="-113.9" font-family="Arial" font-size="14.00" fill="#666666">[varchar(255)]</text>
<polygon fill="none" stroke="#000000" points="645,-72.5 645,-102.5 949,-102.5 949,-72.5 645,-72.5"/>
<text text-anchor="start" x="652" y="-83.9" font-family="Arial" font-size="14.00" fill="#000000">description    </text>
<text text-anchor="start" x="753.8822" y="-83.9" font-family="Arial" font-size="14.00" fill="#666666">[text]</text>
</g>
<!-- public.dataset_versions_field_mapping&#45;&gt;public.dataset_fields -->
<g id="edge2" class="edge">
<title>public.dataset_versions_field_mapping:dataset_field_uuid&#45;&gt;public.dataset_fields:uuid</title>
<path fill="none" stroke="#000000" d="M821.9075,-484.9045C835.1295,-475.9334 824.7581,-445.7604 812,-427 767.1205,-361.0059 689.8795,-426.9941 645,-361 621.6316,-326.6375 603.4444,-267.5 645,-267.5"/>
<polygon fill="#000000" stroke="#000000" points="821.6736,-484.9657 810.8596,-483.1469 816.8368,-486.2328 812,-487.5 812,-487.5 812,-487.5 816.8368,-486.2328 813.1404,-491.8531 821.6736,-484.9657 821.6736,-484.9657"/>
<text text-anchor="start" x="818.9755" y="-497.5" font-family="Arial" font-size="10.00" fill="#000000">FOREIGN KEY (dataset_field_uuid) REFERENCES dataset_fields(uuid)</text>
</g>
</g>
</svg>
