<?xml version="1.0" encoding="UTF-8" standalone="no"?>
<!DOCTYPE svg PUBLIC "-//W3C//DTD SVG 1.1//EN"
 "http://www.w3.org/Graphics/SVG/1.1/DTD/svg11.dtd">
<!-- Generated by graphviz version 2.40.1 (20161225.0304)
 -->
<!-- Title: public.datasets Pages: 1 -->
<svg width="2251pt" height="1379pt"
 viewBox="0.00 0.00 2251.00 1379.00" xmlns="http://www.w3.org/2000/svg" xmlns:xlink="http://www.w3.org/1999/xlink">
<g id="graph0" class="graph" transform="scale(1 1) rotate(0) translate(4 1375)">
<title>public.datasets</title>
<polygon fill="#ffffff" stroke="transparent" points="-4,4 -4,-1375 2247,-1375 2247,4 -4,4"/>
<!-- public.datasets -->
<g id="node1" class="node">
<title>public.datasets</title>
<polygon fill="#efefef" stroke="transparent" points="977.5,-862.5 977.5,-897.5 1281.5,-897.5 1281.5,-862.5 977.5,-862.5"/>
<polygon fill="none" stroke="#000000" points="977.5,-862.5 977.5,-897.5 1281.5,-897.5 1281.5,-862.5 977.5,-862.5"/>
<text text-anchor="start" x="1005.6968" y="-875.3" font-family="Arial Bold" font-size="18.00" fill="#000000">public.datasets</text>
<text text-anchor="start" x="1125.7352" y="-875.3" font-family="Arial" font-size="14.00" fill="#000000">    </text>
<text text-anchor="start" x="1159.94" y="-875.3" font-family="Arial" font-size="14.00" fill="#666666">[BASE TABLE]</text>
<polygon fill="none" stroke="#000000" points="977.5,-832.5 977.5,-862.5 1281.5,-862.5 1281.5,-832.5 977.5,-832.5"/>
<text text-anchor="start" x="984.5" y="-843.9" font-family="Arial" font-size="14.00" fill="#000000">uuid </text>
<text text-anchor="start" x="1014.845" y="-843.9" font-family="Arial" font-size="14.00" fill="#666666">[uuid]</text>
<polygon fill="none" stroke="#000000" points="977.5,-802.5 977.5,-832.5 1281.5,-832.5 1281.5,-802.5 977.5,-802.5"/>
<text text-anchor="start" x="984.5" y="-813.9" font-family="Arial" font-size="14.00" fill="#000000">type </text>
<text text-anchor="start" x="1014.8464" y="-813.9" font-family="Arial" font-size="14.00" fill="#666666">[varchar(64)]</text>
<polygon fill="none" stroke="#000000" points="977.5,-772.5 977.5,-802.5 1281.5,-802.5 1281.5,-772.5 977.5,-772.5"/>
<text text-anchor="start" x="984.5" y="-783.9" font-family="Arial" font-size="14.00" fill="#000000">created_at </text>
<text text-anchor="start" x="1054.528" y="-783.9" font-family="Arial" font-size="14.00" fill="#666666">[timestamp without time zone]</text>
<polygon fill="none" stroke="#000000" points="977.5,-742.5 977.5,-772.5 1281.5,-772.5 1281.5,-742.5 977.5,-742.5"/>
<text text-anchor="start" x="984.5" y="-753.9" font-family="Arial" font-size="14.00" fill="#000000">updated_at </text>
<text text-anchor="start" x="1058.4326" y="-753.9" font-family="Arial" font-size="14.00" fill="#666666">[timestamp without time zone]</text>
<polygon fill="none" stroke="#000000" points="977.5,-712.5 977.5,-742.5 1281.5,-742.5 1281.5,-712.5 977.5,-712.5"/>
<text text-anchor="start" x="984.5" y="-723.9" font-family="Arial" font-size="14.00" fill="#000000">namespace_uuid </text>
<text text-anchor="start" x="1094.9838" y="-723.9" font-family="Arial" font-size="14.00" fill="#666666">[uuid]</text>
<polygon fill="none" stroke="#000000" points="977.5,-682.5 977.5,-712.5 1281.5,-712.5 1281.5,-682.5 977.5,-682.5"/>
<text text-anchor="start" x="984.5" y="-693.9" font-family="Arial" font-size="14.00" fill="#000000">source_uuid </text>
<text text-anchor="start" x="1064.636" y="-693.9" font-family="Arial" font-size="14.00" fill="#666666">[uuid]</text>
<polygon fill="none" stroke="#000000" points="977.5,-652.5 977.5,-682.5 1281.5,-682.5 1281.5,-652.5 977.5,-652.5"/>
<text text-anchor="start" x="984.5" y="-663.9" font-family="Arial" font-size="14.00" fill="#000000">name </text>
<text text-anchor="start" x="1023.399" y="-663.9" font-family="Arial" font-size="14.00" fill="#666666">[varchar]</text>
<polygon fill="none" stroke="#000000" points="977.5,-622.5 977.5,-652.5 1281.5,-652.5 1281.5,-622.5 977.5,-622.5"/>
<text text-anchor="start" x="984.5" y="-633.9" font-family="Arial" font-size="14.00" fill="#000000">physical_name </text>
<text text-anchor="start" x="1081.7426" y="-633.9" font-family="Arial" font-size="14.00" fill="#666666">[varchar]</text>
<polygon fill="none" stroke="#000000" points="977.5,-592.5 977.5,-622.5 1281.5,-622.5 1281.5,-592.5 977.5,-592.5"/>
<text text-anchor="start" x="984.5" y="-603.9" font-family="Arial" font-size="14.00" fill="#000000">description </text>
<text text-anchor="start" x="1056.068" y="-603.9" font-family="Arial" font-size="14.00" fill="#666666">[text]</text>
<polygon fill="none" stroke="#000000" points="977.5,-562.5 977.5,-592.5 1281.5,-592.5 1281.5,-562.5 977.5,-562.5"/>
<text text-anchor="start" x="984.5" y="-573.9" font-family="Arial" font-size="14.00" fill="#000000">current_version_uuid </text>
<text text-anchor="start" x="1119.0848" y="-573.9" font-family="Arial" font-size="14.00" fill="#666666">[uuid]</text>
<polygon fill="none" stroke="#000000" points="977.5,-532.5 977.5,-562.5 1281.5,-562.5 1281.5,-532.5 977.5,-532.5"/>
<text text-anchor="start" x="984.0281" y="-543.9" font-family="Arial" font-size="14.00" fill="#000000">last_modified_at </text>
<text text-anchor="start" x="1089.8317" y="-543.9" font-family="Arial" font-size="14.00" fill="#666666">[timestamp without time zone]</text>
<polygon fill="none" stroke="#000000" points="977.5,-502.5 977.5,-532.5 1281.5,-532.5 1281.5,-502.5 977.5,-502.5"/>
<text text-anchor="start" x="984.5" y="-513.9" font-family="Arial" font-size="14.00" fill="#000000">namespace_name </text>
<text text-anchor="start" x="1103.5378" y="-513.9" font-family="Arial" font-size="14.00" fill="#666666">[varchar]</text>
<polygon fill="none" stroke="#000000" points="977.5,-472.5 977.5,-502.5 1281.5,-502.5 1281.5,-472.5 977.5,-472.5"/>
<text text-anchor="start" x="984.5" y="-483.9" font-family="Arial" font-size="14.00" fill="#000000">source_name </text>
<text text-anchor="start" x="1073.19" y="-483.9" font-family="Arial" font-size="14.00" fill="#666666">[varchar]</text>
<polygon fill="none" stroke="#000000" points="977.5,-442.5 977.5,-472.5 1281.5,-472.5 1281.5,-442.5 977.5,-442.5"/>
<text text-anchor="start" x="984.5" y="-453.9" font-family="Arial" font-size="14.00" fill="#000000">is_deleted </text>
<text text-anchor="start" x="1052.19" y="-453.9" font-family="Arial" font-size="14.00" fill="#666666">[boolean]</text>
<polygon fill="none" stroke="#000000" points="977.5,-412.5 977.5,-442.5 1281.5,-442.5 1281.5,-412.5 977.5,-412.5"/>
<text text-anchor="start" x="984.5" y="-423.9" font-family="Arial" font-size="14.00" fill="#000000">is_hidden </text>
<text text-anchor="start" x="1048.2994" y="-423.9" font-family="Arial" font-size="14.00" fill="#666666">[boolean]</text>
<polygon fill="none" stroke="#000000" stroke-width="3" points="976,-411.5 976,-899.5 1283,-899.5 1283,-411.5 976,-411.5"/>
</g>
<!-- public.namespaces -->
<g id="node7" class="node">
<title>public.namespaces</title>
<polygon fill="#efefef" stroke="transparent" points="774.5,-252.5 774.5,-287.5 1077.5,-287.5 1077.5,-252.5 774.5,-252.5"/>
<polygon fill="none" stroke="#000000" points="774.5,-252.5 774.5,-287.5 1077.5,-287.5 1077.5,-252.5 774.5,-252.5"/>
<text text-anchor="start" x="785.1967" y="-265.3" font-family="Arial Bold" font-size="18.00" fill="#000000">public.namespaces</text>
<text text-anchor="start" x="939.2353" y="-265.3" font-family="Arial" font-size="14.00" fill="#000000">    </text>
<text text-anchor="start" x="973.4401" y="-265.3" font-family="Arial" font-size="14.00" fill="#666666">[BASE TABLE]</text>
<polygon fill="none" stroke="#000000" points="774.5,-222.5 774.5,-252.5 1077.5,-252.5 1077.5,-222.5 774.5,-222.5"/>
<text text-anchor="start" x="781.5" y="-233.9" font-family="Arial" font-size="14.00" fill="#000000">uuid    </text>
<text text-anchor="start" x="842.1592" y="-233.9" font-family="Arial" font-size="14.00" fill="#666666">[uuid]</text>
<polygon fill="none" stroke="#000000" points="774.5,-192.5 774.5,-222.5 1077.5,-222.5 1077.5,-192.5 774.5,-192.5"/>
<text text-anchor="start" x="781.5" y="-203.9" font-family="Arial" font-size="14.00" fill="#000000">created_at    </text>
<text text-anchor="start" x="881.8422" y="-203.9" font-family="Arial" font-size="14.00" fill="#666666">[timestamp without time zone]</text>
<polygon fill="none" stroke="#000000" points="774.5,-162.5 774.5,-192.5 1077.5,-192.5 1077.5,-162.5 774.5,-162.5"/>
<text text-anchor="start" x="781.3065" y="-173.9" font-family="Arial" font-size="14.00" fill="#000000">updated_at    </text>
<text text-anchor="start" x="885.5533" y="-173.9" font-family="Arial" font-size="14.00" fill="#666666">[timestamp without time zone]</text>
<polygon fill="none" stroke="#000000" points="774.5,-132.5 774.5,-162.5 1077.5,-162.5 1077.5,-132.5 774.5,-132.5"/>
<text text-anchor="start" x="781.5" y="-143.9" font-family="Arial" font-size="14.00" fill="#000000">name    </text>
<text text-anchor="start" x="850.7132" y="-143.9" font-family="Arial" font-size="14.00" fill="#666666">[varchar]</text>
<polygon fill="none" stroke="#000000" points="774.5,-102.5 774.5,-132.5 1077.5,-132.5 1077.5,-102.5 774.5,-102.5"/>
<text text-anchor="start" x="781.5" y="-113.9" font-family="Arial" font-size="14.00" fill="#000000">description    </text>
<text text-anchor="start" x="883.3822" y="-113.9" font-family="Arial" font-size="14.00" fill="#666666">[text]</text>
<polygon fill="none" stroke="#000000" points="774.5,-72.5 774.5,-102.5 1077.5,-102.5 1077.5,-72.5 774.5,-72.5"/>
<text text-anchor="start" x="781.5" y="-83.9" font-family="Arial" font-size="14.00" fill="#000000">current_owner_name    </text>
<text text-anchor="start" x="947.953" y="-83.9" font-family="Arial" font-size="14.00" fill="#666666">[varchar(64)]</text>
<polygon fill="none" stroke="#000000" points="774.5,-42.5 774.5,-72.5 1077.5,-72.5 1077.5,-42.5 774.5,-42.5"/>
<text text-anchor="start" x="781.5" y="-53.9" font-family="Arial" font-size="14.00" fill="#000000">is_hidden    </text>
<text text-anchor="start" x="875.6136" y="-53.9" font-family="Arial" font-size="14.00" fill="#666666">[boolean]</text>
</g>
<!-- public.datasets&#45;&gt;public.namespaces -->
<g id="edge6" class="edge">
<title>public.datasets:namespace_uuid&#45;&gt;public.namespaces:uuid</title>
<path fill="none" stroke="#000000" d="M967.4873,-727.1856C820.2147,-717.6877 887.3494,-495.2686 977.5,-367 1004.6617,-328.3535 1050.3383,-369.6465 1077.5,-331 1101.395,-297.0016 1119.0556,-237.5 1077.5,-237.5"/>
<polygon fill="#000000" stroke="#000000" points="967.5049,-727.186 977.3587,-731.9978 972.5025,-727.343 977.5,-727.5 977.5,-727.5 977.5,-727.5 972.5025,-727.343 977.6413,-723.0022 967.5049,-727.186 967.5049,-727.186"/>
<text text-anchor="start" x="660.4805" y="-737.5" font-family="Arial" font-size="10.00" fill="#000000">FOREIGN KEY (namespace_uuid) REFERENCES namespaces(uuid)</text>
</g>
<!-- public.sources -->
<g id="node8" class="node">
<title>public.sources</title>
<polygon fill="#efefef" stroke="transparent" points="1181.5,-252.5 1181.5,-287.5 1484.5,-287.5 1484.5,-252.5 1181.5,-252.5"/>
<polygon fill="none" stroke="#000000" points="1181.5,-252.5 1181.5,-287.5 1484.5,-287.5 1484.5,-252.5 1181.5,-252.5"/>
<text text-anchor="start" x="1211.706" y="-265.3" font-family="Arial Bold" font-size="18.00" fill="#000000">public.sources</text>
<text text-anchor="start" x="1326.726" y="-265.3" font-family="Arial" font-size="14.00" fill="#000000">    </text>
<text text-anchor="start" x="1360.9308" y="-265.3" font-family="Arial" font-size="14.00" fill="#666666">[BASE TABLE]</text>
<polygon fill="none" stroke="#000000" points="1181.5,-222.5 1181.5,-252.5 1484.5,-252.5 1484.5,-222.5 1181.5,-222.5"/>
<text text-anchor="start" x="1188.5" y="-233.9" font-family="Arial" font-size="14.00" fill="#000000">uuid    </text>
<text text-anchor="start" x="1249.1592" y="-233.9" font-family="Arial" font-size="14.00" fill="#666666">[uuid]</text>
<polygon fill="none" stroke="#000000" points="1181.5,-192.5 1181.5,-222.5 1484.5,-222.5 1484.5,-192.5 1181.5,-192.5"/>
<text text-anchor="start" x="1188.5" y="-203.9" font-family="Arial" font-size="14.00" fill="#000000">type    </text>
<text text-anchor="start" x="1249.1606" y="-203.9" font-family="Arial" font-size="14.00" fill="#666666">[varchar(64)]</text>
<polygon fill="none" stroke="#000000" points="1181.5,-162.5 1181.5,-192.5 1484.5,-192.5 1484.5,-162.5 1181.5,-162.5"/>
<text text-anchor="start" x="1188.5" y="-173.9" font-family="Arial" font-size="14.00" fill="#000000">created_at    </text>
<text text-anchor="start" x="1288.8422" y="-173.9" font-family="Arial" font-size="14.00" fill="#666666">[timestamp without time zone]</text>
<polygon fill="none" stroke="#000000" points="1181.5,-132.5 1181.5,-162.5 1484.5,-162.5 1484.5,-132.5 1181.5,-132.5"/>
<text text-anchor="start" x="1188.3065" y="-143.9" font-family="Arial" font-size="14.00" fill="#000000">updated_at    </text>
<text text-anchor="start" x="1292.5533" y="-143.9" font-family="Arial" font-size="14.00" fill="#666666">[timestamp without time zone]</text>
<polygon fill="none" stroke="#000000" points="1181.5,-102.5 1181.5,-132.5 1484.5,-132.5 1484.5,-102.5 1181.5,-102.5"/>
<text text-anchor="start" x="1188.5" y="-113.9" font-family="Arial" font-size="14.00" fill="#000000">name    </text>
<text text-anchor="start" x="1257.7132" y="-113.9" font-family="Arial" font-size="14.00" fill="#666666">[varchar]</text>
<polygon fill="none" stroke="#000000" points="1181.5,-72.5 1181.5,-102.5 1484.5,-102.5 1484.5,-72.5 1181.5,-72.5"/>
<text text-anchor="start" x="1188.5" y="-83.9" font-family="Arial" font-size="14.00" fill="#000000">connection_url    </text>
<text text-anchor="start" x="1313.73" y="-83.9" font-family="Arial" font-size="14.00" fill="#666666">[varchar]</text>
<polygon fill="none" stroke="#000000" points="1181.5,-42.5 1181.5,-72.5 1484.5,-72.5 1484.5,-42.5 1181.5,-42.5"/>
<text text-anchor="start" x="1188.5" y="-53.9" font-family="Arial" font-size="14.00" fill="#000000">description    </text>
<text text-anchor="start" x="1290.3822" y="-53.9" font-family="Arial" font-size="14.00" fill="#666666">[text]</text>
</g>
<!-- public.datasets&#45;&gt;public.sources -->
<g id="edge7" class="edge">
<title>public.datasets:source_uuid&#45;&gt;public.sources:uuid</title>
<path fill="none" stroke="#000000" d="M1291.8869,-697.1283C1425.3276,-687.284 1363.901,-484.2423 1281.5,-367 1254.3383,-328.3535 1208.6617,-369.6465 1181.5,-331 1157.605,-297.0016 1139.9444,-237.5 1181.5,-237.5"/>
<polygon fill="#000000" stroke="#000000" points="1291.4936,-697.1423 1281.339,-693.0029 1286.4968,-697.3211 1281.5,-697.5 1281.5,-697.5 1281.5,-697.5 1286.4968,-697.3211 1281.661,-701.9971 1291.4936,-697.1423 1291.4936,-697.1423"/>
<text text-anchor="start" x="1288.1575" y="-707.5" font-family="Arial" font-size="10.00" fill="#000000">FOREIGN KEY (source_uuid) REFERENCES sources(uuid)</text>
</g>
<!-- public.job_versions_io_mapping -->
<g id="node2" class="node">
<title>public.job_versions_io_mapping</title>
<polygon fill="#efefef" stroke="transparent" points="43.5,-1202.5 43.5,-1237.5 440.5,-1237.5 440.5,-1202.5 43.5,-1202.5"/>
<polygon fill="none" stroke="#000000" points="43.5,-1202.5 43.5,-1237.5 440.5,-1237.5 440.5,-1202.5 43.5,-1202.5"/>
<text text-anchor="start" x="50.1874" y="-1215.3" font-family="Arial Bold" font-size="18.00" fill="#000000">public.job_versions_io_mapping</text>
<text text-anchor="start" x="306.2446" y="-1215.3" font-family="Arial" font-size="14.00" fill="#000000">    </text>
<text text-anchor="start" x="340.4494" y="-1215.3" font-family="Arial" font-size="14.00" fill="#666666">[BASE TABLE]</text>
<polygon fill="none" stroke="#000000" points="43.5,-1172.5 43.5,-1202.5 440.5,-1202.5 440.5,-1172.5 43.5,-1172.5"/>
<text text-anchor="start" x="50.5" y="-1183.9" font-family="Arial" font-size="14.00" fill="#000000">job_version_uuid    </text>
<text text-anchor="start" x="190.5112" y="-1183.9" font-family="Arial" font-size="14.00" fill="#666666">[uuid]</text>
<polygon fill="none" stroke="#000000" points="43.5,-1142.5 43.5,-1172.5 440.5,-1172.5 440.5,-1142.5 43.5,-1142.5"/>
<text text-anchor="start" x="50.5" y="-1153.9" font-family="Arial" font-size="14.00" fill="#000000">dataset_uuid    </text>
<text text-anchor="start" x="164.8534" y="-1153.9" font-family="Arial" font-size="14.00" fill="#666666">[uuid]</text>
<polygon fill="none" stroke="#000000" points="43.5,-1112.5 43.5,-1142.5 440.5,-1142.5 440.5,-1112.5 43.5,-1112.5"/>
<text text-anchor="start" x="50.5" y="-1123.9" font-family="Arial" font-size="14.00" fill="#000000">io_type    </text>
<text text-anchor="start" x="129.8324" y="-1123.9" font-family="Arial" font-size="14.00" fill="#666666">[varchar(64)]</text>
</g>
<!-- public.job_versions_io_mapping&#45;&gt;public.datasets -->
<g id="edge1" class="edge">
<title>public.job_versions_io_mapping:dataset_uuid&#45;&gt;public.datasets:uuid</title>
<path fill="none" stroke="#000000" d="M450.5518,-1156.7909C514.8369,-1146.8572 435.6912,-1035.0537 491.5,-980 571.1921,-901.3861 865.5582,-847.5 977.5,-847.5"/>
<polygon fill="#000000" stroke="#000000" points="450.4752,-1156.7962 440.1833,-1153.0112 445.4876,-1157.1481 440.5,-1157.5 440.5,-1157.5 440.5,-1157.5 445.4876,-1157.1481 440.8167,-1161.9888 450.4752,-1156.7962 450.4752,-1156.7962"/>
<text text-anchor="start" x="304.3695" y="-1141.5" font-family="Arial" font-size="10.00" fill="#000000">FOREIGN KEY (dataset_uuid) REFERENCES datasets(uuid)</text>
</g>
<!-- public.dataset_versions -->
<g id="node3" class="node">
<title>public.dataset_versions</title>
<polygon fill="#efefef" stroke="transparent" points="544.5,-1292.5 544.5,-1327.5 873.5,-1327.5 873.5,-1292.5 544.5,-1292.5"/>
<polygon fill="none" stroke="#000000" points="544.5,-1292.5 544.5,-1327.5 873.5,-1327.5 873.5,-1292.5 544.5,-1292.5"/>
<text text-anchor="start" x="551.1912" y="-1305.3" font-family="Arial Bold" font-size="18.00" fill="#000000">public.dataset_versions</text>
<text text-anchor="start" x="739.2408" y="-1305.3" font-family="Arial" font-size="14.00" fill="#000000">    </text>
<text text-anchor="start" x="773.4456" y="-1305.3" font-family="Arial" font-size="14.00" fill="#666666">[BASE TABLE]</text>
<polygon fill="none" stroke="#000000" points="544.5,-1262.5 544.5,-1292.5 873.5,-1292.5 873.5,-1262.5 544.5,-1262.5"/>
<text text-anchor="start" x="551.5" y="-1273.9" font-family="Arial" font-size="14.00" fill="#000000">uuid    </text>
<text text-anchor="start" x="612.1592" y="-1273.9" font-family="Arial" font-size="14.00" fill="#666666">[uuid]</text>
<polygon fill="none" stroke="#000000" points="544.5,-1232.5 544.5,-1262.5 873.5,-1262.5 873.5,-1232.5 544.5,-1232.5"/>
<text text-anchor="start" x="551.5" y="-1243.9" font-family="Arial" font-size="14.00" fill="#000000">created_at    </text>
<text text-anchor="start" x="651.8422" y="-1243.9" font-family="Arial" font-size="14.00" fill="#666666">[timestamp without time zone]</text>
<polygon fill="none" stroke="#000000" points="544.5,-1202.5 544.5,-1232.5 873.5,-1232.5 873.5,-1202.5 544.5,-1202.5"/>
<text text-anchor="start" x="551.5" y="-1213.9" font-family="Arial" font-size="14.00" fill="#000000">dataset_uuid    </text>
<text text-anchor="start" x="665.8534" y="-1213.9" font-family="Arial" font-size="14.00" fill="#666666">[uuid]</text>
<polygon fill="none" stroke="#000000" points="544.5,-1172.5 544.5,-1202.5 873.5,-1202.5 873.5,-1172.5 544.5,-1172.5"/>
<text text-anchor="start" x="551.5" y="-1183.9" font-family="Arial" font-size="14.00" fill="#000000">version    </text>
<text text-anchor="start" x="630.8198" y="-1183.9" font-family="Arial" font-size="14.00" fill="#666666">[uuid]</text>
<polygon fill="none" stroke="#000000" points="544.5,-1142.5 544.5,-1172.5 873.5,-1172.5 873.5,-1142.5 544.5,-1142.5"/>
<text text-anchor="start" x="551.5" y="-1153.9" font-family="Arial" font-size="14.00" fill="#000000">run_uuid    </text>
<text text-anchor="start" x="640.1676" y="-1153.9" font-family="Arial" font-size="14.00" fill="#666666">[uuid]</text>
<polygon fill="none" stroke="#000000" points="544.5,-1112.5 544.5,-1142.5 873.5,-1142.5 873.5,-1112.5 544.5,-1112.5"/>
<text text-anchor="start" x="551.5" y="-1123.9" font-family="Arial" font-size="14.00" fill="#000000">fields    </text>
<text text-anchor="start" x="618.3738" y="-1123.9" font-family="Arial" font-size="14.00" fill="#666666">[jsonb]</text>
<polygon fill="none" stroke="#000000" points="544.5,-1082.5 544.5,-1112.5 873.5,-1112.5 873.5,-1082.5 544.5,-1082.5"/>
<text text-anchor="start" x="551.5" y="-1093.9" font-family="Arial" font-size="14.00" fill="#000000">namespace_name    </text>
<text text-anchor="start" x="700.852" y="-1093.9" font-family="Arial" font-size="14.00" fill="#666666">[varchar]</text>
<polygon fill="none" stroke="#000000" points="544.5,-1052.5 544.5,-1082.5 873.5,-1082.5 873.5,-1052.5 544.5,-1052.5"/>
<text text-anchor="start" x="551.5" y="-1063.9" font-family="Arial" font-size="14.00" fill="#000000">dataset_name    </text>
<text text-anchor="start" x="674.4074" y="-1063.9" font-family="Arial" font-size="14.00" fill="#666666">[varchar]</text>
<polygon fill="none" stroke="#000000" points="544.5,-1022.5 544.5,-1052.5 873.5,-1052.5 873.5,-1022.5 544.5,-1022.5"/>
<text text-anchor="start" x="551.5" y="-1033.9" font-family="Arial" font-size="14.00" fill="#000000">lifecycle_state    </text>
<text text-anchor="start" x="673.6094" y="-1033.9" font-family="Arial" font-size="14.00" fill="#666666">[varchar(63)]</text>
</g>
<!-- public.dataset_versions&#45;&gt;public.datasets -->
<g id="edge2" class="edge">
<title>public.dataset_versions:dataset_uuid&#45;&gt;public.datasets:uuid</title>
<path fill="none" stroke="#000000" d="M883.345,-1215.1356C925.3214,-1193.4145 910.8464,-1028.2647 925.5,-980 943.8784,-919.4669 914.2384,-847.5 977.5,-847.5"/>
<polygon fill="#000000" stroke="#000000" points="883.2235,-1215.1647 872.4491,-1213.1244 878.3618,-1216.3324 873.5,-1217.5 873.5,-1217.5 873.5,-1217.5 878.3618,-1216.3324 874.5509,-1221.8756 883.2235,-1215.1647 883.2235,-1215.1647"/>
<text text-anchor="start" x="880.3695" y="-1227.5" font-family="Arial" font-size="10.00" fill="#000000">FOREIGN KEY (dataset_uuid) REFERENCES datasets(uuid)</text>
</g>
<!-- public.dataset_fields -->
<g id="node4" class="node">
<title>public.dataset_fields</title>
<polygon fill="#efefef" stroke="transparent" points="977.5,-1262.5 977.5,-1297.5 1281.5,-1297.5 1281.5,-1262.5 977.5,-1262.5"/>
<polygon fill="none" stroke="#000000" points="977.5,-1262.5 977.5,-1297.5 1281.5,-1297.5 1281.5,-1262.5 977.5,-1262.5"/>
<text text-anchor="start" x="984.1922" y="-1275.3" font-family="Arial Bold" font-size="18.00" fill="#000000">public.dataset_fields</text>
<text text-anchor="start" x="1147.2398" y="-1275.3" font-family="Arial" font-size="14.00" fill="#000000">    </text>
<text text-anchor="start" x="1181.4446" y="-1275.3" font-family="Arial" font-size="14.00" fill="#666666">[BASE TABLE]</text>
<polygon fill="none" stroke="#000000" points="977.5,-1232.5 977.5,-1262.5 1281.5,-1262.5 1281.5,-1232.5 977.5,-1232.5"/>
<text text-anchor="start" x="984.5" y="-1243.9" font-family="Arial" font-size="14.00" fill="#000000">uuid    </text>
<text text-anchor="start" x="1045.1592" y="-1243.9" font-family="Arial" font-size="14.00" fill="#666666">[uuid]</text>
<polygon fill="none" stroke="#000000" points="977.5,-1202.5 977.5,-1232.5 1281.5,-1232.5 1281.5,-1202.5 977.5,-1202.5"/>
<text text-anchor="start" x="984.5" y="-1213.9" font-family="Arial" font-size="14.00" fill="#000000">type    </text>
<text text-anchor="start" x="1045.1606" y="-1213.9" font-family="Arial" font-size="14.00" fill="#666666">[text]</text>
<polygon fill="none" stroke="#000000" points="977.5,-1172.5 977.5,-1202.5 1281.5,-1202.5 1281.5,-1172.5 977.5,-1172.5"/>
<text text-anchor="start" x="984.5" y="-1183.9" font-family="Arial" font-size="14.00" fill="#000000">created_at    </text>
<text text-anchor="start" x="1084.8422" y="-1183.9" font-family="Arial" font-size="14.00" fill="#666666">[timestamp without time zone]</text>
<polygon fill="none" stroke="#000000" points="977.5,-1142.5 977.5,-1172.5 1281.5,-1172.5 1281.5,-1142.5 977.5,-1142.5"/>
<text text-anchor="start" x="984.5" y="-1153.9" font-family="Arial" font-size="14.00" fill="#000000">updated_at    </text>
<text text-anchor="start" x="1088.7468" y="-1153.9" font-family="Arial" font-size="14.00" fill="#666666">[timestamp without time zone]</text>
<polygon fill="none" stroke="#000000" points="977.5,-1112.5 977.5,-1142.5 1281.5,-1142.5 1281.5,-1112.5 977.5,-1112.5"/>
<text text-anchor="start" x="984.5" y="-1123.9" font-family="Arial" font-size="14.00" fill="#000000">dataset_uuid    </text>
<text text-anchor="start" x="1098.8534" y="-1123.9" font-family="Arial" font-size="14.00" fill="#666666">[uuid]</text>
<polygon fill="none" stroke="#000000" points="977.5,-1082.5 977.5,-1112.5 1281.5,-1112.5 1281.5,-1082.5 977.5,-1082.5"/>
<text text-anchor="start" x="984.5" y="-1093.9" font-family="Arial" font-size="14.00" fill="#000000">name    </text>
<text text-anchor="start" x="1053.7132" y="-1093.9" font-family="Arial" font-size="14.00" fill="#666666">[varchar(255)]</text>
<polygon fill="none" stroke="#000000" points="977.5,-1052.5 977.5,-1082.5 1281.5,-1082.5 1281.5,-1052.5 977.5,-1052.5"/>
<text text-anchor="start" x="984.5" y="-1063.9" font-family="Arial" font-size="14.00" fill="#000000">description    </text>
<text text-anchor="start" x="1086.3822" y="-1063.9" font-family="Arial" font-size="14.00" fill="#666666">[text]</text>
</g>
<!-- public.dataset_fields&#45;&gt;public.datasets -->
<g id="edge3" class="edge">
<title>public.dataset_fields:dataset_uuid&#45;&gt;public.datasets:uuid</title>
<path fill="none" stroke="#000000" d="M1291.4741,-1124.9069C1343.5226,-1096.6795 1340.1979,-847.5 1281.5,-847.5"/>
<polygon fill="#000000" stroke="#000000" points="1291.1783,-1124.9837 1280.3677,-1123.1448 1286.3391,-1126.2419 1281.5,-1127.5 1281.5,-1127.5 1281.5,-1127.5 1286.3391,-1126.2419 1282.6323,-1131.8552 1291.1783,-1124.9837 1291.1783,-1124.9837"/>
<text text-anchor="start" x="1145.3695" y="-1111.5" font-family="Arial" font-size="10.00" fill="#000000">FOREIGN KEY (dataset_uuid) REFERENCES datasets(uuid)</text>
</g>
<!-- public.datasets_tag_mapping -->
<g id="node5" class="node">
<title>public.datasets_tag_mapping</title>
<polygon fill="#efefef" stroke="transparent" points="1386.5,-1202.5 1386.5,-1237.5 1761.5,-1237.5 1761.5,-1202.5 1386.5,-1202.5"/>
<polygon fill="none" stroke="#000000" points="1386.5,-1202.5 1386.5,-1237.5 1761.5,-1237.5 1761.5,-1202.5 1386.5,-1202.5"/>
<text text-anchor="start" x="1393.1746" y="-1215.3" font-family="Arial Bold" font-size="18.00" fill="#000000">public.datasets_tag_mapping</text>
<text text-anchor="start" x="1627.2574" y="-1215.3" font-family="Arial" font-size="14.00" fill="#000000">    </text>
<text text-anchor="start" x="1661.4622" y="-1215.3" font-family="Arial" font-size="14.00" fill="#666666">[BASE TABLE]</text>
<polygon fill="none" stroke="#000000" points="1386.5,-1172.5 1386.5,-1202.5 1761.5,-1202.5 1761.5,-1172.5 1386.5,-1172.5"/>
<text text-anchor="start" x="1393.5" y="-1183.9" font-family="Arial" font-size="14.00" fill="#000000">dataset_uuid    </text>
<text text-anchor="start" x="1507.8534" y="-1183.9" font-family="Arial" font-size="14.00" fill="#666666">[uuid]</text>
<polygon fill="none" stroke="#000000" points="1386.5,-1142.5 1386.5,-1172.5 1761.5,-1172.5 1761.5,-1142.5 1386.5,-1142.5"/>
<text text-anchor="start" x="1393.5" y="-1153.9" font-family="Arial" font-size="14.00" fill="#000000">tag_uuid    </text>
<text text-anchor="start" x="1481.3976" y="-1153.9" font-family="Arial" font-size="14.00" fill="#666666">[uuid]</text>
<polygon fill="none" stroke="#000000" points="1386.5,-1112.5 1386.5,-1142.5 1761.5,-1142.5 1761.5,-1112.5 1386.5,-1112.5"/>
<text text-anchor="start" x="1393.5" y="-1123.9" font-family="Arial" font-size="14.00" fill="#000000">tagged_at    </text>
<text text-anchor="start" x="1489.9642" y="-1123.9" font-family="Arial" font-size="14.00" fill="#666666">[timestamp without time zone]</text>
</g>
<!-- public.datasets_tag_mapping&#45;&gt;public.datasets -->
<g id="edge4" class="edge">
<title>public.datasets_tag_mapping:dataset_uuid&#45;&gt;public.datasets:uuid</title>
<path fill="none" stroke="#000000" d="M1376.0924,-1186.9734C1296.7418,-1178.4063 1361.5788,-1067.0483 1333.5,-980 1314.0793,-919.7932 1344.7616,-847.5 1281.5,-847.5"/>
<polygon fill="#000000" stroke="#000000" points="1376.5128,-1186.9945 1386.2725,-1191.9942 1381.5064,-1187.2473 1386.5,-1187.5 1386.5,-1187.5 1386.5,-1187.5 1381.5064,-1187.2473 1386.7275,-1183.0058 1376.5128,-1186.9945 1376.5128,-1186.9945"/>
<text text-anchor="start" x="1107.3695" y="-1197.5" font-family="Arial" font-size="10.00" fill="#000000">FOREIGN KEY (dataset_uuid) REFERENCES datasets(uuid)</text>
</g>
<!-- public.dataset_facets -->
<g id="node6" class="node">
<title>public.dataset_facets</title>
<polygon fill="#efefef" stroke="transparent" points="1865.5,-1292.5 1865.5,-1327.5 2200.5,-1327.5 2200.5,-1292.5 1865.5,-1292.5"/>
<polygon fill="none" stroke="#000000" points="1865.5,-1292.5 1865.5,-1327.5 2200.5,-1327.5 2200.5,-1292.5 1865.5,-1292.5"/>
<text text-anchor="start" x="1884.6853" y="-1305.3" font-family="Arial Bold" font-size="18.00" fill="#000000">public.dataset_facets</text>
<text text-anchor="start" x="2053.7467" y="-1305.3" font-family="Arial" font-size="14.00" fill="#000000">    </text>
<text text-anchor="start" x="2087.9515" y="-1305.3" font-family="Arial" font-size="14.00" fill="#666666">[BASE TABLE]</text>
<polygon fill="none" stroke="#000000" points="1865.5,-1262.5 1865.5,-1292.5 2200.5,-1292.5 2200.5,-1262.5 1865.5,-1262.5"/>
<text text-anchor="start" x="1872.5" y="-1273.9" font-family="Arial" font-size="14.00" fill="#000000">created_at    </text>
<text text-anchor="start" x="1972.8422" y="-1273.9" font-family="Arial" font-size="14.00" fill="#666666">[timestamp with time zone]</text>
<polygon fill="none" stroke="#000000" points="1865.5,-1232.5 1865.5,-1262.5 2200.5,-1262.5 2200.5,-1232.5 1865.5,-1232.5"/>
<text text-anchor="start" x="1872.5" y="-1243.9" font-family="Arial" font-size="14.00" fill="#000000">dataset_uuid    </text>
<text text-anchor="start" x="1986.8534" y="-1243.9" font-family="Arial" font-size="14.00" fill="#666666">[uuid]</text>
<polygon fill="none" stroke="#000000" points="1865.5,-1202.5 1865.5,-1232.5 2200.5,-1232.5 2200.5,-1202.5 1865.5,-1202.5"/>
<text text-anchor="start" x="1872.5" y="-1213.9" font-family="Arial" font-size="14.00" fill="#000000">dataset_version_uuid    </text>
<text text-anchor="start" x="2039.751" y="-1213.9" font-family="Arial" font-size="14.00" fill="#666666">[uuid]</text>
<polygon fill="none" stroke="#000000" points="1865.5,-1172.5 1865.5,-1202.5 2200.5,-1202.5 2200.5,-1172.5 1865.5,-1172.5"/>
<text text-anchor="start" x="1872.5" y="-1183.9" font-family="Arial" font-size="14.00" fill="#000000">run_uuid    </text>
<text text-anchor="start" x="1961.1676" y="-1183.9" font-family="Arial" font-size="14.00" fill="#666666">[uuid]</text>
<polygon fill="none" stroke="#000000" points="1865.5,-1142.5 1865.5,-1172.5 2200.5,-1172.5 2200.5,-1142.5 1865.5,-1142.5"/>
<text text-anchor="start" x="1872.3703" y="-1153.9" font-family="Arial" font-size="14.00" fill="#000000">lineage_event_time    </text>
<text text-anchor="start" x="2027.9453" y="-1153.9" font-family="Arial" font-size="14.00" fill="#666666">[timestamp with time zone]</text>
<polygon fill="none" stroke="#000000" points="1865.5,-1112.5 1865.5,-1142.5 2200.5,-1142.5 2200.5,-1112.5 1865.5,-1112.5"/>
<text text-anchor="start" x="1872.5" y="-1123.9" font-family="Arial" font-size="14.00" fill="#000000">lineage_event_type    </text>
<text text-anchor="start" x="2028.0904" y="-1123.9" font-family="Arial" font-size="14.00" fill="#666666">[varchar(64)]</text>
<polygon fill="none" stroke="#000000" points="1865.5,-1082.5 1865.5,-1112.5 2200.5,-1112.5 2200.5,-1082.5 1865.5,-1082.5"/>
<text text-anchor="start" x="1872.5" y="-1093.9" font-family="Arial" font-size="14.00" fill="#000000">type    </text>
<text text-anchor="start" x="1933.1606" y="-1093.9" font-family="Arial" font-size="14.00" fill="#666666">[varchar(64)]</text>
<polygon fill="none" stroke="#000000" points="1865.5,-1052.5 1865.5,-1082.5 2200.5,-1082.5 2200.5,-1052.5 1865.5,-1052.5"/>
<text text-anchor="start" x="1872.5" y="-1063.9" font-family="Arial" font-size="14.00" fill="#000000">name    </text>
<text text-anchor="start" x="1941.7132" y="-1063.9" font-family="Arial" font-size="14.00" fill="#666666">[varchar(255)]</text>
<polygon fill="none" stroke="#000000" points="1865.5,-1022.5 1865.5,-1052.5 2200.5,-1052.5 2200.5,-1022.5 1865.5,-1022.5"/>
<text text-anchor="start" x="1872.5" y="-1033.9" font-family="Arial" font-size="14.00" fill="#000000">facet    </text>
<text text-anchor="start" x="1937.0512" y="-1033.9" font-family="Arial" font-size="14.00" fill="#666666">[jsonb]</text>
</g>
<!-- public.dataset_facets&#45;&gt;public.datasets -->
<g id="edge5" class="edge">
<title>public.dataset_facets:dataset_uuid&#45;&gt;public.datasets:uuid</title>
<path fill="none" stroke="#000000" d="M1855.2385,-1247.0136C1753.4026,-1236.7064 1894.357,-1065.183 1813.5,-980 1729.6235,-891.636 1403.3338,-847.5 1281.5,-847.5"/>
<polygon fill="#000000" stroke="#000000" points="1855.5112,-1247.0264 1865.2869,-1251.995 1860.5056,-1247.2632 1865.5,-1247.5 1865.5,-1247.5 1865.5,-1247.5 1860.5056,-1247.2632 1865.7131,-1243.005 1855.5112,-1247.0264 1855.5112,-1247.0264"/>
<text text-anchor="start" x="1586.3695" y="-1257.5" font-family="Arial" font-size="10.00" fill="#000000">FOREIGN KEY (dataset_uuid) REFERENCES datasets(uuid)</text>
</g>
</g>
</svg>
