<?xml version="1.0" encoding="UTF-8" standalone="no"?>
<!DOCTYPE svg PUBLIC "-//W3C//DTD SVG 1.1//EN"
 "http://www.w3.org/Graphics/SVG/1.1/DTD/svg11.dtd">
<!-- Generated by graphviz version 2.40.1 (20161225.0304)
 -->
<!-- Title: public.dataset_symlinks Pages: 1 -->
<svg width="709pt" height="712pt"
 viewBox="0.00 0.00 708.50 712.00" xmlns="http://www.w3.org/2000/svg" xmlns:xlink="http://www.w3.org/1999/xlink">
<g id="graph0" class="graph" transform="scale(1 1) rotate(0) translate(4 708)">
<title>public.dataset_symlinks</title>
<polygon fill="#ffffff" stroke="transparent" points="-4,4 -4,-708 704.5,-708 704.5,4 -4,4"/>
<!-- public.dataset_symlinks -->
<g id="node1" class="node">
<title>public.dataset_symlinks</title>
<polygon fill="#efefef" stroke="transparent" points="324,-622.5 324,-657.5 655,-657.5 655,-622.5 324,-622.5"/>
<polygon fill="none" stroke="#000000" points="324,-622.5 324,-657.5 655,-657.5 655,-622.5 324,-622.5"/>
<text text-anchor="start" x="330.7003" y="-635.3" font-family="Arial Bold" font-size="18.00" fill="#000000">public.dataset_symlinks</text>
<text text-anchor="start" x="520.7317" y="-635.3" font-family="Arial" font-size="14.00" fill="#000000">    </text>
<text text-anchor="start" x="554.9365" y="-635.3" font-family="Arial" font-size="14.00" fill="#666666">[BASE TABLE]</text>
<polygon fill="none" stroke="#000000" points="324,-592.5 324,-622.5 655,-622.5 655,-592.5 324,-592.5"/>
<text text-anchor="start" x="331" y="-603.9" font-family="Arial" font-size="14.00" fill="#000000">dataset_uuid </text>
<text text-anchor="start" x="415.0392" y="-603.9" font-family="Arial" font-size="14.00" fill="#666666">[uuid]</text>
<polygon fill="none" stroke="#000000" points="324,-562.5 324,-592.5 655,-592.5 655,-562.5 324,-562.5"/>
<text text-anchor="start" x="331" y="-573.9" font-family="Arial" font-size="14.00" fill="#000000">name </text>
<text text-anchor="start" x="369.899" y="-573.9" font-family="Arial" font-size="14.00" fill="#666666">[varchar]</text>
<polygon fill="none" stroke="#000000" points="324,-532.5 324,-562.5 655,-562.5 655,-532.5 324,-532.5"/>
<text text-anchor="start" x="331" y="-543.9" font-family="Arial" font-size="14.00" fill="#000000">namespace_uuid </text>
<text text-anchor="start" x="441.4838" y="-543.9" font-family="Arial" font-size="14.00" fill="#666666">[uuid]</text>
<polygon fill="none" stroke="#000000" points="324,-502.5 324,-532.5 655,-532.5 655,-502.5 324,-502.5"/>
<text text-anchor="start" x="331" y="-513.9" font-family="Arial" font-size="14.00" fill="#000000">type </text>
<text text-anchor="start" x="361.3464" y="-513.9" font-family="Arial" font-size="14.00" fill="#666666">[varchar(64)]</text>
<polygon fill="none" stroke="#000000" points="324,-472.5 324,-502.5 655,-502.5 655,-472.5 324,-472.5"/>
<text text-anchor="start" x="331" y="-483.9" font-family="Arial" font-size="14.00" fill="#000000">is_primary </text>
<text text-anchor="start" x="399.4334" y="-483.9" font-family="Arial" font-size="14.00" fill="#666666">[boolean]</text>
<polygon fill="none" stroke="#000000" points="324,-442.5 324,-472.5 655,-472.5 655,-442.5 324,-442.5"/>
<text text-anchor="start" x="331" y="-453.9" font-family="Arial" font-size="14.00" fill="#000000">created_at </text>
<text text-anchor="start" x="401.028" y="-453.9" font-family="Arial" font-size="14.00" fill="#666666">[timestamp without time zone]</text>
<polygon fill="none" stroke="#000000" points="324,-412.5 324,-442.5 655,-442.5 655,-412.5 324,-412.5"/>
<text text-anchor="start" x="331" y="-423.9" font-family="Arial" font-size="14.00" fill="#000000">updated_at </text>
<text text-anchor="start" x="404.9326" y="-423.9" font-family="Arial" font-size="14.00" fill="#666666">[timestamp without time zone]</text>
<polygon fill="none" stroke="#000000" stroke-width="3" points="322,-411.5 322,-659.5 656,-659.5 656,-411.5 322,-411.5"/>
</g>
<!-- public.namespaces -->
<g id="node2" class="node">
<title>public.namespaces</title>
<polygon fill="#efefef" stroke="transparent" points="338,-252.5 338,-287.5 641,-287.5 641,-252.5 338,-252.5"/>
<polygon fill="none" stroke="#000000" points="338,-252.5 338,-287.5 641,-287.5 641,-252.5 338,-252.5"/>
<text text-anchor="start" x="348.6967" y="-265.3" font-family="Arial Bold" font-size="18.00" fill="#000000">public.namespaces</text>
<text text-anchor="start" x="502.7353" y="-265.3" font-family="Arial" font-size="14.00" fill="#000000">    </text>
<text text-anchor="start" x="536.9401" y="-265.3" font-family="Arial" font-size="14.00" fill="#666666">[BASE TABLE]</text>
<polygon fill="none" stroke="#000000" points="338,-222.5 338,-252.5 641,-252.5 641,-222.5 338,-222.5"/>
<text text-anchor="start" x="345" y="-233.9" font-family="Arial" font-size="14.00" fill="#000000">uuid    </text>
<text text-anchor="start" x="405.6592" y="-233.9" font-family="Arial" font-size="14.00" fill="#666666">[uuid]</text>
<polygon fill="none" stroke="#000000" points="338,-192.5 338,-222.5 641,-222.5 641,-192.5 338,-192.5"/>
<text text-anchor="start" x="345" y="-203.9" font-family="Arial" font-size="14.00" fill="#000000">created_at    </text>
<text text-anchor="start" x="445.3422" y="-203.9" font-family="Arial" font-size="14.00" fill="#666666">[timestamp without time zone]</text>
<polygon fill="none" stroke="#000000" points="338,-162.5 338,-192.5 641,-192.5 641,-162.5 338,-162.5"/>
<text text-anchor="start" x="344.8065" y="-173.9" font-family="Arial" font-size="14.00" fill="#000000">updated_at    </text>
<text text-anchor="start" x="449.0533" y="-173.9" font-family="Arial" font-size="14.00" fill="#666666">[timestamp without time zone]</text>
<polygon fill="none" stroke="#000000" points="338,-132.5 338,-162.5 641,-162.5 641,-132.5 338,-132.5"/>
<text text-anchor="start" x="345" y="-143.9" font-family="Arial" font-size="14.00" fill="#000000">name    </text>
<text text-anchor="start" x="414.2132" y="-143.9" font-family="Arial" font-size="14.00" fill="#666666">[varchar]</text>
<polygon fill="none" stroke="#000000" points="338,-102.5 338,-132.5 641,-132.5 641,-102.5 338,-102.5"/>
<text text-anchor="start" x="345" y="-113.9" font-family="Arial" font-size="14.00" fill="#000000">description    </text>
<text text-anchor="start" x="446.8822" y="-113.9" font-family="Arial" font-size="14.00" fill="#666666">[text]</text>
<polygon fill="none" stroke="#000000" points="338,-72.5 338,-102.5 641,-102.5 641,-72.5 338,-72.5"/>
<text text-anchor="start" x="345" y="-83.9" font-family="Arial" font-size="14.00" fill="#000000">current_owner_name    </text>
<text text-anchor="start" x="511.453" y="-83.9" font-family="Arial" font-size="14.00" fill="#666666">[varchar(64)]</text>
<polygon fill="none" stroke="#000000" points="338,-42.5 338,-72.5 641,-72.5 641,-42.5 338,-42.5"/>
<text text-anchor="start" x="345" y="-53.9" font-family="Arial" font-size="14.00" fill="#000000">is_hidden    </text>
<text text-anchor="start" x="439.1136" y="-53.9" font-family="Arial" font-size="14.00" fill="#666666">[boolean]</text>
</g>
<!-- public.dataset_symlinks&#45;&gt;public.namespaces -->
<g id="edge1" class="edge">
<title>public.dataset_symlinks:namespace_uuid&#45;&gt;public.namespaces:uuid</title>
<path fill="none" stroke="#000000" d="M314.1326,-545.183C256.6045,-516.815 272.5427,-237.5 338,-237.5"/>
<polygon fill="#000000" stroke="#000000" points="314.2648,-545.2139 322.9713,-551.8808 319.1324,-546.357 324,-547.5 324,-547.5 324,-547.5 319.1324,-546.357 325.0287,-543.1192 314.2648,-545.2139 314.2648,-545.2139"/>
<text text-anchor="start" x="6.9805" y="-557.5" font-family="Arial" font-size="10.00" fill="#000000">FOREIGN KEY (namespace_uuid) REFERENCES namespaces(uuid)</text>
</g>
</g>
</svg>
