<?xml version="1.0" encoding="UTF-8" standalone="no"?>
<!DOCTYPE svg PUBLIC "-//W3C//DTD SVG 1.1//EN"
 "http://www.w3.org/Graphics/SVG/1.1/DTD/svg11.dtd">
<!-- Generated by graphviz version 2.40.1 (20161225.0304)
 -->
<!-- Title: public.datasets_tag_mapping Pages: 1 -->
<svg width="917pt" height="832pt"
 viewBox="0.00 0.00 917.00 832.00" xmlns="http://www.w3.org/2000/svg" xmlns:xlink="http://www.w3.org/1999/xlink">
<g id="graph0" class="graph" transform="scale(1 1) rotate(0) translate(4 828)">
<title>public.datasets_tag_mapping</title>
<polygon fill="#ffffff" stroke="transparent" points="-4,4 -4,-828 913,-828 913,4 -4,4"/>
<!-- public.datasets_tag_mapping -->
<g id="node1" class="node">
<title>public.datasets_tag_mapping</title>
<polygon fill="#efefef" stroke="transparent" points="286,-742.5 286,-777.5 661,-777.5 661,-742.5 286,-742.5"/>
<polygon fill="none" stroke="#000000" points="286,-742.5 286,-777.5 661,-777.5 661,-742.5 286,-742.5"/>
<text text-anchor="start" x="292.6746" y="-755.3" font-family="Arial Bold" font-size="18.00" fill="#000000">public.datasets_tag_mapping</text>
<text text-anchor="start" x="526.7574" y="-755.3" font-family="Arial" font-size="14.00" fill="#000000">    </text>
<text text-anchor="start" x="560.9622" y="-755.3" font-family="Arial" font-size="14.00" fill="#666666">[BASE TABLE]</text>
<polygon fill="none" stroke="#000000" points="286,-712.5 286,-742.5 661,-742.5 661,-712.5 286,-712.5"/>
<text text-anchor="start" x="293" y="-723.9" font-family="Arial" font-size="14.00" fill="#000000">dataset_uuid </text>
<text text-anchor="start" x="377.0392" y="-723.9" font-family="Arial" font-size="14.00" fill="#666666">[uuid]</text>
<polygon fill="none" stroke="#000000" points="286,-682.5 286,-712.5 661,-712.5 661,-682.5 286,-682.5"/>
<text text-anchor="start" x="293" y="-693.9" font-family="Arial" font-size="14.00" fill="#000000">tag_uuid </text>
<text text-anchor="start" x="350.5834" y="-693.9" font-family="Arial" font-size="14.00" fill="#666666">[uuid]</text>
<polygon fill="none" stroke="#000000" points="286,-652.5 286,-682.5 661,-682.5 661,-652.5 286,-652.5"/>
<text text-anchor="start" x="293" y="-663.9" font-family="Arial" font-size="14.00" fill="#000000">tagged_at </text>
<text text-anchor="start" x="359.15" y="-663.9" font-family="Arial" font-size="14.00" fill="#666666">[timestamp without time zone]</text>
<polygon fill="none" stroke="#000000" stroke-width="3" points="284,-651.5 284,-779.5 662,-779.5 662,-651.5 284,-651.5"/>
</g>
<!-- public.datasets -->
<g id="node2" class="node">
<title>public.datasets</title>
<polygon fill="#efefef" stroke="transparent" points="95,-492.5 95,-527.5 430,-527.5 430,-492.5 95,-492.5"/>
<polygon fill="none" stroke="#000000" points="95,-492.5 95,-527.5 430,-527.5 430,-492.5 95,-492.5"/>
<text text-anchor="start" x="138.6968" y="-505.3" font-family="Arial Bold" font-size="18.00" fill="#000000">public.datasets</text>
<text text-anchor="start" x="258.7352" y="-505.3" font-family="Arial" font-size="14.00" fill="#000000">    </text>
<text text-anchor="start" x="292.94" y="-505.3" font-family="Arial" font-size="14.00" fill="#666666">[BASE TABLE]</text>
<polygon fill="none" stroke="#000000" points="95,-462.5 95,-492.5 430,-492.5 430,-462.5 95,-462.5"/>
<text text-anchor="start" x="102" y="-473.9" font-family="Arial" font-size="14.00" fill="#000000">uuid    </text>
<text text-anchor="start" x="162.6592" y="-473.9" font-family="Arial" font-size="14.00" fill="#666666">[uuid]</text>
<polygon fill="none" stroke="#000000" points="95,-432.5 95,-462.5 430,-462.5 430,-432.5 95,-432.5"/>
<text text-anchor="start" x="102" y="-443.9" font-family="Arial" font-size="14.00" fill="#000000">type    </text>
<text text-anchor="start" x="162.6606" y="-443.9" font-family="Arial" font-size="14.00" fill="#666666">[varchar(64)]</text>
<polygon fill="none" stroke="#000000" points="95,-402.5 95,-432.5 430,-432.5 430,-402.5 95,-402.5"/>
<text text-anchor="start" x="102" y="-413.9" font-family="Arial" font-size="14.00" fill="#000000">created_at    </text>
<text text-anchor="start" x="202.3422" y="-413.9" font-family="Arial" font-size="14.00" fill="#666666">[timestamp without time zone]</text>
<polygon fill="none" stroke="#000000" points="95,-372.5 95,-402.5 430,-402.5 430,-372.5 95,-372.5"/>
<text text-anchor="start" x="102" y="-383.9" font-family="Arial" font-size="14.00" fill="#000000">updated_at    </text>
<text text-anchor="start" x="206.2468" y="-383.9" font-family="Arial" font-size="14.00" fill="#666666">[timestamp without time zone]</text>
<polygon fill="none" stroke="#000000" points="95,-342.5 95,-372.5 430,-372.5 430,-342.5 95,-342.5"/>
<text text-anchor="start" x="102" y="-353.9" font-family="Arial" font-size="14.00" fill="#000000">namespace_uuid    </text>
<text text-anchor="start" x="242.798" y="-353.9" font-family="Arial" font-size="14.00" fill="#666666">[uuid]</text>
<polygon fill="none" stroke="#000000" points="95,-312.5 95,-342.5 430,-342.5 430,-312.5 95,-312.5"/>
<text text-anchor="start" x="102" y="-323.9" font-family="Arial" font-size="14.00" fill="#000000">source_uuid    </text>
<text text-anchor="start" x="212.4502" y="-323.9" font-family="Arial" font-size="14.00" fill="#666666">[uuid]</text>
<polygon fill="none" stroke="#000000" points="95,-282.5 95,-312.5 430,-312.5 430,-282.5 95,-282.5"/>
<text text-anchor="start" x="102" y="-293.9" font-family="Arial" font-size="14.00" fill="#000000">name    </text>
<text text-anchor="start" x="171.2132" y="-293.9" font-family="Arial" font-size="14.00" fill="#666666">[varchar]</text>
<polygon fill="none" stroke="#000000" points="95,-252.5 95,-282.5 430,-282.5 430,-252.5 95,-252.5"/>
<text text-anchor="start" x="102" y="-263.9" font-family="Arial" font-size="14.00" fill="#000000">physical_name    </text>
<text text-anchor="start" x="229.5568" y="-263.9" font-family="Arial" font-size="14.00" fill="#666666">[varchar]</text>
<polygon fill="none" stroke="#000000" points="95,-222.5 95,-252.5 430,-252.5 430,-222.5 95,-222.5"/>
<text text-anchor="start" x="102" y="-233.9" font-family="Arial" font-size="14.00" fill="#000000">description    </text>
<text text-anchor="start" x="203.8822" y="-233.9" font-family="Arial" font-size="14.00" fill="#666666">[text]</text>
<polygon fill="none" stroke="#000000" points="95,-192.5 95,-222.5 430,-222.5 430,-192.5 95,-192.5"/>
<text text-anchor="start" x="102" y="-203.9" font-family="Arial" font-size="14.00" fill="#000000">current_version_uuid    </text>
<text text-anchor="start" x="266.899" y="-203.9" font-family="Arial" font-size="14.00" fill="#666666">[uuid]</text>
<polygon fill="none" stroke="#000000" points="95,-162.5 95,-192.5 430,-192.5 430,-162.5 95,-162.5"/>
<text text-anchor="start" x="101.871" y="-173.9" font-family="Arial" font-size="14.00" fill="#000000">last_modified_at    </text>
<text text-anchor="start" x="237.9888" y="-173.9" font-family="Arial" font-size="14.00" fill="#666666">[timestamp without time zone]</text>
<polygon fill="none" stroke="#000000" points="95,-132.5 95,-162.5 430,-162.5 430,-132.5 95,-132.5"/>
<text text-anchor="start" x="102" y="-143.9" font-family="Arial" font-size="14.00" fill="#000000">namespace_name    </text>
<text text-anchor="start" x="251.352" y="-143.9" font-family="Arial" font-size="14.00" fill="#666666">[varchar]</text>
<polygon fill="none" stroke="#000000" points="95,-102.5 95,-132.5 430,-132.5 430,-102.5 95,-102.5"/>
<text text-anchor="start" x="102" y="-113.9" font-family="Arial" font-size="14.00" fill="#000000">source_name    </text>
<text text-anchor="start" x="221.0042" y="-113.9" font-family="Arial" font-size="14.00" fill="#666666">[varchar]</text>
<polygon fill="none" stroke="#000000" points="95,-72.5 95,-102.5 430,-102.5 430,-72.5 95,-72.5"/>
<text text-anchor="start" x="102" y="-83.9" font-family="Arial" font-size="14.00" fill="#000000">is_deleted    </text>
<text text-anchor="start" x="200.0042" y="-83.9" font-family="Arial" font-size="14.00" fill="#666666">[boolean]</text>
<polygon fill="none" stroke="#000000" points="95,-42.5 95,-72.5 430,-72.5 430,-42.5 95,-42.5"/>
<text text-anchor="start" x="102" y="-53.9" font-family="Arial" font-size="14.00" fill="#000000">is_hidden    </text>
<text text-anchor="start" x="196.1136" y="-53.9" font-family="Arial" font-size="14.00" fill="#666666">[boolean]</text>
</g>
<!-- public.datasets_tag_mapping&#45;&gt;public.datasets -->
<g id="edge1" class="edge">
<title>public.datasets_tag_mapping:dataset_uuid&#45;&gt;public.datasets:uuid</title>
<path fill="none" stroke="#000000" d="M276.0367,-726.439C235.3182,-716.9652 255.2943,-646.3271 286,-607 326.5986,-555.0023 389.4014,-622.9977 430,-571 455.5738,-538.2457 471.5556,-477.5 430,-477.5"/>
<polygon fill="#000000" stroke="#000000" points="276.0562,-726.441 285.5235,-731.9747 281.0281,-726.9705 286,-727.5 286,-727.5 286,-727.5 281.0281,-726.9705 286.4765,-723.0253 276.0562,-726.441 276.0562,-726.441"/>
<text text-anchor="start" x="6.8695" y="-737.5" font-family="Arial" font-size="10.00" fill="#000000">FOREIGN KEY (dataset_uuid) REFERENCES datasets(uuid)</text>
</g>
<!-- public.tags -->
<g id="node3" class="node">
<title>public.tags</title>
<polygon fill="#efefef" stroke="transparent" points="534,-342.5 534,-377.5 837,-377.5 837,-342.5 534,-342.5"/>
<polygon fill="none" stroke="#000000" points="534,-342.5 534,-377.5 837,-377.5 837,-342.5 534,-342.5"/>
<text text-anchor="start" x="578.7041" y="-355.3" font-family="Arial Bold" font-size="18.00" fill="#000000">public.tags</text>
<text text-anchor="start" x="664.7279" y="-355.3" font-family="Arial" font-size="14.00" fill="#000000">    </text>
<text text-anchor="start" x="698.9327" y="-355.3" font-family="Arial" font-size="14.00" fill="#666666">[BASE TABLE]</text>
<polygon fill="none" stroke="#000000" points="534,-312.5 534,-342.5 837,-342.5 837,-312.5 534,-312.5"/>
<text text-anchor="start" x="541" y="-323.9" font-family="Arial" font-size="14.00" fill="#000000">uuid    </text>
<text text-anchor="start" x="601.6592" y="-323.9" font-family="Arial" font-size="14.00" fill="#666666">[uuid]</text>
<polygon fill="none" stroke="#000000" points="534,-282.5 534,-312.5 837,-312.5 837,-282.5 534,-282.5"/>
<text text-anchor="start" x="541" y="-293.9" font-family="Arial" font-size="14.00" fill="#000000">created_at    </text>
<text text-anchor="start" x="641.3422" y="-293.9" font-family="Arial" font-size="14.00" fill="#666666">[timestamp without time zone]</text>
<polygon fill="none" stroke="#000000" points="534,-252.5 534,-282.5 837,-282.5 837,-252.5 534,-252.5"/>
<text text-anchor="start" x="540.8065" y="-263.9" font-family="Arial" font-size="14.00" fill="#000000">updated_at    </text>
<text text-anchor="start" x="645.0533" y="-263.9" font-family="Arial" font-size="14.00" fill="#666666">[timestamp without time zone]</text>
<polygon fill="none" stroke="#000000" points="534,-222.5 534,-252.5 837,-252.5 837,-222.5 534,-222.5"/>
<text text-anchor="start" x="541" y="-233.9" font-family="Arial" font-size="14.00" fill="#000000">name    </text>
<text text-anchor="start" x="610.2132" y="-233.9" font-family="Arial" font-size="14.00" fill="#666666">[varchar]</text>
<polygon fill="none" stroke="#000000" points="534,-192.5 534,-222.5 837,-222.5 837,-192.5 534,-192.5"/>
<text text-anchor="start" x="541" y="-203.9" font-family="Arial" font-size="14.00" fill="#000000">description    </text>
<text text-anchor="start" x="642.8822" y="-203.9" font-family="Arial" font-size="14.00" fill="#666666">[text]</text>
</g>
<!-- public.datasets_tag_mapping&#45;&gt;public.tags -->
<g id="edge2" class="edge">
<title>public.datasets_tag_mapping:tag_uuid&#45;&gt;public.tags:uuid</title>
<path fill="none" stroke="#000000" d="M671.3207,-696.995C814.763,-681.7723 363.8734,-327.5 534,-327.5"/>
<polygon fill="#000000" stroke="#000000" points="670.988,-697.0112 660.78,-693.0054 665.994,-697.2556 661,-697.5 661,-697.5 661,-697.5 665.994,-697.2556 661.22,-701.9946 670.988,-697.0112 670.988,-697.0112"/>
<text text-anchor="start" x="667.7665" y="-707.5" font-family="Arial" font-size="10.00" fill="#000000">FOREIGN KEY (tag_uuid) REFERENCES tags(uuid)</text>
</g>
</g>
</svg>
