<?xml version="1.0" encoding="UTF-8" standalone="no"?>
<!DOCTYPE svg PUBLIC "-//W3C//DTD SVG 1.1//EN"
 "http://www.w3.org/Graphics/SVG/1.1/DTD/svg11.dtd">
<!-- Generated by graphviz version 2.40.1 (20161225.0304)
 -->
<!-- Title: public.column_lineage Pages: 1 -->
<svg width="1089pt" height="802pt"
 viewBox="0.00 0.00 1089.00 802.00" xmlns="http://www.w3.org/2000/svg" xmlns:xlink="http://www.w3.org/1999/xlink">
<g id="graph0" class="graph" transform="scale(1 1) rotate(0) translate(4 798)">
<title>public.column_lineage</title>
<polygon fill="#ffffff" stroke="transparent" points="-4,4 -4,-798 1085,-798 1085,4 -4,4"/>
<!-- public.column_lineage -->
<g id="node1" class="node">
<title>public.column_lineage</title>
<polygon fill="#efefef" stroke="transparent" points="395,-712.5 395,-747.5 714,-747.5 714,-712.5 395,-712.5"/>
<polygon fill="none" stroke="#000000" points="395,-712.5 395,-747.5 714,-747.5 714,-712.5 395,-712.5"/>
<text text-anchor="start" x="401.6961" y="-725.3" font-family="Arial Bold" font-size="18.00" fill="#000000">public.column_lineage</text>
<text text-anchor="start" x="579.7359" y="-725.3" font-family="Arial" font-size="14.00" fill="#000000">    </text>
<text text-anchor="start" x="613.9407" y="-725.3" font-family="Arial" font-size="14.00" fill="#666666">[BASE TABLE]</text>
<polygon fill="none" stroke="#000000" points="395,-682.5 395,-712.5 714,-712.5 714,-682.5 395,-682.5"/>
<text text-anchor="start" x="402" y="-693.9" font-family="Arial" font-size="14.00" fill="#000000">output_dataset_version_uuid </text>
<text text-anchor="start" x="585.631" y="-693.9" font-family="Arial" font-size="14.00" fill="#666666">[uuid]</text>
<polygon fill="none" stroke="#000000" points="395,-652.5 395,-682.5 714,-682.5 714,-652.5 395,-652.5"/>
<text text-anchor="start" x="402" y="-663.9" font-family="Arial" font-size="14.00" fill="#000000">output_dataset_field_uuid </text>
<text text-anchor="start" x="566.185" y="-663.9" font-family="Arial" font-size="14.00" fill="#666666">[uuid]</text>
<polygon fill="none" stroke="#000000" points="395,-622.5 395,-652.5 714,-652.5 714,-622.5 395,-622.5"/>
<text text-anchor="start" x="402" y="-633.9" font-family="Arial" font-size="14.00" fill="#000000">input_dataset_version_uuid </text>
<text text-anchor="start" x="577.0644" y="-633.9" font-family="Arial" font-size="14.00" fill="#666666">[uuid]</text>
<polygon fill="none" stroke="#000000" points="395,-592.5 395,-622.5 714,-622.5 714,-592.5 395,-592.5"/>
<text text-anchor="start" x="402" y="-603.9" font-family="Arial" font-size="14.00" fill="#000000">input_dataset_field_uuid </text>
<text text-anchor="start" x="557.6184" y="-603.9" font-family="Arial" font-size="14.00" fill="#666666">[uuid]</text>
<polygon fill="none" stroke="#000000" points="395,-562.5 395,-592.5 714,-592.5 714,-562.5 395,-562.5"/>
<text text-anchor="start" x="402" y="-573.9" font-family="Arial" font-size="14.00" fill="#000000">transformation_description </text>
<text text-anchor="start" x="570.8064" y="-573.9" font-family="Arial" font-size="14.00" fill="#666666">[text]</text>
<polygon fill="none" stroke="#000000" points="395,-532.5 395,-562.5 714,-562.5 714,-532.5 395,-532.5"/>
<text text-anchor="start" x="402" y="-543.9" font-family="Arial" font-size="14.00" fill="#000000">transformation_type </text>
<text text-anchor="start" x="529.5848" y="-543.9" font-family="Arial" font-size="14.00" fill="#666666">[varchar(255)]</text>
<polygon fill="none" stroke="#000000" points="395,-502.5 395,-532.5 714,-532.5 714,-502.5 395,-502.5"/>
<text text-anchor="start" x="402" y="-513.9" font-family="Arial" font-size="14.00" fill="#000000">created_at </text>
<text text-anchor="start" x="472.028" y="-513.9" font-family="Arial" font-size="14.00" fill="#666666">[timestamp without time zone]</text>
<polygon fill="none" stroke="#000000" points="395,-472.5 395,-502.5 714,-502.5 714,-472.5 395,-472.5"/>
<text text-anchor="start" x="402" y="-483.9" font-family="Arial" font-size="14.00" fill="#000000">updated_at </text>
<text text-anchor="start" x="475.9326" y="-483.9" font-family="Arial" font-size="14.00" fill="#666666">[timestamp without time zone]</text>
<polygon fill="none" stroke="#000000" stroke-width="3" points="393,-471.5 393,-749.5 715,-749.5 715,-471.5 393,-471.5"/>
</g>
<!-- public.dataset_versions -->
<g id="node2" class="node">
<title>public.dataset_versions</title>
<polygon fill="#efefef" stroke="transparent" points="180,-312.5 180,-347.5 509,-347.5 509,-312.5 180,-312.5"/>
<polygon fill="none" stroke="#000000" points="180,-312.5 180,-347.5 509,-347.5 509,-312.5 180,-312.5"/>
<text text-anchor="start" x="186.6912" y="-325.3" font-family="Arial Bold" font-size="18.00" fill="#000000">public.dataset_versions</text>
<text text-anchor="start" x="374.7408" y="-325.3" font-family="Arial" font-size="14.00" fill="#000000">    </text>
<text text-anchor="start" x="408.9456" y="-325.3" font-family="Arial" font-size="14.00" fill="#666666">[BASE TABLE]</text>
<polygon fill="none" stroke="#000000" points="180,-282.5 180,-312.5 509,-312.5 509,-282.5 180,-282.5"/>
<text text-anchor="start" x="187" y="-293.9" font-family="Arial" font-size="14.00" fill="#000000">uuid    </text>
<text text-anchor="start" x="247.6592" y="-293.9" font-family="Arial" font-size="14.00" fill="#666666">[uuid]</text>
<polygon fill="none" stroke="#000000" points="180,-252.5 180,-282.5 509,-282.5 509,-252.5 180,-252.5"/>
<text text-anchor="start" x="187" y="-263.9" font-family="Arial" font-size="14.00" fill="#000000">created_at    </text>
<text text-anchor="start" x="287.3422" y="-263.9" font-family="Arial" font-size="14.00" fill="#666666">[timestamp without time zone]</text>
<polygon fill="none" stroke="#000000" points="180,-222.5 180,-252.5 509,-252.5 509,-222.5 180,-222.5"/>
<text text-anchor="start" x="187" y="-233.9" font-family="Arial" font-size="14.00" fill="#000000">dataset_uuid    </text>
<text text-anchor="start" x="301.3534" y="-233.9" font-family="Arial" font-size="14.00" fill="#666666">[uuid]</text>
<polygon fill="none" stroke="#000000" points="180,-192.5 180,-222.5 509,-222.5 509,-192.5 180,-192.5"/>
<text text-anchor="start" x="187" y="-203.9" font-family="Arial" font-size="14.00" fill="#000000">version    </text>
<text text-anchor="start" x="266.3198" y="-203.9" font-family="Arial" font-size="14.00" fill="#666666">[uuid]</text>
<polygon fill="none" stroke="#000000" points="180,-162.5 180,-192.5 509,-192.5 509,-162.5 180,-162.5"/>
<text text-anchor="start" x="187" y="-173.9" font-family="Arial" font-size="14.00" fill="#000000">run_uuid    </text>
<text text-anchor="start" x="275.6676" y="-173.9" font-family="Arial" font-size="14.00" fill="#666666">[uuid]</text>
<polygon fill="none" stroke="#000000" points="180,-132.5 180,-162.5 509,-162.5 509,-132.5 180,-132.5"/>
<text text-anchor="start" x="187" y="-143.9" font-family="Arial" font-size="14.00" fill="#000000">fields    </text>
<text text-anchor="start" x="253.8738" y="-143.9" font-family="Arial" font-size="14.00" fill="#666666">[jsonb]</text>
<polygon fill="none" stroke="#000000" points="180,-102.5 180,-132.5 509,-132.5 509,-102.5 180,-102.5"/>
<text text-anchor="start" x="187" y="-113.9" font-family="Arial" font-size="14.00" fill="#000000">namespace_name    </text>
<text text-anchor="start" x="336.352" y="-113.9" font-family="Arial" font-size="14.00" fill="#666666">[varchar]</text>
<polygon fill="none" stroke="#000000" points="180,-72.5 180,-102.5 509,-102.5 509,-72.5 180,-72.5"/>
<text text-anchor="start" x="187" y="-83.9" font-family="Arial" font-size="14.00" fill="#000000">dataset_name    </text>
<text text-anchor="start" x="309.9074" y="-83.9" font-family="Arial" font-size="14.00" fill="#666666">[varchar]</text>
<polygon fill="none" stroke="#000000" points="180,-42.5 180,-72.5 509,-72.5 509,-42.5 180,-42.5"/>
<text text-anchor="start" x="187" y="-53.9" font-family="Arial" font-size="14.00" fill="#000000">lifecycle_state    </text>
<text text-anchor="start" x="309.1094" y="-53.9" font-family="Arial" font-size="14.00" fill="#666666">[varchar(63)]</text>
</g>
<!-- public.column_lineage&#45;&gt;public.dataset_versions -->
<g id="edge1" class="edge">
<title>public.column_lineage:output_dataset_version_uuid&#45;&gt;public.dataset_versions:uuid</title>
<path fill="none" stroke="#000000" d="M384.866,-697.0595C277.6768,-687.3978 326.0151,-521.1275 395,-427 426.4085,-384.1442 477.5915,-433.8558 509,-391 533.5647,-357.4823 550.5556,-297.5 509,-297.5"/>
<polygon fill="#000000" stroke="#000000" points="385.0094,-697.0656 394.8045,-701.9958 390.0047,-697.2828 395,-697.5 395,-697.5 395,-697.5 390.0047,-697.2828 395.1955,-693.0042 385.0094,-697.0656 385.0094,-697.0656"/>
<text text-anchor="start" x="7.409" y="-707.5" font-family="Arial" font-size="10.00" fill="#000000">FOREIGN KEY (output_dataset_version_uuid) REFERENCES dataset_versions(uuid)</text>
</g>
<!-- public.column_lineage&#45;&gt;public.dataset_versions -->
<g id="edge3" class="edge">
<title>public.column_lineage:input_dataset_version_uuid&#45;&gt;public.dataset_versions:uuid</title>
<path fill="none" stroke="#000000" d="M384.633,-636.8934C304.4589,-627.0409 341.8568,-499.5121 395,-427 426.4085,-384.1442 477.5915,-433.8558 509,-391 533.5647,-357.4823 550.5556,-297.5 509,-297.5"/>
<polygon fill="#000000" stroke="#000000" points="385.0171,-636.9158 394.7371,-641.9923 390.0085,-637.2079 395,-637.5 395,-637.5 395,-637.5 390.0085,-637.2079 395.2629,-633.0077 385.0171,-636.9158 385.0171,-636.9158"/>
<text text-anchor="start" x="13.4685" y="-647.5" font-family="Arial" font-size="10.00" fill="#000000">FOREIGN KEY (input_dataset_version_uuid) REFERENCES dataset_versions(uuid)</text>
</g>
<!-- public.dataset_fields -->
<g id="node3" class="node">
<title>public.dataset_fields</title>
<polygon fill="#efefef" stroke="transparent" points="613,-282.5 613,-317.5 917,-317.5 917,-282.5 613,-282.5"/>
<polygon fill="none" stroke="#000000" points="613,-282.5 613,-317.5 917,-317.5 917,-282.5 613,-282.5"/>
<text text-anchor="start" x="619.6922" y="-295.3" font-family="Arial Bold" font-size="18.00" fill="#000000">public.dataset_fields</text>
<text text-anchor="start" x="782.7398" y="-295.3" font-family="Arial" font-size="14.00" fill="#000000">    </text>
<text text-anchor="start" x="816.9446" y="-295.3" font-family="Arial" font-size="14.00" fill="#666666">[BASE TABLE]</text>
<polygon fill="none" stroke="#000000" points="613,-252.5 613,-282.5 917,-282.5 917,-252.5 613,-252.5"/>
<text text-anchor="start" x="620" y="-263.9" font-family="Arial" font-size="14.00" fill="#000000">uuid    </text>
<text text-anchor="start" x="680.6592" y="-263.9" font-family="Arial" font-size="14.00" fill="#666666">[uuid]</text>
<polygon fill="none" stroke="#000000" points="613,-222.5 613,-252.5 917,-252.5 917,-222.5 613,-222.5"/>
<text text-anchor="start" x="620" y="-233.9" font-family="Arial" font-size="14.00" fill="#000000">type    </text>
<text text-anchor="start" x="680.6606" y="-233.9" font-family="Arial" font-size="14.00" fill="#666666">[text]</text>
<polygon fill="none" stroke="#000000" points="613,-192.5 613,-222.5 917,-222.5 917,-192.5 613,-192.5"/>
<text text-anchor="start" x="620" y="-203.9" font-family="Arial" font-size="14.00" fill="#000000">created_at    </text>
<text text-anchor="start" x="720.3422" y="-203.9" font-family="Arial" font-size="14.00" fill="#666666">[timestamp without time zone]</text>
<polygon fill="none" stroke="#000000" points="613,-162.5 613,-192.5 917,-192.5 917,-162.5 613,-162.5"/>
<text text-anchor="start" x="620" y="-173.9" font-family="Arial" font-size="14.00" fill="#000000">updated_at    </text>
<text text-anchor="start" x="724.2468" y="-173.9" font-family="Arial" font-size="14.00" fill="#666666">[timestamp without time zone]</text>
<polygon fill="none" stroke="#000000" points="613,-132.5 613,-162.5 917,-162.5 917,-132.5 613,-132.5"/>
<text text-anchor="start" x="620" y="-143.9" font-family="Arial" font-size="14.00" fill="#000000">dataset_uuid    </text>
<text text-anchor="start" x="734.3534" y="-143.9" font-family="Arial" font-size="14.00" fill="#666666">[uuid]</text>
<polygon fill="none" stroke="#000000" points="613,-102.5 613,-132.5 917,-132.5 917,-102.5 613,-102.5"/>
<text text-anchor="start" x="620" y="-113.9" font-family="Arial" font-size="14.00" fill="#000000">name    </text>
<text text-anchor="start" x="689.2132" y="-113.9" font-family="Arial" font-size="14.00" fill="#666666">[varchar(255)]</text>
<polygon fill="none" stroke="#000000" points="613,-72.5 613,-102.5 917,-102.5 917,-72.5 613,-72.5"/>
<text text-anchor="start" x="620" y="-83.9" font-family="Arial" font-size="14.00" fill="#000000">description    </text>
<text text-anchor="start" x="721.8822" y="-83.9" font-family="Arial" font-size="14.00" fill="#666666">[text]</text>
</g>
<!-- public.column_lineage&#45;&gt;public.dataset_fields -->
<g id="edge2" class="edge">
<title>public.column_lineage:output_dataset_field_uuid&#45;&gt;public.dataset_fields:uuid</title>
<path fill="none" stroke="#000000" d="M724.1145,-667.0228C817.1745,-657.8299 763.1801,-517.887 714,-427 688.4803,-379.8385 638.5197,-408.1615 613,-361 593.2234,-324.4521 571.4444,-267.5 613,-267.5"/>
<polygon fill="#000000" stroke="#000000" points="723.9889,-667.0286 713.7879,-663.005 718.9944,-667.2643 714,-667.5 714,-667.5 714,-667.5 718.9944,-667.2643 714.2121,-671.995 723.9889,-667.0286 723.9889,-667.0286"/>
<text text-anchor="start" x="721.299" y="-677.5" font-family="Arial" font-size="10.00" fill="#000000">FOREIGN KEY (output_dataset_field_uuid) REFERENCES dataset_fields(uuid)</text>
</g>
<!-- public.column_lineage&#45;&gt;public.dataset_fields -->
<g id="edge4" class="edge">
<title>public.column_lineage:input_dataset_field_uuid&#45;&gt;public.dataset_fields:uuid</title>
<path fill="none" stroke="#000000" d="M724.0824,-606.8479C790.4526,-597.7016 750.4632,-494.3856 714,-427 688.4803,-379.8385 638.5197,-408.1615 613,-361 593.2234,-324.4521 571.4444,-267.5 613,-267.5"/>
<polygon fill="#000000" stroke="#000000" points="723.9792,-606.8545 713.7095,-603.0094 718.9896,-607.1773 714,-607.5 714,-607.5 714,-607.5 718.9896,-607.1773 714.2905,-611.9906 723.9792,-606.8545 723.9792,-606.8545"/>
<text text-anchor="start" x="721.3585" y="-617.5" font-family="Arial" font-size="10.00" fill="#000000">FOREIGN KEY (input_dataset_field_uuid) REFERENCES dataset_fields(uuid)</text>
</g>
</g>
</svg>
