<?xml version="1.0" encoding="UTF-8" standalone="no"?>
<!DOCTYPE svg PUBLIC "-//W3C//DTD SVG 1.1//EN"
 "http://www.w3.org/Graphics/SVG/1.1/DTD/svg11.dtd">
<!-- Generated by graphviz version 2.40.1 (20161225.0304)
 -->
<!-- Title: public.runs_view Pages: 1 -->
<svg width="421pt" height="735pt"
 viewBox="0.00 0.00 421.00 735.00" xmlns="http://www.w3.org/2000/svg" xmlns:xlink="http://www.w3.org/1999/xlink">
<g id="graph0" class="graph" transform="scale(1 1) rotate(0) translate(4 731)">
<title>public.runs_view</title>
<polygon fill="#ffffff" stroke="transparent" points="-4,4 -4,-731 417,-731 417,4 -4,4"/>
<!-- public.runs_view -->
<g id="node1" class="node">
<title>public.runs_view</title>
<polygon fill="#efefef" stroke="transparent" points="46.5,-645.5 46.5,-680.5 367.5,-680.5 367.5,-645.5 46.5,-645.5"/>
<polygon fill="none" stroke="#000000" points="46.5,-645.5 46.5,-680.5 367.5,-680.5 367.5,-645.5 46.5,-645.5"/>
<text text-anchor="start" x="101.6105" y="-658.3" font-family="Arial Bold" font-size="18.00" fill="#000000">public.runs_view</text>
<text text-anchor="start" x="234.6251" y="-658.3" font-family="Arial" font-size="14.00" fill="#000000">    </text>
<text text-anchor="start" x="268.8299" y="-658.3" font-family="Arial" font-size="14.00" fill="#666666">[VIEW]</text>
<polygon fill="none" stroke="#000000" points="46.5,-615.5 46.5,-645.5 367.5,-645.5 367.5,-615.5 46.5,-615.5"/>
<text text-anchor="start" x="53.5" y="-626.9" font-family="Arial" font-size="14.00" fill="#000000">uuid </text>
<text text-anchor="start" x="83.845" y="-626.9" font-family="Arial" font-size="14.00" fill="#666666">[uuid]</text>
<polygon fill="none" stroke="#000000" points="46.5,-585.5 46.5,-615.5 367.5,-615.5 367.5,-585.5 46.5,-585.5"/>
<text text-anchor="start" x="53.5" y="-596.9" font-family="Arial" font-size="14.00" fill="#000000">created_at </text>
<text text-anchor="start" x="123.528" y="-596.9" font-family="Arial" font-size="14.00" fill="#666666">[timestamp without time zone]</text>
<polygon fill="none" stroke="#000000" points="46.5,-555.5 46.5,-585.5 367.5,-585.5 367.5,-555.5 46.5,-555.5"/>
<text text-anchor="start" x="53.5" y="-566.9" font-family="Arial" font-size="14.00" fill="#000000">updated_at </text>
<text text-anchor="start" x="127.4326" y="-566.9" font-family="Arial" font-size="14.00" fill="#666666">[timestamp without time zone]</text>
<polygon fill="none" stroke="#000000" points="46.5,-525.5 46.5,-555.5 367.5,-555.5 367.5,-525.5 46.5,-525.5"/>
<text text-anchor="start" x="53.5" y="-536.9" font-family="Arial" font-size="14.00" fill="#000000">parent_run_uuid </text>
<text text-anchor="start" x="159.3176" y="-536.9" font-family="Arial" font-size="14.00" fill="#666666">[uuid]</text>
<polygon fill="none" stroke="#000000" points="46.5,-495.5 46.5,-525.5 367.5,-525.5 367.5,-495.5 46.5,-495.5"/>
<text text-anchor="start" x="53.5" y="-506.9" font-family="Arial" font-size="14.00" fill="#000000">job_version_uuid </text>
<text text-anchor="start" x="163.197" y="-506.9" font-family="Arial" font-size="14.00" fill="#666666">[uuid]</text>
<polygon fill="none" stroke="#000000" points="46.5,-465.5 46.5,-495.5 367.5,-495.5 367.5,-465.5 46.5,-465.5"/>
<text text-anchor="start" x="53.5" y="-476.9" font-family="Arial" font-size="14.00" fill="#000000">run_args_uuid </text>
<text text-anchor="start" x="146.8618" y="-476.9" font-family="Arial" font-size="14.00" fill="#666666">[uuid]</text>
<polygon fill="none" stroke="#000000" points="46.5,-435.5 46.5,-465.5 367.5,-465.5 367.5,-435.5 46.5,-435.5"/>
<text text-anchor="start" x="53.3675" y="-446.9" font-family="Arial" font-size="14.00" fill="#000000">nominal_start_time </text>
<text text-anchor="start" x="175.4923" y="-446.9" font-family="Arial" font-size="14.00" fill="#666666">[timestamp without time zone]</text>
<polygon fill="none" stroke="#000000" points="46.5,-405.5 46.5,-435.5 367.5,-435.5 367.5,-405.5 46.5,-405.5"/>
<text text-anchor="start" x="53.5" y="-416.9" font-family="Arial" font-size="14.00" fill="#000000">nominal_end_time </text>
<text text-anchor="start" x="171.7482" y="-416.9" font-family="Arial" font-size="14.00" fill="#666666">[timestamp without time zone]</text>
<polygon fill="none" stroke="#000000" points="46.5,-375.5 46.5,-405.5 367.5,-405.5 367.5,-375.5 46.5,-375.5"/>
<text text-anchor="start" x="53.5" y="-386.9" font-family="Arial" font-size="14.00" fill="#000000">current_run_state </text>
<text text-anchor="start" x="167.0876" y="-386.9" font-family="Arial" font-size="14.00" fill="#666666">[varchar(64)]</text>
<polygon fill="none" stroke="#000000" points="46.5,-345.5 46.5,-375.5 367.5,-375.5 367.5,-345.5 46.5,-345.5"/>
<text text-anchor="start" x="53.5" y="-356.9" font-family="Arial" font-size="14.00" fill="#000000">start_run_state_uuid </text>
<text text-anchor="start" x="184.9894" y="-356.9" font-family="Arial" font-size="14.00" fill="#666666">[uuid]</text>
<polygon fill="none" stroke="#000000" points="46.5,-315.5 46.5,-345.5 367.5,-345.5 367.5,-315.5 46.5,-315.5"/>
<text text-anchor="start" x="53.5" y="-326.9" font-family="Arial" font-size="14.00" fill="#000000">end_run_state_uuid </text>
<text text-anchor="start" x="181.1128" y="-326.9" font-family="Arial" font-size="14.00" fill="#666666">[uuid]</text>
<polygon fill="none" stroke="#000000" points="46.5,-285.5 46.5,-315.5 367.5,-315.5 367.5,-285.5 46.5,-285.5"/>
<text text-anchor="start" x="53.5" y="-296.9" font-family="Arial" font-size="14.00" fill="#000000">external_id </text>
<text text-anchor="start" x="125.8506" y="-296.9" font-family="Arial" font-size="14.00" fill="#666666">[varchar]</text>
<polygon fill="none" stroke="#000000" points="46.5,-255.5 46.5,-285.5 367.5,-285.5 367.5,-255.5 46.5,-255.5"/>
<text text-anchor="start" x="53.5" y="-266.9" font-family="Arial" font-size="14.00" fill="#000000">location </text>
<text text-anchor="start" x="105.6248" y="-266.9" font-family="Arial" font-size="14.00" fill="#666666">[varchar]</text>
<polygon fill="none" stroke="#000000" points="46.5,-225.5 46.5,-255.5 367.5,-255.5 367.5,-225.5 46.5,-225.5"/>
<text text-anchor="start" x="53.5" y="-236.9" font-family="Arial" font-size="14.00" fill="#000000">transitioned_at </text>
<text text-anchor="start" x="149.197" y="-236.9" font-family="Arial" font-size="14.00" fill="#666666">[timestamp without time zone]</text>
<polygon fill="none" stroke="#000000" points="46.5,-195.5 46.5,-225.5 367.5,-225.5 367.5,-195.5 46.5,-195.5"/>
<text text-anchor="start" x="53.5" y="-206.9" font-family="Arial" font-size="14.00" fill="#000000">started_at </text>
<text text-anchor="start" x="119.636" y="-206.9" font-family="Arial" font-size="14.00" fill="#666666">[timestamp without time zone]</text>
<polygon fill="none" stroke="#000000" points="46.5,-165.5 46.5,-195.5 367.5,-195.5 367.5,-165.5 46.5,-165.5"/>
<text text-anchor="start" x="53.5" y="-176.9" font-family="Arial" font-size="14.00" fill="#000000">ended_at </text>
<text text-anchor="start" x="115.7594" y="-176.9" font-family="Arial" font-size="14.00" fill="#666666">[timestamp without time zone]</text>
<polygon fill="none" stroke="#000000" points="46.5,-135.5 46.5,-165.5 367.5,-165.5 367.5,-135.5 46.5,-135.5"/>
<text text-anchor="start" x="53.5" y="-146.9" font-family="Arial" font-size="14.00" fill="#000000">job_context_uuid </text>
<text text-anchor="start" x="163.211" y="-146.9" font-family="Arial" font-size="14.00" fill="#666666">[uuid]</text>
<polygon fill="none" stroke="#000000" points="46.5,-105.5 46.5,-135.5 367.5,-135.5 367.5,-105.5 46.5,-105.5"/>
<text text-anchor="start" x="53.5" y="-116.9" font-family="Arial" font-size="14.00" fill="#000000">job_uuid </text>
<text text-anchor="start" x="110.2994" y="-116.9" font-family="Arial" font-size="14.00" fill="#666666">[uuid]</text>
<polygon fill="none" stroke="#000000" points="46.5,-75.5 46.5,-105.5 367.5,-105.5 367.5,-75.5 46.5,-75.5"/>
<text text-anchor="start" x="53.5" y="-86.9" font-family="Arial" font-size="14.00" fill="#000000">job_name </text>
<text text-anchor="start" x="118.8534" y="-86.9" font-family="Arial" font-size="14.00" fill="#666666">[varchar]</text>
<polygon fill="none" stroke="#000000" points="46.5,-45.5 46.5,-75.5 367.5,-75.5 367.5,-45.5 46.5,-45.5"/>
<text text-anchor="start" x="53.5" y="-56.9" font-family="Arial" font-size="14.00" fill="#000000">namespace_name </text>
<text text-anchor="start" x="172.5378" y="-56.9" font-family="Arial" font-size="14.00" fill="#666666">[varchar]</text>
<polygon fill="none" stroke="#000000" stroke-width="3" points="44.5,-44.5 44.5,-682.5 368.5,-682.5 368.5,-44.5 44.5,-44.5"/>
</g>
</g>
</svg>
