<?xml version="1.0" encoding="UTF-8" standalone="no"?>
<!DOCTYPE svg PUBLIC "-//W3C//DTD SVG 1.1//EN"
 "http://www.w3.org/Graphics/SVG/1.1/DTD/svg11.dtd">
<!-- Generated by graphviz version 2.40.1 (20161225.0304)
 -->
<!-- Title: public.namespaces Pages: 1 -->
<svg width="1762pt" height="1042pt"
 viewBox="0.00 0.00 1762.00 1042.00" xmlns="http://www.w3.org/2000/svg" xmlns:xlink="http://www.w3.org/1999/xlink">
<g id="graph0" class="graph" transform="scale(1 1) rotate(0) translate(4 1038)">
<title>public.namespaces</title>
<polygon fill="#ffffff" stroke="transparent" points="-4,4 -4,-1038 1758,-1038 1758,4 -4,4"/>
<!-- public.namespaces -->
<g id="node1" class="node">
<title>public.namespaces</title>
<polygon fill="#efefef" stroke="transparent" points="765.5,-255.5 765.5,-290.5 1060.5,-290.5 1060.5,-255.5 765.5,-255.5"/>
<polygon fill="none" stroke="#000000" points="765.5,-255.5 765.5,-290.5 1060.5,-290.5 1060.5,-255.5 765.5,-255.5"/>
<text text-anchor="start" x="772.1967" y="-268.3" font-family="Arial Bold" font-size="18.00" fill="#000000">public.namespaces</text>
<text text-anchor="start" x="926.2353" y="-268.3" font-family="Arial" font-size="14.00" fill="#000000">    </text>
<text text-anchor="start" x="960.4401" y="-268.3" font-family="Arial" font-size="14.00" fill="#666666">[BASE TABLE]</text>
<polygon fill="none" stroke="#000000" points="765.5,-225.5 765.5,-255.5 1060.5,-255.5 1060.5,-225.5 765.5,-225.5"/>
<text text-anchor="start" x="772.5" y="-236.9" font-family="Arial" font-size="14.00" fill="#000000">uuid </text>
<text text-anchor="start" x="802.845" y="-236.9" font-family="Arial" font-size="14.00" fill="#666666">[uuid]</text>
<polygon fill="none" stroke="#000000" points="765.5,-195.5 765.5,-225.5 1060.5,-225.5 1060.5,-195.5 765.5,-195.5"/>
<text text-anchor="start" x="772.5" y="-206.9" font-family="Arial" font-size="14.00" fill="#000000">created_at </text>
<text text-anchor="start" x="842.528" y="-206.9" font-family="Arial" font-size="14.00" fill="#666666">[timestamp without time zone]</text>
<polygon fill="none" stroke="#000000" points="765.5,-165.5 765.5,-195.5 1060.5,-195.5 1060.5,-165.5 765.5,-165.5"/>
<text text-anchor="start" x="772.5" y="-176.9" font-family="Arial" font-size="14.00" fill="#000000">updated_at </text>
<text text-anchor="start" x="846.4326" y="-176.9" font-family="Arial" font-size="14.00" fill="#666666">[timestamp without time zone]</text>
<polygon fill="none" stroke="#000000" points="765.5,-135.5 765.5,-165.5 1060.5,-165.5 1060.5,-135.5 765.5,-135.5"/>
<text text-anchor="start" x="772.5" y="-146.9" font-family="Arial" font-size="14.00" fill="#000000">name </text>
<text text-anchor="start" x="811.399" y="-146.9" font-family="Arial" font-size="14.00" fill="#666666">[varchar]</text>
<polygon fill="none" stroke="#000000" points="765.5,-105.5 765.5,-135.5 1060.5,-135.5 1060.5,-105.5 765.5,-105.5"/>
<text text-anchor="start" x="772.5" y="-116.9" font-family="Arial" font-size="14.00" fill="#000000">description </text>
<text text-anchor="start" x="844.068" y="-116.9" font-family="Arial" font-size="14.00" fill="#666666">[text]</text>
<polygon fill="none" stroke="#000000" points="765.5,-75.5 765.5,-105.5 1060.5,-105.5 1060.5,-75.5 765.5,-75.5"/>
<text text-anchor="start" x="772.5" y="-86.9" font-family="Arial" font-size="14.00" fill="#000000">current_owner_name </text>
<text text-anchor="start" x="908.6388" y="-86.9" font-family="Arial" font-size="14.00" fill="#666666">[varchar(64)]</text>
<polygon fill="none" stroke="#000000" points="765.5,-45.5 765.5,-75.5 1060.5,-75.5 1060.5,-45.5 765.5,-45.5"/>
<text text-anchor="start" x="772.5" y="-56.9" font-family="Arial" font-size="14.00" fill="#000000">is_hidden </text>
<text text-anchor="start" x="836.2994" y="-56.9" font-family="Arial" font-size="14.00" fill="#666666">[boolean]</text>
<polygon fill="none" stroke="#000000" stroke-width="3" points="763.5,-44.5 763.5,-292.5 1061.5,-292.5 1061.5,-44.5 763.5,-44.5"/>
</g>
<!-- public.namespace_ownerships -->
<g id="node2" class="node">
<title>public.namespace_ownerships</title>
<polygon fill="#efefef" stroke="transparent" points="43.5,-760.5 43.5,-795.5 430.5,-795.5 430.5,-760.5 43.5,-760.5"/>
<polygon fill="none" stroke="#000000" points="43.5,-760.5 43.5,-795.5 430.5,-795.5 430.5,-760.5 43.5,-760.5"/>
<text text-anchor="start" x="50.1878" y="-773.3" font-family="Arial Bold" font-size="18.00" fill="#000000">public.namespace_ownerships</text>
<text text-anchor="start" x="296.2442" y="-773.3" font-family="Arial" font-size="14.00" fill="#000000">    </text>
<text text-anchor="start" x="330.449" y="-773.3" font-family="Arial" font-size="14.00" fill="#666666">[BASE TABLE]</text>
<polygon fill="none" stroke="#000000" points="43.5,-730.5 43.5,-760.5 430.5,-760.5 430.5,-730.5 43.5,-730.5"/>
<text text-anchor="start" x="50.5" y="-741.9" font-family="Arial" font-size="14.00" fill="#000000">uuid    </text>
<text text-anchor="start" x="111.1592" y="-741.9" font-family="Arial" font-size="14.00" fill="#666666">[uuid]</text>
<polygon fill="none" stroke="#000000" points="43.5,-700.5 43.5,-730.5 430.5,-730.5 430.5,-700.5 43.5,-700.5"/>
<text text-anchor="start" x="50.5" y="-711.9" font-family="Arial" font-size="14.00" fill="#000000">started_at    </text>
<text text-anchor="start" x="146.9502" y="-711.9" font-family="Arial" font-size="14.00" fill="#666666">[timestamp without time zone]</text>
<polygon fill="none" stroke="#000000" points="43.5,-670.5 43.5,-700.5 430.5,-700.5 430.5,-670.5 43.5,-670.5"/>
<text text-anchor="start" x="50.5" y="-681.9" font-family="Arial" font-size="14.00" fill="#000000">ended_at    </text>
<text text-anchor="start" x="143.0736" y="-681.9" font-family="Arial" font-size="14.00" fill="#666666">[timestamp without time zone]</text>
<polygon fill="none" stroke="#000000" points="43.5,-640.5 43.5,-670.5 430.5,-670.5 430.5,-640.5 43.5,-640.5"/>
<text text-anchor="start" x="50.5" y="-651.9" font-family="Arial" font-size="14.00" fill="#000000">namespace_uuid    </text>
<text text-anchor="start" x="191.298" y="-651.9" font-family="Arial" font-size="14.00" fill="#666666">[uuid]</text>
<polygon fill="none" stroke="#000000" points="43.5,-610.5 43.5,-640.5 430.5,-640.5 430.5,-610.5 43.5,-610.5"/>
<text text-anchor="start" x="50.5" y="-621.9" font-family="Arial" font-size="14.00" fill="#000000">owner_uuid    </text>
<text text-anchor="start" x="157.0568" y="-621.9" font-family="Arial" font-size="14.00" fill="#666666">[uuid]</text>
</g>
<!-- public.namespace_ownerships&#45;&gt;public.namespaces -->
<g id="edge1" class="edge">
<title>public.namespace_ownerships:namespace_uuid&#45;&gt;public.namespaces:uuid</title>
<path fill="none" stroke="#000000" d="M440.2654,-653.3426C488.7239,-629.8047 444.7727,-420.6724 481.5,-373 566.5045,-262.6633 626.2163,-240.5 765.5,-240.5"/>
<polygon fill="#000000" stroke="#000000" points="440.2645,-653.3427 429.5292,-651.106 435.3823,-654.4213 430.5,-655.5 430.5,-655.5 430.5,-655.5 435.3823,-654.4213 431.4708,-659.894 440.2645,-653.3427 440.2645,-653.3427"/>
<text text-anchor="start" x="437.4805" y="-665.5" font-family="Arial" font-size="10.00" fill="#000000">FOREIGN KEY (namespace_uuid) REFERENCES namespaces(uuid)</text>
</g>
<!-- public.datasets -->
<g id="node3" class="node">
<title>public.datasets</title>
<polygon fill="#efefef" stroke="transparent" points="534.5,-910.5 534.5,-945.5 869.5,-945.5 869.5,-910.5 534.5,-910.5"/>
<polygon fill="none" stroke="#000000" points="534.5,-910.5 534.5,-945.5 869.5,-945.5 869.5,-910.5 534.5,-910.5"/>
<text text-anchor="start" x="578.1968" y="-923.3" font-family="Arial Bold" font-size="18.00" fill="#000000">public.datasets</text>
<text text-anchor="start" x="698.2352" y="-923.3" font-family="Arial" font-size="14.00" fill="#000000">    </text>
<text text-anchor="start" x="732.44" y="-923.3" font-family="Arial" font-size="14.00" fill="#666666">[BASE TABLE]</text>
<polygon fill="none" stroke="#000000" points="534.5,-880.5 534.5,-910.5 869.5,-910.5 869.5,-880.5 534.5,-880.5"/>
<text text-anchor="start" x="541.5" y="-891.9" font-family="Arial" font-size="14.00" fill="#000000">uuid    </text>
<text text-anchor="start" x="602.1592" y="-891.9" font-family="Arial" font-size="14.00" fill="#666666">[uuid]</text>
<polygon fill="none" stroke="#000000" points="534.5,-850.5 534.5,-880.5 869.5,-880.5 869.5,-850.5 534.5,-850.5"/>
<text text-anchor="start" x="541.5" y="-861.9" font-family="Arial" font-size="14.00" fill="#000000">type    </text>
<text text-anchor="start" x="602.1606" y="-861.9" font-family="Arial" font-size="14.00" fill="#666666">[varchar(64)]</text>
<polygon fill="none" stroke="#000000" points="534.5,-820.5 534.5,-850.5 869.5,-850.5 869.5,-820.5 534.5,-820.5"/>
<text text-anchor="start" x="541.5" y="-831.9" font-family="Arial" font-size="14.00" fill="#000000">created_at    </text>
<text text-anchor="start" x="641.8422" y="-831.9" font-family="Arial" font-size="14.00" fill="#666666">[timestamp without time zone]</text>
<polygon fill="none" stroke="#000000" points="534.5,-790.5 534.5,-820.5 869.5,-820.5 869.5,-790.5 534.5,-790.5"/>
<text text-anchor="start" x="541.5" y="-801.9" font-family="Arial" font-size="14.00" fill="#000000">updated_at    </text>
<text text-anchor="start" x="645.7468" y="-801.9" font-family="Arial" font-size="14.00" fill="#666666">[timestamp without time zone]</text>
<polygon fill="none" stroke="#000000" points="534.5,-760.5 534.5,-790.5 869.5,-790.5 869.5,-760.5 534.5,-760.5"/>
<text text-anchor="start" x="541.5" y="-771.9" font-family="Arial" font-size="14.00" fill="#000000">namespace_uuid    </text>
<text text-anchor="start" x="682.298" y="-771.9" font-family="Arial" font-size="14.00" fill="#666666">[uuid]</text>
<polygon fill="none" stroke="#000000" points="534.5,-730.5 534.5,-760.5 869.5,-760.5 869.5,-730.5 534.5,-730.5"/>
<text text-anchor="start" x="541.5" y="-741.9" font-family="Arial" font-size="14.00" fill="#000000">source_uuid    </text>
<text text-anchor="start" x="651.9502" y="-741.9" font-family="Arial" font-size="14.00" fill="#666666">[uuid]</text>
<polygon fill="none" stroke="#000000" points="534.5,-700.5 534.5,-730.5 869.5,-730.5 869.5,-700.5 534.5,-700.5"/>
<text text-anchor="start" x="541.5" y="-711.9" font-family="Arial" font-size="14.00" fill="#000000">name    </text>
<text text-anchor="start" x="610.7132" y="-711.9" font-family="Arial" font-size="14.00" fill="#666666">[varchar]</text>
<polygon fill="none" stroke="#000000" points="534.5,-670.5 534.5,-700.5 869.5,-700.5 869.5,-670.5 534.5,-670.5"/>
<text text-anchor="start" x="541.5" y="-681.9" font-family="Arial" font-size="14.00" fill="#000000">physical_name    </text>
<text text-anchor="start" x="669.0568" y="-681.9" font-family="Arial" font-size="14.00" fill="#666666">[varchar]</text>
<polygon fill="none" stroke="#000000" points="534.5,-640.5 534.5,-670.5 869.5,-670.5 869.5,-640.5 534.5,-640.5"/>
<text text-anchor="start" x="541.5" y="-651.9" font-family="Arial" font-size="14.00" fill="#000000">description    </text>
<text text-anchor="start" x="643.3822" y="-651.9" font-family="Arial" font-size="14.00" fill="#666666">[text]</text>
<polygon fill="none" stroke="#000000" points="534.5,-610.5 534.5,-640.5 869.5,-640.5 869.5,-610.5 534.5,-610.5"/>
<text text-anchor="start" x="541.5" y="-621.9" font-family="Arial" font-size="14.00" fill="#000000">current_version_uuid    </text>
<text text-anchor="start" x="706.399" y="-621.9" font-family="Arial" font-size="14.00" fill="#666666">[uuid]</text>
<polygon fill="none" stroke="#000000" points="534.5,-580.5 534.5,-610.5 869.5,-610.5 869.5,-580.5 534.5,-580.5"/>
<text text-anchor="start" x="541.371" y="-591.9" font-family="Arial" font-size="14.00" fill="#000000">last_modified_at    </text>
<text text-anchor="start" x="677.4888" y="-591.9" font-family="Arial" font-size="14.00" fill="#666666">[timestamp without time zone]</text>
<polygon fill="none" stroke="#000000" points="534.5,-550.5 534.5,-580.5 869.5,-580.5 869.5,-550.5 534.5,-550.5"/>
<text text-anchor="start" x="541.5" y="-561.9" font-family="Arial" font-size="14.00" fill="#000000">namespace_name    </text>
<text text-anchor="start" x="690.852" y="-561.9" font-family="Arial" font-size="14.00" fill="#666666">[varchar]</text>
<polygon fill="none" stroke="#000000" points="534.5,-520.5 534.5,-550.5 869.5,-550.5 869.5,-520.5 534.5,-520.5"/>
<text text-anchor="start" x="541.5" y="-531.9" font-family="Arial" font-size="14.00" fill="#000000">source_name    </text>
<text text-anchor="start" x="660.5042" y="-531.9" font-family="Arial" font-size="14.00" fill="#666666">[varchar]</text>
<polygon fill="none" stroke="#000000" points="534.5,-490.5 534.5,-520.5 869.5,-520.5 869.5,-490.5 534.5,-490.5"/>
<text text-anchor="start" x="541.5" y="-501.9" font-family="Arial" font-size="14.00" fill="#000000">is_deleted    </text>
<text text-anchor="start" x="639.5042" y="-501.9" font-family="Arial" font-size="14.00" fill="#666666">[boolean]</text>
<polygon fill="none" stroke="#000000" points="534.5,-460.5 534.5,-490.5 869.5,-490.5 869.5,-460.5 534.5,-460.5"/>
<text text-anchor="start" x="541.5" y="-471.9" font-family="Arial" font-size="14.00" fill="#000000">is_hidden    </text>
<text text-anchor="start" x="635.6136" y="-471.9" font-family="Arial" font-size="14.00" fill="#666666">[boolean]</text>
</g>
<!-- public.datasets&#45;&gt;public.namespaces -->
<g id="edge2" class="edge">
<title>public.datasets:namespace_uuid&#45;&gt;public.namespaces:uuid</title>
<path fill="none" stroke="#000000" d="M879.4678,-773.8132C944.9602,-750.2271 902.8134,-486.1713 869.5,-418 843.777,-365.3614 791.223,-389.6386 765.5,-337 746.6695,-298.466 722.6111,-240.5 765.5,-240.5"/>
<polygon fill="#000000" stroke="#000000" points="879.3598,-773.8314 868.7491,-771.0631 874.4299,-774.6657 869.5,-775.5 869.5,-775.5 869.5,-775.5 874.4299,-774.6657 870.2509,-779.9369 879.3598,-773.8314 879.3598,-773.8314"/>
<text text-anchor="start" x="876.4805" y="-785.5" font-family="Arial" font-size="10.00" fill="#000000">FOREIGN KEY (namespace_uuid) REFERENCES namespaces(uuid)</text>
</g>
<!-- public.jobs -->
<g id="node4" class="node">
<title>public.jobs</title>
<polygon fill="#efefef" stroke="transparent" points="973.5,-955.5 973.5,-990.5 1276.5,-990.5 1276.5,-955.5 973.5,-955.5"/>
<polygon fill="none" stroke="#000000" points="973.5,-955.5 973.5,-990.5 1276.5,-990.5 1276.5,-955.5 973.5,-955.5"/>
<text text-anchor="start" x="1018.7081" y="-968.3" font-family="Arial Bold" font-size="18.00" fill="#000000">public.jobs</text>
<text text-anchor="start" x="1103.7239" y="-968.3" font-family="Arial" font-size="14.00" fill="#000000">    </text>
<text text-anchor="start" x="1137.9287" y="-968.3" font-family="Arial" font-size="14.00" fill="#666666">[BASE TABLE]</text>
<polygon fill="none" stroke="#000000" points="973.5,-925.5 973.5,-955.5 1276.5,-955.5 1276.5,-925.5 973.5,-925.5"/>
<text text-anchor="start" x="980.5" y="-936.9" font-family="Arial" font-size="14.00" fill="#000000">uuid    </text>
<text text-anchor="start" x="1041.1592" y="-936.9" font-family="Arial" font-size="14.00" fill="#666666">[uuid]</text>
<polygon fill="none" stroke="#000000" points="973.5,-895.5 973.5,-925.5 1276.5,-925.5 1276.5,-895.5 973.5,-895.5"/>
<text text-anchor="start" x="980.5" y="-906.9" font-family="Arial" font-size="14.00" fill="#000000">type    </text>
<text text-anchor="start" x="1041.1606" y="-906.9" font-family="Arial" font-size="14.00" fill="#666666">[varchar(64)]</text>
<polygon fill="none" stroke="#000000" points="973.5,-865.5 973.5,-895.5 1276.5,-895.5 1276.5,-865.5 973.5,-865.5"/>
<text text-anchor="start" x="980.5" y="-876.9" font-family="Arial" font-size="14.00" fill="#000000">created_at    </text>
<text text-anchor="start" x="1080.8422" y="-876.9" font-family="Arial" font-size="14.00" fill="#666666">[timestamp without time zone]</text>
<polygon fill="none" stroke="#000000" points="973.5,-835.5 973.5,-865.5 1276.5,-865.5 1276.5,-835.5 973.5,-835.5"/>
<text text-anchor="start" x="980.3065" y="-846.9" font-family="Arial" font-size="14.00" fill="#000000">updated_at    </text>
<text text-anchor="start" x="1084.5533" y="-846.9" font-family="Arial" font-size="14.00" fill="#666666">[timestamp without time zone]</text>
<polygon fill="none" stroke="#000000" points="973.5,-805.5 973.5,-835.5 1276.5,-835.5 1276.5,-805.5 973.5,-805.5"/>
<text text-anchor="start" x="980.5" y="-816.9" font-family="Arial" font-size="14.00" fill="#000000">namespace_uuid    </text>
<text text-anchor="start" x="1121.298" y="-816.9" font-family="Arial" font-size="14.00" fill="#666666">[uuid]</text>
<polygon fill="none" stroke="#000000" points="973.5,-775.5 973.5,-805.5 1276.5,-805.5 1276.5,-775.5 973.5,-775.5"/>
<text text-anchor="start" x="980.5" y="-786.9" font-family="Arial" font-size="14.00" fill="#000000">simple_name    </text>
<text text-anchor="start" x="1097.9348" y="-786.9" font-family="Arial" font-size="14.00" fill="#666666">[varchar]</text>
<polygon fill="none" stroke="#000000" points="973.5,-745.5 973.5,-775.5 1276.5,-775.5 1276.5,-745.5 973.5,-745.5"/>
<text text-anchor="start" x="980.5" y="-756.9" font-family="Arial" font-size="14.00" fill="#000000">description    </text>
<text text-anchor="start" x="1082.3822" y="-756.9" font-family="Arial" font-size="14.00" fill="#666666">[text]</text>
<polygon fill="none" stroke="#000000" points="973.5,-715.5 973.5,-745.5 1276.5,-745.5 1276.5,-715.5 973.5,-715.5"/>
<text text-anchor="start" x="980.5" y="-726.9" font-family="Arial" font-size="14.00" fill="#000000">current_version_uuid    </text>
<text text-anchor="start" x="1145.399" y="-726.9" font-family="Arial" font-size="14.00" fill="#666666">[uuid]</text>
<polygon fill="none" stroke="#000000" points="973.5,-685.5 973.5,-715.5 1276.5,-715.5 1276.5,-685.5 973.5,-685.5"/>
<text text-anchor="start" x="980.5" y="-696.9" font-family="Arial" font-size="14.00" fill="#000000">namespace_name    </text>
<text text-anchor="start" x="1129.852" y="-696.9" font-family="Arial" font-size="14.00" fill="#666666">[varchar]</text>
<polygon fill="none" stroke="#000000" points="973.5,-655.5 973.5,-685.5 1276.5,-685.5 1276.5,-655.5 973.5,-655.5"/>
<text text-anchor="start" x="980.5" y="-666.9" font-family="Arial" font-size="14.00" fill="#000000">current_job_context_uuid    </text>
<text text-anchor="start" x="1171.8674" y="-666.9" font-family="Arial" font-size="14.00" fill="#666666">[uuid]</text>
<polygon fill="none" stroke="#000000" points="973.5,-625.5 973.5,-655.5 1276.5,-655.5 1276.5,-625.5 973.5,-625.5"/>
<text text-anchor="start" x="980.5" y="-636.9" font-family="Arial" font-size="14.00" fill="#000000">current_location    </text>
<text text-anchor="start" x="1114.2812" y="-636.9" font-family="Arial" font-size="14.00" fill="#666666">[varchar]</text>
<polygon fill="none" stroke="#000000" points="973.5,-595.5 973.5,-625.5 1276.5,-625.5 1276.5,-595.5 973.5,-595.5"/>
<text text-anchor="start" x="980.5" y="-606.9" font-family="Arial" font-size="14.00" fill="#000000">current_inputs    </text>
<text text-anchor="start" x="1103.392" y="-606.9" font-family="Arial" font-size="14.00" fill="#666666">[jsonb]</text>
<polygon fill="none" stroke="#000000" points="973.5,-565.5 973.5,-595.5 1276.5,-595.5 1276.5,-565.5 973.5,-565.5"/>
<text text-anchor="start" x="980.5" y="-576.9" font-family="Arial" font-size="14.00" fill="#000000">symlink_target_uuid    </text>
<text text-anchor="start" x="1139.1704" y="-576.9" font-family="Arial" font-size="14.00" fill="#666666">[uuid]</text>
<polygon fill="none" stroke="#000000" points="973.5,-535.5 973.5,-565.5 1276.5,-565.5 1276.5,-535.5 973.5,-535.5"/>
<text text-anchor="start" x="980.5" y="-546.9" font-family="Arial" font-size="14.00" fill="#000000">parent_job_uuid    </text>
<text text-anchor="start" x="1115.0778" y="-546.9" font-family="Arial" font-size="14.00" fill="#666666">[uuid]</text>
<polygon fill="none" stroke="#000000" points="973.5,-505.5 973.5,-535.5 1276.5,-535.5 1276.5,-505.5 973.5,-505.5"/>
<text text-anchor="start" x="980.5" y="-516.9" font-family="Arial" font-size="14.00" fill="#000000">parent_job_uuid_string    </text>
<text text-anchor="start" x="1157.0834" y="-516.9" font-family="Arial" font-size="14.00" fill="#666666">[character(36)]</text>
<polygon fill="none" stroke="#000000" points="973.5,-475.5 973.5,-505.5 1276.5,-505.5 1276.5,-475.5 973.5,-475.5"/>
<text text-anchor="start" x="980.5" y="-486.9" font-family="Arial" font-size="14.00" fill="#000000">is_hidden    </text>
<text text-anchor="start" x="1074.6136" y="-486.9" font-family="Arial" font-size="14.00" fill="#666666">[boolean]</text>
<polygon fill="none" stroke="#000000" points="973.5,-445.5 973.5,-475.5 1276.5,-475.5 1276.5,-445.5 973.5,-445.5"/>
<text text-anchor="start" x="980.5" y="-456.9" font-family="Arial" font-size="14.00" fill="#000000">name    </text>
<text text-anchor="start" x="1049.7132" y="-456.9" font-family="Arial" font-size="14.00" fill="#666666">[varchar]</text>
<polygon fill="none" stroke="#000000" points="973.5,-415.5 973.5,-445.5 1276.5,-445.5 1276.5,-415.5 973.5,-415.5"/>
<text text-anchor="start" x="980.5" y="-426.9" font-family="Arial" font-size="14.00" fill="#000000">aliases    </text>
<text text-anchor="start" x="1058.2658" y="-426.9" font-family="Arial" font-size="14.00" fill="#666666">[varchar[]]</text>
</g>
<!-- public.jobs&#45;&gt;public.namespaces -->
<g id="edge3" class="edge">
<title>public.jobs:namespace_uuid&#45;&gt;public.namespaces:uuid</title>
<path fill="none" stroke="#000000" d="M964.525,-815.3525C926.7361,-768.1654 947.7033,-411.5925 973.5,-373 996.7548,-338.2103 1037.2452,-371.7897 1060.5,-337 1084.3342,-301.3435 1103.3889,-240.5 1060.5,-240.5"/>
<polygon fill="#000000" stroke="#000000" points="964.8255,-815.5248 971.2611,-824.4035 969.1627,-818.0124 973.5,-820.5 973.5,-820.5 973.5,-820.5 969.1627,-818.0124 975.7389,-816.5965 964.8255,-815.5248 964.8255,-815.5248"/>
<text text-anchor="start" x="980.4805" y="-830.5" font-family="Arial" font-size="10.00" fill="#000000">FOREIGN KEY (namespace_uuid) REFERENCES namespaces(uuid)</text>
</g>
<!-- public.dataset_symlinks -->
<g id="node5" class="node">
<title>public.dataset_symlinks</title>
<polygon fill="#efefef" stroke="transparent" points="1380.5,-790.5 1380.5,-825.5 1711.5,-825.5 1711.5,-790.5 1380.5,-790.5"/>
<polygon fill="none" stroke="#000000" points="1380.5,-790.5 1380.5,-825.5 1711.5,-825.5 1711.5,-790.5 1380.5,-790.5"/>
<text text-anchor="start" x="1387.2003" y="-803.3" font-family="Arial Bold" font-size="18.00" fill="#000000">public.dataset_symlinks</text>
<text text-anchor="start" x="1577.2317" y="-803.3" font-family="Arial" font-size="14.00" fill="#000000">    </text>
<text text-anchor="start" x="1611.4365" y="-803.3" font-family="Arial" font-size="14.00" fill="#666666">[BASE TABLE]</text>
<polygon fill="none" stroke="#000000" points="1380.5,-760.5 1380.5,-790.5 1711.5,-790.5 1711.5,-760.5 1380.5,-760.5"/>
<text text-anchor="start" x="1387.5" y="-771.9" font-family="Arial" font-size="14.00" fill="#000000">dataset_uuid    </text>
<text text-anchor="start" x="1501.8534" y="-771.9" font-family="Arial" font-size="14.00" fill="#666666">[uuid]</text>
<polygon fill="none" stroke="#000000" points="1380.5,-730.5 1380.5,-760.5 1711.5,-760.5 1711.5,-730.5 1380.5,-730.5"/>
<text text-anchor="start" x="1387.5" y="-741.9" font-family="Arial" font-size="14.00" fill="#000000">name    </text>
<text text-anchor="start" x="1456.7132" y="-741.9" font-family="Arial" font-size="14.00" fill="#666666">[varchar]</text>
<polygon fill="none" stroke="#000000" points="1380.5,-700.5 1380.5,-730.5 1711.5,-730.5 1711.5,-700.5 1380.5,-700.5"/>
<text text-anchor="start" x="1387.5" y="-711.9" font-family="Arial" font-size="14.00" fill="#000000">namespace_uuid    </text>
<text text-anchor="start" x="1528.298" y="-711.9" font-family="Arial" font-size="14.00" fill="#666666">[uuid]</text>
<polygon fill="none" stroke="#000000" points="1380.5,-670.5 1380.5,-700.5 1711.5,-700.5 1711.5,-670.5 1380.5,-670.5"/>
<text text-anchor="start" x="1387.5" y="-681.9" font-family="Arial" font-size="14.00" fill="#000000">type    </text>
<text text-anchor="start" x="1448.1606" y="-681.9" font-family="Arial" font-size="14.00" fill="#666666">[varchar(64)]</text>
<polygon fill="none" stroke="#000000" points="1380.5,-640.5 1380.5,-670.5 1711.5,-670.5 1711.5,-640.5 1380.5,-640.5"/>
<text text-anchor="start" x="1387.5" y="-651.9" font-family="Arial" font-size="14.00" fill="#000000">is_primary    </text>
<text text-anchor="start" x="1486.2476" y="-651.9" font-family="Arial" font-size="14.00" fill="#666666">[boolean]</text>
<polygon fill="none" stroke="#000000" points="1380.5,-610.5 1380.5,-640.5 1711.5,-640.5 1711.5,-610.5 1380.5,-610.5"/>
<text text-anchor="start" x="1387.5" y="-621.9" font-family="Arial" font-size="14.00" fill="#000000">created_at    </text>
<text text-anchor="start" x="1487.8422" y="-621.9" font-family="Arial" font-size="14.00" fill="#666666">[timestamp without time zone]</text>
<polygon fill="none" stroke="#000000" points="1380.5,-580.5 1380.5,-610.5 1711.5,-610.5 1711.5,-580.5 1380.5,-580.5"/>
<text text-anchor="start" x="1387.5" y="-591.9" font-family="Arial" font-size="14.00" fill="#000000">updated_at    </text>
<text text-anchor="start" x="1491.7468" y="-591.9" font-family="Arial" font-size="14.00" fill="#666666">[timestamp without time zone]</text>
</g>
<!-- public.dataset_symlinks&#45;&gt;public.namespaces -->
<g id="edge4" class="edge">
<title>public.dataset_symlinks:namespace_uuid&#45;&gt;public.namespaces:uuid</title>
<path fill="none" stroke="#000000" d="M1370.6187,-713.7034C1309.863,-689.6968 1371.7968,-432.2388 1328.5,-373 1250.0943,-265.7251 1193.3735,-240.5 1060.5,-240.5"/>
<polygon fill="#000000" stroke="#000000" points="1370.6613,-713.711 1379.695,-719.9274 1375.5807,-714.6055 1380.5,-715.5 1380.5,-715.5 1380.5,-715.5 1375.5807,-714.6055 1381.305,-711.0726 1370.6613,-713.711 1370.6613,-713.711"/>
<text text-anchor="start" x="1387.4805" y="-725.5" font-family="Arial" font-size="10.00" fill="#000000">FOREIGN KEY (namespace_uuid) REFERENCES namespaces(uuid)</text>
</g>
</g>
</svg>
