<?xml version="1.0" encoding="UTF-8" standalone="no"?>
<!DOCTYPE svg PUBLIC "-//W3C//DTD SVG 1.1//EN"
 "http://www.w3.org/Graphics/SVG/1.1/DTD/svg11.dtd">
<!-- Generated by graphviz version 2.40.1 (20161225.0304)
 -->
<!-- Title: public.job_facets_view Pages: 1 -->
<svg width="404pt" height="345pt"
 viewBox="0.00 0.00 404.00 345.00" xmlns="http://www.w3.org/2000/svg" xmlns:xlink="http://www.w3.org/1999/xlink">
<g id="graph0" class="graph" transform="scale(1 1) rotate(0) translate(4 341)">
<title>public.job_facets_view</title>
<polygon fill="#ffffff" stroke="transparent" points="-4,4 -4,-341 400,-341 400,4 -4,4"/>
<!-- public.job_facets_view -->
<g id="node1" class="node">
<title>public.job_facets_view</title>
<polygon fill="#efefef" stroke="transparent" points="46,-255.5 46,-290.5 350,-290.5 350,-255.5 46,-255.5"/>
<polygon fill="none" stroke="#000000" points="46,-255.5 46,-290.5 350,-290.5 350,-255.5 46,-255.5"/>
<text text-anchor="start" x="69.098" y="-268.3" font-family="Arial Bold" font-size="18.00" fill="#000000">public.job_facets_view</text>
<text text-anchor="start" x="249.1376" y="-268.3" font-family="Arial" font-size="14.00" fill="#000000">    </text>
<text text-anchor="start" x="283.3424" y="-268.3" font-family="Arial" font-size="14.00" fill="#666666">[VIEW]</text>
<polygon fill="none" stroke="#000000" points="46,-225.5 46,-255.5 350,-255.5 350,-225.5 46,-225.5"/>
<text text-anchor="start" x="53" y="-236.9" font-family="Arial" font-size="14.00" fill="#000000">created_at </text>
<text text-anchor="start" x="123.028" y="-236.9" font-family="Arial" font-size="14.00" fill="#666666">[timestamp with time zone]</text>
<polygon fill="none" stroke="#000000" points="46,-195.5 46,-225.5 350,-225.5 350,-195.5 46,-195.5"/>
<text text-anchor="start" x="53" y="-206.9" font-family="Arial" font-size="14.00" fill="#000000">job_uuid </text>
<text text-anchor="start" x="109.7994" y="-206.9" font-family="Arial" font-size="14.00" fill="#666666">[uuid]</text>
<polygon fill="none" stroke="#000000" points="46,-165.5 46,-195.5 350,-195.5 350,-165.5 46,-165.5"/>
<text text-anchor="start" x="53" y="-176.9" font-family="Arial" font-size="14.00" fill="#000000">run_uuid </text>
<text text-anchor="start" x="111.3534" y="-176.9" font-family="Arial" font-size="14.00" fill="#666666">[uuid]</text>
<polygon fill="none" stroke="#000000" points="46,-135.5 46,-165.5 350,-165.5 350,-135.5 46,-135.5"/>
<text text-anchor="start" x="52.5274" y="-146.9" font-family="Arial" font-size="14.00" fill="#000000">lineage_event_time </text>
<text text-anchor="start" x="177.7882" y="-146.9" font-family="Arial" font-size="14.00" fill="#666666">[timestamp with time zone]</text>
<polygon fill="none" stroke="#000000" points="46,-105.5 46,-135.5 350,-135.5 350,-105.5 46,-105.5"/>
<text text-anchor="start" x="53" y="-116.9" font-family="Arial" font-size="14.00" fill="#000000">lineage_event_type </text>
<text text-anchor="start" x="178.2762" y="-116.9" font-family="Arial" font-size="14.00" fill="#666666">[varchar(64)]</text>
<polygon fill="none" stroke="#000000" points="46,-75.5 46,-105.5 350,-105.5 350,-75.5 46,-75.5"/>
<text text-anchor="start" x="53" y="-86.9" font-family="Arial" font-size="14.00" fill="#000000">name </text>
<text text-anchor="start" x="91.899" y="-86.9" font-family="Arial" font-size="14.00" fill="#666666">[varchar(255)]</text>
<polygon fill="none" stroke="#000000" points="46,-45.5 46,-75.5 350,-75.5 350,-45.5 46,-45.5"/>
<text text-anchor="start" x="53" y="-56.9" font-family="Arial" font-size="14.00" fill="#000000">facet </text>
<text text-anchor="start" x="87.237" y="-56.9" font-family="Arial" font-size="14.00" fill="#666666">[jsonb]</text>
<polygon fill="none" stroke="#000000" stroke-width="3" points="44.5,-44.5 44.5,-292.5 351.5,-292.5 351.5,-44.5 44.5,-44.5"/>
</g>
</g>
</svg>
