<?xml version="1.0" encoding="UTF-8" standalone="no"?>
<!DOCTYPE svg PUBLIC "-//W3C//DTD SVG 1.1//EN"
 "http://www.w3.org/Graphics/SVG/1.1/DTD/svg11.dtd">
<!-- Generated by graphviz version 2.40.1 (20161225.0304)
 -->
<!-- Title: public.runs_input_mapping Pages: 1 -->
<svg width="989pt" height="952pt"
 viewBox="0.00 0.00 988.50 952.00" xmlns="http://www.w3.org/2000/svg" xmlns:xlink="http://www.w3.org/1999/xlink">
<g id="graph0" class="graph" transform="scale(1 1) rotate(0) translate(4 948)">
<title>public.runs_input_mapping</title>
<polygon fill="#ffffff" stroke="transparent" points="-4,4 -4,-948 984.5,-948 984.5,4 -4,4"/>
<!-- public.runs_input_mapping -->
<g id="node1" class="node">
<title>public.runs_input_mapping</title>
<polygon fill="#efefef" stroke="transparent" points="263.5,-862.5 263.5,-897.5 619.5,-897.5 619.5,-862.5 263.5,-862.5"/>
<polygon fill="none" stroke="#000000" points="263.5,-862.5 263.5,-897.5 619.5,-897.5 619.5,-862.5 263.5,-862.5"/>
<text text-anchor="start" x="270.1867" y="-875.3" font-family="Arial Bold" font-size="18.00" fill="#000000">public.runs_input_mapping</text>
<text text-anchor="start" x="485.2453" y="-875.3" font-family="Arial" font-size="14.00" fill="#000000">    </text>
<text text-anchor="start" x="519.4501" y="-875.3" font-family="Arial" font-size="14.00" fill="#666666">[BASE TABLE]</text>
<polygon fill="none" stroke="#000000" points="263.5,-832.5 263.5,-862.5 619.5,-862.5 619.5,-832.5 263.5,-832.5"/>
<text text-anchor="start" x="270.5" y="-843.9" font-family="Arial" font-size="14.00" fill="#000000">run_uuid </text>
<text text-anchor="start" x="328.8534" y="-843.9" font-family="Arial" font-size="14.00" fill="#666666">[uuid]</text>
<polygon fill="none" stroke="#000000" points="263.5,-802.5 263.5,-832.5 619.5,-832.5 619.5,-802.5 263.5,-802.5"/>
<text text-anchor="start" x="270.5" y="-813.9" font-family="Arial" font-size="14.00" fill="#000000">dataset_version_uuid </text>
<text text-anchor="start" x="407.4368" y="-813.9" font-family="Arial" font-size="14.00" fill="#666666">[uuid]</text>
<polygon fill="none" stroke="#000000" stroke-width="3" points="262,-801.5 262,-899.5 621,-899.5 621,-801.5 262,-801.5"/>
</g>
<!-- public.runs -->
<g id="node2" class="node">
<title>public.runs</title>
<polygon fill="#efefef" stroke="transparent" points="43.5,-642.5 43.5,-677.5 394.5,-677.5 394.5,-642.5 43.5,-642.5"/>
<polygon fill="none" stroke="#000000" points="43.5,-642.5 43.5,-677.5 394.5,-677.5 394.5,-642.5 43.5,-642.5"/>
<text text-anchor="start" x="111.7091" y="-655.3" font-family="Arial Bold" font-size="18.00" fill="#000000">public.runs</text>
<text text-anchor="start" x="198.7229" y="-655.3" font-family="Arial" font-size="14.00" fill="#000000">    </text>
<text text-anchor="start" x="232.9277" y="-655.3" font-family="Arial" font-size="14.00" fill="#666666">[BASE TABLE]</text>
<polygon fill="none" stroke="#000000" points="43.5,-612.5 43.5,-642.5 394.5,-642.5 394.5,-612.5 43.5,-612.5"/>
<text text-anchor="start" x="50.5" y="-623.9" font-family="Arial" font-size="14.00" fill="#000000">uuid    </text>
<text text-anchor="start" x="111.1592" y="-623.9" font-family="Arial" font-size="14.00" fill="#666666">[uuid]</text>
<polygon fill="none" stroke="#000000" points="43.5,-582.5 43.5,-612.5 394.5,-612.5 394.5,-582.5 43.5,-582.5"/>
<text text-anchor="start" x="50.5" y="-593.9" font-family="Arial" font-size="14.00" fill="#000000">created_at    </text>
<text text-anchor="start" x="150.8422" y="-593.9" font-family="Arial" font-size="14.00" fill="#666666">[timestamp without time zone]</text>
<polygon fill="none" stroke="#000000" points="43.5,-552.5 43.5,-582.5 394.5,-582.5 394.5,-552.5 43.5,-552.5"/>
<text text-anchor="start" x="50.5" y="-563.9" font-family="Arial" font-size="14.00" fill="#000000">updated_at    </text>
<text text-anchor="start" x="154.7468" y="-563.9" font-family="Arial" font-size="14.00" fill="#666666">[timestamp without time zone]</text>
<polygon fill="none" stroke="#000000" points="43.5,-522.5 43.5,-552.5 394.5,-552.5 394.5,-522.5 43.5,-522.5"/>
<text text-anchor="start" x="50.5" y="-533.9" font-family="Arial" font-size="14.00" fill="#000000">job_version_uuid    </text>
<text text-anchor="start" x="190.5112" y="-533.9" font-family="Arial" font-size="14.00" fill="#666666">[uuid]</text>
<polygon fill="none" stroke="#000000" points="43.5,-492.5 43.5,-522.5 394.5,-522.5 394.5,-492.5 43.5,-492.5"/>
<text text-anchor="start" x="50.5" y="-503.9" font-family="Arial" font-size="14.00" fill="#000000">run_args_uuid    </text>
<text text-anchor="start" x="174.176" y="-503.9" font-family="Arial" font-size="14.00" fill="#666666">[uuid]</text>
<polygon fill="none" stroke="#000000" points="43.5,-462.5 43.5,-492.5 394.5,-492.5 394.5,-462.5 43.5,-462.5"/>
<text text-anchor="start" x="50.2104" y="-473.9" font-family="Arial" font-size="14.00" fill="#000000">nominal_start_time    </text>
<text text-anchor="start" x="202.6494" y="-473.9" font-family="Arial" font-size="14.00" fill="#666666">[timestamp without time zone]</text>
<polygon fill="none" stroke="#000000" points="43.5,-432.5 43.5,-462.5 394.5,-462.5 394.5,-432.5 43.5,-432.5"/>
<text text-anchor="start" x="50.5" y="-443.9" font-family="Arial" font-size="14.00" fill="#000000">nominal_end_time    </text>
<text text-anchor="start" x="199.0624" y="-443.9" font-family="Arial" font-size="14.00" fill="#666666">[timestamp without time zone]</text>
<polygon fill="none" stroke="#000000" points="43.5,-402.5 43.5,-432.5 394.5,-432.5 394.5,-402.5 43.5,-402.5"/>
<text text-anchor="start" x="50.5" y="-413.9" font-family="Arial" font-size="14.00" fill="#000000">current_run_state    </text>
<text text-anchor="start" x="194.4018" y="-413.9" font-family="Arial" font-size="14.00" fill="#666666">[varchar(64)]</text>
<polygon fill="none" stroke="#000000" points="43.5,-372.5 43.5,-402.5 394.5,-402.5 394.5,-372.5 43.5,-372.5"/>
<text text-anchor="start" x="50.5" y="-383.9" font-family="Arial" font-size="14.00" fill="#000000">start_run_state_uuid    </text>
<text text-anchor="start" x="212.3036" y="-383.9" font-family="Arial" font-size="14.00" fill="#666666">[uuid]</text>
<polygon fill="none" stroke="#000000" points="43.5,-342.5 43.5,-372.5 394.5,-372.5 394.5,-342.5 43.5,-342.5"/>
<text text-anchor="start" x="50.5" y="-353.9" font-family="Arial" font-size="14.00" fill="#000000">end_run_state_uuid    </text>
<text text-anchor="start" x="208.427" y="-353.9" font-family="Arial" font-size="14.00" fill="#666666">[uuid]</text>
<polygon fill="none" stroke="#000000" points="43.5,-312.5 43.5,-342.5 394.5,-342.5 394.5,-312.5 43.5,-312.5"/>
<text text-anchor="start" x="50.5" y="-323.9" font-family="Arial" font-size="14.00" fill="#000000">external_id    </text>
<text text-anchor="start" x="153.1648" y="-323.9" font-family="Arial" font-size="14.00" fill="#666666">[varchar]</text>
<polygon fill="none" stroke="#000000" points="43.5,-282.5 43.5,-312.5 394.5,-312.5 394.5,-282.5 43.5,-282.5"/>
<text text-anchor="start" x="50.5" y="-293.9" font-family="Arial" font-size="14.00" fill="#000000">namespace_name    </text>
<text text-anchor="start" x="199.852" y="-293.9" font-family="Arial" font-size="14.00" fill="#666666">[varchar]</text>
<polygon fill="none" stroke="#000000" points="43.5,-252.5 43.5,-282.5 394.5,-282.5 394.5,-252.5 43.5,-252.5"/>
<text text-anchor="start" x="50.5" y="-263.9" font-family="Arial" font-size="14.00" fill="#000000">job_name    </text>
<text text-anchor="start" x="146.1676" y="-263.9" font-family="Arial" font-size="14.00" fill="#666666">[varchar]</text>
<polygon fill="none" stroke="#000000" points="43.5,-222.5 43.5,-252.5 394.5,-252.5 394.5,-222.5 43.5,-222.5"/>
<text text-anchor="start" x="50.5" y="-233.9" font-family="Arial" font-size="14.00" fill="#000000">location    </text>
<text text-anchor="start" x="132.939" y="-233.9" font-family="Arial" font-size="14.00" fill="#666666">[varchar]</text>
<polygon fill="none" stroke="#000000" points="43.5,-192.5 43.5,-222.5 394.5,-222.5 394.5,-192.5 43.5,-192.5"/>
<text text-anchor="start" x="50.5" y="-203.9" font-family="Arial" font-size="14.00" fill="#000000">transitioned_at    </text>
<text text-anchor="start" x="176.5112" y="-203.9" font-family="Arial" font-size="14.00" fill="#666666">[timestamp without time zone]</text>
<polygon fill="none" stroke="#000000" points="43.5,-162.5 43.5,-192.5 394.5,-192.5 394.5,-162.5 43.5,-162.5"/>
<text text-anchor="start" x="50.5" y="-173.9" font-family="Arial" font-size="14.00" fill="#000000">started_at    </text>
<text text-anchor="start" x="146.9502" y="-173.9" font-family="Arial" font-size="14.00" fill="#666666">[timestamp without time zone]</text>
<polygon fill="none" stroke="#000000" points="43.5,-132.5 43.5,-162.5 394.5,-162.5 394.5,-132.5 43.5,-132.5"/>
<text text-anchor="start" x="50.5" y="-143.9" font-family="Arial" font-size="14.00" fill="#000000">ended_at    </text>
<text text-anchor="start" x="143.0736" y="-143.9" font-family="Arial" font-size="14.00" fill="#666666">[timestamp without time zone]</text>
<polygon fill="none" stroke="#000000" points="43.5,-102.5 43.5,-132.5 394.5,-132.5 394.5,-102.5 43.5,-102.5"/>
<text text-anchor="start" x="50.5" y="-113.9" font-family="Arial" font-size="14.00" fill="#000000">job_context_uuid    </text>
<text text-anchor="start" x="190.5252" y="-113.9" font-family="Arial" font-size="14.00" fill="#666666">[uuid]</text>
<polygon fill="none" stroke="#000000" points="43.5,-72.5 43.5,-102.5 394.5,-102.5 394.5,-72.5 43.5,-72.5"/>
<text text-anchor="start" x="50.5" y="-83.9" font-family="Arial" font-size="14.00" fill="#000000">parent_run_uuid    </text>
<text text-anchor="start" x="186.6318" y="-83.9" font-family="Arial" font-size="14.00" fill="#666666">[uuid]</text>
<polygon fill="none" stroke="#000000" points="43.5,-42.5 43.5,-72.5 394.5,-72.5 394.5,-42.5 43.5,-42.5"/>
<text text-anchor="start" x="50.5" y="-53.9" font-family="Arial" font-size="14.00" fill="#000000">job_uuid    </text>
<text text-anchor="start" x="137.6136" y="-53.9" font-family="Arial" font-size="14.00" fill="#666666">[uuid]</text>
</g>
<!-- public.runs_input_mapping&#45;&gt;public.runs -->
<g id="edge1" class="edge">
<title>public.runs_input_mapping:run_uuid&#45;&gt;public.runs:uuid</title>
<path fill="none" stroke="#000000" d="M253.2758,-845.9052C226.4527,-836.3249 241.4975,-785.8646 263.5,-757 300.1042,-708.9796 357.8958,-769.0204 394.5,-721 419.692,-687.9511 436.0556,-627.5 394.5,-627.5"/>
<polygon fill="#000000" stroke="#000000" points="253.6195,-845.9587 262.8064,-851.9462 258.5597,-846.7293 263.5,-847.5 263.5,-847.5 263.5,-847.5 258.5597,-846.7293 264.1936,-843.0538 253.6195,-845.9587 253.6195,-845.9587"/>
<text text-anchor="start" x="21.7165" y="-857.5" font-family="Arial" font-size="10.00" fill="#000000">FOREIGN KEY (run_uuid) REFERENCES runs(uuid)</text>
</g>
<!-- public.dataset_versions -->
<g id="node3" class="node">
<title>public.dataset_versions</title>
<polygon fill="#efefef" stroke="transparent" points="498.5,-477.5 498.5,-512.5 827.5,-512.5 827.5,-477.5 498.5,-477.5"/>
<polygon fill="none" stroke="#000000" points="498.5,-477.5 498.5,-512.5 827.5,-512.5 827.5,-477.5 498.5,-477.5"/>
<text text-anchor="start" x="505.1912" y="-490.3" font-family="Arial Bold" font-size="18.00" fill="#000000">public.dataset_versions</text>
<text text-anchor="start" x="693.2408" y="-490.3" font-family="Arial" font-size="14.00" fill="#000000">    </text>
<text text-anchor="start" x="727.4456" y="-490.3" font-family="Arial" font-size="14.00" fill="#666666">[BASE TABLE]</text>
<polygon fill="none" stroke="#000000" points="498.5,-447.5 498.5,-477.5 827.5,-477.5 827.5,-447.5 498.5,-447.5"/>
<text text-anchor="start" x="505.5" y="-458.9" font-family="Arial" font-size="14.00" fill="#000000">uuid    </text>
<text text-anchor="start" x="566.1592" y="-458.9" font-family="Arial" font-size="14.00" fill="#666666">[uuid]</text>
<polygon fill="none" stroke="#000000" points="498.5,-417.5 498.5,-447.5 827.5,-447.5 827.5,-417.5 498.5,-417.5"/>
<text text-anchor="start" x="505.5" y="-428.9" font-family="Arial" font-size="14.00" fill="#000000">created_at    </text>
<text text-anchor="start" x="605.8422" y="-428.9" font-family="Arial" font-size="14.00" fill="#666666">[timestamp without time zone]</text>
<polygon fill="none" stroke="#000000" points="498.5,-387.5 498.5,-417.5 827.5,-417.5 827.5,-387.5 498.5,-387.5"/>
<text text-anchor="start" x="505.5" y="-398.9" font-family="Arial" font-size="14.00" fill="#000000">dataset_uuid    </text>
<text text-anchor="start" x="619.8534" y="-398.9" font-family="Arial" font-size="14.00" fill="#666666">[uuid]</text>
<polygon fill="none" stroke="#000000" points="498.5,-357.5 498.5,-387.5 827.5,-387.5 827.5,-357.5 498.5,-357.5"/>
<text text-anchor="start" x="505.5" y="-368.9" font-family="Arial" font-size="14.00" fill="#000000">version    </text>
<text text-anchor="start" x="584.8198" y="-368.9" font-family="Arial" font-size="14.00" fill="#666666">[uuid]</text>
<polygon fill="none" stroke="#000000" points="498.5,-327.5 498.5,-357.5 827.5,-357.5 827.5,-327.5 498.5,-327.5"/>
<text text-anchor="start" x="505.5" y="-338.9" font-family="Arial" font-size="14.00" fill="#000000">run_uuid    </text>
<text text-anchor="start" x="594.1676" y="-338.9" font-family="Arial" font-size="14.00" fill="#666666">[uuid]</text>
<polygon fill="none" stroke="#000000" points="498.5,-297.5 498.5,-327.5 827.5,-327.5 827.5,-297.5 498.5,-297.5"/>
<text text-anchor="start" x="505.5" y="-308.9" font-family="Arial" font-size="14.00" fill="#000000">fields    </text>
<text text-anchor="start" x="572.3738" y="-308.9" font-family="Arial" font-size="14.00" fill="#666666">[jsonb]</text>
<polygon fill="none" stroke="#000000" points="498.5,-267.5 498.5,-297.5 827.5,-297.5 827.5,-267.5 498.5,-267.5"/>
<text text-anchor="start" x="505.5" y="-278.9" font-family="Arial" font-size="14.00" fill="#000000">namespace_name    </text>
<text text-anchor="start" x="654.852" y="-278.9" font-family="Arial" font-size="14.00" fill="#666666">[varchar]</text>
<polygon fill="none" stroke="#000000" points="498.5,-237.5 498.5,-267.5 827.5,-267.5 827.5,-237.5 498.5,-237.5"/>
<text text-anchor="start" x="505.5" y="-248.9" font-family="Arial" font-size="14.00" fill="#000000">dataset_name    </text>
<text text-anchor="start" x="628.4074" y="-248.9" font-family="Arial" font-size="14.00" fill="#666666">[varchar]</text>
<polygon fill="none" stroke="#000000" points="498.5,-207.5 498.5,-237.5 827.5,-237.5 827.5,-207.5 498.5,-207.5"/>
<text text-anchor="start" x="505.5" y="-218.9" font-family="Arial" font-size="14.00" fill="#000000">lifecycle_state    </text>
<text text-anchor="start" x="627.6094" y="-218.9" font-family="Arial" font-size="14.00" fill="#666666">[varchar(63)]</text>
</g>
<!-- public.runs_input_mapping&#45;&gt;public.dataset_versions -->
<g id="edge2" class="edge">
<title>public.runs_input_mapping:dataset_version_uuid&#45;&gt;public.dataset_versions:uuid</title>
<path fill="none" stroke="#000000" d="M629.8062,-816.9708C766.0926,-801.7318 335.5531,-462.5 498.5,-462.5"/>
<polygon fill="#000000" stroke="#000000" points="629.4868,-816.9871 619.2692,-813.0059 624.4934,-817.2435 619.5,-817.5 619.5,-817.5 619.5,-817.5 624.4934,-817.2435 619.7308,-821.9941 629.4868,-816.9871 629.4868,-816.9871"/>
<text text-anchor="start" x="626.5855" y="-827.5" font-family="Arial" font-size="10.00" fill="#000000">FOREIGN KEY (dataset_version_uuid) REFERENCES dataset_versions(uuid)</text>
</g>
</g>
</svg>
