<?xml version="1.0" encoding="UTF-8" standalone="no"?>
<!DOCTYPE svg PUBLIC "-//W3C//DTD SVG 1.1//EN"
 "http://www.w3.org/Graphics/SVG/1.1/DTD/svg11.dtd">
<!-- Generated by graphviz version 2.40.1 (20161225.0304)
 -->
<!-- Title: public.stream_versions Pages: 1 -->
<svg width="740pt" height="622pt"
 viewBox="0.00 0.00 739.50 622.00" xmlns="http://www.w3.org/2000/svg" xmlns:xlink="http://www.w3.org/1999/xlink">
<g id="graph0" class="graph" transform="scale(1 1) rotate(0) translate(4 618)">
<title>public.stream_versions</title>
<polygon fill="#ffffff" stroke="transparent" points="-4,4 -4,-618 735.5,-618 735.5,4 -4,4"/>
<!-- public.stream_versions -->
<g id="node1" class="node">
<title>public.stream_versions</title>
<polygon fill="#efefef" stroke="transparent" points="361,-532.5 361,-567.5 686,-567.5 686,-532.5 361,-532.5"/>
<polygon fill="none" stroke="#000000" points="361,-532.5 361,-567.5 686,-567.5 686,-532.5 361,-532.5"/>
<text text-anchor="start" x="367.7063" y="-545.3" font-family="Arial Bold" font-size="18.00" fill="#000000">public.stream_versions</text>
<text text-anchor="start" x="551.7257" y="-545.3" font-family="Arial" font-size="14.00" fill="#000000">    </text>
<text text-anchor="start" x="585.9305" y="-545.3" font-family="Arial" font-size="14.00" fill="#666666">[BASE TABLE]</text>
<polygon fill="none" stroke="#000000" points="361,-502.5 361,-532.5 686,-532.5 686,-502.5 361,-502.5"/>
<text text-anchor="start" x="368" y="-513.9" font-family="Arial" font-size="14.00" fill="#000000">dataset_version_uuid </text>
<text text-anchor="start" x="504.9368" y="-513.9" font-family="Arial" font-size="14.00" fill="#666666">[uuid]</text>
<polygon fill="none" stroke="#000000" points="361,-472.5 361,-502.5 686,-502.5 686,-472.5 361,-472.5"/>
<text text-anchor="start" x="368" y="-483.9" font-family="Arial" font-size="14.00" fill="#000000">schema_location </text>
<text text-anchor="start" x="476.9158" y="-483.9" font-family="Arial" font-size="14.00" fill="#666666">[varchar(255)]</text>
<polygon fill="none" stroke="#000000" stroke-width="3" points="359,-471.5 359,-569.5 687,-569.5 687,-471.5 359,-471.5"/>
</g>
<!-- public.dataset_versions -->
<g id="node2" class="node">
<title>public.dataset_versions</title>
<polygon fill="#efefef" stroke="transparent" points="359,-312.5 359,-347.5 688,-347.5 688,-312.5 359,-312.5"/>
<polygon fill="none" stroke="#000000" points="359,-312.5 359,-347.5 688,-347.5 688,-312.5 359,-312.5"/>
<text text-anchor="start" x="365.6912" y="-325.3" font-family="Arial Bold" font-size="18.00" fill="#000000">public.dataset_versions</text>
<text text-anchor="start" x="553.7408" y="-325.3" font-family="Arial" font-size="14.00" fill="#000000">    </text>
<text text-anchor="start" x="587.9456" y="-325.3" font-family="Arial" font-size="14.00" fill="#666666">[BASE TABLE]</text>
<polygon fill="none" stroke="#000000" points="359,-282.5 359,-312.5 688,-312.5 688,-282.5 359,-282.5"/>
<text text-anchor="start" x="366" y="-293.9" font-family="Arial" font-size="14.00" fill="#000000">uuid    </text>
<text text-anchor="start" x="426.6592" y="-293.9" font-family="Arial" font-size="14.00" fill="#666666">[uuid]</text>
<polygon fill="none" stroke="#000000" points="359,-252.5 359,-282.5 688,-282.5 688,-252.5 359,-252.5"/>
<text text-anchor="start" x="366" y="-263.9" font-family="Arial" font-size="14.00" fill="#000000">created_at    </text>
<text text-anchor="start" x="466.3422" y="-263.9" font-family="Arial" font-size="14.00" fill="#666666">[timestamp without time zone]</text>
<polygon fill="none" stroke="#000000" points="359,-222.5 359,-252.5 688,-252.5 688,-222.5 359,-222.5"/>
<text text-anchor="start" x="366" y="-233.9" font-family="Arial" font-size="14.00" fill="#000000">dataset_uuid    </text>
<text text-anchor="start" x="480.3534" y="-233.9" font-family="Arial" font-size="14.00" fill="#666666">[uuid]</text>
<polygon fill="none" stroke="#000000" points="359,-192.5 359,-222.5 688,-222.5 688,-192.5 359,-192.5"/>
<text text-anchor="start" x="366" y="-203.9" font-family="Arial" font-size="14.00" fill="#000000">version    </text>
<text text-anchor="start" x="445.3198" y="-203.9" font-family="Arial" font-size="14.00" fill="#666666">[uuid]</text>
<polygon fill="none" stroke="#000000" points="359,-162.5 359,-192.5 688,-192.5 688,-162.5 359,-162.5"/>
<text text-anchor="start" x="366" y="-173.9" font-family="Arial" font-size="14.00" fill="#000000">run_uuid    </text>
<text text-anchor="start" x="454.6676" y="-173.9" font-family="Arial" font-size="14.00" fill="#666666">[uuid]</text>
<polygon fill="none" stroke="#000000" points="359,-132.5 359,-162.5 688,-162.5 688,-132.5 359,-132.5"/>
<text text-anchor="start" x="366" y="-143.9" font-family="Arial" font-size="14.00" fill="#000000">fields    </text>
<text text-anchor="start" x="432.8738" y="-143.9" font-family="Arial" font-size="14.00" fill="#666666">[jsonb]</text>
<polygon fill="none" stroke="#000000" points="359,-102.5 359,-132.5 688,-132.5 688,-102.5 359,-102.5"/>
<text text-anchor="start" x="366" y="-113.9" font-family="Arial" font-size="14.00" fill="#000000">namespace_name    </text>
<text text-anchor="start" x="515.352" y="-113.9" font-family="Arial" font-size="14.00" fill="#666666">[varchar]</text>
<polygon fill="none" stroke="#000000" points="359,-72.5 359,-102.5 688,-102.5 688,-72.5 359,-72.5"/>
<text text-anchor="start" x="366" y="-83.9" font-family="Arial" font-size="14.00" fill="#000000">dataset_name    </text>
<text text-anchor="start" x="488.9074" y="-83.9" font-family="Arial" font-size="14.00" fill="#666666">[varchar]</text>
<polygon fill="none" stroke="#000000" points="359,-42.5 359,-72.5 688,-72.5 688,-42.5 359,-42.5"/>
<text text-anchor="start" x="366" y="-53.9" font-family="Arial" font-size="14.00" fill="#000000">lifecycle_state    </text>
<text text-anchor="start" x="488.1094" y="-53.9" font-family="Arial" font-size="14.00" fill="#666666">[varchar(63)]</text>
</g>
<!-- public.stream_versions&#45;&gt;public.dataset_versions -->
<g id="edge1" class="edge">
<title>public.stream_versions:dataset_version_uuid&#45;&gt;public.dataset_versions:uuid</title>
<path fill="none" stroke="#000000" d="M350.7759,-516.6591C263.2039,-501.8888 264.7513,-297.5 359,-297.5"/>
<polygon fill="#000000" stroke="#000000" points="351.0337,-516.6802 360.6311,-521.9849 356.0168,-517.0901 361,-517.5 361,-517.5 361,-517.5 356.0168,-517.0901 361.3689,-513.0151 351.0337,-516.6802 351.0337,-516.6802"/>
<text text-anchor="start" x="7.0855" y="-527.5" font-family="Arial" font-size="10.00" fill="#000000">FOREIGN KEY (dataset_version_uuid) REFERENCES dataset_versions(uuid)</text>
</g>
</g>
</svg>
