<?xml version="1.0" encoding="UTF-8" standalone="no"?>
<!DOCTYPE svg PUBLIC "-//W3C//DTD SVG 1.1//EN"
 "http://www.w3.org/Graphics/SVG/1.1/DTD/svg11.dtd">
<!-- Generated by graphviz version 2.40.1 (20161225.0304)
 -->
<!-- Title: public.run_states Pages: 1 -->
<svg width="908pt" height="1012pt"
 viewBox="0.00 0.00 908.00 1012.00" xmlns="http://www.w3.org/2000/svg" xmlns:xlink="http://www.w3.org/1999/xlink">
<g id="graph0" class="graph" transform="scale(1 1) rotate(0) translate(4 1008)">
<title>public.run_states</title>
<polygon fill="#ffffff" stroke="transparent" points="-4,4 -4,-1008 904,-1008 904,4 -4,4"/>
<!-- public.run_states -->
<g id="node1" class="node">
<title>public.run_states</title>
<polygon fill="#efefef" stroke="transparent" points="249,-922.5 249,-957.5 543,-957.5 543,-922.5 249,-922.5"/>
<polygon fill="none" stroke="#000000" points="249,-922.5 249,-957.5 543,-957.5 543,-922.5 249,-922.5"/>
<text text-anchor="start" x="264.1976" y="-935.3" font-family="Arial Bold" font-size="18.00" fill="#000000">public.run_states</text>
<text text-anchor="start" x="400.2344" y="-935.3" font-family="Arial" font-size="14.00" fill="#000000">    </text>
<text text-anchor="start" x="434.4392" y="-935.3" font-family="Arial" font-size="14.00" fill="#666666">[BASE TABLE]</text>
<polygon fill="none" stroke="#000000" points="249,-892.5 249,-922.5 543,-922.5 543,-892.5 249,-892.5"/>
<text text-anchor="start" x="256" y="-903.9" font-family="Arial" font-size="14.00" fill="#000000">uuid </text>
<text text-anchor="start" x="286.345" y="-903.9" font-family="Arial" font-size="14.00" fill="#666666">[uuid]</text>
<polygon fill="none" stroke="#000000" points="249,-862.5 249,-892.5 543,-892.5 543,-862.5 249,-862.5"/>
<text text-anchor="start" x="255.5814" y="-873.9" font-family="Arial" font-size="14.00" fill="#000000">transitioned_at </text>
<text text-anchor="start" x="351.2784" y="-873.9" font-family="Arial" font-size="14.00" fill="#666666">[timestamp without time zone]</text>
<polygon fill="none" stroke="#000000" points="249,-832.5 249,-862.5 543,-862.5 543,-832.5 249,-832.5"/>
<text text-anchor="start" x="256" y="-843.9" font-family="Arial" font-size="14.00" fill="#000000">run_uuid </text>
<text text-anchor="start" x="314.3534" y="-843.9" font-family="Arial" font-size="14.00" fill="#666666">[uuid]</text>
<polygon fill="none" stroke="#000000" points="249,-802.5 249,-832.5 543,-832.5 543,-802.5 249,-802.5"/>
<text text-anchor="start" x="256" y="-813.9" font-family="Arial" font-size="14.00" fill="#000000">state </text>
<text text-anchor="start" x="290.237" y="-813.9" font-family="Arial" font-size="14.00" fill="#666666">[varchar(64)]</text>
<polygon fill="none" stroke="#000000" stroke-width="3" points="247.5,-801.5 247.5,-959.5 544.5,-959.5 544.5,-801.5 247.5,-801.5"/>
</g>
<!-- public.runs -->
<g id="node2" class="node">
<title>public.runs</title>
<polygon fill="#efefef" stroke="transparent" points="220,-642.5 220,-677.5 571,-677.5 571,-642.5 220,-642.5"/>
<polygon fill="none" stroke="#000000" points="220,-642.5 220,-677.5 571,-677.5 571,-642.5 220,-642.5"/>
<text text-anchor="start" x="288.2091" y="-655.3" font-family="Arial Bold" font-size="18.00" fill="#000000">public.runs</text>
<text text-anchor="start" x="375.2229" y="-655.3" font-family="Arial" font-size="14.00" fill="#000000">    </text>
<text text-anchor="start" x="409.4277" y="-655.3" font-family="Arial" font-size="14.00" fill="#666666">[BASE TABLE]</text>
<polygon fill="none" stroke="#000000" points="220,-612.5 220,-642.5 571,-642.5 571,-612.5 220,-612.5"/>
<text text-anchor="start" x="227" y="-623.9" font-family="Arial" font-size="14.00" fill="#000000">uuid    </text>
<text text-anchor="start" x="287.6592" y="-623.9" font-family="Arial" font-size="14.00" fill="#666666">[uuid]</text>
<polygon fill="none" stroke="#000000" points="220,-582.5 220,-612.5 571,-612.5 571,-582.5 220,-582.5"/>
<text text-anchor="start" x="227" y="-593.9" font-family="Arial" font-size="14.00" fill="#000000">created_at    </text>
<text text-anchor="start" x="327.3422" y="-593.9" font-family="Arial" font-size="14.00" fill="#666666">[timestamp without time zone]</text>
<polygon fill="none" stroke="#000000" points="220,-552.5 220,-582.5 571,-582.5 571,-552.5 220,-552.5"/>
<text text-anchor="start" x="227" y="-563.9" font-family="Arial" font-size="14.00" fill="#000000">updated_at    </text>
<text text-anchor="start" x="331.2468" y="-563.9" font-family="Arial" font-size="14.00" fill="#666666">[timestamp without time zone]</text>
<polygon fill="none" stroke="#000000" points="220,-522.5 220,-552.5 571,-552.5 571,-522.5 220,-522.5"/>
<text text-anchor="start" x="227" y="-533.9" font-family="Arial" font-size="14.00" fill="#000000">job_version_uuid    </text>
<text text-anchor="start" x="367.0112" y="-533.9" font-family="Arial" font-size="14.00" fill="#666666">[uuid]</text>
<polygon fill="none" stroke="#000000" points="220,-492.5 220,-522.5 571,-522.5 571,-492.5 220,-492.5"/>
<text text-anchor="start" x="227" y="-503.9" font-family="Arial" font-size="14.00" fill="#000000">run_args_uuid    </text>
<text text-anchor="start" x="350.676" y="-503.9" font-family="Arial" font-size="14.00" fill="#666666">[uuid]</text>
<polygon fill="none" stroke="#000000" points="220,-462.5 220,-492.5 571,-492.5 571,-462.5 220,-462.5"/>
<text text-anchor="start" x="226.7104" y="-473.9" font-family="Arial" font-size="14.00" fill="#000000">nominal_start_time    </text>
<text text-anchor="start" x="379.1494" y="-473.9" font-family="Arial" font-size="14.00" fill="#666666">[timestamp without time zone]</text>
<polygon fill="none" stroke="#000000" points="220,-432.5 220,-462.5 571,-462.5 571,-432.5 220,-432.5"/>
<text text-anchor="start" x="227" y="-443.9" font-family="Arial" font-size="14.00" fill="#000000">nominal_end_time    </text>
<text text-anchor="start" x="375.5624" y="-443.9" font-family="Arial" font-size="14.00" fill="#666666">[timestamp without time zone]</text>
<polygon fill="none" stroke="#000000" points="220,-402.5 220,-432.5 571,-432.5 571,-402.5 220,-402.5"/>
<text text-anchor="start" x="227" y="-413.9" font-family="Arial" font-size="14.00" fill="#000000">current_run_state    </text>
<text text-anchor="start" x="370.9018" y="-413.9" font-family="Arial" font-size="14.00" fill="#666666">[varchar(64)]</text>
<polygon fill="none" stroke="#000000" points="220,-372.5 220,-402.5 571,-402.5 571,-372.5 220,-372.5"/>
<text text-anchor="start" x="227" y="-383.9" font-family="Arial" font-size="14.00" fill="#000000">start_run_state_uuid    </text>
<text text-anchor="start" x="388.8036" y="-383.9" font-family="Arial" font-size="14.00" fill="#666666">[uuid]</text>
<polygon fill="none" stroke="#000000" points="220,-342.5 220,-372.5 571,-372.5 571,-342.5 220,-342.5"/>
<text text-anchor="start" x="227" y="-353.9" font-family="Arial" font-size="14.00" fill="#000000">end_run_state_uuid    </text>
<text text-anchor="start" x="384.927" y="-353.9" font-family="Arial" font-size="14.00" fill="#666666">[uuid]</text>
<polygon fill="none" stroke="#000000" points="220,-312.5 220,-342.5 571,-342.5 571,-312.5 220,-312.5"/>
<text text-anchor="start" x="227" y="-323.9" font-family="Arial" font-size="14.00" fill="#000000">external_id    </text>
<text text-anchor="start" x="329.6648" y="-323.9" font-family="Arial" font-size="14.00" fill="#666666">[varchar]</text>
<polygon fill="none" stroke="#000000" points="220,-282.5 220,-312.5 571,-312.5 571,-282.5 220,-282.5"/>
<text text-anchor="start" x="227" y="-293.9" font-family="Arial" font-size="14.00" fill="#000000">namespace_name    </text>
<text text-anchor="start" x="376.352" y="-293.9" font-family="Arial" font-size="14.00" fill="#666666">[varchar]</text>
<polygon fill="none" stroke="#000000" points="220,-252.5 220,-282.5 571,-282.5 571,-252.5 220,-252.5"/>
<text text-anchor="start" x="227" y="-263.9" font-family="Arial" font-size="14.00" fill="#000000">job_name    </text>
<text text-anchor="start" x="322.6676" y="-263.9" font-family="Arial" font-size="14.00" fill="#666666">[varchar]</text>
<polygon fill="none" stroke="#000000" points="220,-222.5 220,-252.5 571,-252.5 571,-222.5 220,-222.5"/>
<text text-anchor="start" x="227" y="-233.9" font-family="Arial" font-size="14.00" fill="#000000">location    </text>
<text text-anchor="start" x="309.439" y="-233.9" font-family="Arial" font-size="14.00" fill="#666666">[varchar]</text>
<polygon fill="none" stroke="#000000" points="220,-192.5 220,-222.5 571,-222.5 571,-192.5 220,-192.5"/>
<text text-anchor="start" x="227" y="-203.9" font-family="Arial" font-size="14.00" fill="#000000">transitioned_at    </text>
<text text-anchor="start" x="353.0112" y="-203.9" font-family="Arial" font-size="14.00" fill="#666666">[timestamp without time zone]</text>
<polygon fill="none" stroke="#000000" points="220,-162.5 220,-192.5 571,-192.5 571,-162.5 220,-162.5"/>
<text text-anchor="start" x="227" y="-173.9" font-family="Arial" font-size="14.00" fill="#000000">started_at    </text>
<text text-anchor="start" x="323.4502" y="-173.9" font-family="Arial" font-size="14.00" fill="#666666">[timestamp without time zone]</text>
<polygon fill="none" stroke="#000000" points="220,-132.5 220,-162.5 571,-162.5 571,-132.5 220,-132.5"/>
<text text-anchor="start" x="227" y="-143.9" font-family="Arial" font-size="14.00" fill="#000000">ended_at    </text>
<text text-anchor="start" x="319.5736" y="-143.9" font-family="Arial" font-size="14.00" fill="#666666">[timestamp without time zone]</text>
<polygon fill="none" stroke="#000000" points="220,-102.5 220,-132.5 571,-132.5 571,-102.5 220,-102.5"/>
<text text-anchor="start" x="227" y="-113.9" font-family="Arial" font-size="14.00" fill="#000000">job_context_uuid    </text>
<text text-anchor="start" x="367.0252" y="-113.9" font-family="Arial" font-size="14.00" fill="#666666">[uuid]</text>
<polygon fill="none" stroke="#000000" points="220,-72.5 220,-102.5 571,-102.5 571,-72.5 220,-72.5"/>
<text text-anchor="start" x="227" y="-83.9" font-family="Arial" font-size="14.00" fill="#000000">parent_run_uuid    </text>
<text text-anchor="start" x="363.1318" y="-83.9" font-family="Arial" font-size="14.00" fill="#666666">[uuid]</text>
<polygon fill="none" stroke="#000000" points="220,-42.5 220,-72.5 571,-72.5 571,-42.5 220,-42.5"/>
<text text-anchor="start" x="227" y="-53.9" font-family="Arial" font-size="14.00" fill="#000000">job_uuid    </text>
<text text-anchor="start" x="314.1136" y="-53.9" font-family="Arial" font-size="14.00" fill="#666666">[uuid]</text>
</g>
<!-- public.run_states&#45;&gt;public.runs -->
<g id="edge3" class="edge">
<title>public.run_states:run_uuid&#45;&gt;public.runs:uuid</title>
<path fill="none" stroke="#000000" d="M239.0684,-845.9793C211.4095,-836.4209 224.699,-784.1692 249,-757 345.0019,-649.6668 474.9981,-828.3332 571,-721 598.7037,-690.0263 612.5556,-627.5 571,-627.5"/>
<polygon fill="#000000" stroke="#000000" points="239.1152,-845.9864 248.3189,-851.9482 244.0576,-846.7432 249,-847.5 249,-847.5 249,-847.5 244.0576,-846.7432 249.6811,-843.0518 239.1152,-845.9864 239.1152,-845.9864"/>
<text text-anchor="start" x="7.2165" y="-857.5" font-family="Arial" font-size="10.00" fill="#000000">FOREIGN KEY (run_uuid) REFERENCES runs(uuid)</text>
</g>
<!-- public.runs&#45;&gt;public.run_states -->
<g id="edge1" class="edge">
<title>public.runs:end_run_state_uuid&#45;&gt;public.run_states:uuid</title>
<path fill="none" stroke="#000000" d="M581.2414,-359.2866C649.3043,-384.2583 622.4328,-663.4965 571,-721 474.9981,-828.3332 345.0019,-649.6668 249,-757 204.4074,-806.856 182.1111,-907.5 249,-907.5"/>
<polygon fill="#000000" stroke="#000000" points="580.8512,-359.2186 571.7734,-353.0669 575.9256,-358.3593 571,-357.5 571,-357.5 571,-357.5 575.9256,-358.3593 570.2266,-361.9331 580.8512,-359.2186 580.8512,-359.2186"/>
<text text-anchor="start" x="577.8635" y="-367.5" font-family="Arial" font-size="10.00" fill="#000000">FOREIGN KEY (end_run_state_uuid) REFERENCES run_states(uuid)</text>
</g>
<!-- public.runs&#45;&gt;public.run_states -->
<g id="edge2" class="edge">
<title>public.runs:start_run_state_uuid&#45;&gt;public.run_states:uuid</title>
<path fill="none" stroke="#000000" d="M581.158,-389.4319C642.6397,-414.1422 617.995,-668.4581 571,-721 474.9981,-828.3332 345.0019,-649.6668 249,-757 204.4074,-806.856 182.1111,-907.5 249,-907.5"/>
<polygon fill="#000000" stroke="#000000" points="580.8239,-389.3685 571.8408,-383.0792 575.912,-388.4342 571,-387.5 571,-387.5 571,-387.5 575.912,-388.4342 570.1592,-391.9208 580.8239,-389.3685 580.8239,-389.3685"/>
<text text-anchor="start" x="578.479" y="-397.5" font-family="Arial" font-size="10.00" fill="#000000">FOREIGN KEY (start_run_state_uuid) REFERENCES run_states(uuid)</text>
</g>
</g>
</svg>
