<?xml version="1.0" encoding="UTF-8" standalone="no"?>
<!DOCTYPE svg PUBLIC "-//W3C//DTD SVG 1.1//EN"
 "http://www.w3.org/Graphics/SVG/1.1/DTD/svg11.dtd">
<!-- Generated by graphviz version 2.40.1 (20161225.0304)
 -->
<!-- Title: public.owners Pages: 1 -->
<svg width="521pt" height="532pt"
 viewBox="0.00 0.00 520.50 532.00" xmlns="http://www.w3.org/2000/svg" xmlns:xlink="http://www.w3.org/1999/xlink">
<g id="graph0" class="graph" transform="scale(1 1) rotate(0) translate(4 528)">
<title>public.owners</title>
<polygon fill="#ffffff" stroke="transparent" points="-4,4 -4,-528 516.5,-528 516.5,4 -4,4"/>
<!-- public.owners -->
<g id="node1" class="node">
<title>public.owners</title>
<polygon fill="#efefef" stroke="transparent" points="102.5,-135.5 102.5,-170.5 371.5,-170.5 371.5,-135.5 102.5,-135.5"/>
<polygon fill="none" stroke="#000000" points="102.5,-135.5 102.5,-170.5 371.5,-170.5 371.5,-135.5 102.5,-135.5"/>
<text text-anchor="start" x="118.2089" y="-148.3" font-family="Arial Bold" font-size="18.00" fill="#000000">public.owners</text>
<text text-anchor="start" x="228.2231" y="-148.3" font-family="Arial" font-size="14.00" fill="#000000">    </text>
<text text-anchor="start" x="262.4279" y="-148.3" font-family="Arial" font-size="14.00" fill="#666666">[BASE TABLE]</text>
<polygon fill="none" stroke="#000000" points="102.5,-105.5 102.5,-135.5 371.5,-135.5 371.5,-105.5 102.5,-105.5"/>
<text text-anchor="start" x="109.5" y="-116.9" font-family="Arial" font-size="14.00" fill="#000000">uuid </text>
<text text-anchor="start" x="139.845" y="-116.9" font-family="Arial" font-size="14.00" fill="#666666">[uuid]</text>
<polygon fill="none" stroke="#000000" points="102.5,-75.5 102.5,-105.5 371.5,-105.5 371.5,-75.5 102.5,-75.5"/>
<text text-anchor="start" x="109.4159" y="-86.9" font-family="Arial" font-size="14.00" fill="#000000">created_at </text>
<text text-anchor="start" x="179.4439" y="-86.9" font-family="Arial" font-size="14.00" fill="#666666">[timestamp without time zone]</text>
<polygon fill="none" stroke="#000000" points="102.5,-45.5 102.5,-75.5 371.5,-75.5 371.5,-45.5 102.5,-45.5"/>
<text text-anchor="start" x="109.5" y="-56.9" font-family="Arial" font-size="14.00" fill="#000000">name </text>
<text text-anchor="start" x="148.399" y="-56.9" font-family="Arial" font-size="14.00" fill="#666666">[varchar(64)]</text>
<polygon fill="none" stroke="#000000" stroke-width="3" points="100.5,-44.5 100.5,-172.5 372.5,-172.5 372.5,-44.5 100.5,-44.5"/>
</g>
<!-- public.namespace_ownerships -->
<g id="node2" class="node">
<title>public.namespace_ownerships</title>
<polygon fill="#efefef" stroke="transparent" points="43.5,-445.5 43.5,-480.5 430.5,-480.5 430.5,-445.5 43.5,-445.5"/>
<polygon fill="none" stroke="#000000" points="43.5,-445.5 43.5,-480.5 430.5,-480.5 430.5,-445.5 43.5,-445.5"/>
<text text-anchor="start" x="50.1878" y="-458.3" font-family="Arial Bold" font-size="18.00" fill="#000000">public.namespace_ownerships</text>
<text text-anchor="start" x="296.2442" y="-458.3" font-family="Arial" font-size="14.00" fill="#000000">    </text>
<text text-anchor="start" x="330.449" y="-458.3" font-family="Arial" font-size="14.00" fill="#666666">[BASE TABLE]</text>
<polygon fill="none" stroke="#000000" points="43.5,-415.5 43.5,-445.5 430.5,-445.5 430.5,-415.5 43.5,-415.5"/>
<text text-anchor="start" x="50.5" y="-426.9" font-family="Arial" font-size="14.00" fill="#000000">uuid    </text>
<text text-anchor="start" x="111.1592" y="-426.9" font-family="Arial" font-size="14.00" fill="#666666">[uuid]</text>
<polygon fill="none" stroke="#000000" points="43.5,-385.5 43.5,-415.5 430.5,-415.5 430.5,-385.5 43.5,-385.5"/>
<text text-anchor="start" x="50.5" y="-396.9" font-family="Arial" font-size="14.00" fill="#000000">started_at    </text>
<text text-anchor="start" x="146.9502" y="-396.9" font-family="Arial" font-size="14.00" fill="#666666">[timestamp without time zone]</text>
<polygon fill="none" stroke="#000000" points="43.5,-355.5 43.5,-385.5 430.5,-385.5 430.5,-355.5 43.5,-355.5"/>
<text text-anchor="start" x="50.5" y="-366.9" font-family="Arial" font-size="14.00" fill="#000000">ended_at    </text>
<text text-anchor="start" x="143.0736" y="-366.9" font-family="Arial" font-size="14.00" fill="#666666">[timestamp without time zone]</text>
<polygon fill="none" stroke="#000000" points="43.5,-325.5 43.5,-355.5 430.5,-355.5 430.5,-325.5 43.5,-325.5"/>
<text text-anchor="start" x="50.5" y="-336.9" font-family="Arial" font-size="14.00" fill="#000000">namespace_uuid    </text>
<text text-anchor="start" x="191.298" y="-336.9" font-family="Arial" font-size="14.00" fill="#666666">[uuid]</text>
<polygon fill="none" stroke="#000000" points="43.5,-295.5 43.5,-325.5 430.5,-325.5 430.5,-295.5 43.5,-295.5"/>
<text text-anchor="start" x="50.5" y="-306.9" font-family="Arial" font-size="14.00" fill="#000000">owner_uuid    </text>
<text text-anchor="start" x="157.0568" y="-306.9" font-family="Arial" font-size="14.00" fill="#666666">[uuid]</text>
</g>
<!-- public.namespace_ownerships&#45;&gt;public.owners -->
<g id="edge1" class="edge">
<title>public.namespace_ownerships:owner_uuid&#45;&gt;public.owners:uuid</title>
<path fill="none" stroke="#000000" d="M236.6868,-285.4908C227.0949,-231.1704 135.285,-273.9886 102.5,-217 81.113,-179.824 59.6111,-120.5 102.5,-120.5"/>
<polygon fill="#000000" stroke="#000000" points="236.6902,-285.5328 233.0148,-295.8644 237.0951,-290.5164 237.5,-295.5 237.5,-295.5 237.5,-295.5 237.0951,-290.5164 241.9852,-295.1356 236.6902,-285.5328 236.6902,-285.5328"/>
<text text-anchor="start" x="244.9385" y="-305.5" font-family="Arial" font-size="10.00" fill="#000000">FOREIGN KEY (owner_uuid) REFERENCES owners(uuid)</text>
</g>
</g>
</svg>
