<?xml version="1.0" encoding="UTF-8" standalone="no"?>
<!DOCTYPE svg PUBLIC "-//W3C//DTD SVG 1.1//EN"
 "http://www.w3.org/Graphics/SVG/1.1/DTD/svg11.dtd">
<!-- Generated by graphviz version 2.40.1 (20161225.0304)
 -->
<!-- Title: public.job_versions Pages: 1 -->
<svg width="946pt" height="1919pt"
 viewBox="0.00 0.00 946.00 1919.00" xmlns="http://www.w3.org/2000/svg" xmlns:xlink="http://www.w3.org/1999/xlink">
<g id="graph0" class="graph" transform="scale(1 1) rotate(0) translate(4 1915)">
<title>public.job_versions</title>
<polygon fill="#ffffff" stroke="transparent" points="-4,4 -4,-1915 942,-1915 942,4 -4,4"/>
<!-- public.job_versions -->
<g id="node1" class="node">
<title>public.job_versions</title>
<polygon fill="#efefef" stroke="transparent" points="334.5,-1072.5 334.5,-1107.5 628.5,-1107.5 628.5,-1072.5 334.5,-1072.5"/>
<polygon fill="none" stroke="#000000" points="334.5,-1072.5 334.5,-1107.5 628.5,-1107.5 628.5,-1072.5 334.5,-1072.5"/>
<text text-anchor="start" x="341.2025" y="-1085.3" font-family="Arial Bold" font-size="18.00" fill="#000000">public.job_versions</text>
<text text-anchor="start" x="494.2295" y="-1085.3" font-family="Arial" font-size="14.00" fill="#000000">    </text>
<text text-anchor="start" x="528.4343" y="-1085.3" font-family="Arial" font-size="14.00" fill="#666666">[BASE TABLE]</text>
<polygon fill="none" stroke="#000000" points="334.5,-1042.5 334.5,-1072.5 628.5,-1072.5 628.5,-1042.5 334.5,-1042.5"/>
<text text-anchor="start" x="341.5" y="-1053.9" font-family="Arial" font-size="14.00" fill="#000000">uuid </text>
<text text-anchor="start" x="371.845" y="-1053.9" font-family="Arial" font-size="14.00" fill="#666666">[uuid]</text>
<polygon fill="none" stroke="#000000" points="334.5,-1012.5 334.5,-1042.5 628.5,-1042.5 628.5,-1012.5 334.5,-1012.5"/>
<text text-anchor="start" x="341.5" y="-1023.9" font-family="Arial" font-size="14.00" fill="#000000">created_at </text>
<text text-anchor="start" x="411.528" y="-1023.9" font-family="Arial" font-size="14.00" fill="#666666">[timestamp without time zone]</text>
<polygon fill="none" stroke="#000000" points="334.5,-982.5 334.5,-1012.5 628.5,-1012.5 628.5,-982.5 334.5,-982.5"/>
<text text-anchor="start" x="341.5" y="-993.9" font-family="Arial" font-size="14.00" fill="#000000">updated_at </text>
<text text-anchor="start" x="415.4326" y="-993.9" font-family="Arial" font-size="14.00" fill="#666666">[timestamp without time zone]</text>
<polygon fill="none" stroke="#000000" points="334.5,-952.5 334.5,-982.5 628.5,-982.5 628.5,-952.5 334.5,-952.5"/>
<text text-anchor="start" x="341.5" y="-963.9" font-family="Arial" font-size="14.00" fill="#000000">job_uuid </text>
<text text-anchor="start" x="398.2994" y="-963.9" font-family="Arial" font-size="14.00" fill="#666666">[uuid]</text>
<polygon fill="none" stroke="#000000" points="334.5,-922.5 334.5,-952.5 628.5,-952.5 628.5,-922.5 334.5,-922.5"/>
<text text-anchor="start" x="341.5" y="-933.9" font-family="Arial" font-size="14.00" fill="#000000">version </text>
<text text-anchor="start" x="390.5056" y="-933.9" font-family="Arial" font-size="14.00" fill="#666666">[uuid]</text>
<polygon fill="none" stroke="#000000" points="334.5,-892.5 334.5,-922.5 628.5,-922.5 628.5,-892.5 334.5,-892.5"/>
<text text-anchor="start" x="341.5" y="-903.9" font-family="Arial" font-size="14.00" fill="#000000">location </text>
<text text-anchor="start" x="393.6248" y="-903.9" font-family="Arial" font-size="14.00" fill="#666666">[varchar(255)]</text>
<polygon fill="none" stroke="#000000" points="334.5,-862.5 334.5,-892.5 628.5,-892.5 628.5,-862.5 334.5,-862.5"/>
<text text-anchor="start" x="341.5" y="-873.9" font-family="Arial" font-size="14.00" fill="#000000">latest_run_uuid </text>
<text text-anchor="start" x="441.089" y="-873.9" font-family="Arial" font-size="14.00" fill="#666666">[uuid]</text>
<polygon fill="none" stroke="#000000" points="334.5,-832.5 334.5,-862.5 628.5,-862.5 628.5,-832.5 334.5,-832.5"/>
<text text-anchor="start" x="341.5" y="-843.9" font-family="Arial" font-size="14.00" fill="#000000">job_context_uuid </text>
<text text-anchor="start" x="451.211" y="-843.9" font-family="Arial" font-size="14.00" fill="#666666">[uuid]</text>
<polygon fill="none" stroke="#000000" points="334.5,-802.5 334.5,-832.5 628.5,-832.5 628.5,-802.5 334.5,-802.5"/>
<text text-anchor="start" x="341.5" y="-813.9" font-family="Arial" font-size="14.00" fill="#000000">namespace_uuid </text>
<text text-anchor="start" x="451.9838" y="-813.9" font-family="Arial" font-size="14.00" fill="#666666">[uuid]</text>
<polygon fill="none" stroke="#000000" points="334.5,-772.5 334.5,-802.5 628.5,-802.5 628.5,-772.5 334.5,-772.5"/>
<text text-anchor="start" x="341.5" y="-783.9" font-family="Arial" font-size="14.00" fill="#000000">namespace_name </text>
<text text-anchor="start" x="460.5378" y="-783.9" font-family="Arial" font-size="14.00" fill="#666666">[varchar]</text>
<polygon fill="none" stroke="#000000" points="334.5,-742.5 334.5,-772.5 628.5,-772.5 628.5,-742.5 334.5,-742.5"/>
<text text-anchor="start" x="341.5" y="-753.9" font-family="Arial" font-size="14.00" fill="#000000">job_name </text>
<text text-anchor="start" x="406.8534" y="-753.9" font-family="Arial" font-size="14.00" fill="#666666">[varchar]</text>
<polygon fill="none" stroke="#000000" stroke-width="3" points="333,-741.5 333,-1109.5 630,-1109.5 630,-741.5 333,-741.5"/>
</g>
<!-- public.jobs -->
<g id="node4" class="node">
<title>public.jobs</title>
<polygon fill="#efefef" stroke="transparent" points="329.5,-582.5 329.5,-617.5 632.5,-617.5 632.5,-582.5 329.5,-582.5"/>
<polygon fill="none" stroke="#000000" points="329.5,-582.5 329.5,-617.5 632.5,-617.5 632.5,-582.5 329.5,-582.5"/>
<text text-anchor="start" x="374.7081" y="-595.3" font-family="Arial Bold" font-size="18.00" fill="#000000">public.jobs</text>
<text text-anchor="start" x="459.7239" y="-595.3" font-family="Arial" font-size="14.00" fill="#000000">    </text>
<text text-anchor="start" x="493.9287" y="-595.3" font-family="Arial" font-size="14.00" fill="#666666">[BASE TABLE]</text>
<polygon fill="none" stroke="#000000" points="329.5,-552.5 329.5,-582.5 632.5,-582.5 632.5,-552.5 329.5,-552.5"/>
<text text-anchor="start" x="336.5" y="-563.9" font-family="Arial" font-size="14.00" fill="#000000">uuid    </text>
<text text-anchor="start" x="397.1592" y="-563.9" font-family="Arial" font-size="14.00" fill="#666666">[uuid]</text>
<polygon fill="none" stroke="#000000" points="329.5,-522.5 329.5,-552.5 632.5,-552.5 632.5,-522.5 329.5,-522.5"/>
<text text-anchor="start" x="336.5" y="-533.9" font-family="Arial" font-size="14.00" fill="#000000">type    </text>
<text text-anchor="start" x="397.1606" y="-533.9" font-family="Arial" font-size="14.00" fill="#666666">[varchar(64)]</text>
<polygon fill="none" stroke="#000000" points="329.5,-492.5 329.5,-522.5 632.5,-522.5 632.5,-492.5 329.5,-492.5"/>
<text text-anchor="start" x="336.5" y="-503.9" font-family="Arial" font-size="14.00" fill="#000000">created_at    </text>
<text text-anchor="start" x="436.8422" y="-503.9" font-family="Arial" font-size="14.00" fill="#666666">[timestamp without time zone]</text>
<polygon fill="none" stroke="#000000" points="329.5,-462.5 329.5,-492.5 632.5,-492.5 632.5,-462.5 329.5,-462.5"/>
<text text-anchor="start" x="336.3065" y="-473.9" font-family="Arial" font-size="14.00" fill="#000000">updated_at    </text>
<text text-anchor="start" x="440.5533" y="-473.9" font-family="Arial" font-size="14.00" fill="#666666">[timestamp without time zone]</text>
<polygon fill="none" stroke="#000000" points="329.5,-432.5 329.5,-462.5 632.5,-462.5 632.5,-432.5 329.5,-432.5"/>
<text text-anchor="start" x="336.5" y="-443.9" font-family="Arial" font-size="14.00" fill="#000000">namespace_uuid    </text>
<text text-anchor="start" x="477.298" y="-443.9" font-family="Arial" font-size="14.00" fill="#666666">[uuid]</text>
<polygon fill="none" stroke="#000000" points="329.5,-402.5 329.5,-432.5 632.5,-432.5 632.5,-402.5 329.5,-402.5"/>
<text text-anchor="start" x="336.5" y="-413.9" font-family="Arial" font-size="14.00" fill="#000000">simple_name    </text>
<text text-anchor="start" x="453.9348" y="-413.9" font-family="Arial" font-size="14.00" fill="#666666">[varchar]</text>
<polygon fill="none" stroke="#000000" points="329.5,-372.5 329.5,-402.5 632.5,-402.5 632.5,-372.5 329.5,-372.5"/>
<text text-anchor="start" x="336.5" y="-383.9" font-family="Arial" font-size="14.00" fill="#000000">description    </text>
<text text-anchor="start" x="438.3822" y="-383.9" font-family="Arial" font-size="14.00" fill="#666666">[text]</text>
<polygon fill="none" stroke="#000000" points="329.5,-342.5 329.5,-372.5 632.5,-372.5 632.5,-342.5 329.5,-342.5"/>
<text text-anchor="start" x="336.5" y="-353.9" font-family="Arial" font-size="14.00" fill="#000000">current_version_uuid    </text>
<text text-anchor="start" x="501.399" y="-353.9" font-family="Arial" font-size="14.00" fill="#666666">[uuid]</text>
<polygon fill="none" stroke="#000000" points="329.5,-312.5 329.5,-342.5 632.5,-342.5 632.5,-312.5 329.5,-312.5"/>
<text text-anchor="start" x="336.5" y="-323.9" font-family="Arial" font-size="14.00" fill="#000000">namespace_name    </text>
<text text-anchor="start" x="485.852" y="-323.9" font-family="Arial" font-size="14.00" fill="#666666">[varchar]</text>
<polygon fill="none" stroke="#000000" points="329.5,-282.5 329.5,-312.5 632.5,-312.5 632.5,-282.5 329.5,-282.5"/>
<text text-anchor="start" x="336.5" y="-293.9" font-family="Arial" font-size="14.00" fill="#000000">current_job_context_uuid    </text>
<text text-anchor="start" x="527.8674" y="-293.9" font-family="Arial" font-size="14.00" fill="#666666">[uuid]</text>
<polygon fill="none" stroke="#000000" points="329.5,-252.5 329.5,-282.5 632.5,-282.5 632.5,-252.5 329.5,-252.5"/>
<text text-anchor="start" x="336.5" y="-263.9" font-family="Arial" font-size="14.00" fill="#000000">current_location    </text>
<text text-anchor="start" x="470.2812" y="-263.9" font-family="Arial" font-size="14.00" fill="#666666">[varchar]</text>
<polygon fill="none" stroke="#000000" points="329.5,-222.5 329.5,-252.5 632.5,-252.5 632.5,-222.5 329.5,-222.5"/>
<text text-anchor="start" x="336.5" y="-233.9" font-family="Arial" font-size="14.00" fill="#000000">current_inputs    </text>
<text text-anchor="start" x="459.392" y="-233.9" font-family="Arial" font-size="14.00" fill="#666666">[jsonb]</text>
<polygon fill="none" stroke="#000000" points="329.5,-192.5 329.5,-222.5 632.5,-222.5 632.5,-192.5 329.5,-192.5"/>
<text text-anchor="start" x="336.5" y="-203.9" font-family="Arial" font-size="14.00" fill="#000000">symlink_target_uuid    </text>
<text text-anchor="start" x="495.1704" y="-203.9" font-family="Arial" font-size="14.00" fill="#666666">[uuid]</text>
<polygon fill="none" stroke="#000000" points="329.5,-162.5 329.5,-192.5 632.5,-192.5 632.5,-162.5 329.5,-162.5"/>
<text text-anchor="start" x="336.5" y="-173.9" font-family="Arial" font-size="14.00" fill="#000000">parent_job_uuid    </text>
<text text-anchor="start" x="471.0778" y="-173.9" font-family="Arial" font-size="14.00" fill="#666666">[uuid]</text>
<polygon fill="none" stroke="#000000" points="329.5,-132.5 329.5,-162.5 632.5,-162.5 632.5,-132.5 329.5,-132.5"/>
<text text-anchor="start" x="336.5" y="-143.9" font-family="Arial" font-size="14.00" fill="#000000">parent_job_uuid_string    </text>
<text text-anchor="start" x="513.0834" y="-143.9" font-family="Arial" font-size="14.00" fill="#666666">[character(36)]</text>
<polygon fill="none" stroke="#000000" points="329.5,-102.5 329.5,-132.5 632.5,-132.5 632.5,-102.5 329.5,-102.5"/>
<text text-anchor="start" x="336.5" y="-113.9" font-family="Arial" font-size="14.00" fill="#000000">is_hidden    </text>
<text text-anchor="start" x="430.6136" y="-113.9" font-family="Arial" font-size="14.00" fill="#666666">[boolean]</text>
<polygon fill="none" stroke="#000000" points="329.5,-72.5 329.5,-102.5 632.5,-102.5 632.5,-72.5 329.5,-72.5"/>
<text text-anchor="start" x="336.5" y="-83.9" font-family="Arial" font-size="14.00" fill="#000000">name    </text>
<text text-anchor="start" x="405.7132" y="-83.9" font-family="Arial" font-size="14.00" fill="#666666">[varchar]</text>
<polygon fill="none" stroke="#000000" points="329.5,-42.5 329.5,-72.5 632.5,-72.5 632.5,-42.5 329.5,-42.5"/>
<text text-anchor="start" x="336.5" y="-53.9" font-family="Arial" font-size="14.00" fill="#000000">aliases    </text>
<text text-anchor="start" x="414.2658" y="-53.9" font-family="Arial" font-size="14.00" fill="#666666">[varchar[]]</text>
</g>
<!-- public.job_versions&#45;&gt;public.jobs -->
<g id="edge3" class="edge">
<title>public.job_versions:job_uuid&#45;&gt;public.jobs:uuid</title>
<path fill="none" stroke="#000000" d="M324.3443,-967.0419C216.6829,-956.9994 257.087,-784.3278 334.5,-697 422.9958,-597.17 544.0042,-760.83 632.5,-661 660.0659,-629.9036 674.0556,-567.5 632.5,-567.5"/>
<polygon fill="#000000" stroke="#000000" points="324.5102,-967.0493 334.2972,-971.9954 329.5051,-967.2747 334.5,-967.5 334.5,-967.5 334.5,-967.5 329.5051,-967.2747 334.7028,-963.0046 324.5102,-967.0493 324.5102,-967.0493"/>
<text text-anchor="start" x="94.8265" y="-977.5" font-family="Arial" font-size="10.00" fill="#000000">FOREIGN KEY (job_uuid) REFERENCES jobs(uuid)</text>
</g>
<!-- public.job_versions_io_mapping -->
<g id="node2" class="node">
<title>public.job_versions_io_mapping</title>
<polygon fill="#efefef" stroke="transparent" points="43.5,-1577.5 43.5,-1612.5 440.5,-1612.5 440.5,-1577.5 43.5,-1577.5"/>
<polygon fill="none" stroke="#000000" points="43.5,-1577.5 43.5,-1612.5 440.5,-1612.5 440.5,-1577.5 43.5,-1577.5"/>
<text text-anchor="start" x="50.1874" y="-1590.3" font-family="Arial Bold" font-size="18.00" fill="#000000">public.job_versions_io_mapping</text>
<text text-anchor="start" x="306.2446" y="-1590.3" font-family="Arial" font-size="14.00" fill="#000000">    </text>
<text text-anchor="start" x="340.4494" y="-1590.3" font-family="Arial" font-size="14.00" fill="#666666">[BASE TABLE]</text>
<polygon fill="none" stroke="#000000" points="43.5,-1547.5 43.5,-1577.5 440.5,-1577.5 440.5,-1547.5 43.5,-1547.5"/>
<text text-anchor="start" x="50.5" y="-1558.9" font-family="Arial" font-size="14.00" fill="#000000">job_version_uuid    </text>
<text text-anchor="start" x="190.5112" y="-1558.9" font-family="Arial" font-size="14.00" fill="#666666">[uuid]</text>
<polygon fill="none" stroke="#000000" points="43.5,-1517.5 43.5,-1547.5 440.5,-1547.5 440.5,-1517.5 43.5,-1517.5"/>
<text text-anchor="start" x="50.5" y="-1528.9" font-family="Arial" font-size="14.00" fill="#000000">dataset_uuid    </text>
<text text-anchor="start" x="164.8534" y="-1528.9" font-family="Arial" font-size="14.00" fill="#666666">[uuid]</text>
<polygon fill="none" stroke="#000000" points="43.5,-1487.5 43.5,-1517.5 440.5,-1517.5 440.5,-1487.5 43.5,-1487.5"/>
<text text-anchor="start" x="50.5" y="-1498.9" font-family="Arial" font-size="14.00" fill="#000000">io_type    </text>
<text text-anchor="start" x="129.8324" y="-1498.9" font-family="Arial" font-size="14.00" fill="#666666">[varchar(64)]</text>
</g>
<!-- public.job_versions_io_mapping&#45;&gt;public.job_versions -->
<g id="edge1" class="edge">
<title>public.job_versions_io_mapping:job_version_uuid&#45;&gt;public.job_versions:uuid</title>
<path fill="none" stroke="#000000" d="M450.4666,-1560.8668C533.3955,-1529.5216 223.6396,-1057.5 334.5,-1057.5"/>
<polygon fill="#000000" stroke="#000000" points="450.3684,-1560.8828 439.7722,-1558.0592 445.4342,-1561.6914 440.5,-1562.5 440.5,-1562.5 440.5,-1562.5 445.4342,-1561.6914 441.2278,-1566.9408 450.3684,-1560.8828 450.3684,-1560.8828"/>
<text text-anchor="start" x="447.0425" y="-1572.5" font-family="Arial" font-size="10.00" fill="#000000">FOREIGN KEY (job_version_uuid) REFERENCES job_versions(uuid)</text>
</g>
<!-- public.runs -->
<g id="node3" class="node">
<title>public.runs</title>
<polygon fill="#efefef" stroke="transparent" points="544.5,-1832.5 544.5,-1867.5 895.5,-1867.5 895.5,-1832.5 544.5,-1832.5"/>
<polygon fill="none" stroke="#000000" points="544.5,-1832.5 544.5,-1867.5 895.5,-1867.5 895.5,-1832.5 544.5,-1832.5"/>
<text text-anchor="start" x="612.7091" y="-1845.3" font-family="Arial Bold" font-size="18.00" fill="#000000">public.runs</text>
<text text-anchor="start" x="699.7229" y="-1845.3" font-family="Arial" font-size="14.00" fill="#000000">    </text>
<text text-anchor="start" x="733.9277" y="-1845.3" font-family="Arial" font-size="14.00" fill="#666666">[BASE TABLE]</text>
<polygon fill="none" stroke="#000000" points="544.5,-1802.5 544.5,-1832.5 895.5,-1832.5 895.5,-1802.5 544.5,-1802.5"/>
<text text-anchor="start" x="551.5" y="-1813.9" font-family="Arial" font-size="14.00" fill="#000000">uuid    </text>
<text text-anchor="start" x="612.1592" y="-1813.9" font-family="Arial" font-size="14.00" fill="#666666">[uuid]</text>
<polygon fill="none" stroke="#000000" points="544.5,-1772.5 544.5,-1802.5 895.5,-1802.5 895.5,-1772.5 544.5,-1772.5"/>
<text text-anchor="start" x="551.5" y="-1783.9" font-family="Arial" font-size="14.00" fill="#000000">created_at    </text>
<text text-anchor="start" x="651.8422" y="-1783.9" font-family="Arial" font-size="14.00" fill="#666666">[timestamp without time zone]</text>
<polygon fill="none" stroke="#000000" points="544.5,-1742.5 544.5,-1772.5 895.5,-1772.5 895.5,-1742.5 544.5,-1742.5"/>
<text text-anchor="start" x="551.5" y="-1753.9" font-family="Arial" font-size="14.00" fill="#000000">updated_at    </text>
<text text-anchor="start" x="655.7468" y="-1753.9" font-family="Arial" font-size="14.00" fill="#666666">[timestamp without time zone]</text>
<polygon fill="none" stroke="#000000" points="544.5,-1712.5 544.5,-1742.5 895.5,-1742.5 895.5,-1712.5 544.5,-1712.5"/>
<text text-anchor="start" x="551.5" y="-1723.9" font-family="Arial" font-size="14.00" fill="#000000">job_version_uuid    </text>
<text text-anchor="start" x="691.5112" y="-1723.9" font-family="Arial" font-size="14.00" fill="#666666">[uuid]</text>
<polygon fill="none" stroke="#000000" points="544.5,-1682.5 544.5,-1712.5 895.5,-1712.5 895.5,-1682.5 544.5,-1682.5"/>
<text text-anchor="start" x="551.5" y="-1693.9" font-family="Arial" font-size="14.00" fill="#000000">run_args_uuid    </text>
<text text-anchor="start" x="675.176" y="-1693.9" font-family="Arial" font-size="14.00" fill="#666666">[uuid]</text>
<polygon fill="none" stroke="#000000" points="544.5,-1652.5 544.5,-1682.5 895.5,-1682.5 895.5,-1652.5 544.5,-1652.5"/>
<text text-anchor="start" x="551.2104" y="-1663.9" font-family="Arial" font-size="14.00" fill="#000000">nominal_start_time    </text>
<text text-anchor="start" x="703.6494" y="-1663.9" font-family="Arial" font-size="14.00" fill="#666666">[timestamp without time zone]</text>
<polygon fill="none" stroke="#000000" points="544.5,-1622.5 544.5,-1652.5 895.5,-1652.5 895.5,-1622.5 544.5,-1622.5"/>
<text text-anchor="start" x="551.5" y="-1633.9" font-family="Arial" font-size="14.00" fill="#000000">nominal_end_time    </text>
<text text-anchor="start" x="700.0624" y="-1633.9" font-family="Arial" font-size="14.00" fill="#666666">[timestamp without time zone]</text>
<polygon fill="none" stroke="#000000" points="544.5,-1592.5 544.5,-1622.5 895.5,-1622.5 895.5,-1592.5 544.5,-1592.5"/>
<text text-anchor="start" x="551.5" y="-1603.9" font-family="Arial" font-size="14.00" fill="#000000">current_run_state    </text>
<text text-anchor="start" x="695.4018" y="-1603.9" font-family="Arial" font-size="14.00" fill="#666666">[varchar(64)]</text>
<polygon fill="none" stroke="#000000" points="544.5,-1562.5 544.5,-1592.5 895.5,-1592.5 895.5,-1562.5 544.5,-1562.5"/>
<text text-anchor="start" x="551.5" y="-1573.9" font-family="Arial" font-size="14.00" fill="#000000">start_run_state_uuid    </text>
<text text-anchor="start" x="713.3036" y="-1573.9" font-family="Arial" font-size="14.00" fill="#666666">[uuid]</text>
<polygon fill="none" stroke="#000000" points="544.5,-1532.5 544.5,-1562.5 895.5,-1562.5 895.5,-1532.5 544.5,-1532.5"/>
<text text-anchor="start" x="551.5" y="-1543.9" font-family="Arial" font-size="14.00" fill="#000000">end_run_state_uuid    </text>
<text text-anchor="start" x="709.427" y="-1543.9" font-family="Arial" font-size="14.00" fill="#666666">[uuid]</text>
<polygon fill="none" stroke="#000000" points="544.5,-1502.5 544.5,-1532.5 895.5,-1532.5 895.5,-1502.5 544.5,-1502.5"/>
<text text-anchor="start" x="551.5" y="-1513.9" font-family="Arial" font-size="14.00" fill="#000000">external_id    </text>
<text text-anchor="start" x="654.1648" y="-1513.9" font-family="Arial" font-size="14.00" fill="#666666">[varchar]</text>
<polygon fill="none" stroke="#000000" points="544.5,-1472.5 544.5,-1502.5 895.5,-1502.5 895.5,-1472.5 544.5,-1472.5"/>
<text text-anchor="start" x="551.5" y="-1483.9" font-family="Arial" font-size="14.00" fill="#000000">namespace_name    </text>
<text text-anchor="start" x="700.852" y="-1483.9" font-family="Arial" font-size="14.00" fill="#666666">[varchar]</text>
<polygon fill="none" stroke="#000000" points="544.5,-1442.5 544.5,-1472.5 895.5,-1472.5 895.5,-1442.5 544.5,-1442.5"/>
<text text-anchor="start" x="551.5" y="-1453.9" font-family="Arial" font-size="14.00" fill="#000000">job_name    </text>
<text text-anchor="start" x="647.1676" y="-1453.9" font-family="Arial" font-size="14.00" fill="#666666">[varchar]</text>
<polygon fill="none" stroke="#000000" points="544.5,-1412.5 544.5,-1442.5 895.5,-1442.5 895.5,-1412.5 544.5,-1412.5"/>
<text text-anchor="start" x="551.5" y="-1423.9" font-family="Arial" font-size="14.00" fill="#000000">location    </text>
<text text-anchor="start" x="633.939" y="-1423.9" font-family="Arial" font-size="14.00" fill="#666666">[varchar]</text>
<polygon fill="none" stroke="#000000" points="544.5,-1382.5 544.5,-1412.5 895.5,-1412.5 895.5,-1382.5 544.5,-1382.5"/>
<text text-anchor="start" x="551.5" y="-1393.9" font-family="Arial" font-size="14.00" fill="#000000">transitioned_at    </text>
<text text-anchor="start" x="677.5112" y="-1393.9" font-family="Arial" font-size="14.00" fill="#666666">[timestamp without time zone]</text>
<polygon fill="none" stroke="#000000" points="544.5,-1352.5 544.5,-1382.5 895.5,-1382.5 895.5,-1352.5 544.5,-1352.5"/>
<text text-anchor="start" x="551.5" y="-1363.9" font-family="Arial" font-size="14.00" fill="#000000">started_at    </text>
<text text-anchor="start" x="647.9502" y="-1363.9" font-family="Arial" font-size="14.00" fill="#666666">[timestamp without time zone]</text>
<polygon fill="none" stroke="#000000" points="544.5,-1322.5 544.5,-1352.5 895.5,-1352.5 895.5,-1322.5 544.5,-1322.5"/>
<text text-anchor="start" x="551.5" y="-1333.9" font-family="Arial" font-size="14.00" fill="#000000">ended_at    </text>
<text text-anchor="start" x="644.0736" y="-1333.9" font-family="Arial" font-size="14.00" fill="#666666">[timestamp without time zone]</text>
<polygon fill="none" stroke="#000000" points="544.5,-1292.5 544.5,-1322.5 895.5,-1322.5 895.5,-1292.5 544.5,-1292.5"/>
<text text-anchor="start" x="551.5" y="-1303.9" font-family="Arial" font-size="14.00" fill="#000000">job_context_uuid    </text>
<text text-anchor="start" x="691.5252" y="-1303.9" font-family="Arial" font-size="14.00" fill="#666666">[uuid]</text>
<polygon fill="none" stroke="#000000" points="544.5,-1262.5 544.5,-1292.5 895.5,-1292.5 895.5,-1262.5 544.5,-1262.5"/>
<text text-anchor="start" x="551.5" y="-1273.9" font-family="Arial" font-size="14.00" fill="#000000">parent_run_uuid    </text>
<text text-anchor="start" x="687.6318" y="-1273.9" font-family="Arial" font-size="14.00" fill="#666666">[uuid]</text>
<polygon fill="none" stroke="#000000" points="544.5,-1232.5 544.5,-1262.5 895.5,-1262.5 895.5,-1232.5 544.5,-1232.5"/>
<text text-anchor="start" x="551.5" y="-1243.9" font-family="Arial" font-size="14.00" fill="#000000">job_uuid    </text>
<text text-anchor="start" x="638.6136" y="-1243.9" font-family="Arial" font-size="14.00" fill="#666666">[uuid]</text>
</g>
<!-- public.runs&#45;&gt;public.job_versions -->
<g id="edge2" class="edge">
<title>public.runs:job_version_uuid&#45;&gt;public.job_versions:uuid</title>
<path fill="none" stroke="#000000" d="M535.1704,-1722.9749C487.8382,-1673.6638 513.4856,-1237.0345 544.5,-1190 566.8595,-1156.0909 606.1405,-1187.9091 628.5,-1154 652.1099,-1118.1946 671.3889,-1057.5 628.5,-1057.5"/>
<polygon fill="#000000" stroke="#000000" points="535.5025,-1723.1359 542.5361,-1731.5489 540.0012,-1725.3179 544.5,-1727.5 544.5,-1727.5 544.5,-1727.5 540.0012,-1725.3179 546.4639,-1723.4511 535.5025,-1723.1359 535.5025,-1723.1359"/>
<text text-anchor="start" x="229.0425" y="-1737.5" font-family="Arial" font-size="10.00" fill="#000000">FOREIGN KEY (job_version_uuid) REFERENCES job_versions(uuid)</text>
</g>
</g>
</svg>
