<?xml version="1.0" encoding="UTF-8" standalone="no"?>
<!DOCTYPE svg PUBLIC "-//W3C//DTD SVG 1.1//EN"
 "http://www.w3.org/Graphics/SVG/1.1/DTD/svg11.dtd">
<!-- Generated by graphviz version 2.40.1 (20161225.0304)
 -->
<!-- Title: public.job_versions_io_mapping Pages: 1 -->
<svg width="1013pt" height="832pt"
 viewBox="0.00 0.00 1013.00 832.00" xmlns="http://www.w3.org/2000/svg" xmlns:xlink="http://www.w3.org/1999/xlink">
<g id="graph0" class="graph" transform="scale(1 1) rotate(0) translate(4 828)">
<title>public.job_versions_io_mapping</title>
<polygon fill="#ffffff" stroke="transparent" points="-4,4 -4,-828 1009,-828 1009,4 -4,4"/>
<!-- public.job_versions_io_mapping -->
<g id="node1" class="node">
<title>public.job_versions_io_mapping</title>
<polygon fill="#efefef" stroke="transparent" points="322,-742.5 322,-777.5 719,-777.5 719,-742.5 322,-742.5"/>
<polygon fill="none" stroke="#000000" points="322,-742.5 322,-777.5 719,-777.5 719,-742.5 322,-742.5"/>
<text text-anchor="start" x="328.6874" y="-755.3" font-family="Arial Bold" font-size="18.00" fill="#000000">public.job_versions_io_mapping</text>
<text text-anchor="start" x="584.7446" y="-755.3" font-family="Arial" font-size="14.00" fill="#000000">    </text>
<text text-anchor="start" x="618.9494" y="-755.3" font-family="Arial" font-size="14.00" fill="#666666">[BASE TABLE]</text>
<polygon fill="none" stroke="#000000" points="322,-712.5 322,-742.5 719,-742.5 719,-712.5 322,-712.5"/>
<text text-anchor="start" x="329" y="-723.9" font-family="Arial" font-size="14.00" fill="#000000">job_version_uuid </text>
<text text-anchor="start" x="438.697" y="-723.9" font-family="Arial" font-size="14.00" fill="#666666">[uuid]</text>
<polygon fill="none" stroke="#000000" points="322,-682.5 322,-712.5 719,-712.5 719,-682.5 322,-682.5"/>
<text text-anchor="start" x="329" y="-693.9" font-family="Arial" font-size="14.00" fill="#000000">dataset_uuid </text>
<text text-anchor="start" x="413.0392" y="-693.9" font-family="Arial" font-size="14.00" fill="#666666">[uuid]</text>
<polygon fill="none" stroke="#000000" points="322,-652.5 322,-682.5 719,-682.5 719,-652.5 322,-652.5"/>
<text text-anchor="start" x="329" y="-663.9" font-family="Arial" font-size="14.00" fill="#000000">io_type </text>
<text text-anchor="start" x="378.0182" y="-663.9" font-family="Arial" font-size="14.00" fill="#666666">[varchar(64)]</text>
<polygon fill="none" stroke="#000000" stroke-width="3" points="320,-651.5 320,-779.5 720,-779.5 720,-651.5 320,-651.5"/>
</g>
<!-- public.job_versions -->
<g id="node2" class="node">
<title>public.job_versions</title>
<polygon fill="#efefef" stroke="transparent" points="158,-432.5 158,-467.5 461,-467.5 461,-432.5 158,-432.5"/>
<polygon fill="none" stroke="#000000" points="158,-432.5 158,-467.5 461,-467.5 461,-432.5 158,-432.5"/>
<text text-anchor="start" x="169.2025" y="-445.3" font-family="Arial Bold" font-size="18.00" fill="#000000">public.job_versions</text>
<text text-anchor="start" x="322.2295" y="-445.3" font-family="Arial" font-size="14.00" fill="#000000">    </text>
<text text-anchor="start" x="356.4343" y="-445.3" font-family="Arial" font-size="14.00" fill="#666666">[BASE TABLE]</text>
<polygon fill="none" stroke="#000000" points="158,-402.5 158,-432.5 461,-432.5 461,-402.5 158,-402.5"/>
<text text-anchor="start" x="165" y="-413.9" font-family="Arial" font-size="14.00" fill="#000000">uuid    </text>
<text text-anchor="start" x="225.6592" y="-413.9" font-family="Arial" font-size="14.00" fill="#666666">[uuid]</text>
<polygon fill="none" stroke="#000000" points="158,-372.5 158,-402.5 461,-402.5 461,-372.5 158,-372.5"/>
<text text-anchor="start" x="165" y="-383.9" font-family="Arial" font-size="14.00" fill="#000000">created_at    </text>
<text text-anchor="start" x="265.3422" y="-383.9" font-family="Arial" font-size="14.00" fill="#666666">[timestamp without time zone]</text>
<polygon fill="none" stroke="#000000" points="158,-342.5 158,-372.5 461,-372.5 461,-342.5 158,-342.5"/>
<text text-anchor="start" x="164.8065" y="-353.9" font-family="Arial" font-size="14.00" fill="#000000">updated_at    </text>
<text text-anchor="start" x="269.0533" y="-353.9" font-family="Arial" font-size="14.00" fill="#666666">[timestamp without time zone]</text>
<polygon fill="none" stroke="#000000" points="158,-312.5 158,-342.5 461,-342.5 461,-312.5 158,-312.5"/>
<text text-anchor="start" x="165" y="-323.9" font-family="Arial" font-size="14.00" fill="#000000">job_uuid    </text>
<text text-anchor="start" x="252.1136" y="-323.9" font-family="Arial" font-size="14.00" fill="#666666">[uuid]</text>
<polygon fill="none" stroke="#000000" points="158,-282.5 158,-312.5 461,-312.5 461,-282.5 158,-282.5"/>
<text text-anchor="start" x="165" y="-293.9" font-family="Arial" font-size="14.00" fill="#000000">version    </text>
<text text-anchor="start" x="244.3198" y="-293.9" font-family="Arial" font-size="14.00" fill="#666666">[uuid]</text>
<polygon fill="none" stroke="#000000" points="158,-252.5 158,-282.5 461,-282.5 461,-252.5 158,-252.5"/>
<text text-anchor="start" x="165" y="-263.9" font-family="Arial" font-size="14.00" fill="#000000">location    </text>
<text text-anchor="start" x="247.439" y="-263.9" font-family="Arial" font-size="14.00" fill="#666666">[varchar(255)]</text>
<polygon fill="none" stroke="#000000" points="158,-222.5 158,-252.5 461,-252.5 461,-222.5 158,-222.5"/>
<text text-anchor="start" x="165" y="-233.9" font-family="Arial" font-size="14.00" fill="#000000">latest_run_uuid    </text>
<text text-anchor="start" x="294.9032" y="-233.9" font-family="Arial" font-size="14.00" fill="#666666">[uuid]</text>
<polygon fill="none" stroke="#000000" points="158,-192.5 158,-222.5 461,-222.5 461,-192.5 158,-192.5"/>
<text text-anchor="start" x="165" y="-203.9" font-family="Arial" font-size="14.00" fill="#000000">job_context_uuid    </text>
<text text-anchor="start" x="305.0252" y="-203.9" font-family="Arial" font-size="14.00" fill="#666666">[uuid]</text>
<polygon fill="none" stroke="#000000" points="158,-162.5 158,-192.5 461,-192.5 461,-162.5 158,-162.5"/>
<text text-anchor="start" x="165" y="-173.9" font-family="Arial" font-size="14.00" fill="#000000">namespace_uuid    </text>
<text text-anchor="start" x="305.798" y="-173.9" font-family="Arial" font-size="14.00" fill="#666666">[uuid]</text>
<polygon fill="none" stroke="#000000" points="158,-132.5 158,-162.5 461,-162.5 461,-132.5 158,-132.5"/>
<text text-anchor="start" x="165" y="-143.9" font-family="Arial" font-size="14.00" fill="#000000">namespace_name    </text>
<text text-anchor="start" x="314.352" y="-143.9" font-family="Arial" font-size="14.00" fill="#666666">[varchar]</text>
<polygon fill="none" stroke="#000000" points="158,-102.5 158,-132.5 461,-132.5 461,-102.5 158,-102.5"/>
<text text-anchor="start" x="165" y="-113.9" font-family="Arial" font-size="14.00" fill="#000000">job_name    </text>
<text text-anchor="start" x="260.6676" y="-113.9" font-family="Arial" font-size="14.00" fill="#666666">[varchar]</text>
</g>
<!-- public.job_versions_io_mapping&#45;&gt;public.job_versions -->
<g id="edge1" class="edge">
<title>public.job_versions_io_mapping:job_version_uuid&#45;&gt;public.job_versions:uuid</title>
<path fill="none" stroke="#000000" d="M311.8928,-726.4505C272.4579,-717.3506 298.8674,-651.0899 322,-607 356.8823,-540.5157 426.1177,-577.4843 461,-511 480.3069,-474.2018 502.5556,-417.5 461,-417.5"/>
<polygon fill="#000000" stroke="#000000" points="312.0535,-726.4671 321.5352,-731.9759 317.0267,-726.9835 322,-727.5 322,-727.5 322,-727.5 317.0267,-726.9835 322.4648,-723.0241 312.0535,-726.4671 312.0535,-726.4671"/>
<text text-anchor="start" x="6.5425" y="-737.5" font-family="Arial" font-size="10.00" fill="#000000">FOREIGN KEY (job_version_uuid) REFERENCES job_versions(uuid)</text>
</g>
<!-- public.datasets -->
<g id="node3" class="node">
<title>public.datasets</title>
<polygon fill="#efefef" stroke="transparent" points="565,-492.5 565,-527.5 900,-527.5 900,-492.5 565,-492.5"/>
<polygon fill="none" stroke="#000000" points="565,-492.5 565,-527.5 900,-527.5 900,-492.5 565,-492.5"/>
<text text-anchor="start" x="608.6968" y="-505.3" font-family="Arial Bold" font-size="18.00" fill="#000000">public.datasets</text>
<text text-anchor="start" x="728.7352" y="-505.3" font-family="Arial" font-size="14.00" fill="#000000">    </text>
<text text-anchor="start" x="762.94" y="-505.3" font-family="Arial" font-size="14.00" fill="#666666">[BASE TABLE]</text>
<polygon fill="none" stroke="#000000" points="565,-462.5 565,-492.5 900,-492.5 900,-462.5 565,-462.5"/>
<text text-anchor="start" x="572" y="-473.9" font-family="Arial" font-size="14.00" fill="#000000">uuid    </text>
<text text-anchor="start" x="632.6592" y="-473.9" font-family="Arial" font-size="14.00" fill="#666666">[uuid]</text>
<polygon fill="none" stroke="#000000" points="565,-432.5 565,-462.5 900,-462.5 900,-432.5 565,-432.5"/>
<text text-anchor="start" x="572" y="-443.9" font-family="Arial" font-size="14.00" fill="#000000">type    </text>
<text text-anchor="start" x="632.6606" y="-443.9" font-family="Arial" font-size="14.00" fill="#666666">[varchar(64)]</text>
<polygon fill="none" stroke="#000000" points="565,-402.5 565,-432.5 900,-432.5 900,-402.5 565,-402.5"/>
<text text-anchor="start" x="572" y="-413.9" font-family="Arial" font-size="14.00" fill="#000000">created_at    </text>
<text text-anchor="start" x="672.3422" y="-413.9" font-family="Arial" font-size="14.00" fill="#666666">[timestamp without time zone]</text>
<polygon fill="none" stroke="#000000" points="565,-372.5 565,-402.5 900,-402.5 900,-372.5 565,-372.5"/>
<text text-anchor="start" x="572" y="-383.9" font-family="Arial" font-size="14.00" fill="#000000">updated_at    </text>
<text text-anchor="start" x="676.2468" y="-383.9" font-family="Arial" font-size="14.00" fill="#666666">[timestamp without time zone]</text>
<polygon fill="none" stroke="#000000" points="565,-342.5 565,-372.5 900,-372.5 900,-342.5 565,-342.5"/>
<text text-anchor="start" x="572" y="-353.9" font-family="Arial" font-size="14.00" fill="#000000">namespace_uuid    </text>
<text text-anchor="start" x="712.798" y="-353.9" font-family="Arial" font-size="14.00" fill="#666666">[uuid]</text>
<polygon fill="none" stroke="#000000" points="565,-312.5 565,-342.5 900,-342.5 900,-312.5 565,-312.5"/>
<text text-anchor="start" x="572" y="-323.9" font-family="Arial" font-size="14.00" fill="#000000">source_uuid    </text>
<text text-anchor="start" x="682.4502" y="-323.9" font-family="Arial" font-size="14.00" fill="#666666">[uuid]</text>
<polygon fill="none" stroke="#000000" points="565,-282.5 565,-312.5 900,-312.5 900,-282.5 565,-282.5"/>
<text text-anchor="start" x="572" y="-293.9" font-family="Arial" font-size="14.00" fill="#000000">name    </text>
<text text-anchor="start" x="641.2132" y="-293.9" font-family="Arial" font-size="14.00" fill="#666666">[varchar]</text>
<polygon fill="none" stroke="#000000" points="565,-252.5 565,-282.5 900,-282.5 900,-252.5 565,-252.5"/>
<text text-anchor="start" x="572" y="-263.9" font-family="Arial" font-size="14.00" fill="#000000">physical_name    </text>
<text text-anchor="start" x="699.5568" y="-263.9" font-family="Arial" font-size="14.00" fill="#666666">[varchar]</text>
<polygon fill="none" stroke="#000000" points="565,-222.5 565,-252.5 900,-252.5 900,-222.5 565,-222.5"/>
<text text-anchor="start" x="572" y="-233.9" font-family="Arial" font-size="14.00" fill="#000000">description    </text>
<text text-anchor="start" x="673.8822" y="-233.9" font-family="Arial" font-size="14.00" fill="#666666">[text]</text>
<polygon fill="none" stroke="#000000" points="565,-192.5 565,-222.5 900,-222.5 900,-192.5 565,-192.5"/>
<text text-anchor="start" x="572" y="-203.9" font-family="Arial" font-size="14.00" fill="#000000">current_version_uuid    </text>
<text text-anchor="start" x="736.899" y="-203.9" font-family="Arial" font-size="14.00" fill="#666666">[uuid]</text>
<polygon fill="none" stroke="#000000" points="565,-162.5 565,-192.5 900,-192.5 900,-162.5 565,-162.5"/>
<text text-anchor="start" x="571.871" y="-173.9" font-family="Arial" font-size="14.00" fill="#000000">last_modified_at    </text>
<text text-anchor="start" x="707.9888" y="-173.9" font-family="Arial" font-size="14.00" fill="#666666">[timestamp without time zone]</text>
<polygon fill="none" stroke="#000000" points="565,-132.5 565,-162.5 900,-162.5 900,-132.5 565,-132.5"/>
<text text-anchor="start" x="572" y="-143.9" font-family="Arial" font-size="14.00" fill="#000000">namespace_name    </text>
<text text-anchor="start" x="721.352" y="-143.9" font-family="Arial" font-size="14.00" fill="#666666">[varchar]</text>
<polygon fill="none" stroke="#000000" points="565,-102.5 565,-132.5 900,-132.5 900,-102.5 565,-102.5"/>
<text text-anchor="start" x="572" y="-113.9" font-family="Arial" font-size="14.00" fill="#000000">source_name    </text>
<text text-anchor="start" x="691.0042" y="-113.9" font-family="Arial" font-size="14.00" fill="#666666">[varchar]</text>
<polygon fill="none" stroke="#000000" points="565,-72.5 565,-102.5 900,-102.5 900,-72.5 565,-72.5"/>
<text text-anchor="start" x="572" y="-83.9" font-family="Arial" font-size="14.00" fill="#000000">is_deleted    </text>
<text text-anchor="start" x="670.0042" y="-83.9" font-family="Arial" font-size="14.00" fill="#666666">[boolean]</text>
<polygon fill="none" stroke="#000000" points="565,-42.5 565,-72.5 900,-72.5 900,-42.5 565,-42.5"/>
<text text-anchor="start" x="572" y="-53.9" font-family="Arial" font-size="14.00" fill="#000000">is_hidden    </text>
<text text-anchor="start" x="666.1136" y="-53.9" font-family="Arial" font-size="14.00" fill="#666666">[boolean]</text>
</g>
<!-- public.job_versions_io_mapping&#45;&gt;public.datasets -->
<g id="edge2" class="edge">
<title>public.job_versions_io_mapping:dataset_uuid&#45;&gt;public.datasets:uuid</title>
<path fill="none" stroke="#000000" d="M729.24,-695.8929C756.1551,-686.241 741.5546,-635.4352 719,-607 675.3193,-551.9306 608.6807,-626.0694 565,-571 539.1758,-538.4427 523.4444,-477.5 565,-477.5"/>
<polygon fill="#000000" stroke="#000000" points="728.8791,-695.9494 718.3023,-693.0544 723.9395,-696.7247 719,-697.5 719,-697.5 719,-697.5 723.9395,-696.7247 719.6977,-701.9456 728.8791,-695.9494 728.8791,-695.9494"/>
<text text-anchor="start" x="725.8695" y="-707.5" font-family="Arial" font-size="10.00" fill="#000000">FOREIGN KEY (dataset_uuid) REFERENCES datasets(uuid)</text>
</g>
</g>
</svg>
