<?xml version="1.0" encoding="UTF-8" standalone="no"?>
<!DOCTYPE svg PUBLIC "-//W3C//DTD SVG 1.1//EN"
 "http://www.w3.org/Graphics/SVG/1.1/DTD/svg11.dtd">
<!-- Generated by graphviz version 2.40.1 (20161225.0304)
 -->
<!-- Title: public.dataset_facets Pages: 1 -->
<svg width="1317pt" height="1162pt"
 viewBox="0.00 0.00 1317.00 1162.00" xmlns="http://www.w3.org/2000/svg" xmlns:xlink="http://www.w3.org/1999/xlink">
<g id="graph0" class="graph" transform="scale(1 1) rotate(0) translate(4 1158)">
<title>public.dataset_facets</title>
<polygon fill="#ffffff" stroke="transparent" points="-4,4 -4,-1158 1313,-1158 1313,4 -4,4"/>
<!-- public.dataset_facets -->
<g id="node1" class="node">
<title>public.dataset_facets</title>
<polygon fill="#efefef" stroke="transparent" points="492.5,-1072.5 492.5,-1107.5 802.5,-1107.5 802.5,-1072.5 492.5,-1072.5"/>
<polygon fill="none" stroke="#000000" points="492.5,-1072.5 492.5,-1107.5 802.5,-1107.5 802.5,-1072.5 492.5,-1072.5"/>
<text text-anchor="start" x="499.1853" y="-1085.3" font-family="Arial Bold" font-size="18.00" fill="#000000">public.dataset_facets</text>
<text text-anchor="start" x="668.2467" y="-1085.3" font-family="Arial" font-size="14.00" fill="#000000">    </text>
<text text-anchor="start" x="702.4515" y="-1085.3" font-family="Arial" font-size="14.00" fill="#666666">[BASE TABLE]</text>
<polygon fill="none" stroke="#000000" points="492.5,-1042.5 492.5,-1072.5 802.5,-1072.5 802.5,-1042.5 492.5,-1042.5"/>
<text text-anchor="start" x="499.5" y="-1053.9" font-family="Arial" font-size="14.00" fill="#000000">created_at </text>
<text text-anchor="start" x="569.528" y="-1053.9" font-family="Arial" font-size="14.00" fill="#666666">[timestamp with time zone]</text>
<polygon fill="none" stroke="#000000" points="492.5,-1012.5 492.5,-1042.5 802.5,-1042.5 802.5,-1012.5 492.5,-1012.5"/>
<text text-anchor="start" x="499.5" y="-1023.9" font-family="Arial" font-size="14.00" fill="#000000">dataset_uuid </text>
<text text-anchor="start" x="583.5392" y="-1023.9" font-family="Arial" font-size="14.00" fill="#666666">[uuid]</text>
<polygon fill="none" stroke="#000000" points="492.5,-982.5 492.5,-1012.5 802.5,-1012.5 802.5,-982.5 492.5,-982.5"/>
<text text-anchor="start" x="499.5" y="-993.9" font-family="Arial" font-size="14.00" fill="#000000">dataset_version_uuid </text>
<text text-anchor="start" x="636.4368" y="-993.9" font-family="Arial" font-size="14.00" fill="#666666">[uuid]</text>
<polygon fill="none" stroke="#000000" points="492.5,-952.5 492.5,-982.5 802.5,-982.5 802.5,-952.5 492.5,-952.5"/>
<text text-anchor="start" x="499.5" y="-963.9" font-family="Arial" font-size="14.00" fill="#000000">run_uuid </text>
<text text-anchor="start" x="557.8534" y="-963.9" font-family="Arial" font-size="14.00" fill="#666666">[uuid]</text>
<polygon fill="none" stroke="#000000" points="492.5,-922.5 492.5,-952.5 802.5,-952.5 802.5,-922.5 492.5,-922.5"/>
<text text-anchor="start" x="499.5" y="-933.9" font-family="Arial" font-size="14.00" fill="#000000">lineage_event_time </text>
<text text-anchor="start" x="624.7608" y="-933.9" font-family="Arial" font-size="14.00" fill="#666666">[timestamp with time zone]</text>
<polygon fill="none" stroke="#000000" points="492.5,-892.5 492.5,-922.5 802.5,-922.5 802.5,-892.5 492.5,-892.5"/>
<text text-anchor="start" x="499.5" y="-903.9" font-family="Arial" font-size="14.00" fill="#000000">lineage_event_type </text>
<text text-anchor="start" x="624.7762" y="-903.9" font-family="Arial" font-size="14.00" fill="#666666">[varchar(64)]</text>
<polygon fill="none" stroke="#000000" points="492.5,-862.5 492.5,-892.5 802.5,-892.5 802.5,-862.5 492.5,-862.5"/>
<text text-anchor="start" x="499.5" y="-873.9" font-family="Arial" font-size="14.00" fill="#000000">type </text>
<text text-anchor="start" x="529.8464" y="-873.9" font-family="Arial" font-size="14.00" fill="#666666">[varchar(64)]</text>
<polygon fill="none" stroke="#000000" points="492.5,-832.5 492.5,-862.5 802.5,-862.5 802.5,-832.5 492.5,-832.5"/>
<text text-anchor="start" x="499.5" y="-843.9" font-family="Arial" font-size="14.00" fill="#000000">name </text>
<text text-anchor="start" x="538.399" y="-843.9" font-family="Arial" font-size="14.00" fill="#666666">[varchar(255)]</text>
<polygon fill="none" stroke="#000000" points="492.5,-802.5 492.5,-832.5 802.5,-832.5 802.5,-802.5 492.5,-802.5"/>
<text text-anchor="start" x="499.5" y="-813.9" font-family="Arial" font-size="14.00" fill="#000000">facet </text>
<text text-anchor="start" x="533.737" y="-813.9" font-family="Arial" font-size="14.00" fill="#666666">[jsonb]</text>
<polygon fill="none" stroke="#000000" stroke-width="3" points="491,-801.5 491,-1109.5 804,-1109.5 804,-801.5 491,-801.5"/>
</g>
<!-- public.datasets -->
<g id="node2" class="node">
<title>public.datasets</title>
<polygon fill="#efefef" stroke="transparent" points="43.5,-567.5 43.5,-602.5 378.5,-602.5 378.5,-567.5 43.5,-567.5"/>
<polygon fill="none" stroke="#000000" points="43.5,-567.5 43.5,-602.5 378.5,-602.5 378.5,-567.5 43.5,-567.5"/>
<text text-anchor="start" x="87.1968" y="-580.3" font-family="Arial Bold" font-size="18.00" fill="#000000">public.datasets</text>
<text text-anchor="start" x="207.2352" y="-580.3" font-family="Arial" font-size="14.00" fill="#000000">    </text>
<text text-anchor="start" x="241.44" y="-580.3" font-family="Arial" font-size="14.00" fill="#666666">[BASE TABLE]</text>
<polygon fill="none" stroke="#000000" points="43.5,-537.5 43.5,-567.5 378.5,-567.5 378.5,-537.5 43.5,-537.5"/>
<text text-anchor="start" x="50.5" y="-548.9" font-family="Arial" font-size="14.00" fill="#000000">uuid    </text>
<text text-anchor="start" x="111.1592" y="-548.9" font-family="Arial" font-size="14.00" fill="#666666">[uuid]</text>
<polygon fill="none" stroke="#000000" points="43.5,-507.5 43.5,-537.5 378.5,-537.5 378.5,-507.5 43.5,-507.5"/>
<text text-anchor="start" x="50.5" y="-518.9" font-family="Arial" font-size="14.00" fill="#000000">type    </text>
<text text-anchor="start" x="111.1606" y="-518.9" font-family="Arial" font-size="14.00" fill="#666666">[varchar(64)]</text>
<polygon fill="none" stroke="#000000" points="43.5,-477.5 43.5,-507.5 378.5,-507.5 378.5,-477.5 43.5,-477.5"/>
<text text-anchor="start" x="50.5" y="-488.9" font-family="Arial" font-size="14.00" fill="#000000">created_at    </text>
<text text-anchor="start" x="150.8422" y="-488.9" font-family="Arial" font-size="14.00" fill="#666666">[timestamp without time zone]</text>
<polygon fill="none" stroke="#000000" points="43.5,-447.5 43.5,-477.5 378.5,-477.5 378.5,-447.5 43.5,-447.5"/>
<text text-anchor="start" x="50.5" y="-458.9" font-family="Arial" font-size="14.00" fill="#000000">updated_at    </text>
<text text-anchor="start" x="154.7468" y="-458.9" font-family="Arial" font-size="14.00" fill="#666666">[timestamp without time zone]</text>
<polygon fill="none" stroke="#000000" points="43.5,-417.5 43.5,-447.5 378.5,-447.5 378.5,-417.5 43.5,-417.5"/>
<text text-anchor="start" x="50.5" y="-428.9" font-family="Arial" font-size="14.00" fill="#000000">namespace_uuid    </text>
<text text-anchor="start" x="191.298" y="-428.9" font-family="Arial" font-size="14.00" fill="#666666">[uuid]</text>
<polygon fill="none" stroke="#000000" points="43.5,-387.5 43.5,-417.5 378.5,-417.5 378.5,-387.5 43.5,-387.5"/>
<text text-anchor="start" x="50.5" y="-398.9" font-family="Arial" font-size="14.00" fill="#000000">source_uuid    </text>
<text text-anchor="start" x="160.9502" y="-398.9" font-family="Arial" font-size="14.00" fill="#666666">[uuid]</text>
<polygon fill="none" stroke="#000000" points="43.5,-357.5 43.5,-387.5 378.5,-387.5 378.5,-357.5 43.5,-357.5"/>
<text text-anchor="start" x="50.5" y="-368.9" font-family="Arial" font-size="14.00" fill="#000000">name    </text>
<text text-anchor="start" x="119.7132" y="-368.9" font-family="Arial" font-size="14.00" fill="#666666">[varchar]</text>
<polygon fill="none" stroke="#000000" points="43.5,-327.5 43.5,-357.5 378.5,-357.5 378.5,-327.5 43.5,-327.5"/>
<text text-anchor="start" x="50.5" y="-338.9" font-family="Arial" font-size="14.00" fill="#000000">physical_name    </text>
<text text-anchor="start" x="178.0568" y="-338.9" font-family="Arial" font-size="14.00" fill="#666666">[varchar]</text>
<polygon fill="none" stroke="#000000" points="43.5,-297.5 43.5,-327.5 378.5,-327.5 378.5,-297.5 43.5,-297.5"/>
<text text-anchor="start" x="50.5" y="-308.9" font-family="Arial" font-size="14.00" fill="#000000">description    </text>
<text text-anchor="start" x="152.3822" y="-308.9" font-family="Arial" font-size="14.00" fill="#666666">[text]</text>
<polygon fill="none" stroke="#000000" points="43.5,-267.5 43.5,-297.5 378.5,-297.5 378.5,-267.5 43.5,-267.5"/>
<text text-anchor="start" x="50.5" y="-278.9" font-family="Arial" font-size="14.00" fill="#000000">current_version_uuid    </text>
<text text-anchor="start" x="215.399" y="-278.9" font-family="Arial" font-size="14.00" fill="#666666">[uuid]</text>
<polygon fill="none" stroke="#000000" points="43.5,-237.5 43.5,-267.5 378.5,-267.5 378.5,-237.5 43.5,-237.5"/>
<text text-anchor="start" x="50.371" y="-248.9" font-family="Arial" font-size="14.00" fill="#000000">last_modified_at    </text>
<text text-anchor="start" x="186.4888" y="-248.9" font-family="Arial" font-size="14.00" fill="#666666">[timestamp without time zone]</text>
<polygon fill="none" stroke="#000000" points="43.5,-207.5 43.5,-237.5 378.5,-237.5 378.5,-207.5 43.5,-207.5"/>
<text text-anchor="start" x="50.5" y="-218.9" font-family="Arial" font-size="14.00" fill="#000000">namespace_name    </text>
<text text-anchor="start" x="199.852" y="-218.9" font-family="Arial" font-size="14.00" fill="#666666">[varchar]</text>
<polygon fill="none" stroke="#000000" points="43.5,-177.5 43.5,-207.5 378.5,-207.5 378.5,-177.5 43.5,-177.5"/>
<text text-anchor="start" x="50.5" y="-188.9" font-family="Arial" font-size="14.00" fill="#000000">source_name    </text>
<text text-anchor="start" x="169.5042" y="-188.9" font-family="Arial" font-size="14.00" fill="#666666">[varchar]</text>
<polygon fill="none" stroke="#000000" points="43.5,-147.5 43.5,-177.5 378.5,-177.5 378.5,-147.5 43.5,-147.5"/>
<text text-anchor="start" x="50.5" y="-158.9" font-family="Arial" font-size="14.00" fill="#000000">is_deleted    </text>
<text text-anchor="start" x="148.5042" y="-158.9" font-family="Arial" font-size="14.00" fill="#666666">[boolean]</text>
<polygon fill="none" stroke="#000000" points="43.5,-117.5 43.5,-147.5 378.5,-147.5 378.5,-117.5 43.5,-117.5"/>
<text text-anchor="start" x="50.5" y="-128.9" font-family="Arial" font-size="14.00" fill="#000000">is_hidden    </text>
<text text-anchor="start" x="144.6136" y="-128.9" font-family="Arial" font-size="14.00" fill="#666666">[boolean]</text>
</g>
<!-- public.dataset_facets&#45;&gt;public.datasets -->
<g id="edge1" class="edge">
<title>public.dataset_facets:dataset_uuid&#45;&gt;public.datasets:uuid</title>
<path fill="none" stroke="#000000" d="M483.4425,-1022.7988C437.4175,-973.4667 429.5962,-552.5 378.5,-552.5"/>
<polygon fill="#000000" stroke="#000000" points="483.6243,-1022.8931 490.4269,-1031.494 488.0622,-1025.1966 492.5,-1027.5 492.5,-1027.5 492.5,-1027.5 488.0622,-1025.1966 494.5731,-1023.506 483.6243,-1022.8931 483.6243,-1022.8931"/>
<text text-anchor="start" x="213.3695" y="-1037.5" font-family="Arial" font-size="10.00" fill="#000000">FOREIGN KEY (dataset_uuid) REFERENCES datasets(uuid)</text>
</g>
<!-- public.dataset_versions -->
<g id="node3" class="node">
<title>public.dataset_versions</title>
<polygon fill="#efefef" stroke="transparent" points="482.5,-477.5 482.5,-512.5 811.5,-512.5 811.5,-477.5 482.5,-477.5"/>
<polygon fill="none" stroke="#000000" points="482.5,-477.5 482.5,-512.5 811.5,-512.5 811.5,-477.5 482.5,-477.5"/>
<text text-anchor="start" x="489.1912" y="-490.3" font-family="Arial Bold" font-size="18.00" fill="#000000">public.dataset_versions</text>
<text text-anchor="start" x="677.2408" y="-490.3" font-family="Arial" font-size="14.00" fill="#000000">    </text>
<text text-anchor="start" x="711.4456" y="-490.3" font-family="Arial" font-size="14.00" fill="#666666">[BASE TABLE]</text>
<polygon fill="none" stroke="#000000" points="482.5,-447.5 482.5,-477.5 811.5,-477.5 811.5,-447.5 482.5,-447.5"/>
<text text-anchor="start" x="489.5" y="-458.9" font-family="Arial" font-size="14.00" fill="#000000">uuid    </text>
<text text-anchor="start" x="550.1592" y="-458.9" font-family="Arial" font-size="14.00" fill="#666666">[uuid]</text>
<polygon fill="none" stroke="#000000" points="482.5,-417.5 482.5,-447.5 811.5,-447.5 811.5,-417.5 482.5,-417.5"/>
<text text-anchor="start" x="489.5" y="-428.9" font-family="Arial" font-size="14.00" fill="#000000">created_at    </text>
<text text-anchor="start" x="589.8422" y="-428.9" font-family="Arial" font-size="14.00" fill="#666666">[timestamp without time zone]</text>
<polygon fill="none" stroke="#000000" points="482.5,-387.5 482.5,-417.5 811.5,-417.5 811.5,-387.5 482.5,-387.5"/>
<text text-anchor="start" x="489.5" y="-398.9" font-family="Arial" font-size="14.00" fill="#000000">dataset_uuid    </text>
<text text-anchor="start" x="603.8534" y="-398.9" font-family="Arial" font-size="14.00" fill="#666666">[uuid]</text>
<polygon fill="none" stroke="#000000" points="482.5,-357.5 482.5,-387.5 811.5,-387.5 811.5,-357.5 482.5,-357.5"/>
<text text-anchor="start" x="489.5" y="-368.9" font-family="Arial" font-size="14.00" fill="#000000">version    </text>
<text text-anchor="start" x="568.8198" y="-368.9" font-family="Arial" font-size="14.00" fill="#666666">[uuid]</text>
<polygon fill="none" stroke="#000000" points="482.5,-327.5 482.5,-357.5 811.5,-357.5 811.5,-327.5 482.5,-327.5"/>
<text text-anchor="start" x="489.5" y="-338.9" font-family="Arial" font-size="14.00" fill="#000000">run_uuid    </text>
<text text-anchor="start" x="578.1676" y="-338.9" font-family="Arial" font-size="14.00" fill="#666666">[uuid]</text>
<polygon fill="none" stroke="#000000" points="482.5,-297.5 482.5,-327.5 811.5,-327.5 811.5,-297.5 482.5,-297.5"/>
<text text-anchor="start" x="489.5" y="-308.9" font-family="Arial" font-size="14.00" fill="#000000">fields    </text>
<text text-anchor="start" x="556.3738" y="-308.9" font-family="Arial" font-size="14.00" fill="#666666">[jsonb]</text>
<polygon fill="none" stroke="#000000" points="482.5,-267.5 482.5,-297.5 811.5,-297.5 811.5,-267.5 482.5,-267.5"/>
<text text-anchor="start" x="489.5" y="-278.9" font-family="Arial" font-size="14.00" fill="#000000">namespace_name    </text>
<text text-anchor="start" x="638.852" y="-278.9" font-family="Arial" font-size="14.00" fill="#666666">[varchar]</text>
<polygon fill="none" stroke="#000000" points="482.5,-237.5 482.5,-267.5 811.5,-267.5 811.5,-237.5 482.5,-237.5"/>
<text text-anchor="start" x="489.5" y="-248.9" font-family="Arial" font-size="14.00" fill="#000000">dataset_name    </text>
<text text-anchor="start" x="612.4074" y="-248.9" font-family="Arial" font-size="14.00" fill="#666666">[varchar]</text>
<polygon fill="none" stroke="#000000" points="482.5,-207.5 482.5,-237.5 811.5,-237.5 811.5,-207.5 482.5,-207.5"/>
<text text-anchor="start" x="489.5" y="-218.9" font-family="Arial" font-size="14.00" fill="#000000">lifecycle_state    </text>
<text text-anchor="start" x="611.6094" y="-218.9" font-family="Arial" font-size="14.00" fill="#666666">[varchar(63)]</text>
</g>
<!-- public.dataset_facets&#45;&gt;public.dataset_versions -->
<g id="edge2" class="edge">
<title>public.dataset_facets:dataset_version_uuid&#45;&gt;public.dataset_versions:uuid</title>
<path fill="none" stroke="#000000" d="M482.383,-997.0214C389.2757,-987.8027 442.5693,-847.4768 492.5,-757 573.4671,-610.2836 730.5329,-702.7164 811.5,-556 831.5784,-519.617 853.0556,-462.5 811.5,-462.5"/>
<polygon fill="#000000" stroke="#000000" points="482.5112,-997.0274 492.2873,-1001.995 487.5056,-997.2637 492.5,-997.5 492.5,-997.5 492.5,-997.5 487.5056,-997.2637 492.7127,-993.005 482.5112,-997.0274 482.5112,-997.0274"/>
<text text-anchor="start" x="138.5855" y="-1007.5" font-family="Arial" font-size="10.00" fill="#000000">FOREIGN KEY (dataset_version_uuid) REFERENCES dataset_versions(uuid)</text>
</g>
<!-- public.runs -->
<g id="node4" class="node">
<title>public.runs</title>
<polygon fill="#efefef" stroke="transparent" points="915.5,-642.5 915.5,-677.5 1266.5,-677.5 1266.5,-642.5 915.5,-642.5"/>
<polygon fill="none" stroke="#000000" points="915.5,-642.5 915.5,-677.5 1266.5,-677.5 1266.5,-642.5 915.5,-642.5"/>
<text text-anchor="start" x="983.7091" y="-655.3" font-family="Arial Bold" font-size="18.00" fill="#000000">public.runs</text>
<text text-anchor="start" x="1070.7229" y="-655.3" font-family="Arial" font-size="14.00" fill="#000000">    </text>
<text text-anchor="start" x="1104.9277" y="-655.3" font-family="Arial" font-size="14.00" fill="#666666">[BASE TABLE]</text>
<polygon fill="none" stroke="#000000" points="915.5,-612.5 915.5,-642.5 1266.5,-642.5 1266.5,-612.5 915.5,-612.5"/>
<text text-anchor="start" x="922.5" y="-623.9" font-family="Arial" font-size="14.00" fill="#000000">uuid    </text>
<text text-anchor="start" x="983.1592" y="-623.9" font-family="Arial" font-size="14.00" fill="#666666">[uuid]</text>
<polygon fill="none" stroke="#000000" points="915.5,-582.5 915.5,-612.5 1266.5,-612.5 1266.5,-582.5 915.5,-582.5"/>
<text text-anchor="start" x="922.5" y="-593.9" font-family="Arial" font-size="14.00" fill="#000000">created_at    </text>
<text text-anchor="start" x="1022.8422" y="-593.9" font-family="Arial" font-size="14.00" fill="#666666">[timestamp without time zone]</text>
<polygon fill="none" stroke="#000000" points="915.5,-552.5 915.5,-582.5 1266.5,-582.5 1266.5,-552.5 915.5,-552.5"/>
<text text-anchor="start" x="922.5" y="-563.9" font-family="Arial" font-size="14.00" fill="#000000">updated_at    </text>
<text text-anchor="start" x="1026.7468" y="-563.9" font-family="Arial" font-size="14.00" fill="#666666">[timestamp without time zone]</text>
<polygon fill="none" stroke="#000000" points="915.5,-522.5 915.5,-552.5 1266.5,-552.5 1266.5,-522.5 915.5,-522.5"/>
<text text-anchor="start" x="922.5" y="-533.9" font-family="Arial" font-size="14.00" fill="#000000">job_version_uuid    </text>
<text text-anchor="start" x="1062.5112" y="-533.9" font-family="Arial" font-size="14.00" fill="#666666">[uuid]</text>
<polygon fill="none" stroke="#000000" points="915.5,-492.5 915.5,-522.5 1266.5,-522.5 1266.5,-492.5 915.5,-492.5"/>
<text text-anchor="start" x="922.5" y="-503.9" font-family="Arial" font-size="14.00" fill="#000000">run_args_uuid    </text>
<text text-anchor="start" x="1046.176" y="-503.9" font-family="Arial" font-size="14.00" fill="#666666">[uuid]</text>
<polygon fill="none" stroke="#000000" points="915.5,-462.5 915.5,-492.5 1266.5,-492.5 1266.5,-462.5 915.5,-462.5"/>
<text text-anchor="start" x="922.2104" y="-473.9" font-family="Arial" font-size="14.00" fill="#000000">nominal_start_time    </text>
<text text-anchor="start" x="1074.6494" y="-473.9" font-family="Arial" font-size="14.00" fill="#666666">[timestamp without time zone]</text>
<polygon fill="none" stroke="#000000" points="915.5,-432.5 915.5,-462.5 1266.5,-462.5 1266.5,-432.5 915.5,-432.5"/>
<text text-anchor="start" x="922.5" y="-443.9" font-family="Arial" font-size="14.00" fill="#000000">nominal_end_time    </text>
<text text-anchor="start" x="1071.0624" y="-443.9" font-family="Arial" font-size="14.00" fill="#666666">[timestamp without time zone]</text>
<polygon fill="none" stroke="#000000" points="915.5,-402.5 915.5,-432.5 1266.5,-432.5 1266.5,-402.5 915.5,-402.5"/>
<text text-anchor="start" x="922.5" y="-413.9" font-family="Arial" font-size="14.00" fill="#000000">current_run_state    </text>
<text text-anchor="start" x="1066.4018" y="-413.9" font-family="Arial" font-size="14.00" fill="#666666">[varchar(64)]</text>
<polygon fill="none" stroke="#000000" points="915.5,-372.5 915.5,-402.5 1266.5,-402.5 1266.5,-372.5 915.5,-372.5"/>
<text text-anchor="start" x="922.5" y="-383.9" font-family="Arial" font-size="14.00" fill="#000000">start_run_state_uuid    </text>
<text text-anchor="start" x="1084.3036" y="-383.9" font-family="Arial" font-size="14.00" fill="#666666">[uuid]</text>
<polygon fill="none" stroke="#000000" points="915.5,-342.5 915.5,-372.5 1266.5,-372.5 1266.5,-342.5 915.5,-342.5"/>
<text text-anchor="start" x="922.5" y="-353.9" font-family="Arial" font-size="14.00" fill="#000000">end_run_state_uuid    </text>
<text text-anchor="start" x="1080.427" y="-353.9" font-family="Arial" font-size="14.00" fill="#666666">[uuid]</text>
<polygon fill="none" stroke="#000000" points="915.5,-312.5 915.5,-342.5 1266.5,-342.5 1266.5,-312.5 915.5,-312.5"/>
<text text-anchor="start" x="922.5" y="-323.9" font-family="Arial" font-size="14.00" fill="#000000">external_id    </text>
<text text-anchor="start" x="1025.1648" y="-323.9" font-family="Arial" font-size="14.00" fill="#666666">[varchar]</text>
<polygon fill="none" stroke="#000000" points="915.5,-282.5 915.5,-312.5 1266.5,-312.5 1266.5,-282.5 915.5,-282.5"/>
<text text-anchor="start" x="922.5" y="-293.9" font-family="Arial" font-size="14.00" fill="#000000">namespace_name    </text>
<text text-anchor="start" x="1071.852" y="-293.9" font-family="Arial" font-size="14.00" fill="#666666">[varchar]</text>
<polygon fill="none" stroke="#000000" points="915.5,-252.5 915.5,-282.5 1266.5,-282.5 1266.5,-252.5 915.5,-252.5"/>
<text text-anchor="start" x="922.5" y="-263.9" font-family="Arial" font-size="14.00" fill="#000000">job_name    </text>
<text text-anchor="start" x="1018.1676" y="-263.9" font-family="Arial" font-size="14.00" fill="#666666">[varchar]</text>
<polygon fill="none" stroke="#000000" points="915.5,-222.5 915.5,-252.5 1266.5,-252.5 1266.5,-222.5 915.5,-222.5"/>
<text text-anchor="start" x="922.5" y="-233.9" font-family="Arial" font-size="14.00" fill="#000000">location    </text>
<text text-anchor="start" x="1004.939" y="-233.9" font-family="Arial" font-size="14.00" fill="#666666">[varchar]</text>
<polygon fill="none" stroke="#000000" points="915.5,-192.5 915.5,-222.5 1266.5,-222.5 1266.5,-192.5 915.5,-192.5"/>
<text text-anchor="start" x="922.5" y="-203.9" font-family="Arial" font-size="14.00" fill="#000000">transitioned_at    </text>
<text text-anchor="start" x="1048.5112" y="-203.9" font-family="Arial" font-size="14.00" fill="#666666">[timestamp without time zone]</text>
<polygon fill="none" stroke="#000000" points="915.5,-162.5 915.5,-192.5 1266.5,-192.5 1266.5,-162.5 915.5,-162.5"/>
<text text-anchor="start" x="922.5" y="-173.9" font-family="Arial" font-size="14.00" fill="#000000">started_at    </text>
<text text-anchor="start" x="1018.9502" y="-173.9" font-family="Arial" font-size="14.00" fill="#666666">[timestamp without time zone]</text>
<polygon fill="none" stroke="#000000" points="915.5,-132.5 915.5,-162.5 1266.5,-162.5 1266.5,-132.5 915.5,-132.5"/>
<text text-anchor="start" x="922.5" y="-143.9" font-family="Arial" font-size="14.00" fill="#000000">ended_at    </text>
<text text-anchor="start" x="1015.0736" y="-143.9" font-family="Arial" font-size="14.00" fill="#666666">[timestamp without time zone]</text>
<polygon fill="none" stroke="#000000" points="915.5,-102.5 915.5,-132.5 1266.5,-132.5 1266.5,-102.5 915.5,-102.5"/>
<text text-anchor="start" x="922.5" y="-113.9" font-family="Arial" font-size="14.00" fill="#000000">job_context_uuid    </text>
<text text-anchor="start" x="1062.5252" y="-113.9" font-family="Arial" font-size="14.00" fill="#666666">[uuid]</text>
<polygon fill="none" stroke="#000000" points="915.5,-72.5 915.5,-102.5 1266.5,-102.5 1266.5,-72.5 915.5,-72.5"/>
<text text-anchor="start" x="922.5" y="-83.9" font-family="Arial" font-size="14.00" fill="#000000">parent_run_uuid    </text>
<text text-anchor="start" x="1058.6318" y="-83.9" font-family="Arial" font-size="14.00" fill="#666666">[uuid]</text>
<polygon fill="none" stroke="#000000" points="915.5,-42.5 915.5,-72.5 1266.5,-72.5 1266.5,-42.5 915.5,-42.5"/>
<text text-anchor="start" x="922.5" y="-53.9" font-family="Arial" font-size="14.00" fill="#000000">job_uuid    </text>
<text text-anchor="start" x="1009.6136" y="-53.9" font-family="Arial" font-size="14.00" fill="#666666">[uuid]</text>
</g>
<!-- public.dataset_facets&#45;&gt;public.runs -->
<g id="edge3" class="edge">
<title>public.dataset_facets:run_uuid&#45;&gt;public.runs:uuid</title>
<path fill="none" stroke="#000000" d="M812.4908,-965.5033C878.2189,-937.6392 839.4575,-627.5 915.5,-627.5"/>
<polygon fill="#000000" stroke="#000000" points="812.3061,-965.5401 801.6181,-963.0873 807.403,-966.5201 802.5,-967.5 802.5,-967.5 802.5,-967.5 807.403,-966.5201 803.3819,-971.9127 812.3061,-965.5401 812.3061,-965.5401"/>
<text text-anchor="start" x="809.7165" y="-977.5" font-family="Arial" font-size="10.00" fill="#000000">FOREIGN KEY (run_uuid) REFERENCES runs(uuid)</text>
</g>
</g>
</svg>
