<?xml version="1.0" encoding="UTF-8" standalone="no"?>
<!DOCTYPE svg PUBLIC "-//W3C//DTD SVG 1.1//EN"
 "http://www.w3.org/Graphics/SVG/1.1/DTD/svg11.dtd">
<!-- Generated by graphviz version 2.40.1 (20161225.0304)
 -->
<!-- Title: public.dataset_fields_tag_mapping Pages: 1 -->
<svg width="1008pt" height="592pt"
 viewBox="0.00 0.00 1008.00 592.00" xmlns="http://www.w3.org/2000/svg" xmlns:xlink="http://www.w3.org/1999/xlink">
<g id="graph0" class="graph" transform="scale(1 1) rotate(0) translate(4 588)">
<title>public.dataset_fields_tag_mapping</title>
<polygon fill="#ffffff" stroke="transparent" points="-4,4 -4,-588 1004,-588 1004,4 -4,4"/>
<!-- public.dataset_fields_tag_mapping -->
<g id="node1" class="node">
<title>public.dataset_fields_tag_mapping</title>
<polygon fill="#efefef" stroke="transparent" points="334,-502.5 334,-537.5 752,-537.5 752,-502.5 334,-502.5"/>
<polygon fill="none" stroke="#000000" points="334,-502.5 334,-537.5 752,-537.5 752,-502.5 334,-502.5"/>
<text text-anchor="start" x="340.67" y="-515.3" font-family="Arial Bold" font-size="18.00" fill="#000000">public.dataset_fields_tag_mapping</text>
<text text-anchor="start" x="617.762" y="-515.3" font-family="Arial" font-size="14.00" fill="#000000">    </text>
<text text-anchor="start" x="651.9668" y="-515.3" font-family="Arial" font-size="14.00" fill="#666666">[BASE TABLE]</text>
<polygon fill="none" stroke="#000000" points="334,-472.5 334,-502.5 752,-502.5 752,-472.5 334,-472.5"/>
<text text-anchor="start" x="341" y="-483.9" font-family="Arial" font-size="14.00" fill="#000000">dataset_field_uuid </text>
<text text-anchor="start" x="458.4908" y="-483.9" font-family="Arial" font-size="14.00" fill="#666666">[uuid]</text>
<polygon fill="none" stroke="#000000" points="334,-442.5 334,-472.5 752,-472.5 752,-442.5 334,-442.5"/>
<text text-anchor="start" x="341" y="-453.9" font-family="Arial" font-size="14.00" fill="#000000">tag_uuid </text>
<text text-anchor="start" x="398.5834" y="-453.9" font-family="Arial" font-size="14.00" fill="#666666">[uuid]</text>
<polygon fill="none" stroke="#000000" points="334,-412.5 334,-442.5 752,-442.5 752,-412.5 334,-412.5"/>
<text text-anchor="start" x="341" y="-423.9" font-family="Arial" font-size="14.00" fill="#000000">tagged_at </text>
<text text-anchor="start" x="407.15" y="-423.9" font-family="Arial" font-size="14.00" fill="#666666">[timestamp without time zone]</text>
<polygon fill="none" stroke="#000000" stroke-width="3" points="332.5,-411.5 332.5,-539.5 753.5,-539.5 753.5,-411.5 332.5,-411.5"/>
</g>
<!-- public.dataset_fields -->
<g id="node2" class="node">
<title>public.dataset_fields</title>
<polygon fill="#efefef" stroke="transparent" points="187,-252.5 187,-287.5 491,-287.5 491,-252.5 187,-252.5"/>
<polygon fill="none" stroke="#000000" points="187,-252.5 187,-287.5 491,-287.5 491,-252.5 187,-252.5"/>
<text text-anchor="start" x="193.6922" y="-265.3" font-family="Arial Bold" font-size="18.00" fill="#000000">public.dataset_fields</text>
<text text-anchor="start" x="356.7398" y="-265.3" font-family="Arial" font-size="14.00" fill="#000000">    </text>
<text text-anchor="start" x="390.9446" y="-265.3" font-family="Arial" font-size="14.00" fill="#666666">[BASE TABLE]</text>
<polygon fill="none" stroke="#000000" points="187,-222.5 187,-252.5 491,-252.5 491,-222.5 187,-222.5"/>
<text text-anchor="start" x="194" y="-233.9" font-family="Arial" font-size="14.00" fill="#000000">uuid    </text>
<text text-anchor="start" x="254.6592" y="-233.9" font-family="Arial" font-size="14.00" fill="#666666">[uuid]</text>
<polygon fill="none" stroke="#000000" points="187,-192.5 187,-222.5 491,-222.5 491,-192.5 187,-192.5"/>
<text text-anchor="start" x="194" y="-203.9" font-family="Arial" font-size="14.00" fill="#000000">type    </text>
<text text-anchor="start" x="254.6606" y="-203.9" font-family="Arial" font-size="14.00" fill="#666666">[text]</text>
<polygon fill="none" stroke="#000000" points="187,-162.5 187,-192.5 491,-192.5 491,-162.5 187,-162.5"/>
<text text-anchor="start" x="194" y="-173.9" font-family="Arial" font-size="14.00" fill="#000000">created_at    </text>
<text text-anchor="start" x="294.3422" y="-173.9" font-family="Arial" font-size="14.00" fill="#666666">[timestamp without time zone]</text>
<polygon fill="none" stroke="#000000" points="187,-132.5 187,-162.5 491,-162.5 491,-132.5 187,-132.5"/>
<text text-anchor="start" x="194" y="-143.9" font-family="Arial" font-size="14.00" fill="#000000">updated_at    </text>
<text text-anchor="start" x="298.2468" y="-143.9" font-family="Arial" font-size="14.00" fill="#666666">[timestamp without time zone]</text>
<polygon fill="none" stroke="#000000" points="187,-102.5 187,-132.5 491,-132.5 491,-102.5 187,-102.5"/>
<text text-anchor="start" x="194" y="-113.9" font-family="Arial" font-size="14.00" fill="#000000">dataset_uuid    </text>
<text text-anchor="start" x="308.3534" y="-113.9" font-family="Arial" font-size="14.00" fill="#666666">[uuid]</text>
<polygon fill="none" stroke="#000000" points="187,-72.5 187,-102.5 491,-102.5 491,-72.5 187,-72.5"/>
<text text-anchor="start" x="194" y="-83.9" font-family="Arial" font-size="14.00" fill="#000000">name    </text>
<text text-anchor="start" x="263.2132" y="-83.9" font-family="Arial" font-size="14.00" fill="#666666">[varchar(255)]</text>
<polygon fill="none" stroke="#000000" points="187,-42.5 187,-72.5 491,-72.5 491,-42.5 187,-42.5"/>
<text text-anchor="start" x="194" y="-53.9" font-family="Arial" font-size="14.00" fill="#000000">description    </text>
<text text-anchor="start" x="295.8822" y="-53.9" font-family="Arial" font-size="14.00" fill="#666666">[text]</text>
</g>
<!-- public.dataset_fields_tag_mapping&#45;&gt;public.dataset_fields -->
<g id="edge1" class="edge">
<title>public.dataset_fields_tag_mapping:dataset_field_uuid&#45;&gt;public.dataset_fields:uuid</title>
<path fill="none" stroke="#000000" d="M324.0314,-486.4348C283.2658,-476.9239 302.9108,-406.0247 334,-367 378.6067,-311.0073 446.3933,-386.9927 491,-331 516.8932,-298.4976 532.5556,-237.5 491,-237.5"/>
<polygon fill="#000000" stroke="#000000" points="324.0566,-486.4374 333.5218,-491.9745 329.0283,-486.9687 334,-487.5 334,-487.5 334,-487.5 329.0283,-486.9687 334.4782,-483.0255 324.0566,-486.4374 324.0566,-486.4374"/>
<text text-anchor="start" x="6.9755" y="-497.5" font-family="Arial" font-size="10.00" fill="#000000">FOREIGN KEY (dataset_field_uuid) REFERENCES dataset_fields(uuid)</text>
</g>
<!-- public.tags -->
<g id="node3" class="node">
<title>public.tags</title>
<polygon fill="#efefef" stroke="transparent" points="596,-222.5 596,-257.5 899,-257.5 899,-222.5 596,-222.5"/>
<polygon fill="none" stroke="#000000" points="596,-222.5 596,-257.5 899,-257.5 899,-222.5 596,-222.5"/>
<text text-anchor="start" x="640.7041" y="-235.3" font-family="Arial Bold" font-size="18.00" fill="#000000">public.tags</text>
<text text-anchor="start" x="726.7279" y="-235.3" font-family="Arial" font-size="14.00" fill="#000000">    </text>
<text text-anchor="start" x="760.9327" y="-235.3" font-family="Arial" font-size="14.00" fill="#666666">[BASE TABLE]</text>
<polygon fill="none" stroke="#000000" points="596,-192.5 596,-222.5 899,-222.5 899,-192.5 596,-192.5"/>
<text text-anchor="start" x="603" y="-203.9" font-family="Arial" font-size="14.00" fill="#000000">uuid    </text>
<text text-anchor="start" x="663.6592" y="-203.9" font-family="Arial" font-size="14.00" fill="#666666">[uuid]</text>
<polygon fill="none" stroke="#000000" points="596,-162.5 596,-192.5 899,-192.5 899,-162.5 596,-162.5"/>
<text text-anchor="start" x="603" y="-173.9" font-family="Arial" font-size="14.00" fill="#000000">created_at    </text>
<text text-anchor="start" x="703.3422" y="-173.9" font-family="Arial" font-size="14.00" fill="#666666">[timestamp without time zone]</text>
<polygon fill="none" stroke="#000000" points="596,-132.5 596,-162.5 899,-162.5 899,-132.5 596,-132.5"/>
<text text-anchor="start" x="602.8065" y="-143.9" font-family="Arial" font-size="14.00" fill="#000000">updated_at    </text>
<text text-anchor="start" x="707.0533" y="-143.9" font-family="Arial" font-size="14.00" fill="#666666">[timestamp without time zone]</text>
<polygon fill="none" stroke="#000000" points="596,-102.5 596,-132.5 899,-132.5 899,-102.5 596,-102.5"/>
<text text-anchor="start" x="603" y="-113.9" font-family="Arial" font-size="14.00" fill="#000000">name    </text>
<text text-anchor="start" x="672.2132" y="-113.9" font-family="Arial" font-size="14.00" fill="#666666">[varchar]</text>
<polygon fill="none" stroke="#000000" points="596,-72.5 596,-102.5 899,-102.5 899,-72.5 596,-72.5"/>
<text text-anchor="start" x="603" y="-83.9" font-family="Arial" font-size="14.00" fill="#000000">description    </text>
<text text-anchor="start" x="704.8822" y="-83.9" font-family="Arial" font-size="14.00" fill="#666666">[text]</text>
</g>
<!-- public.dataset_fields_tag_mapping&#45;&gt;public.tags -->
<g id="edge2" class="edge">
<title>public.dataset_fields_tag_mapping:tag_uuid&#45;&gt;public.tags:uuid</title>
<path fill="none" stroke="#000000" d="M762.1683,-455.9449C788.6659,-446.5962 772.0501,-397.2534 752,-367 710.4112,-304.2471 637.5888,-363.7529 596,-301 573.0434,-266.361 554.4444,-207.5 596,-207.5"/>
<polygon fill="#000000" stroke="#000000" points="761.8851,-455.9881 751.3197,-453.0517 756.9425,-456.7441 752,-457.5 752,-457.5 752,-457.5 756.9425,-456.7441 752.6803,-461.9483 761.8851,-455.9881 761.8851,-455.9881"/>
<text text-anchor="start" x="758.7665" y="-467.5" font-family="Arial" font-size="10.00" fill="#000000">FOREIGN KEY (tag_uuid) REFERENCES tags(uuid)</text>
</g>
</g>
</svg>
