<?xml version="1.0" encoding="UTF-8" standalone="no"?>
<!DOCTYPE svg PUBLIC "-//W3C//DTD SVG 1.1//EN"
 "http://www.w3.org/Graphics/SVG/1.1/DTD/svg11.dtd">
<!-- Generated by graphviz version 2.40.1 (20161225.0304)
 -->
<!-- Title: public.jobs Pages: 1 -->
<svg width="891pt" height="1529pt"
 viewBox="0.00 0.00 890.50 1529.00" xmlns="http://www.w3.org/2000/svg" xmlns:xlink="http://www.w3.org/1999/xlink">
<g id="graph0" class="graph" transform="scale(1 1) rotate(0) translate(4 1525)">
<title>public.jobs</title>
<polygon fill="#ffffff" stroke="transparent" points="-4,4 -4,-1525 886.5,-1525 886.5,4 -4,4"/>
<!-- public.jobs -->
<g id="node1" class="node">
<title>public.jobs</title>
<polygon fill="#efefef" stroke="transparent" points="324,-952.5 324,-987.5 597,-987.5 597,-952.5 324,-952.5"/>
<polygon fill="none" stroke="#000000" points="324,-952.5 324,-987.5 597,-987.5 597,-952.5 324,-952.5"/>
<text text-anchor="start" x="354.2081" y="-965.3" font-family="Arial Bold" font-size="18.00" fill="#000000">public.jobs</text>
<text text-anchor="start" x="439.2239" y="-965.3" font-family="Arial" font-size="14.00" fill="#000000">    </text>
<text text-anchor="start" x="473.4287" y="-965.3" font-family="Arial" font-size="14.00" fill="#666666">[BASE TABLE]</text>
<polygon fill="none" stroke="#000000" points="324,-922.5 324,-952.5 597,-952.5 597,-922.5 324,-922.5"/>
<text text-anchor="start" x="331" y="-933.9" font-family="Arial" font-size="14.00" fill="#000000">uuid </text>
<text text-anchor="start" x="361.345" y="-933.9" font-family="Arial" font-size="14.00" fill="#666666">[uuid]</text>
<polygon fill="none" stroke="#000000" points="324,-892.5 324,-922.5 597,-922.5 597,-892.5 324,-892.5"/>
<text text-anchor="start" x="331" y="-903.9" font-family="Arial" font-size="14.00" fill="#000000">type </text>
<text text-anchor="start" x="361.3464" y="-903.9" font-family="Arial" font-size="14.00" fill="#666666">[varchar(64)]</text>
<polygon fill="none" stroke="#000000" points="324,-862.5 324,-892.5 597,-892.5 597,-862.5 324,-862.5"/>
<text text-anchor="start" x="331" y="-873.9" font-family="Arial" font-size="14.00" fill="#000000">created_at </text>
<text text-anchor="start" x="401.028" y="-873.9" font-family="Arial" font-size="14.00" fill="#666666">[timestamp without time zone]</text>
<polygon fill="none" stroke="#000000" points="324,-832.5 324,-862.5 597,-862.5 597,-832.5 324,-832.5"/>
<text text-anchor="start" x="330.9636" y="-843.9" font-family="Arial" font-size="14.00" fill="#000000">updated_at </text>
<text text-anchor="start" x="404.8962" y="-843.9" font-family="Arial" font-size="14.00" fill="#666666">[timestamp without time zone]</text>
<polygon fill="none" stroke="#000000" points="324,-802.5 324,-832.5 597,-832.5 597,-802.5 324,-802.5"/>
<text text-anchor="start" x="331" y="-813.9" font-family="Arial" font-size="14.00" fill="#000000">namespace_uuid </text>
<text text-anchor="start" x="441.4838" y="-813.9" font-family="Arial" font-size="14.00" fill="#666666">[uuid]</text>
<polygon fill="none" stroke="#000000" points="324,-772.5 324,-802.5 597,-802.5 597,-772.5 324,-772.5"/>
<text text-anchor="start" x="331" y="-783.9" font-family="Arial" font-size="14.00" fill="#000000">simple_name </text>
<text text-anchor="start" x="418.1206" y="-783.9" font-family="Arial" font-size="14.00" fill="#666666">[varchar]</text>
<polygon fill="none" stroke="#000000" points="324,-742.5 324,-772.5 597,-772.5 597,-742.5 324,-742.5"/>
<text text-anchor="start" x="331" y="-753.9" font-family="Arial" font-size="14.00" fill="#000000">description </text>
<text text-anchor="start" x="402.568" y="-753.9" font-family="Arial" font-size="14.00" fill="#666666">[text]</text>
<polygon fill="none" stroke="#000000" points="324,-712.5 324,-742.5 597,-742.5 597,-712.5 324,-712.5"/>
<text text-anchor="start" x="331" y="-723.9" font-family="Arial" font-size="14.00" fill="#000000">current_version_uuid </text>
<text text-anchor="start" x="465.5848" y="-723.9" font-family="Arial" font-size="14.00" fill="#666666">[uuid]</text>
<polygon fill="none" stroke="#000000" points="324,-682.5 324,-712.5 597,-712.5 597,-682.5 324,-682.5"/>
<text text-anchor="start" x="331" y="-693.9" font-family="Arial" font-size="14.00" fill="#000000">namespace_name </text>
<text text-anchor="start" x="450.0378" y="-693.9" font-family="Arial" font-size="14.00" fill="#666666">[varchar]</text>
<polygon fill="none" stroke="#000000" points="324,-652.5 324,-682.5 597,-682.5 597,-652.5 324,-652.5"/>
<text text-anchor="start" x="331" y="-663.9" font-family="Arial" font-size="14.00" fill="#000000">current_job_context_uuid </text>
<text text-anchor="start" x="492.0532" y="-663.9" font-family="Arial" font-size="14.00" fill="#666666">[uuid]</text>
<polygon fill="none" stroke="#000000" points="324,-622.5 324,-652.5 597,-652.5 597,-622.5 324,-622.5"/>
<text text-anchor="start" x="331" y="-633.9" font-family="Arial" font-size="14.00" fill="#000000">current_location </text>
<text text-anchor="start" x="434.467" y="-633.9" font-family="Arial" font-size="14.00" fill="#666666">[varchar]</text>
<polygon fill="none" stroke="#000000" points="324,-592.5 324,-622.5 597,-622.5 597,-592.5 324,-592.5"/>
<text text-anchor="start" x="331" y="-603.9" font-family="Arial" font-size="14.00" fill="#000000">current_inputs </text>
<text text-anchor="start" x="423.5778" y="-603.9" font-family="Arial" font-size="14.00" fill="#666666">[jsonb]</text>
<polygon fill="none" stroke="#000000" points="324,-562.5 324,-592.5 597,-592.5 597,-562.5 324,-562.5"/>
<text text-anchor="start" x="331" y="-573.9" font-family="Arial" font-size="14.00" fill="#000000">symlink_target_uuid </text>
<text text-anchor="start" x="459.3562" y="-573.9" font-family="Arial" font-size="14.00" fill="#666666">[uuid]</text>
<polygon fill="none" stroke="#000000" points="324,-532.5 324,-562.5 597,-562.5 597,-532.5 324,-532.5"/>
<text text-anchor="start" x="331" y="-543.9" font-family="Arial" font-size="14.00" fill="#000000">parent_job_uuid </text>
<text text-anchor="start" x="435.2636" y="-543.9" font-family="Arial" font-size="14.00" fill="#666666">[uuid]</text>
<polygon fill="none" stroke="#000000" points="324,-502.5 324,-532.5 597,-532.5 597,-502.5 324,-502.5"/>
<text text-anchor="start" x="331" y="-513.9" font-family="Arial" font-size="14.00" fill="#000000">parent_job_uuid_string </text>
<text text-anchor="start" x="477.2692" y="-513.9" font-family="Arial" font-size="14.00" fill="#666666">[character(36)]</text>
<polygon fill="none" stroke="#000000" points="324,-472.5 324,-502.5 597,-502.5 597,-472.5 324,-472.5"/>
<text text-anchor="start" x="331" y="-483.9" font-family="Arial" font-size="14.00" fill="#000000">is_hidden </text>
<text text-anchor="start" x="394.7994" y="-483.9" font-family="Arial" font-size="14.00" fill="#666666">[boolean]</text>
<polygon fill="none" stroke="#000000" points="324,-442.5 324,-472.5 597,-472.5 597,-442.5 324,-442.5"/>
<text text-anchor="start" x="331" y="-453.9" font-family="Arial" font-size="14.00" fill="#000000">name </text>
<text text-anchor="start" x="369.899" y="-453.9" font-family="Arial" font-size="14.00" fill="#666666">[varchar]</text>
<polygon fill="none" stroke="#000000" points="324,-412.5 324,-442.5 597,-442.5 597,-412.5 324,-412.5"/>
<text text-anchor="start" x="331" y="-423.9" font-family="Arial" font-size="14.00" fill="#000000">aliases </text>
<text text-anchor="start" x="378.4516" y="-423.9" font-family="Arial" font-size="14.00" fill="#666666">[varchar[]]</text>
<polygon fill="none" stroke="#000000" stroke-width="3" points="322,-411.5 322,-989.5 598,-989.5 598,-411.5 322,-411.5"/>
</g>
<!-- public.jobs&#45;&gt;public.jobs -->
<g id="edge1" class="edge">
<title>public.jobs:parent_job_uuid&#45;&gt;public.jobs:uuid</title>
<path fill="none" stroke="#000000" d="M462.0283,-572.9241C469.9858,-790.6842 469.6431,-1301 461,-1301 452.2461,-1301 452.0067,-1132.6013 460.2819,-952.6965"/>
<polygon fill="#000000" stroke="#000000" points="462.0226,-572.7718 466.1398,-562.6082 461.8328,-567.7754 461.6431,-562.779 461.6431,-562.779 461.6431,-562.779 461.8328,-567.7754 457.1463,-562.9497 462.0226,-572.7718 462.0226,-572.7718"/>
<text text-anchor="start" x="469.0181" y="-572.779" font-family="Arial" font-size="10.00" fill="#000000">FOREIGN KEY (parent_job_uuid) REFERENCES jobs(uuid)</text>
</g>
<!-- public.jobs&#45;&gt;public.jobs -->
<g id="edge2" class="edge">
<title>public.jobs:symlink_target_uuid&#45;&gt;public.jobs:uuid</title>
<path fill="none" stroke="#000000" d="M462.0283,-602.7863C469.9858,-818.3519 469.6431,-1301 461,-1301 452.2461,-1301 452.0067,-1132.6013 460.2819,-952.6965"/>
<polygon fill="#000000" stroke="#000000" points="462.0258,-602.7189 466.1398,-592.554 461.8344,-597.7225 461.6431,-592.7262 461.6431,-592.7262 461.6431,-592.7262 461.8344,-597.7225 457.1464,-592.8984 462.0258,-602.7189 462.0258,-602.7189"/>
<text text-anchor="start" x="468.4136" y="-602.7262" font-family="Arial" font-size="10.00" fill="#000000">FOREIGN KEY (symlink_target_uuid) REFERENCES jobs(uuid)</text>
</g>
<!-- public.namespaces -->
<g id="node4" class="node">
<title>public.namespaces</title>
<polygon fill="#efefef" stroke="transparent" points="309,-252.5 309,-287.5 612,-287.5 612,-252.5 309,-252.5"/>
<polygon fill="none" stroke="#000000" points="309,-252.5 309,-287.5 612,-287.5 612,-252.5 309,-252.5"/>
<text text-anchor="start" x="319.6967" y="-265.3" font-family="Arial Bold" font-size="18.00" fill="#000000">public.namespaces</text>
<text text-anchor="start" x="473.7353" y="-265.3" font-family="Arial" font-size="14.00" fill="#000000">    </text>
<text text-anchor="start" x="507.9401" y="-265.3" font-family="Arial" font-size="14.00" fill="#666666">[BASE TABLE]</text>
<polygon fill="none" stroke="#000000" points="309,-222.5 309,-252.5 612,-252.5 612,-222.5 309,-222.5"/>
<text text-anchor="start" x="316" y="-233.9" font-family="Arial" font-size="14.00" fill="#000000">uuid    </text>
<text text-anchor="start" x="376.6592" y="-233.9" font-family="Arial" font-size="14.00" fill="#666666">[uuid]</text>
<polygon fill="none" stroke="#000000" points="309,-192.5 309,-222.5 612,-222.5 612,-192.5 309,-192.5"/>
<text text-anchor="start" x="316" y="-203.9" font-family="Arial" font-size="14.00" fill="#000000">created_at    </text>
<text text-anchor="start" x="416.3422" y="-203.9" font-family="Arial" font-size="14.00" fill="#666666">[timestamp without time zone]</text>
<polygon fill="none" stroke="#000000" points="309,-162.5 309,-192.5 612,-192.5 612,-162.5 309,-162.5"/>
<text text-anchor="start" x="315.8065" y="-173.9" font-family="Arial" font-size="14.00" fill="#000000">updated_at    </text>
<text text-anchor="start" x="420.0533" y="-173.9" font-family="Arial" font-size="14.00" fill="#666666">[timestamp without time zone]</text>
<polygon fill="none" stroke="#000000" points="309,-132.5 309,-162.5 612,-162.5 612,-132.5 309,-132.5"/>
<text text-anchor="start" x="316" y="-143.9" font-family="Arial" font-size="14.00" fill="#000000">name    </text>
<text text-anchor="start" x="385.2132" y="-143.9" font-family="Arial" font-size="14.00" fill="#666666">[varchar]</text>
<polygon fill="none" stroke="#000000" points="309,-102.5 309,-132.5 612,-132.5 612,-102.5 309,-102.5"/>
<text text-anchor="start" x="316" y="-113.9" font-family="Arial" font-size="14.00" fill="#000000">description    </text>
<text text-anchor="start" x="417.8822" y="-113.9" font-family="Arial" font-size="14.00" fill="#666666">[text]</text>
<polygon fill="none" stroke="#000000" points="309,-72.5 309,-102.5 612,-102.5 612,-72.5 309,-72.5"/>
<text text-anchor="start" x="316" y="-83.9" font-family="Arial" font-size="14.00" fill="#000000">current_owner_name    </text>
<text text-anchor="start" x="482.453" y="-83.9" font-family="Arial" font-size="14.00" fill="#666666">[varchar(64)]</text>
<polygon fill="none" stroke="#000000" points="309,-42.5 309,-72.5 612,-72.5 612,-42.5 309,-42.5"/>
<text text-anchor="start" x="316" y="-53.9" font-family="Arial" font-size="14.00" fill="#000000">is_hidden    </text>
<text text-anchor="start" x="410.1136" y="-53.9" font-family="Arial" font-size="14.00" fill="#666666">[boolean]</text>
</g>
<!-- public.jobs&#45;&gt;public.namespaces -->
<g id="edge5" class="edge">
<title>public.jobs:namespace_uuid&#45;&gt;public.namespaces:uuid</title>
<path fill="none" stroke="#000000" d="M313.928,-817.2002C65.7879,-802.3078 54.5356,-237.5 309,-237.5"/>
<polygon fill="#000000" stroke="#000000" points="314.0044,-817.2024 323.8661,-821.998 319.0022,-817.3512 324,-817.5 324,-817.5 324,-817.5 319.0022,-817.3512 324.1339,-813.002 314.0044,-817.2024 314.0044,-817.2024"/>
<text text-anchor="start" x="6.9805" y="-827.5" font-family="Arial" font-size="10.00" fill="#000000">FOREIGN KEY (namespace_uuid) REFERENCES namespaces(uuid)</text>
</g>
<!-- public.job_versions -->
<g id="node2" class="node">
<title>public.job_versions</title>
<polygon fill="#efefef" stroke="transparent" points="98,-1442.5 98,-1477.5 401,-1477.5 401,-1442.5 98,-1442.5"/>
<polygon fill="none" stroke="#000000" points="98,-1442.5 98,-1477.5 401,-1477.5 401,-1442.5 98,-1442.5"/>
<text text-anchor="start" x="109.2025" y="-1455.3" font-family="Arial Bold" font-size="18.00" fill="#000000">public.job_versions</text>
<text text-anchor="start" x="262.2295" y="-1455.3" font-family="Arial" font-size="14.00" fill="#000000">    </text>
<text text-anchor="start" x="296.4343" y="-1455.3" font-family="Arial" font-size="14.00" fill="#666666">[BASE TABLE]</text>
<polygon fill="none" stroke="#000000" points="98,-1412.5 98,-1442.5 401,-1442.5 401,-1412.5 98,-1412.5"/>
<text text-anchor="start" x="105" y="-1423.9" font-family="Arial" font-size="14.00" fill="#000000">uuid    </text>
<text text-anchor="start" x="165.6592" y="-1423.9" font-family="Arial" font-size="14.00" fill="#666666">[uuid]</text>
<polygon fill="none" stroke="#000000" points="98,-1382.5 98,-1412.5 401,-1412.5 401,-1382.5 98,-1382.5"/>
<text text-anchor="start" x="105" y="-1393.9" font-family="Arial" font-size="14.00" fill="#000000">created_at    </text>
<text text-anchor="start" x="205.3422" y="-1393.9" font-family="Arial" font-size="14.00" fill="#666666">[timestamp without time zone]</text>
<polygon fill="none" stroke="#000000" points="98,-1352.5 98,-1382.5 401,-1382.5 401,-1352.5 98,-1352.5"/>
<text text-anchor="start" x="104.8065" y="-1363.9" font-family="Arial" font-size="14.00" fill="#000000">updated_at    </text>
<text text-anchor="start" x="209.0533" y="-1363.9" font-family="Arial" font-size="14.00" fill="#666666">[timestamp without time zone]</text>
<polygon fill="none" stroke="#000000" points="98,-1322.5 98,-1352.5 401,-1352.5 401,-1322.5 98,-1322.5"/>
<text text-anchor="start" x="105" y="-1333.9" font-family="Arial" font-size="14.00" fill="#000000">job_uuid    </text>
<text text-anchor="start" x="192.1136" y="-1333.9" font-family="Arial" font-size="14.00" fill="#666666">[uuid]</text>
<polygon fill="none" stroke="#000000" points="98,-1292.5 98,-1322.5 401,-1322.5 401,-1292.5 98,-1292.5"/>
<text text-anchor="start" x="105" y="-1303.9" font-family="Arial" font-size="14.00" fill="#000000">version    </text>
<text text-anchor="start" x="184.3198" y="-1303.9" font-family="Arial" font-size="14.00" fill="#666666">[uuid]</text>
<polygon fill="none" stroke="#000000" points="98,-1262.5 98,-1292.5 401,-1292.5 401,-1262.5 98,-1262.5"/>
<text text-anchor="start" x="105" y="-1273.9" font-family="Arial" font-size="14.00" fill="#000000">location    </text>
<text text-anchor="start" x="187.439" y="-1273.9" font-family="Arial" font-size="14.00" fill="#666666">[varchar(255)]</text>
<polygon fill="none" stroke="#000000" points="98,-1232.5 98,-1262.5 401,-1262.5 401,-1232.5 98,-1232.5"/>
<text text-anchor="start" x="105" y="-1243.9" font-family="Arial" font-size="14.00" fill="#000000">latest_run_uuid    </text>
<text text-anchor="start" x="234.9032" y="-1243.9" font-family="Arial" font-size="14.00" fill="#666666">[uuid]</text>
<polygon fill="none" stroke="#000000" points="98,-1202.5 98,-1232.5 401,-1232.5 401,-1202.5 98,-1202.5"/>
<text text-anchor="start" x="105" y="-1213.9" font-family="Arial" font-size="14.00" fill="#000000">job_context_uuid    </text>
<text text-anchor="start" x="245.0252" y="-1213.9" font-family="Arial" font-size="14.00" fill="#666666">[uuid]</text>
<polygon fill="none" stroke="#000000" points="98,-1172.5 98,-1202.5 401,-1202.5 401,-1172.5 98,-1172.5"/>
<text text-anchor="start" x="105" y="-1183.9" font-family="Arial" font-size="14.00" fill="#000000">namespace_uuid    </text>
<text text-anchor="start" x="245.798" y="-1183.9" font-family="Arial" font-size="14.00" fill="#666666">[uuid]</text>
<polygon fill="none" stroke="#000000" points="98,-1142.5 98,-1172.5 401,-1172.5 401,-1142.5 98,-1142.5"/>
<text text-anchor="start" x="105" y="-1153.9" font-family="Arial" font-size="14.00" fill="#000000">namespace_name    </text>
<text text-anchor="start" x="254.352" y="-1153.9" font-family="Arial" font-size="14.00" fill="#666666">[varchar]</text>
<polygon fill="none" stroke="#000000" points="98,-1112.5 98,-1142.5 401,-1142.5 401,-1112.5 98,-1112.5"/>
<text text-anchor="start" x="105" y="-1123.9" font-family="Arial" font-size="14.00" fill="#000000">job_name    </text>
<text text-anchor="start" x="200.6676" y="-1123.9" font-family="Arial" font-size="14.00" fill="#666666">[varchar]</text>
</g>
<!-- public.job_versions&#45;&gt;public.jobs -->
<g id="edge3" class="edge">
<title>public.job_versions:job_uuid&#45;&gt;public.jobs:uuid</title>
<path fill="none" stroke="#000000" d="M410.8593,-1335.195C457.0946,-1311.7933 430.982,-1117.1145 401,-1070 380.718,-1038.1283 344.282,-1065.8717 324,-1034 300.974,-997.8163 281.1111,-937.5 324,-937.5"/>
<polygon fill="#000000" stroke="#000000" points="410.7374,-1335.2234 399.9755,-1333.1182 405.8687,-1336.3617 401,-1337.5 401,-1337.5 401,-1337.5 405.8687,-1336.3617 402.0245,-1341.8818 410.7374,-1335.2234 410.7374,-1335.2234"/>
<text text-anchor="start" x="408.3265" y="-1347.5" font-family="Arial" font-size="10.00" fill="#000000">FOREIGN KEY (job_uuid) REFERENCES jobs(uuid)</text>
</g>
<!-- public.job_facets -->
<g id="node3" class="node">
<title>public.job_facets</title>
<polygon fill="#efefef" stroke="transparent" points="505,-1382.5 505,-1417.5 840,-1417.5 840,-1382.5 505,-1382.5"/>
<polygon fill="none" stroke="#000000" points="505,-1382.5 505,-1417.5 840,-1417.5 840,-1382.5 505,-1382.5"/>
<text text-anchor="start" x="541.6966" y="-1395.3" font-family="Arial Bold" font-size="18.00" fill="#000000">public.job_facets</text>
<text text-anchor="start" x="675.7354" y="-1395.3" font-family="Arial" font-size="14.00" fill="#000000">    </text>
<text text-anchor="start" x="709.9402" y="-1395.3" font-family="Arial" font-size="14.00" fill="#666666">[BASE TABLE]</text>
<polygon fill="none" stroke="#000000" points="505,-1352.5 505,-1382.5 840,-1382.5 840,-1352.5 505,-1352.5"/>
<text text-anchor="start" x="512" y="-1363.9" font-family="Arial" font-size="14.00" fill="#000000">created_at    </text>
<text text-anchor="start" x="612.3422" y="-1363.9" font-family="Arial" font-size="14.00" fill="#666666">[timestamp with time zone]</text>
<polygon fill="none" stroke="#000000" points="505,-1322.5 505,-1352.5 840,-1352.5 840,-1322.5 505,-1322.5"/>
<text text-anchor="start" x="512" y="-1333.9" font-family="Arial" font-size="14.00" fill="#000000">job_uuid    </text>
<text text-anchor="start" x="599.1136" y="-1333.9" font-family="Arial" font-size="14.00" fill="#666666">[uuid]</text>
<polygon fill="none" stroke="#000000" points="505,-1292.5 505,-1322.5 840,-1322.5 840,-1292.5 505,-1292.5"/>
<text text-anchor="start" x="512" y="-1303.9" font-family="Arial" font-size="14.00" fill="#000000">run_uuid    </text>
<text text-anchor="start" x="600.6676" y="-1303.9" font-family="Arial" font-size="14.00" fill="#666666">[uuid]</text>
<polygon fill="none" stroke="#000000" points="505,-1262.5 505,-1292.5 840,-1292.5 840,-1262.5 505,-1262.5"/>
<text text-anchor="start" x="511.8703" y="-1273.9" font-family="Arial" font-size="14.00" fill="#000000">lineage_event_time    </text>
<text text-anchor="start" x="667.4453" y="-1273.9" font-family="Arial" font-size="14.00" fill="#666666">[timestamp with time zone]</text>
<polygon fill="none" stroke="#000000" points="505,-1232.5 505,-1262.5 840,-1262.5 840,-1232.5 505,-1232.5"/>
<text text-anchor="start" x="512" y="-1243.9" font-family="Arial" font-size="14.00" fill="#000000">lineage_event_type    </text>
<text text-anchor="start" x="667.5904" y="-1243.9" font-family="Arial" font-size="14.00" fill="#666666">[varchar(64)]</text>
<polygon fill="none" stroke="#000000" points="505,-1202.5 505,-1232.5 840,-1232.5 840,-1202.5 505,-1202.5"/>
<text text-anchor="start" x="512" y="-1213.9" font-family="Arial" font-size="14.00" fill="#000000">name    </text>
<text text-anchor="start" x="581.2132" y="-1213.9" font-family="Arial" font-size="14.00" fill="#666666">[varchar(255)]</text>
<polygon fill="none" stroke="#000000" points="505,-1172.5 505,-1202.5 840,-1202.5 840,-1172.5 505,-1172.5"/>
<text text-anchor="start" x="512" y="-1183.9" font-family="Arial" font-size="14.00" fill="#000000">facet    </text>
<text text-anchor="start" x="576.5512" y="-1183.9" font-family="Arial" font-size="14.00" fill="#666666">[jsonb]</text>
</g>
<!-- public.job_facets&#45;&gt;public.jobs -->
<g id="edge4" class="edge">
<title>public.job_facets:job_uuid&#45;&gt;public.jobs:uuid</title>
<path fill="none" stroke="#000000" d="M494.8693,-1336.9513C417.2606,-1328.0299 471.9594,-1212.2301 505,-1130 527.0331,-1075.1649 574.9669,-1088.8351 597,-1034 612.9905,-994.2035 639.8889,-937.5 597,-937.5"/>
<polygon fill="#000000" stroke="#000000" points="495.0146,-1336.9591 504.7566,-1341.9934 500.0073,-1337.2295 505,-1337.5 505,-1337.5 505,-1337.5 500.0073,-1337.2295 505.2434,-1333.0066 495.0146,-1336.9591 495.0146,-1336.9591"/>
<text text-anchor="start" x="450.5765" y="-1321.5" font-family="Arial" font-size="10.00" fill="#000000">FOREIGN KEY (job_uuid) REFERENCES jobs(uuid)</text>
</g>
</g>
</svg>
